<svg xmlns="http://www.w3.org/2000/svg" viewBox="0 0 280 80">
  <defs>
    <linearGradient id="g1" x1="0%" y1="0%" x2="100%" y2="100%">
      <stop offset="0%" style="stop-color:#1e3a5f"/>
      <stop offset="100%" style="stop-color:#2563eb"/>
    </linearGradient>
  </defs>
  <!-- Shield shape -->
  <path d="M10 8 L50 2 L90 8 L90 42 C90 62 50 78 50 78 C50 78 10 62 10 42 Z" fill="url(#g1)" stroke="#1e3a5f" stroke-width="1.5"/>
  <!-- Inner shield highlight -->
  <path d="M18 14 L50 9 L82 14 L82 40 C82 56 50 70 50 70 C50 70 18 56 18 40 Z" fill="none" stroke="rgba(255,255,255,0.3)" stroke-width="0.8"/>
  <!-- Star -->
  <polygon points="50,16 54,28 66,28 56,35 60,47 50,40 40,47 44,35 34,28 46,28" fill="white" opacity="0.95"/>
  <!-- NSA text -->
  <text x="108" y="38" font-family="'Inter','Segoe UI',Helvetica,Arial,sans-serif" font-size="38" font-weight="900" fill="#1e3a5f" letter-spacing="-1">NSA</text>
  <!-- Full name -->
  <text x="108" y="56" font-family="'Inter','Segoe UI',Helvetica,Arial,sans-serif" font-size="11" font-weight="600" fill="#64748b" letter-spacing="2.5">NATIONAL SPORTS APPAREL</text>
  <!-- Accent line -->
  <line x1="108" y1="63" x2="270" y2="63" stroke="#2563eb" stroke-width="2" opacity="0.4"/>
  <!-- Tagline -->
  <text x="108" y="74" font-family="'Inter','Segoe UI',Helvetica,Arial,sans-serif" font-size="8.5" fill="#94a3b8" letter-spacing="1">TEAM OUTFITTERS · SAN DIEGO, CA</text>
</svg>