<svg xmlns="http://www.w3.org/2000/svg" viewBox="0 0 640 720" role="img" aria-labelledby="title desc">
  <title id="title">4R3CHB reversible basketball jersey</title>
  <desc id="desc">Navy Side A and white Side B sleeveless basketball jerseys shown together.</desc>
  <defs>
    <linearGradient id="navy" x1="0" y1="0" x2="1" y2="1"><stop stop-color="#2c4177"/><stop offset=".48" stop-color="#192853"/><stop offset="1" stop-color="#0b142e"/></linearGradient>
    <linearGradient id="white" x1="0" y1="0" x2="1" y2="1"><stop stop-color="#fff"/><stop offset=".58" stop-color="#edf0f4"/><stop offset="1" stop-color="#c7ced8"/></linearGradient>
    <pattern id="knit" width="8" height="8" patternUnits="userSpaceOnUse"><path d="M0 4h8M4 0v8" stroke="#fff" stroke-opacity=".045"/></pattern>
    <filter id="shadow" x="-30%" y="-20%" width="160%" height="160%"><feDropShadow dy="15" stdDeviation="14" flood-color="#111827" flood-opacity=".22"/></filter>
    <path id="tank" d="M248 110l28-14q44 31 88 0l28 14c5 40 33 65 72 84l-38 105c-27-16-44-37-51-65l15 374q-70 28-140 0l15-374c-7 28-24 49-51 65l-38-105c39-19 67-44 72-84z"/>
  </defs>
  <g transform="translate(84 15) scale(.92)" filter="url(#shadow)">
    <use href="#tank" fill="url(#white)" stroke="#192853" stroke-width="9"/>
    <path d="M275 100q45 48 90 0" fill="none" stroke="#192853" stroke-width="18"/>
    <path d="M251 111c4 65-10 101-38 141M389 111c-4 65 10 101 38 141" fill="none" stroke="#192853" stroke-width="18"/>
    <path d="M251 111c4 65-10 101-38 141M389 111c-4 65 10 101 38 141" fill="none" stroke="#962c32" stroke-width="7"/>
    <text x="320" y="410" text-anchor="middle" font-family="Arial Black,Arial,sans-serif" font-size="122" font-weight="900" fill="#192853">23</text>
  </g>
  <g transform="translate(-92 52) scale(.92)" filter="url(#shadow)">
    <use href="#tank" fill="url(#navy)" stroke="#962c32" stroke-width="9"/>
    <use href="#tank" fill="url(#knit)"/>
    <path d="M275 100q45 48 90 0" fill="none" stroke="#962c32" stroke-width="18"/>
    <path d="M251 111c4 65-10 101-38 141M389 111c-4 65 10 101 38 141" fill="none" stroke="#962c32" stroke-width="18"/>
    <text x="320" y="410" text-anchor="middle" font-family="Arial Black,Arial,sans-serif" font-size="122" font-weight="900" fill="#fff">23</text>
  </g>
  <g font-family="Arial,Helvetica,sans-serif" font-weight="700" font-size="21" letter-spacing="3" fill="#192853"><text x="156" y="676" text-anchor="middle">SIDE A</text><text x="484" y="676" text-anchor="middle">SIDE B</text></g>
</svg>
