<?xml version="1.0" encoding="utf-8"?>
<svg version="1.1"
	 xmlns="http://www.w3.org/2000/svg" xmlns:xlink="http://www.w3.org/1999/xlink" x="0px" y="0px" width="1043.76px"
	 height="693.41px" viewBox="0 0 1043.76 693.41" enable-background="new 0 0 1043.76 693.41" xml:space="preserve">>
<g id="id:argyle" display="inline">

				<path id="id:SUB_FIRST_BODY_COLOR_00000060009391473284327780000004658763517569238439_" display="inline" fill="#005B9B" d="
				M382.35,447.8l-0.76,106.31l2.11,2.14l-2.14,2.11l-0.72,100.77l-0.07,9.28l-11.3-0.01l-163.54-0.08l-163.54,0.02l-11.3,0
				l-0.06-9.33l-0.69-100.73l-2.14-2.11l2.11-2.14l-0.72-106.31l-2.14-2.11l2.11-2.14l-0.72-106.31l-2.14-2.11l2.11-2.14
				l-0.64-93.83l-0.02-2.24l5.42-4.91l0.92-0.83l1.81-1.78l1.43-1.58l0.98-1.25l2.85-4.23l0.67-1.23l1.73-3.36l1.59-3.38l0.03-0.07
				l1.44-3.38l1.24-3.21l1.03-3.03l0.87-2.94l0.76-3.02l1.12-5.52l0.64-3.79l0.56-3.89l0.47-3.98l0.46-4.81l0.37-4.97l0.26-4.84
				l0.16-4.87l-0.05-5.53l-0.18-5.69l-0.3-5.75l-0.41-5.63l-0.72-7.76l-0.84-7.69l-0.95-7.61l-1.06-7.49l-1.84-8.86l-2.09-9.15
				l-1.84-7.29l-2.03-7.23l-2.19-6.45l-3.78-11.13l8.81-3l88.42-30.12l6.22-2.12l5.04,8.23l0.04,0.06l3.69,6.02l0.04,0.06l2.91,4.3
				l3.13,4.17l0.05,0.06l2.65,3.16l2.91,3.07l1.2,1.15l0.06,0.05l1.18,1l1.29,0.98l1.37,0.92l2.02,1.21l1.99,1.07l2.09,1.01
				l1.95,0.83l2.27,0.7l2.67,0.73l2.69,0.64l2.69,0.55l1.91,0.32l0.08,0.01l1.82,0.22l1.78,0.14l10.55,0.04l3.7,0.01l2.13-2.13
				l2.13,2.13l3.85-0.01l10.46-0.03l1.78-0.14l1.91-0.23l1.91-0.31l2.69-0.55l2.69-0.64l2.67-0.73l2.36-0.73l1.87-0.8l2.09-1.01
				l2.07-1.11l1.94-1.16l1.37-0.92l1.29-0.98l1.25-1.06l1.19-1.14l2.91-3.06l2.71-3.23l3.12-4.16l2.96-4.37l3.72-6.06l5.04-8.23
				l6.21,2.12l88.41,30.15l8.81,3.01l-3.81,11.19l-2.2,6.47l-2,7.14l-1.87,7.38l-2.08,9.06l-1.86,8.95l-1.04,7.4l-0.96,7.7
				l-0.84,7.69l-0.71,7.66l-0.42,5.72l-0.3,5.66l-0.18,5.69l-0.06,5.62l0.16,4.78l0.26,4.93l0.36,4.87l0.47,4.91l0.46,3.89
				l0.56,3.89l0.66,3.88l1.1,5.43l0.76,3.02l0.89,3.03l1,2.94l1.24,3.21l1.48,3.46l1.58,3.37l1.72,3.36l0.72,1.31l2.81,4.15
				l1.04,1.32l1.37,1.51l1.81,1.78l0.96,0.87l5.37,4.87l-0.02,2.24l-0.67,93.83l2.11,2.14l-2.14,2.11l-0.76,106.31l2.11,2.14
				L382.35,447.8z M942.81,432.45l-2.11-2.14L941.37,324l2.14-2.11l-2.11-2.14l0.59-93.83l0.02-3.92l-0.23-0.11l-2.7-1.49l-2.5-1.64
				l-5.89-4.68l-5.53,4.29l-0.4,0.31l-2.52,1.61l-2.72,1.46l-3.31,1.48l-3.45,1.27l-1.58,0.48l-1.67,0.43l-1.7,0.36l-1.74,0.3
				l-3.49,0.48l-3.54,0.41l-3.55,0.33l-3.36,0.23l-1.17,0l-1.4-0.01l-5.24-0.43l-5.34-0.63l-3.39-0.56l-3.24-0.72l-4.93-1.45
				l-4.91-1.7l-3.29-1.35l-3.24-1.58l-3.35-1.83l-3.17-1.99l-3.06-2.18l-2.62-2.12l-2.01-2.17l-2.23-2.61l-2.12-2.71l-2.01-2.81
				l-2.28-3.47l-2.17-3.56l-2.04-3.64l-1.77-3.43l-0.87-2.22l-0.85-2.5l-0.73-2.54l-0.61-2.6l-0.73-3.77l-0.6-3.82l-0.47-3.84
				l-0.32-3.73l-0.11-3.99l0.02-4.13l0.14-4.12l0.27-4.12l0.39-4.07l0.52-4.08l0.64-4.03l2.46-12.51l1.26-5.32l1.43-5.33l1.76-5.89
				l2.09-6.43l2.25-6.38l2.41-6.35l1.27-3.16l0.05-0.12l0.05-0.12l2.93-7.95l4.07-11.03l-8.63-3.28l-87.36-33.16l-6.29-2.39
				l-6.4,10.04l-0.26,2.15l-4.75,38.68l-0.59,4.82l-0.72,4.72l-0.82,4.76l-0.9,4.73l-0.68,3.19l-0.75,3.16l-0.82,3.09l-0.96,3.17
				l-0.79,2.61l-0.86,2.38l-0.98,2.4l-1.06,2.33l-0.9,1.76l-0.97,1.69l-1.06,1.63l-1.08,1.5l-0.95,1.14l-1.07,1.17l-1.12,1.12
				l-1.16,1.06l-1,0.83l-1.01,0.75l-1.05,0.69l-2.2,1.29l-1.92,0.93l-0.73,0.29l-2.52,0.82l-2.61,0.61l-3.13,0.54l-3.23,0.4
				l-4.47,0.35l-3.98,0.17l-2.09-2.16l-2.16,2.09l-2.26-0.09l-4.47-0.35l-3.23-0.39l-3.13-0.54l-2.61-0.61l-2.52-0.82l-0.73-0.29
				l-1.92-0.93l-2.2-1.29l-1.05-0.69l-1.01-0.75l-1-0.83l-1.16-1.06l-1.12-1.12l-1.07-1.17l-0.95-1.14l-1.08-1.5l-1.06-1.63
				l-0.97-1.69l-0.9-1.76l-1.06-2.33l-0.98-2.4l-0.86-2.38l-0.79-2.61l-0.96-3.17l-0.82-3.09l-0.75-3.16l-0.68-3.19l-0.9-4.73
				l-0.82-4.76l-0.72-4.72l-0.59-4.82l-4.76-38.68l-0.26-2.15l-6.4-10.04l-6.29,2.39L532.4,59.2l-8.63,3.28l4.07,11.02l2.94,7.95
				l0.04,0.12l0.05,0.13l1.27,3.16l2.41,6.35l2.25,6.38l2.09,6.42l1.77,5.89l1.43,5.33l1.26,5.32l2.46,12.51l0.65,4.03l0.52,4.08
				l0.4,4.08l0.27,4.12l0.14,4.12l0.02,4.13l-0.11,3.99l-0.32,3.73l-0.47,3.84l-0.6,3.82l-0.73,3.76l-0.61,2.6l-0.73,2.54l-0.85,2.5
				l-0.87,2.22l-1.77,3.44l-2.04,3.64l-2.17,3.56l-2.28,3.47l-2.01,2.81l-2.11,2.71l-2.22,2.61l-2.01,2.17l-2.62,2.12l-3.05,2.18
				l-3.18,1.99l-3.35,1.83l-3.24,1.59l-3.28,1.35l-4.91,1.7l-4.93,1.45l-3.24,0.72l-3.39,0.56l-5.34,0.64l-5.24,0.43l-1.32,0.01
				l-1.25,0l-3.36-0.23l-3.55-0.32l-3.54-0.4l-3.49-0.48l-1.74-0.3l-1.69-0.36l-1.67-0.43l-1.58-0.48l-3.45-1.27l-3.31-1.48
				l-2.72-1.46l-2.52-1.61l-0.4-0.31l-5.54-4.29l-5.88,4.68l-2.5,1.64l-2.7,1.49l-0.23,0.11l0.03,3.92l0.62,93.83l-2.11,2.14
				l2.14,2.11l0.71,106.31l-2.11,2.14l2.14,2.11l0.71,106.31l-2.11,2.14l2.14,2.11l0.67,100.77l0.06,9.28h11.3h243.06l243.07-0.09
				l11.3,0l0.06-9.28l0.63-100.78l2.14-2.11l-2.11-2.14l0.67-106.31L942.81,432.45z"/>

				<path id="id:SUB_FIRST_ACCENT_1_00000042701732087940048810000014263679683397296312_" display="inline" fill="#68737A" d="
				M483.42,328.44l0.06,0.05l13.24-12.97l12.5,12.25l-13.24,12.97l-12.5-12.25l-0.06,0.05l-12.47,12.22l-13.26-12.96l12.52-12.27
				L483.42,328.44z M470.21,419.86l-12.52,12.27l13.26,12.95l12.47-12.22l0.06-0.05l12.5,12.25l13.24-12.98l-12.5-12.25
				l-13.24,12.97l-0.06-0.05L470.21,419.86z M496.71,628.48l-13.24,12.97l-0.06-0.05l-13.19-12.92l-12.55,12.3l13.27,12.96
				l12.47-12.22l0.06-0.05l12.49,12.24l13.25-12.98L496.71,628.48z M470.21,524.19l-12.53,12.28l13.26,12.95l12.47-12.22l0.06-0.05
				l12.5,12.26l13.24-12.97l-12.5-12.26l-13.24,12.97l-0.06-0.04L470.21,524.19z M495.97,236.44l13.25-12.98l-1.59-1.56l-0.44,0.18
				l-4.91,1.7l-4.93,1.45l-3.24,0.72l-3.39,0.56l-4.36,0.52L495.97,236.44L495.97,236.44z M470.97,236.43l9.04-8.86l-1.2,0.01
				l-1.25,0l-3.36-0.23l-3.55-0.32l-3.54-0.4l-3.49-0.48l-1.74-0.3l-1.69-0.36l-0.64-0.16l11.41,11.14L470.97,236.43z
				 M510.47,220.72l1.96-0.96v18.22v417.28h-0.04l-2.27,0l-12.58-0.01l-0.7-0.69l13.67-13.39l0.18-0.2v-0.51l-13.11-12.84
				l12.5-12.25v-0.01l-12.99-12.73l2.23-2.18c0.37-0.37,0.38-0.97,0.01-1.34c-0.37-0.37-0.97-0.38-1.34-0.01l-2.25,2.21
				l-12.26-12.01l-0.06,0.05l-26.56,26.03l-0.04-0.04v0.08l0.04-0.04l12.51,12.26l-13.42,13.15l14.14,13.81l-0.67,0.65l-13.46-0.01
				l-0.32-225.01l-0.27-192.27l0.02-13.96l1.55,0.57l0.16,0.05l12.99,12.69l-0.69,0.65h0l-12.54,12.29l-0.04-0.04v0.09l0.04-0.04
				l26.56,26.03l0.06,0.05l-0.06,0.05l-26.6,26.07l12.53,12.23l-13.4,13.12l14.13,13.81l-13.26,13l26.6,25.99l0.06,0.05l-0.06,0.05
				l-26.6,26.08l12.53,12.24l-13.4,13.13l14.13,13.8l-13.26,13l26.6,25.99l0.06,0.05l-0.06,0.05l-26.6,26.07l12.53,12.24
				l-13.4,13.13l14.13,13.8l-13.26,13l26.6,25.99l0.06,0.05l12.99-12.73c0.18,0.17,0.42,0.26,0.65,0.26c0.25,0,0.49-0.1,0.68-0.29
				c0.35-0.36,0.36-0.93,0.02-1.3l12.26-12.01v-0.01l-13.23-12.97l13.66-13.38l0.18-0.19v-0.51l-13.11-12.85l12.5-12.25v-0.01
				l-12.99-12.73l2.23-2.18c0.37-0.37,0.38-0.97,0.01-1.34c-0.37-0.37-0.97-0.38-1.34-0.01l-2.25,2.21l-12.26-12.01l13-12.74
				c0.18,0.17,0.42,0.26,0.65,0.26c0.25,0,0.49-0.1,0.68-0.29c0.35-0.36,0.36-0.93,0.02-1.3l12.26-12.01v-0.02l-13.23-12.97
				l13.66-13.39l0.18-0.2v-0.51l-13.11-12.84l12.5-12.25v-0.01L497.09,394l2.23-2.18c0.37-0.37,0.38-0.97,0.01-1.34
				c-0.37-0.37-0.97-0.38-1.34-0.01l-2.25,2.21l-12.26-12.01l12.99-12.74c0.18,0.17,0.41,0.26,0.65,0.26c0.25,0,0.49-0.1,0.68-0.28
				c0.35-0.36,0.36-0.93,0.03-1.3l12.26-12.01v-0.01l-13.23-12.97l13.66-13.39l0.18-0.19v-0.51l-13.11-12.85l12.5-12.25v-0.01
				l-12.99-12.73l2.23-2.18c0.37-0.37,0.38-0.97,0.01-1.34s-0.97-0.38-1.34-0.01l-2.25,2.21l-12.26-12.02l12.99-12.74
				c0.18,0.17,0.42,0.26,0.65,0.26c0.25,0,0.49-0.1,0.68-0.29c0.35-0.36,0.36-0.93,0.02-1.3l12.26-12.01v-0.01l-12.52-12.27
				l-0.72-0.68l13.67-13.39l0.18-0.2v0v-0.51l-1.84-1.8L510.47,220.72z M455.86,484.29L455.86,484.29
				C455.86,484.29,455.86,484.29,455.86,484.29L455.86,484.29C455.86,484.29,455.86,484.3,455.86,484.29
				C455.86,484.3,455.86,484.3,455.86,484.29C455.86,484.3,455.86,484.3,455.86,484.29L455.86,484.29
				C455.86,484.3,455.86,484.3,455.86,484.29C455.86,484.3,455.86,484.3,455.86,484.29C455.86,484.3,455.86,484.3,455.86,484.29
				c0,0.15,0.03,0.29,0.09,0.41c0,0,0,0,0,0l0,0c0.05,0.1,0.11,0.19,0.19,0.27c0,0,0,0,0,0l0,0l0,0l0,0l8.71,8.51
				c0.18,0.18,0.42,0.27,0.66,0.27c0.25,0,0.49-0.1,0.68-0.29c0.37-0.38,0.36-0.98-0.02-1.34l-8.02-7.83l6.52-6.39
				c0.37-0.37,0.38-0.97,0.01-1.34c-0.37-0.37-0.97-0.38-1.34-0.01l-7.21,7.06c0,0,0,0,0,0c0,0,0,0,0,0c0,0,0,0,0,0
				c-0.08,0.08-0.15,0.17-0.19,0.27c0,0,0,0,0,0c0,0,0,0,0,0C455.89,484.02,455.86,484.16,455.86,484.29z M455.86,379.97
				L455.86,379.97C455.86,379.97,455.86,379.97,455.86,379.97C455.86,379.97,455.86,379.97,455.86,379.97
				C455.86,379.97,455.86,379.97,455.86,379.97C455.86,379.97,455.86,379.97,455.86,379.97
				C455.86,379.97,455.86,379.97,455.86,379.97C455.86,379.97,455.86,379.97,455.86,379.97L455.86,379.97
				C455.86,379.97,455.86,379.97,455.86,379.97C455.86,379.98,455.86,379.98,455.86,379.97L455.86,379.97c0,0.16,0.03,0.31,0.1,0.44
				c0,0,0,0,0,0l0,0c0.04,0.08,0.09,0.16,0.16,0.22c0,0,0,0,0,0c0,0,0,0,0,0c0,0,0,0,0,0c0.01,0.01,0.01,0.01,0.02,0.02l8.71,8.51
				c0.18,0.18,0.42,0.27,0.66,0.27c0.25,0,0.49-0.1,0.68-0.29c0.37-0.38,0.36-0.98-0.02-1.34l-8.02-7.83l6.52-6.39
				c0.37-0.37,0.38-0.97,0.01-1.34c-0.37-0.37-0.97-0.38-1.34-0.01l-7.21,7.06c0,0,0,0-0.01,0.01c0,0,0,0,0,0l0,0
				c-0.08,0.08-0.15,0.17-0.19,0.27v0c0,0,0,0,0,0C455.89,379.7,455.86,379.83,455.86,379.97z M456.15,274.97
				C456.15,274.98,456.14,274.98,456.15,274.97C456.14,274.98,456.14,274.98,456.15,274.97
				C456.14,274.98,456.14,274.98,456.15,274.97c-0.09,0.09-0.15,0.17-0.19,0.27l0,0c0,0,0,0,0,0c-0.06,0.13-0.09,0.27-0.09,0.42
				c0,0,0,0,0,0c0,0,0,0,0,0v0v0c0,0,0,0,0,0v0c0,0,0,0,0,0l0,0c0,0.13,0.03,0.26,0.09,0.38c0,0,0,0,0,0c0,0,0,0,0,0
				c0.05,0.1,0.11,0.2,0.2,0.28c0,0,0,0,0,0l0,0l0,0l0,0l8.71,8.51c0.18,0.18,0.42,0.27,0.66,0.27c0.25,0,0.49-0.1,0.68-0.29
				c0.37-0.38,0.36-0.98-0.02-1.34l-8.02-7.83l6.52-6.39c0.37-0.37,0.38-0.97,0.01-1.34c-0.37-0.37-0.97-0.38-1.34-0.01
				L456.15,274.97z M466.19,596.46l-8.02-7.83l6.51-6.38c0.37-0.37,0.38-0.97,0.01-1.34c-0.37-0.37-0.97-0.38-1.34-0.01l-7.21,7.06
				c-0.18,0.18-0.29,0.42-0.29,0.68c0,0.26,0.1,0.5,0.29,0.68l8.71,8.51c0.18,0.18,0.42,0.27,0.66,0.27c0.25,0,0.49-0.1,0.68-0.29
				C466.57,597.42,466.56,596.82,466.19,596.46z M511.03,588.57c0-0.26-0.1-0.5-0.29-0.68l-5.11-5.01
				c-0.37-0.37-0.98-0.36-1.34,0.01c-0.37,0.37-0.36,0.98,0.01,1.34l4.43,4.34l-2.89,2.83c-0.37,0.37-0.38,0.97-0.01,1.34
				c0.19,0.19,0.43,0.29,0.68,0.29c0.24,0,0.48-0.09,0.67-0.27l3.58-3.51C510.93,589.08,511.03,588.83,511.03,588.57z
				 M511.03,484.25c0-0.26-0.1-0.5-0.29-0.68l-5.11-5.01c-0.37-0.37-0.98-0.36-1.34,0.01s-0.36,0.98,0.01,1.34l4.42,4.34l-2.89,2.84
				c-0.37,0.37-0.38,0.97-0.01,1.34c0.19,0.19,0.43,0.29,0.68,0.29c0.24,0,0.48-0.09,0.67-0.27l3.58-3.51
				C510.93,484.76,511.03,484.51,511.03,484.25z M511.03,379.93c0-0.26-0.1-0.5-0.29-0.68l-5.11-5.01
				c-0.38-0.37-0.98-0.36-1.34,0.01c-0.37,0.37-0.36,0.98,0.01,1.34l4.43,4.34l-2.89,2.83c-0.37,0.37-0.38,0.97-0.01,1.34
				c0.19,0.19,0.43,0.29,0.68,0.29c0.24,0,0.48-0.09,0.66-0.27l3.58-3.51C510.93,380.44,511.03,380.19,511.03,379.93z
				 M511.03,275.61c0-0.26-0.1-0.5-0.29-0.68l-5.11-5.01c-0.37-0.37-0.98-0.36-1.34,0.01s-0.36,0.98,0.01,1.34l4.42,4.34l-2.89,2.84
				c-0.37,0.37-0.38,0.97-0.01,1.34c0.19,0.19,0.43,0.29,0.68,0.29c0.24,0,0.48-0.09,0.67-0.27l3.58-3.51
				C510.93,276.12,511.03,275.86,511.03,275.61z M860.51,536.42l13.24,12.97l12.5-12.26l0.06,0.05l12.47,12.22l13.26-12.95
				l-12.53-12.28l-13.21,12.9l-0.06,0.04l-13.24-12.97L860.51,536.42z M860.51,432.09l13.24,12.98l12.5-12.25l0.06,0.05l12.47,12.22
				l13.26-12.95l-12.52-12.27l-13.21,12.9l-0.06,0.05l-13.24-12.97L860.51,432.09z M860.51,327.77l13.24,12.97l12.5-12.25l0.06,0.05
				l12.47,12.22l13.26-12.96l-12.52-12.27l-13.21,12.9l-0.06,0.05l-13.24-12.97L860.51,327.77z M899.5,628.49l-13.19,12.92
				l-0.06,0.05l-13.24-12.97l-12.51,12.26l13.25,12.98l12.49-12.24l0.06,0.05l12.47,12.22l13.27-12.96L899.5,628.49z M914.37,237.96
				l-0.27,192.27l-0.32,224.95l-13.52,0.01l-0.6-0.59l14.14-13.81l-13.42-13.15l12.51-12.26l0.04,0.04v-0.08l-0.04,0.04
				l-26.56-26.03l-0.06-0.05l-12.26,12.01l-2.25-2.21c-0.37-0.37-0.98-0.36-1.34,0.01c-0.37,0.37-0.36,0.98,0.01,1.34l2.23,2.18
				l-12.99,12.73v0.01l12.5,12.25l-13.11,12.84v0.51l0.18,0.2l13.67,13.39l-0.63,0.62l-14.96,0.01V237.98v-18.27l1.92,0.94l1.7,0.7
				l-1.88,1.84v0.51v0l0.18,0.2l13.67,13.39l-0.72,0.68l-12.52,12.27v0.01l12.26,12.01c-0.34,0.37-0.33,0.94,0.02,1.3
				c0.19,0.19,0.43,0.29,0.68,0.29c0.23,0,0.47-0.09,0.65-0.26l12.99,12.74l-12.26,12.02l-2.25-2.21c-0.37-0.37-0.98-0.36-1.34,0.01
				s-0.36,0.98,0.01,1.34l2.23,2.18l-12.99,12.73v0.01l12.5,12.25l-13.11,12.85v0.51l0.18,0.19l13.66,13.39l-13.23,12.97v0.01
				l12.26,12.01c-0.33,0.37-0.33,0.94,0.03,1.3c0.19,0.19,0.43,0.28,0.68,0.28c0.23,0,0.47-0.09,0.65-0.26l12.99,12.74l-12.26,12.01
				l-2.25-2.21c-0.37-0.37-0.98-0.36-1.34,0.01c-0.37,0.37-0.36,0.98,0.01,1.34l2.23,2.18l-12.99,12.73v0.01l12.5,12.25
				l-13.11,12.84v0.51l0.18,0.2l13.66,13.39l-13.23,12.97v0.02l12.26,12.01c-0.33,0.37-0.33,0.94,0.02,1.3
				c0.19,0.19,0.43,0.29,0.68,0.29c0.23,0,0.47-0.09,0.65-0.26l13,12.74l-12.26,12.01l-2.25-2.21c-0.37-0.37-0.98-0.36-1.34,0.01
				c-0.37,0.37-0.36,0.98,0.01,1.34l2.23,2.18l-12.99,12.73v0.01l12.5,12.25l-13.11,12.85v0.51l0.18,0.19l13.66,13.38l-13.23,12.97
				v0.01l12.26,12.01c-0.33,0.37-0.33,0.94,0.02,1.3c0.19,0.19,0.43,0.29,0.68,0.29c0.23,0,0.47-0.09,0.65-0.26l12.99,12.73
				l0.06-0.05l26.6-25.99l-13.26-13l14.13-13.8l-13.4-13.13l12.53-12.24l-26.6-26.07l-0.06-0.05l0.06-0.05l26.6-25.99l-13.26-13
				l14.13-13.8l-13.4-13.13l12.53-12.24l-26.6-26.08l-0.06-0.05l0.06-0.05l26.6-25.99l-13.26-13l14.13-13.81l-13.4-13.12
				l12.53-12.23l-26.6-26.07l-0.06-0.05l0.06-0.05l26.56-26.03l0.04,0.04v-0.09l-0.04,0.04l-12.54-12.29h0l-0.69-0.65l13.14-12.83
				l1.56-0.58L914.37,237.96z M858.98,483.57c-0.18,0.18-0.29,0.42-0.29,0.68s0.1,0.51,0.29,0.69l3.58,3.51
				c0.18,0.18,0.43,0.27,0.67,0.27c0.25,0,0.49-0.1,0.68-0.29c0.37-0.37,0.36-0.98-0.01-1.34l-2.89-2.84l4.42-4.34
				c0.37-0.37,0.38-0.97,0.01-1.34s-0.97-0.38-1.34-0.01L858.98,483.57z M858.98,379.25c-0.18,0.18-0.29,0.42-0.29,0.68
				s0.1,0.51,0.29,0.69l3.58,3.51c0.18,0.18,0.43,0.27,0.66,0.27c0.25,0,0.49-0.1,0.68-0.29c0.37-0.37,0.36-0.98-0.01-1.34
				l-2.89-2.83l4.43-4.34c0.37-0.37,0.38-0.97,0.01-1.34c-0.37-0.37-0.97-0.38-1.34-0.01L858.98,379.25z M858.98,274.93
				c-0.18,0.18-0.29,0.42-0.29,0.68s0.1,0.51,0.29,0.69l3.58,3.51c0.18,0.18,0.43,0.27,0.67,0.27c0.25,0,0.49-0.1,0.68-0.29
				c0.37-0.37,0.36-0.98-0.01-1.34l-2.89-2.84l4.42-4.34c0.37-0.37,0.38-0.97,0.01-1.34s-0.97-0.38-1.34-0.01L858.98,274.93z
				 M865.44,582.9c-0.37-0.37-0.97-0.38-1.34-0.01l-5.11,5.01c-0.18,0.18-0.29,0.42-0.29,0.68s0.1,0.51,0.29,0.69l3.58,3.51
				c0.18,0.18,0.43,0.27,0.67,0.27c0.25,0,0.49-0.1,0.68-0.29c0.37-0.37,0.36-0.98-0.01-1.34l-2.89-2.83l4.43-4.34
				C865.8,583.87,865.81,583.27,865.44,582.9z M913.87,588.62c0-0.26-0.1-0.5-0.29-0.68l-7.21-7.06c-0.37-0.37-0.98-0.36-1.34,0.01
				c-0.37,0.37-0.36,0.98,0.01,1.34l6.51,6.38l-8.02,7.83c-0.38,0.37-0.38,0.97-0.02,1.34c0.19,0.19,0.43,0.29,0.68,0.29
				c0.24,0,0.48-0.09,0.66-0.27l8.71-8.51C913.76,589.12,913.87,588.88,913.87,588.62z M913.87,484.29c0-0.13-0.03-0.27-0.09-0.39
				c0,0,0,0,0,0c0,0,0,0,0,0c-0.05-0.1-0.11-0.19-0.19-0.27c0,0,0,0,0,0c0,0,0,0,0,0c0,0,0,0,0,0l-7.21-7.06
				c-0.38-0.37-0.98-0.36-1.34,0.01c-0.37,0.37-0.36,0.98,0.01,1.34l6.52,6.39l-8.02,7.83c-0.38,0.37-0.38,0.97-0.02,1.34
				c0.19,0.19,0.43,0.29,0.68,0.29c0.24,0,0.48-0.09,0.66-0.27l8.71-8.51l0,0l0,0l0,0c0,0,0,0,0,0c0.08-0.08,0.15-0.17,0.19-0.27
				l0,0c0,0,0,0,0,0C913.83,484.58,913.86,484.44,913.87,484.29C913.87,484.3,913.87,484.3,913.87,484.29
				C913.87,484.3,913.87,484.3,913.87,484.29C913.87,484.3,913.87,484.3,913.87,484.29L913.87,484.29
				C913.87,484.3,913.87,484.3,913.87,484.29C913.87,484.3,913.87,484.3,913.87,484.29C913.87,484.3,913.87,484.29,913.87,484.29
				L913.87,484.29C913.87,484.29,913.87,484.29,913.87,484.29L913.87,484.29z M913.87,379.97
				C913.87,379.97,913.87,379.97,913.87,379.97C913.87,379.97,913.87,379.97,913.87,379.97
				C913.87,379.97,913.87,379.97,913.87,379.97L913.87,379.97c0-0.14-0.03-0.27-0.09-0.39c0,0,0,0,0,0v0
				c-0.05-0.1-0.11-0.19-0.19-0.27l0,0c0,0,0,0,0,0c0,0,0,0-0.01-0.01l-7.21-7.06c-0.37-0.37-0.98-0.36-1.34,0.01
				c-0.37,0.37-0.36,0.98,0.01,1.34l6.52,6.39l-8.02,7.83c-0.38,0.37-0.38,0.97-0.02,1.34c0.19,0.19,0.43,0.29,0.68,0.29
				c0.24,0,0.48-0.09,0.66-0.27l8.71-8.51c0.01-0.01,0.01-0.01,0.02-0.02c0,0,0,0,0,0c0,0,0,0,0,0c0,0,0,0,0,0
				c0.07-0.07,0.12-0.14,0.16-0.22l0,0c0,0,0,0,0,0C913.83,380.27,913.87,380.12,913.87,379.97L913.87,379.97
				C913.87,379.98,913.87,379.98,913.87,379.97C913.87,379.97,913.87,379.97,913.87,379.97L913.87,379.97
				C913.87,379.97,913.87,379.97,913.87,379.97C913.87,379.97,913.87,379.97,913.87,379.97
				C913.87,379.97,913.87,379.97,913.87,379.97z M913.87,275.66c0-0.14-0.03-0.28-0.09-0.42c0,0,0,0,0,0l0,0
				c-0.05-0.09-0.11-0.18-0.19-0.26c0,0,0,0,0,0c0,0,0,0,0,0c0,0,0,0-0.01-0.01l-7.21-7.06c-0.38-0.37-0.98-0.36-1.34,0.01
				c-0.37,0.37-0.36,0.98,0.01,1.34l6.52,6.39l-8.02,7.83c-0.38,0.37-0.38,0.97-0.02,1.34c0.19,0.19,0.43,0.29,0.68,0.29
				c0.24,0,0.48-0.09,0.66-0.27l8.71-8.51l0,0l0,0l0,0c0,0,0,0,0,0c0.08-0.08,0.15-0.18,0.2-0.28c0,0,0,0,0,0c0,0,0,0,0,0
				C913.83,275.93,913.86,275.8,913.87,275.66L913.87,275.66C913.87,275.67,913.87,275.67,913.87,275.66L913.87,275.66
				C913.87,275.67,913.87,275.67,913.87,275.66L913.87,275.66L913.87,275.66C913.87,275.66,913.87,275.66,913.87,275.66
				C913.87,275.66,913.87,275.66,913.87,275.66z M873.76,236.44L873.76,236.44l9.67-9.48l-4.46-0.53l-3.39-0.56l-3.24-0.72
				l-4.93-1.45l-4.91-1.7l-0.36-0.15l-1.63,1.6L873.76,236.44z M898.78,236.46l11.54-11.27l-0.81,0.21l-1.7,0.36l-1.74,0.3
				l-3.49,0.48l-3.54,0.41l-3.55,0.33l-3.36,0.23l-1.17,0l-1.33-0.01l9.12,8.94L898.78,236.46z"/>

				<path id="id:SUB_FIRST_ACCENT_2_00000089573155577328162810000005566776858748511922_" display="inline" fill="#F1582A" d="
				M455.96,380.41c-0.07-0.14-0.1-0.28-0.1-0.43v0c0,0,0,0,0,0c0,0,0,0,0,0v0c0,0,0,0,0,0c0,0,0,0,0,0c0,0,0,0,0,0c0,0,0,0,0,0
				c0,0,0,0,0,0c0,0,0,0,0,0v0c0-0.13,0.03-0.27,0.09-0.39c0,0,0,0,0,0v0c0.05-0.1,0.11-0.19,0.19-0.27l0,0c0,0,0,0,0,0
				c0,0,0,0,0.01-0.01l7.21-7.06c0.37-0.37,0.98-0.36,1.34,0.01c0.37,0.37,0.36,0.98-0.01,1.34l-6.52,6.39l8.02,7.83
				c0.38,0.37,0.38,0.97,0.02,1.34c-0.19,0.19-0.43,0.29-0.68,0.29c-0.24,0-0.48-0.09-0.66-0.27l-8.71-8.51
				c-0.01-0.01-0.01-0.01-0.02-0.02c0,0,0,0,0,0c0,0,0,0,0,0c0,0,0,0,0,0C456.06,380.57,456.01,380.49,455.96,380.41L455.96,380.41
				C455.97,380.41,455.96,380.41,455.96,380.41z M455.86,275.66C455.86,275.66,455.86,275.66,455.86,275.66L455.86,275.66
				L455.86,275.66C455.86,275.67,455.86,275.67,455.86,275.66L455.86,275.66C455.86,275.67,455.86,275.67,455.86,275.66
				L455.86,275.66c0,0.14,0.03,0.27,0.09,0.39c0,0,0,0,0,0c0,0,0,0,0,0c0.05,0.1,0.11,0.2,0.2,0.28c0,0,0,0,0,0l0,0l0,0l0,0
				l8.71,8.51c0.18,0.18,0.42,0.27,0.66,0.27c0.25,0,0.49-0.1,0.68-0.29c0.37-0.38,0.36-0.98-0.02-1.34l-8.02-7.83l6.52-6.39
				c0.37-0.37,0.38-0.97,0.01-1.34c-0.37-0.37-0.97-0.38-1.34-0.01l-7.21,7.06c0,0,0,0-0.01,0.01c0,0,0,0,0,0c0,0,0,0,0,0
				c-0.08,0.08-0.14,0.17-0.19,0.26l0,0c0,0,0,0,0,0C455.89,275.38,455.86,275.52,455.86,275.66
				C455.86,275.66,455.86,275.66,455.86,275.66C455.86,275.66,455.86,275.66,455.86,275.66z M505.63,582.88
				c-0.37-0.37-0.98-0.36-1.34,0.01c-0.37,0.37-0.36,0.98,0.01,1.34l4.43,4.34l-2.89,2.83c-0.37,0.37-0.38,0.97-0.01,1.34
				c0.19,0.19,0.43,0.29,0.68,0.29c0.24,0,0.48-0.09,0.67-0.27l3.58-3.51c0.18-0.18,0.29-0.43,0.29-0.69s-0.1-0.5-0.29-0.68
				L505.63,582.88z M489.95,609.26c0.24,0,0.48-0.09,0.67-0.27l6.47-6.34l2.23-2.18c0.37-0.37,0.38-0.97,0.01-1.34
				c-0.37-0.37-0.97-0.38-1.34-0.01l-2.25,2.21l-6.45,6.32c-0.37,0.37-0.38,0.97-0.01,1.34
				C489.46,609.16,489.71,609.26,489.95,609.26z M505.63,478.56c-0.37-0.37-0.98-0.36-1.34,0.01s-0.36,0.98,0.01,1.34l4.42,4.34
				l-2.89,2.84c-0.37,0.37-0.38,0.97-0.01,1.34c0.19,0.19,0.43,0.29,0.68,0.29c0.24,0,0.48-0.09,0.67-0.27l3.58-3.51
				c0.18-0.18,0.29-0.43,0.29-0.69s-0.1-0.5-0.29-0.68L505.63,478.56z M483.51,613.84l-0.42,0.35l-13.72,13.45l-13.42,13.15
				l14.14,13.81l0.67,0.65l1.74,0l-1.54-1.51l-13.27-12.96l12.55-12.3l13.24-12.98l13.24,12.98l12.51,12.26l-13.25,12.98l-1.57,1.54
				l1.74,0l0.7-0.69l13.67-13.39l0.18-0.2v-0.51l-13.11-12.84L483.51,613.84z M481.43,614.01c0.18,0.18,0.42,0.27,0.66,0.27
				c0.25,0,0.49-0.1,0.68-0.29c0.37-0.38,0.36-0.98-0.02-1.34l-8.71-8.51c-0.38-0.37-0.98-0.36-1.34,0.02
				c-0.37,0.38-0.36,0.98,0.02,1.34L481.43,614.01z M455.95,484.71L455.95,484.71c0.05,0.1,0.11,0.19,0.19,0.27c0,0,0,0,0,0l0,0l0,0
				l0,0l8.71,8.51c0.18,0.18,0.42,0.27,0.66,0.27c0.25,0,0.49-0.1,0.68-0.29c0.37-0.38,0.36-0.98-0.02-1.34l-8.02-7.83l6.52-6.39
				c0.37-0.37,0.38-0.97,0.01-1.34c-0.37-0.37-0.97-0.38-1.34-0.01l-7.21,7.06c0,0,0,0,0,0c0,0,0,0,0,0c0,0,0,0,0,0c0,0,0,0,0,0
				c-0.08,0.08-0.15,0.17-0.19,0.27c0,0,0,0,0,0c0,0,0,0,0,0c-0.06,0.12-0.09,0.26-0.09,0.39v0c0,0,0,0,0,0v0c0,0,0,0,0,0
				c0,0,0,0,0,0c0,0,0,0,0,0v0c0,0,0,0,0,0c0,0,0,0,0,0s0,0,0,0C455.86,484.44,455.89,484.58,455.95,484.71
				C455.95,484.71,455.95,484.71,455.95,484.71z M505.63,374.24c-0.38-0.37-0.98-0.36-1.34,0.01c-0.37,0.37-0.36,0.98,0.01,1.34
				l4.43,4.34l-2.89,2.83c-0.37,0.37-0.38,0.97-0.01,1.34c0.19,0.19,0.43,0.29,0.68,0.29c0.24,0,0.48-0.09,0.66-0.27l3.58-3.51
				c0.18-0.18,0.29-0.43,0.29-0.69s-0.1-0.5-0.29-0.68L505.63,374.24z M505.63,269.92c-0.37-0.37-0.98-0.36-1.34,0.01
				s-0.36,0.98,0.01,1.34l4.42,4.34l-2.89,2.84c-0.37,0.37-0.38,0.97-0.01,1.34c0.19,0.19,0.43,0.29,0.68,0.29
				c0.24,0,0.48-0.09,0.67-0.27l3.58-3.51c0.18-0.18,0.29-0.43,0.29-0.69s-0.1-0.5-0.29-0.68L505.63,269.92z M464.86,597.82
				c0.18,0.18,0.42,0.27,0.66,0.27c0.25,0,0.49-0.1,0.68-0.29c0.37-0.38,0.36-0.98-0.02-1.34l-8.02-7.83l6.51-6.38
				c0.37-0.37,0.38-0.97,0.01-1.34c-0.37-0.37-0.97-0.38-1.34-0.01l-7.21,7.06c-0.18,0.18-0.29,0.42-0.29,0.68
				c0,0.26,0.1,0.5,0.29,0.68L464.86,597.82z M472.71,499.82c-0.37,0.38-0.36,0.98,0.02,1.34l8.71,8.51
				c0.18,0.18,0.42,0.27,0.66,0.27c0.25,0,0.49-0.1,0.68-0.29c0.37-0.38,0.36-0.98-0.02-1.34l-8.71-8.51
				C473.67,499.44,473.07,499.45,472.71,499.82z M497.99,286.14l-2.25,2.21l-6.45,6.32c-0.37,0.37-0.38,0.97-0.01,1.34
				c0.19,0.19,0.43,0.28,0.68,0.28c0.24,0,0.48-0.09,0.66-0.27l6.47-6.35l2.23-2.18c0.37-0.37,0.38-0.97,0.01-1.34
				S498.36,285.77,497.99,286.14z M510.51,328.21l-13.66,13.39l-13.32,13.06l-0.53-0.42l-12.92-12.62l-14.13-13.81l13.4-13.12
				l13.75-13.47l0.42-0.35l14.07,13.79l13.11,12.85v0.51L510.51,328.21z M509.21,327.77l-12.5-12.25l-13.24-12.98l-13.26,13
				l-12.52,12.27l13.26,12.96L483.47,353l12.51-12.26L509.21,327.77z M497.99,494.78l-2.25,2.21l-6.45,6.32
				c-0.37,0.37-0.38,0.97-0.01,1.34c0.19,0.19,0.43,0.28,0.68,0.28c0.24,0,0.48-0.09,0.67-0.27l6.47-6.35l2.23-2.18
				c0.37-0.37,0.38-0.97,0.01-1.34C498.96,494.42,498.36,494.42,497.99,494.78z M496.47,263.6c0.18,0.17,0.42,0.26,0.65,0.26
				c0.25,0,0.49-0.1,0.68-0.29c0.35-0.36,0.36-0.93,0.02-1.3c-0.01-0.01-0.02-0.03-0.04-0.04l-8.7-8.53
				c-0.37-0.37-0.98-0.36-1.34,0.01c-0.37,0.37-0.36,0.98,0.01,1.34l8.7,8.53C496.46,263.59,496.46,263.59,496.47,263.6z
				 M472.71,291.18c-0.37,0.38-0.36,0.98,0.02,1.34l8.71,8.51c0.18,0.18,0.42,0.27,0.66,0.27c0.25,0,0.49-0.1,0.68-0.29
				c0.37-0.38,0.36-0.98-0.02-1.34l-8.71-8.51C473.67,290.8,473.07,290.8,472.71,291.18z M479.9,251.69l-8.7,8.53
				c-0.37,0.37-0.38,0.97-0.01,1.34c0.19,0.19,0.43,0.29,0.68,0.29c0.24,0,0.48-0.09,0.66-0.27l8.7-8.53
				c0.37-0.37,0.38-0.97,0.01-1.34C480.88,251.33,480.28,251.33,479.9,251.69z M510.51,432.54l-13.66,13.39l-13.35,13.09l-0.51-0.45
				l-12.92-12.62l-14.13-13.8l13.4-13.13l13.73-13.46l0.42-0.38l14.09,13.81l13.11,12.84v0.51L510.51,432.54z M509.22,432.09
				l-12.5-12.25l-13.24-12.98l-13.26,13l-12.52,12.27l13.26,12.95l12.53,12.24l12.51-12.26L509.22,432.09z M496.47,472.24
				c0.18,0.17,0.42,0.26,0.65,0.26c0.25,0,0.49-0.1,0.68-0.29c0.35-0.36,0.36-0.93,0.02-1.3c-0.01-0.01-0.02-0.03-0.04-0.05
				l-8.7-8.53c-0.37-0.37-0.98-0.36-1.34,0.01c-0.37,0.37-0.36,0.98,0.01,1.34l8.7,8.53C496.46,472.23,496.47,472.24,496.47,472.24z
				 M479.9,356.01l-8.7,8.53c-0.37,0.37-0.38,0.97-0.01,1.34c0.19,0.19,0.43,0.29,0.68,0.29c0.24,0,0.48-0.09,0.66-0.27l8.7-8.53
				c0.37-0.37,0.38-0.97,0.01-1.34C480.88,355.65,480.28,355.65,479.9,356.01z M497.99,390.46l-2.25,2.21l-6.45,6.32
				c-0.37,0.37-0.38,0.97-0.01,1.34c0.19,0.19,0.43,0.29,0.68,0.29c0.24,0,0.48-0.09,0.67-0.27l6.47-6.34l2.23-2.18
				c0.37-0.37,0.38-0.97,0.01-1.34C498.97,390.1,498.36,390.09,497.99,390.46z M472.71,395.5c-0.37,0.38-0.36,0.98,0.02,1.34
				l8.71,8.51c0.18,0.18,0.42,0.27,0.66,0.27c0.25,0,0.49-0.1,0.68-0.29c0.37-0.38,0.36-0.98-0.02-1.34l-8.71-8.51
				C473.67,395.12,473.07,395.13,472.71,395.5z M496.47,367.92c0.18,0.17,0.41,0.26,0.65,0.26c0.25,0,0.49-0.1,0.68-0.28
				c0.35-0.36,0.36-0.93,0.03-1.3c-0.01-0.02-0.02-0.03-0.04-0.05l-8.7-8.53c-0.37-0.37-0.98-0.36-1.34,0.01
				c-0.37,0.37-0.36,0.98,0.01,1.34l8.7,8.53C496.46,367.91,496.46,367.91,496.47,367.92z M496.47,576.56
				c0.18,0.17,0.42,0.26,0.65,0.26c0.25,0,0.49-0.1,0.68-0.29c0.35-0.36,0.36-0.93,0.02-1.3c-0.01-0.01-0.02-0.03-0.04-0.05
				l-8.7-8.53c-0.37-0.37-0.98-0.36-1.34,0.01c-0.37,0.37-0.36,0.98,0.01,1.34l8.7,8.53C496.46,576.55,496.46,576.56,496.47,576.56z
				 M479.9,460.34l-8.7,8.53c-0.37,0.37-0.38,0.97-0.01,1.34c0.19,0.19,0.43,0.29,0.68,0.29c0.24,0,0.48-0.09,0.67-0.27l8.7-8.53
				c0.37-0.37,0.38-0.97,0.01-1.34C480.88,459.98,480.28,459.97,479.9,460.34z M481.24,564.68c-0.37-0.37-0.97-0.38-1.34-0.01
				l-8.7,8.53c-0.37,0.37-0.38,0.97-0.01,1.34c0.19,0.19,0.43,0.28,0.68,0.28c0.24,0,0.48-0.09,0.67-0.27l8.7-8.53
				C481.6,565.65,481.61,565.05,481.24,564.68z M455.36,237.96l0.02-13.96l-1.9-0.7l-0.97-0.43v15.08v417.28l3.12,0l0.32,0
				l-0.32-225.01L455.36,237.96z M510.51,536.86l-13.66,13.38l-13.34,13.07l-0.52-0.43l-12.92-12.62l-14.13-13.8l13.4-13.13
				l13.73-13.46l0.42-0.38l14.09,13.81l13.11,12.85v0.51L510.51,536.86z M509.22,536.42l-12.5-12.26l-13.24-12.98l-13.26,13
				l-12.53,12.28l13.26,12.95l12.53,12.24l12.51-12.26L509.22,536.42z M470.79,237.97l12.19,11.95l0.53,0.42l12.61-12.36l0.71-0.69
				l13.67-13.39l0.18-0.2v0v-0.51l-1.84-1.8l-1.23,0.5l1.59,1.56l-13.25,12.98l0,0l-1.57,1.54l0,0l0,0l-10.92,10.71l-10.93-10.72
				l0,0l-1.56-1.53l-0.02,0.02l-11.41-11.14l-1.03-0.27l-1.42-0.43l12.99,12.69L470.79,237.97z M512.43,219.77v18.22v417.28l3.08,0
				V237.99v-19.83l-1.8,0.98L512.43,219.77z M862.56,488.45c0.18,0.18,0.43,0.27,0.67,0.27c0.25,0,0.49-0.1,0.68-0.29
				c0.37-0.37,0.36-0.98-0.01-1.34l-2.89-2.84l4.42-4.34c0.37-0.37,0.38-0.97,0.01-1.34s-0.97-0.38-1.34-0.01l-5.11,5.01
				c-0.18,0.18-0.29,0.42-0.29,0.68s0.1,0.51,0.29,0.69L862.56,488.45z M872.63,394l6.47,6.34c0.18,0.18,0.43,0.27,0.67,0.27
				c0.25,0,0.49-0.1,0.68-0.29c0.37-0.37,0.36-0.98-0.01-1.34l-6.45-6.32l-2.25-2.21c-0.37-0.37-0.98-0.36-1.34,0.01
				c-0.37,0.37-0.36,0.98,0.01,1.34L872.63,394z M886.95,301.02c0.19,0.19,0.43,0.29,0.68,0.29c0.24,0,0.48-0.09,0.66-0.27
				l8.71-8.51c0.38-0.37,0.38-0.97,0.02-1.34c-0.37-0.38-0.97-0.38-1.34-0.02l-8.71,8.51C886.59,300.04,886.58,300.64,886.95,301.02
				z M904.2,598.09c0.24,0,0.48-0.09,0.66-0.27l8.71-8.51c0.18-0.18,0.29-0.42,0.29-0.68c0-0.26-0.1-0.5-0.29-0.68l-7.21-7.06
				c-0.37-0.37-0.98-0.36-1.34,0.01c-0.37,0.37-0.36,0.98,0.01,1.34l6.51,6.38l-8.02,7.83c-0.38,0.37-0.38,0.97-0.02,1.34
				C903.71,597.99,903.95,598.09,904.2,598.09z M872.61,263.86c0.23,0,0.47-0.09,0.65-0.26c0,0,0.01-0.01,0.01-0.01l8.7-8.53
				c0.37-0.37,0.38-0.97,0.01-1.34c-0.37-0.38-0.97-0.38-1.34-0.01l-8.7,8.53c-0.01,0.01-0.02,0.03-0.04,0.04
				c-0.34,0.37-0.33,0.94,0.02,1.3C872.11,263.76,872.36,263.86,872.61,263.86z M859.04,327.51l13.11-12.85l14.07-13.79l0.42,0.35
				l13.75,13.47l13.4,13.12l-14.13,13.81l-12.92,12.62l-0.53,0.42l-13.32-13.06l-13.66-13.39l-0.18-0.19V327.51z M860.51,327.77
				l13.24,12.97L886.26,353l12.53-12.24l13.26-12.96l-12.52-12.27l-13.27-13l-13.24,12.98L860.51,327.77z M859.04,431.83
				l13.11-12.84l14.09-13.81l0.42,0.38l13.73,13.46l13.4,13.13l-14.13,13.8l-12.92,12.62l-0.51,0.45l-13.35-13.09l-13.66-13.39
				l-0.18-0.2V431.83z M860.51,432.09l13.24,12.98l12.51,12.26l12.53-12.24l13.26-12.95l-12.52-12.27l-13.26-13l-13.24,12.98
				L860.51,432.09z M898.54,574.53c0.37-0.37,0.36-0.98-0.01-1.34l-8.7-8.53c-0.37-0.37-0.98-0.36-1.34,0.01
				c-0.37,0.37-0.36,0.98,0.01,1.34l8.7,8.53c0.18,0.18,0.43,0.27,0.67,0.27C898.11,574.82,898.35,574.72,898.54,574.53z
				 M870.4,286.15c-0.37,0.37-0.36,0.98,0.01,1.34l2.23,2.18l6.47,6.35c0.18,0.18,0.43,0.27,0.66,0.27c0.25,0,0.49-0.1,0.68-0.28
				c0.37-0.37,0.36-0.98-0.01-1.34l-6.45-6.32l-2.25-2.21C871.37,285.77,870.76,285.78,870.4,286.15z M880.64,358.02l-8.7,8.53
				c-0.01,0.01-0.03,0.03-0.04,0.05c-0.33,0.37-0.33,0.94,0.03,1.3c0.19,0.19,0.43,0.28,0.68,0.28c0.23,0,0.47-0.09,0.65-0.26
				c0.01-0.01,0.01-0.01,0.02-0.01l8.7-8.53c0.37-0.37,0.38-0.97,0.01-1.34C881.62,357.66,881.02,357.65,880.64,358.02z
				 M898.54,365.88c0.37-0.37,0.36-0.98-0.01-1.34l-8.7-8.53c-0.37-0.37-0.98-0.36-1.34,0.01c-0.37,0.37-0.36,0.98,0.01,1.34
				l8.7,8.53c0.18,0.18,0.43,0.27,0.66,0.27C898.1,366.17,898.35,366.07,898.54,365.88z M895.68,395.49l-8.71,8.51
				c-0.38,0.37-0.38,0.97-0.02,1.34c0.19,0.19,0.43,0.29,0.68,0.29c0.24,0,0.48-0.09,0.66-0.27l8.71-8.51
				c0.38-0.37,0.38-0.97,0.02-1.34C896.65,395.13,896.05,395.12,895.68,395.49z M905.03,267.92c-0.37,0.37-0.36,0.98,0.01,1.34
				l6.52,6.39l-8.02,7.83c-0.38,0.37-0.38,0.97-0.02,1.34c0.19,0.19,0.43,0.29,0.68,0.29c0.24,0,0.48-0.09,0.66-0.27l8.71-8.51l0,0
				l0,0l0,0c0,0,0,0,0,0c0.08-0.08,0.15-0.18,0.2-0.28c0,0,0,0,0,0c0,0,0,0,0,0c0.06-0.12,0.08-0.25,0.09-0.38l0,0c0,0,0,0,0,0v0
				c0,0,0,0,0,0v0v0c0,0,0,0,0,0c0,0,0,0,0,0s0,0,0,0c0-0.14-0.03-0.28-0.09-0.42c0,0,0,0,0,0l0,0c-0.05-0.09-0.11-0.18-0.19-0.26
				c0,0,0,0,0,0c0,0,0,0,0,0c0,0,0,0-0.01-0.01l-7.21-7.06C906,267.54,905.39,267.55,905.03,267.92z M913.87,484.3
				C913.87,484.3,913.87,484.3,913.87,484.3C913.87,484.3,913.87,484.3,913.87,484.3L913.87,484.3
				C913.87,484.3,913.87,484.3,913.87,484.3C913.87,484.3,913.87,484.3,913.87,484.3C913.87,484.3,913.87,484.29,913.87,484.3
				L913.87,484.3C913.87,484.29,913.87,484.29,913.87,484.3L913.87,484.3c0-0.14-0.03-0.28-0.09-0.4c0,0,0,0,0,0c0,0,0,0,0,0
				c-0.05-0.1-0.11-0.19-0.19-0.27c0,0,0,0,0,0c0,0,0,0,0,0c0,0,0,0,0,0c0,0,0,0,0,0l-7.21-7.06c-0.38-0.37-0.98-0.36-1.34,0.01
				c-0.37,0.37-0.36,0.98,0.01,1.34l6.52,6.39l-8.02,7.83c-0.38,0.37-0.38,0.97-0.02,1.34c0.19,0.19,0.43,0.29,0.68,0.29
				c0.24,0,0.48-0.09,0.66-0.27l8.71-8.51l0,0l0,0l0,0c0,0,0,0,0,0c0.08-0.08,0.15-0.17,0.19-0.27l0,0c0,0,0,0,0,0
				C913.83,484.58,913.86,484.44,913.87,484.3C913.87,484.3,913.87,484.3,913.87,484.3z M895.68,499.81l-8.71,8.51
				c-0.38,0.37-0.38,0.97-0.02,1.34c0.19,0.19,0.43,0.29,0.68,0.29c0.24,0,0.48-0.09,0.66-0.27l8.71-8.51
				c0.38-0.37,0.38-0.97,0.02-1.34C896.65,499.45,896.05,499.44,895.68,499.81z M899.65,550.27l-12.92,12.62l-0.52,0.43
				l-13.34-13.07l-13.66-13.38l-0.18-0.19v-0.51l13.11-12.85l14.09-13.81l0.42,0.38l13.73,13.46l13.4,13.13L899.65,550.27z
				 M898.78,549.41l13.26-12.95l-12.53-12.28l-13.26-13l-13.24,12.98l-12.5,12.26l13.24,12.97l12.51,12.26L898.78,549.41z
				 M880.64,462.34l-8.7,8.53c-0.01,0.01-0.02,0.03-0.04,0.05c-0.33,0.37-0.33,0.94,0.02,1.3c0.19,0.19,0.43,0.29,0.68,0.29
				c0.23,0,0.47-0.09,0.65-0.26c0.01,0,0.01-0.01,0.02-0.01l8.7-8.53c0.37-0.37,0.38-0.97,0.01-1.34
				C881.62,461.98,881.02,461.98,880.64,462.34z M895.68,604.13l-8.71,8.51c-0.38,0.37-0.38,0.97-0.02,1.34
				c0.19,0.19,0.43,0.29,0.68,0.29c0.24,0,0.48-0.09,0.66-0.27l8.71-8.51c0.38-0.37,0.38-0.97,0.02-1.34
				C896.65,603.77,896.05,603.77,895.68,604.13z M862.56,279.81c0.18,0.18,0.43,0.27,0.67,0.27c0.25,0,0.49-0.1,0.68-0.29
				c0.37-0.37,0.36-0.98-0.01-1.34l-2.89-2.84l4.42-4.34c0.37-0.37,0.38-0.97,0.01-1.34s-0.97-0.38-1.34-0.01l-5.11,5.01
				c-0.18,0.18-0.29,0.42-0.29,0.68s0.1,0.51,0.29,0.69L862.56,279.81z M871.74,599.1c-0.37-0.37-0.98-0.36-1.34,0.01
				c-0.37,0.37-0.36,0.98,0.01,1.34l2.23,2.18l6.47,6.34c0.18,0.18,0.43,0.27,0.67,0.27c0.25,0,0.49-0.1,0.68-0.29
				c0.37-0.37,0.36-0.98-0.01-1.34l-6.45-6.32L871.74,599.1z M872.64,498.32l6.47,6.35c0.18,0.18,0.43,0.27,0.67,0.27
				c0.25,0,0.49-0.1,0.68-0.28c0.37-0.37,0.36-0.98-0.01-1.34l-6.45-6.32l-2.25-2.21c-0.37-0.37-0.98-0.36-1.34,0.01
				c-0.37,0.37-0.36,0.98,0.01,1.34L872.64,498.32z M898.54,470.21c0.37-0.37,0.36-0.98-0.01-1.34l-8.7-8.53
				c-0.37-0.37-0.98-0.36-1.34,0.01c-0.37,0.37-0.36,0.98,0.01,1.34l8.7,8.53c0.18,0.18,0.43,0.27,0.67,0.27
				C898.1,470.49,898.35,470.4,898.54,470.21z M900.36,627.64l-13.72-13.45l-0.42-0.35l-14.07,13.79l-13.11,12.84v0.51l0.18,0.2
				l13.67,13.39l0.63,0.62l1.74,0l-1.5-1.47l-13.25-12.98l12.51-12.26l13.24-12.98l13.24,12.98l12.55,12.3l-13.27,12.96l-1.48,1.44
				l1.74,0l0.61-0.59l14.14-13.81L900.36,627.64z M913.87,379.98C913.87,379.98,913.87,379.98,913.87,379.98
				C913.87,379.97,913.87,379.97,913.87,379.98L913.87,379.98C913.87,379.97,913.87,379.97,913.87,379.98
				C913.87,379.97,913.87,379.97,913.87,379.98C913.87,379.97,913.87,379.97,913.87,379.98
				C913.87,379.97,913.87,379.97,913.87,379.98C913.87,379.97,913.87,379.97,913.87,379.98
				C913.87,379.97,913.87,379.97,913.87,379.98L913.87,379.98c0-0.14-0.03-0.27-0.09-0.4c0,0,0,0,0,0v0
				c-0.05-0.1-0.11-0.19-0.19-0.27l0,0c0,0,0,0,0,0c0,0,0,0-0.01-0.01l-7.21-7.06c-0.37-0.37-0.98-0.36-1.34,0.01
				c-0.37,0.37-0.36,0.98,0.01,1.34l6.52,6.39l-8.02,7.83c-0.38,0.37-0.38,0.97-0.02,1.34c0.19,0.19,0.43,0.29,0.68,0.29
				c0.24,0,0.48-0.09,0.66-0.27l8.71-8.51c0.01-0.01,0.01-0.01,0.02-0.02c0,0,0,0,0,0c0,0,0,0,0,0c0,0,0,0,0,0
				c0.07-0.07,0.12-0.14,0.16-0.22l0,0c0,0,0,0,0,0C913.83,380.27,913.87,380.12,913.87,379.98L913.87,379.98z M881.99,566.68
				c-0.37-0.37-0.97-0.38-1.34-0.01l-8.7,8.53c-0.01,0.01-0.02,0.03-0.04,0.05c-0.33,0.37-0.33,0.94,0.02,1.3
				c0.19,0.19,0.43,0.29,0.68,0.29c0.23,0,0.47-0.09,0.65-0.26c0.01,0,0.01-0.01,0.02-0.01l8.7-8.53
				C882.35,567.66,882.35,567.05,881.99,566.68z M897.86,261.85c0.25,0,0.49-0.1,0.68-0.29c0.37-0.37,0.36-0.98-0.01-1.34l-8.7-8.53
				c-0.38-0.37-0.98-0.36-1.34,0.01c-0.37,0.37-0.36,0.98,0.01,1.34l8.7,8.53C897.38,261.76,897.62,261.85,897.86,261.85z
				 M863.23,593.04c0.25,0,0.49-0.1,0.68-0.29c0.37-0.37,0.36-0.98-0.01-1.34l-2.89-2.83l4.43-4.34c0.37-0.37,0.38-0.97,0.01-1.34
				c-0.37-0.37-0.97-0.38-1.34-0.01l-5.11,5.01c-0.18,0.18-0.29,0.42-0.29,0.68s0.1,0.51,0.29,0.69l3.58,3.51
				C862.75,592.95,862.99,593.04,863.23,593.04z M862.56,384.12c0.18,0.18,0.43,0.27,0.66,0.27c0.25,0,0.49-0.1,0.68-0.29
				c0.37-0.37,0.36-0.98-0.01-1.34l-2.89-2.83l4.43-4.34c0.37-0.37,0.38-0.97,0.01-1.34c-0.37-0.37-0.97-0.38-1.34-0.01l-5.11,5.01
				c-0.18,0.18-0.29,0.42-0.29,0.68s0.1,0.51,0.29,0.69L862.56,384.12z M872.89,237.29l0.71,0.69l12.61,12.36l0.53-0.42l12.19-11.95
				l0.72-0.65l13.14-12.83l-0.02,0.01l-1.58,0.48l-0.86,0.22l-11.54,11.27l-0.02-0.02l-1.56,1.53l0,0h0l-10.93,10.72l-10.92-10.71
				l0,0l-0.01-0.01l-1.57-1.54l0,0l-13.25-12.98l1.63-1.6l-1.23-0.5l-1.88,1.84v0.51v0l0.18,0.2L872.89,237.29z M854.22,218.11
				v19.87V655.2l3.08,0V237.98v-18.27l-1.32-0.65L854.22,218.11z M916.22,223.21l-1.86,0.69l0.02,14.06l-0.27,192.27l-0.32,224.95
				l3.45,0V237.96v-15.19L916.22,223.21z"/>
		</g>
</svg>