<?xml version="1.0" encoding="utf-8"?>
<svg version="1.1"
	 xmlns="http://www.w3.org/2000/svg" xmlns:xlink="http://www.w3.org/1999/xlink" x="0px" y="0px" width="1043.76px"
	 height="693.41px" viewBox="0 0 1043.76 693.41" enable-background="new 0 0 1043.76 693.41" xml:space="preserve">>
<g id="id:digital_wave" display="inline">

				<path id="id:SUB_FIRST_BODY_COLOR_00000126309752867670064210000010523846471942759581_" display="inline" fill="#005B9B" d="
				M382.35,447.8l-0.76,106.31l2.11,2.14l-2.14,2.11l-0.72,100.77l-0.07,9.28l-11.3-0.01l-163.54-0.08l-163.54,0.02l-11.3,0
				l-0.06-9.33l-0.69-100.73l-2.14-2.11l2.11-2.14l-0.72-106.31l-2.14-2.11l2.11-2.14l-0.72-106.31l-2.14-2.11l2.11-2.14
				l-0.64-93.83l-0.02-2.24l5.42-4.91l0.92-0.83l1.81-1.78l1.43-1.58l0.98-1.25l2.85-4.23l0.67-1.23l1.73-3.36l1.59-3.38l0.03-0.07
				l1.44-3.38l1.24-3.21l1.03-3.03l0.87-2.94l0.76-3.02l1.12-5.52l0.64-3.79l0.56-3.89l0.47-3.98l0.46-4.81l0.37-4.97l0.26-4.84
				l0.16-4.87l-0.05-5.53l-0.18-5.69l-0.3-5.75l-0.41-5.63l-0.72-7.76l-0.84-7.69l-0.95-7.61l-1.06-7.49l-1.84-8.86l-2.09-9.15
				l-1.84-7.29l-2.03-7.23l-2.19-6.45l-3.78-11.13l8.81-3l88.42-30.12l6.22-2.12l5.04,8.23l0.04,0.06l3.69,6.02l0.04,0.06l2.91,4.3
				l3.13,4.17l0.05,0.06l2.65,3.16l2.91,3.07l1.2,1.15l0.06,0.05l1.18,1l1.29,0.98l1.37,0.92l2.02,1.21l1.99,1.07l2.09,1.01
				l1.95,0.83l2.27,0.7l2.67,0.73l2.69,0.64l2.69,0.55l1.91,0.32l0.08,0.01l1.82,0.22l1.78,0.14l10.55,0.04l3.7,0.01l2.13-2.13
				l2.13,2.13l3.85-0.01l10.46-0.03l1.78-0.14l1.91-0.23l1.91-0.31l2.69-0.55l2.69-0.64l2.67-0.73l2.36-0.73l1.87-0.8l2.09-1.01
				l2.07-1.11l1.94-1.16l1.37-0.92l1.29-0.98l1.25-1.06l1.19-1.14l2.91-3.06l2.71-3.23l3.12-4.16l2.96-4.37l3.72-6.06l5.04-8.23
				l6.21,2.12l88.41,30.15l8.81,3.01l-3.81,11.19l-2.2,6.47l-2,7.14l-1.87,7.38l-2.08,9.06l-1.86,8.95l-1.04,7.4l-0.96,7.7
				l-0.84,7.69l-0.71,7.66l-0.42,5.72l-0.3,5.66l-0.18,5.69l-0.06,5.62l0.16,4.78l0.26,4.93l0.36,4.87l0.47,4.91l0.46,3.89
				l0.56,3.89l0.66,3.88l1.1,5.43l0.76,3.02l0.89,3.03l1,2.94l1.24,3.21l1.48,3.46l1.58,3.37l1.72,3.36l0.72,1.31l2.81,4.15
				l1.04,1.32l1.37,1.51l1.81,1.78l0.96,0.87l5.37,4.87l-0.02,2.24l-0.67,93.83l2.11,2.14l-2.14,2.11l-0.76,106.31l2.11,2.14
				L382.35,447.8z M942.81,432.45l-2.11-2.14L941.37,324l2.14-2.11l-2.11-2.14l0.59-93.83l0.02-3.92l-0.23-0.11l-2.7-1.49l-2.5-1.64
				l-5.89-4.68l-5.53,4.29l-0.4,0.31l-2.52,1.61l-2.72,1.46l-3.31,1.48l-3.45,1.27l-1.58,0.48l-1.67,0.43l-1.7,0.36l-1.74,0.3
				l-3.49,0.48l-3.54,0.41l-3.55,0.33l-3.36,0.23l-1.17,0l-1.4-0.01l-5.24-0.43l-5.34-0.63l-3.39-0.56l-3.24-0.72l-4.93-1.45
				l-4.91-1.7l-3.29-1.35l-3.24-1.58l-3.35-1.83l-3.17-1.99l-3.06-2.18l-2.62-2.12l-2.01-2.17l-2.23-2.61l-2.12-2.71l-2.01-2.81
				l-2.28-3.47l-2.17-3.56l-2.04-3.64l-1.77-3.43l-0.87-2.22l-0.85-2.5l-0.73-2.54l-0.61-2.6l-0.73-3.77l-0.6-3.82l-0.47-3.84
				l-0.32-3.73l-0.11-3.99l0.02-4.13l0.14-4.12l0.27-4.12l0.39-4.07l0.52-4.08l0.64-4.03l2.46-12.51l1.26-5.32l1.43-5.33l1.76-5.89
				l2.09-6.43l2.25-6.38l2.41-6.35l1.27-3.16l0.05-0.12l0.05-0.12l2.93-7.95l4.07-11.03l-8.63-3.28l-87.36-33.16l-6.29-2.39
				l-6.4,10.04l-0.26,2.15l-4.75,38.68l-0.59,4.82l-0.72,4.72l-0.82,4.76l-0.9,4.73l-0.68,3.19l-0.75,3.16l-0.82,3.09l-0.96,3.17
				l-0.79,2.61l-0.86,2.38l-0.98,2.4l-1.06,2.33l-0.9,1.76l-0.97,1.69l-1.06,1.63l-1.08,1.5l-0.95,1.14l-1.07,1.17l-1.12,1.12
				l-1.16,1.06l-1,0.83l-1.01,0.75l-1.05,0.69l-2.2,1.29l-1.92,0.93l-0.73,0.29l-2.52,0.82l-2.61,0.61l-3.13,0.54l-3.23,0.4
				l-4.47,0.35l-3.98,0.17l-2.09-2.16l-2.16,2.09l-2.26-0.09l-4.47-0.35l-3.23-0.39l-3.13-0.54l-2.61-0.61l-2.52-0.82l-0.73-0.29
				l-1.92-0.93l-2.2-1.29l-1.05-0.69l-1.01-0.75l-1-0.83l-1.16-1.06l-1.12-1.12l-1.07-1.17l-0.95-1.14l-1.08-1.5l-1.06-1.63
				l-0.97-1.69l-0.9-1.76l-1.06-2.33l-0.98-2.4l-0.86-2.38l-0.79-2.61l-0.96-3.17l-0.82-3.09l-0.75-3.16l-0.68-3.19l-0.9-4.73
				l-0.82-4.76l-0.72-4.72l-0.59-4.82l-4.76-38.68l-0.26-2.15l-6.4-10.04l-6.29,2.39L532.4,59.2l-8.63,3.28l4.07,11.02l2.94,7.95
				l0.04,0.12l0.05,0.13l1.27,3.16l2.41,6.35l2.25,6.38l2.09,6.42l1.77,5.89l1.43,5.33l1.26,5.32l2.46,12.51l0.65,4.03l0.52,4.08
				l0.4,4.08l0.27,4.12l0.14,4.12l0.02,4.13l-0.11,3.99l-0.32,3.73l-0.47,3.84l-0.6,3.82l-0.73,3.76l-0.61,2.6l-0.73,2.54l-0.85,2.5
				l-0.87,2.22l-1.77,3.44l-2.04,3.64l-2.17,3.56l-2.28,3.47l-2.01,2.81l-2.11,2.71l-2.22,2.61l-2.01,2.17l-2.62,2.12l-3.05,2.18
				l-3.18,1.99l-3.35,1.83l-3.24,1.59l-3.28,1.35l-4.91,1.7l-4.93,1.45l-3.24,0.72l-3.39,0.56l-5.34,0.64l-5.24,0.43l-1.32,0.01
				l-1.25,0l-3.36-0.23l-3.55-0.32l-3.54-0.4l-3.49-0.48l-1.74-0.3l-1.69-0.36l-1.67-0.43l-1.58-0.48l-3.45-1.27l-3.31-1.48
				l-2.72-1.46l-2.52-1.61l-0.4-0.31l-5.54-4.29l-5.88,4.68l-2.5,1.64l-2.7,1.49l-0.23,0.11l0.03,3.92l0.62,93.83l-2.11,2.14
				l2.14,2.11l0.71,106.31l-2.11,2.14l2.14,2.11l0.71,106.31l-2.11,2.14l2.14,2.11l0.67,100.77l0.06,9.28h11.3h243.06l243.07-0.09
				l11.3,0l0.06-9.28l0.63-100.78l2.14-2.11l-2.11-2.14l0.67-106.31L942.81,432.45z"/>

				<path id="id:SUB_FIRST_ACCENT_3_00000117655072795251153640000015146357384175214723_" display="inline" fill="#009949" d="
				M942.01,221.99l-0.01,1.52l-0.02,2.4l-0.04,6.39l-0.06,8.79l-0.06,8.79l-0.06,8.79l-0.06,8.79l-0.06,8.79v0l-0.06,8.79v0
				l-0.06,8.79h-14.33v-8.79h-16.7v8.79h-24.17v8.79v0h-16.7v8.79h-16.7v8.79h-24.17h0v-8.79h-16.7v-8.79h-16.7v0h0v-8.79h-24.17h0
				v-8.79h-16.7v8.79h-24.17v8.79v0h-16.7v8.79h-16.7v8.79h-24.17v-8.79h-16.7v0v-8.79h-16.7v0v-8.79h-24.17v0v-8.79h-16.7v8.79v0
				h-24.17v8.79h-16.7v8.79v0h-16.7v8.79h-24.17v-8.79h-16.7v0v-8.79h-16.7v0h0v-8.79H459.2v0h0v-8.79h-16.7v8.79h-14.34v0
				l-0.06-8.79v0l-0.06-8.79v0l-0.06-8.79l-0.06-8.79l-0.06-8.79l-0.06-8.79l-0.06-8.79l-0.04-6.29l-0.02-2.5l-0.01-1.42l0.23-0.11
				l2.7-1.49l2.5-1.64l5.18-4.12l0.7-0.56l0.72,0.56l2.78,2.16l2.03,1.57l0.4,0.31l2.52,1.61l2.72,1.46l3.31,1.48l0.57,0.21
				l2.88,1.06l1.58,0.48l0.69,0.18l0.99,0.25l1.69,0.36l1.74,0.3l3.49,0.48l3.54,0.4l3.55,0.32l3.36,0.23l1.25,0l1.32-0.01
				l3.23-0.27l2.01-0.17l5.34-0.64l3.39-0.56l3.24-0.72l2.72-0.8l2.21-0.65l0.75-0.26l4.15-1.44l3.28-1.35l3.24-1.59l3.05-1.66
				l0.3-0.16l3.18-1.99l0.84-0.6h19.86v-8.79v0h16.7v-8.79h16.7v-8.79h24.17v-8.79h16.7v0v8.79h24.17v8.79h16.7v8.79h16.7v0v8.79
				h24.17v-8.79v0h16.7v-8.79h16.7v-8.79h24.17v-8.79h16.7v0h0v8.79h24.17h0v8.79h16.7v8.79h16.7v0h0v8.79h19.91l0.75,0.54
				l3.17,1.99l0.33,0.18l3.02,1.64l3.24,1.58l3.29,1.35l4.36,1.51l0.55,0.19l2.25,0.66l2.68,0.79l3.24,0.72l3.39,0.56l5.34,0.63
				l2.04,0.17l3.2,0.26l1.4,0.01l1.17,0l3.36-0.23l3.55-0.33l3.54-0.41l3.49-0.48l1.74-0.3l1.7-0.36l1.02-0.26l0.65-0.17l1.58-0.48
				l2.64-0.97l0.81-0.3l3.31-1.48l2.72-1.46l2.52-1.61l0.4-0.31l2.07-1.6l2.62-2.03l0.84-0.65l0.82,0.65l5.07,4.03l2.5,1.64
				l2.7,1.49L942.01,221.99z"/>
			<g id="id:SUB_FIRST_ACCENT_1_00000031205032388388470230000005750368968981639043_" display="inline">

					<path id="id:SUB_FIRST_ACCENT_1_00000031180621800883763990000007195886392919755155_" opacity="0.3" fill="#68737A" d="
					M639.38,232.3h16.7v8.79h-16.7V232.3z M540.94,258.67v-8.79h-24.17v8.79H540.94z M454.04,223.51l-0.57-0.21l-3.31-1.48
					l-2.72-1.46l-2.52-1.61l-0.4-0.31l-2.03-1.57v6.63H454.04z M483.37,232.3v-5l-3.23,0.27l-1.32,0.01l-1.25,0l-3.36-0.23
					l-3.55-0.32l-3.54-0.4l-3.49-0.48l-1.74-0.3l-1.69-0.36l-0.99-0.25v7.08H483.37z M639.38,232.3v-8.79h-24.17v8.79H639.38z
					 M910.53,232.3v-7.17l-1.02,0.26l-1.7,0.36l-1.74,0.3l-3.49,0.48l-3.54,0.41l-3.55,0.33l-3.36,0.23l-1.17,0l-1.4-0.01l-3.2-0.26
					v5.07H910.53z M615.21,214.72h-16.7v8.79h16.7V214.72z M927.23,216.76l-2.07,1.6l-0.4,0.31l-2.52,1.61l-2.72,1.46l-3.31,1.48
					l-0.81,0.3h11.83V216.76z M852.96,258.67v-8.79h-24.17v8.79H852.96z M442.5,223.51h-14.81l0.02,2.5l0.04,6.29h14.75V223.51z
					 M500.07,241.09v-8.79h-16.7v8.79H500.07z M927.23,232.3h14.71l0.04-6.39l0.02-2.4h-14.77V232.3z M656.08,249.88h16.7v-8.79
					h-16.7V249.88z M730.35,241.09v-8.79h-16.7v8.79H730.35z M771.22,232.3h24.17v-8.79h-24.17V232.3z M795.39,241.09h16.7v-8.79
					h-16.7V241.09z M886.36,241.09v-8.79h-16.7v8.79H886.36z M771.22,214.72h-16.7v8.79h16.7V214.72z M696.95,241.09v8.79h16.7
					v-8.79H696.95z M516.77,249.88v-8.79h-16.7v8.79H516.77z M754.52,223.51h-24.17v8.79h24.17V223.51z M869.66,249.88v-8.79h-16.7
					v8.79H869.66z M574.34,241.09v-8.79h-16.7v8.79H574.34z M557.64,249.88v-8.79h-16.7v8.79H557.64z M598.51,223.51h-24.17v8.79
					h24.17V223.51z M812.09,249.88h16.7v-8.79h-16.7V249.88z M672.78,249.88v8.79h24.17v-8.79H672.78z"/>

					<path id="id:SUB_FIRST_ACCENT_1_00000181066232005532090540000001011007981194908592_" opacity="0.5" fill="#68737A" d="
					M713.65,232.3v-8.79h16.7v8.79H713.65z M771.22,205.93h-16.7v8.79h16.7V205.93z M615.21,223.51h24.17v-8.79h-24.17V223.51z
					 M615.21,205.93h-16.7v8.79h16.7V205.93z M639.38,232.3h16.7v-8.79h-16.7V232.3z M754.52,223.51v-8.79h-24.17v8.79H754.52z
					 M886.36,232.3v-5.07l-2.04-0.17l-5.34-0.63l-3.39-0.56l-3.24-0.72l-2.68-0.79v7.94H886.36z M557.64,232.3h-16.7v8.79h16.7
					V232.3z M516.77,241.09v-8.79h-16.7v8.79H516.77z M540.94,249.88v-8.79h-24.17v8.79H540.94z M942,223.51l0.01-1.52l-0.23-0.11
					l-2.7-1.49l-2.5-1.64l-5.07-4.03h-1.66l-2.62,2.03v6.76H942z M598.51,223.51v-8.79h-24.17v8.79H598.51z M869.66,241.09v-8.79
					h-16.7v8.79H869.66z M574.34,232.3v-8.79h-16.7v8.79H574.34z M442.5,216.88l-2.78-2.16h-1.42l-5.18,4.12l-2.5,1.64l-2.7,1.49
					l-0.23,0.11l0.01,1.42h14.81V216.88z M500.07,232.3v-7.88l-2.72,0.8l-3.24,0.72l-3.39,0.56l-5.34,0.64l-2.01,0.17v5H500.07z
					 M852.96,249.88v-8.79h-24.17v8.79H852.96z M828.79,241.09v-8.79h-16.7v8.79H828.79z M713.65,232.3h-16.7v8.79h16.7V232.3z
					 M696.95,241.09h-24.17v8.79h24.17V241.09z M795.39,223.51v-8.79h-24.17v8.79H795.39z M656.08,241.09h16.7v-8.79h-16.7V241.09z
					 M812.09,232.3v-8.79h-16.7v8.79H812.09z"/>

					<path id="id:SUB_FIRST_ACCENT_1_00000169539349568912244490000007413115357512201661_" opacity="0.7" fill="#68737A" d="
					M639.38,223.51v-8.79h16.7v8.79H639.38z M615.21,214.72h24.17v-8.79h-24.17V214.72z M754.52,205.93h-24.17v8.79h24.17V205.93z
					 M771.22,205.93v-8.79h-16.7v8.79H771.22z M438.99,214.17l-0.7,0.56h1.42L438.99,214.17z M540.94,241.09v-8.79h-24.17v8.79
					H540.94z M696.95,232.3h-24.17v8.79h24.17V232.3z M730.35,214.72h-16.7v8.79h16.7V214.72z M557.64,232.3v-8.79h-16.7v8.79
					H557.64z M713.65,232.3v-8.79h-16.7v8.79H713.65z M574.34,214.72h-16.7v8.79h16.7V214.72z M852.96,232.3h16.7v-7.94l-2.25-0.66
					l-0.55-0.19h-13.9V232.3z M812.09,232.3h16.7v-8.79h-16.7V232.3z M656.08,232.3h16.7v-8.79h-16.7V232.3z M795.39,223.51h16.7
					v-8.79h-16.7V223.51z M516.77,232.3v-8.79h-13.73l-0.75,0.26l-2.21,0.65v7.88H516.77z M598.51,205.93h-24.17v8.79h24.17V205.93z
					 M615.21,205.93v-8.79h-16.7v8.79H615.21z M930.69,214.07l-0.84,0.65h1.66L930.69,214.07z M771.22,214.72h24.17v-8.79h-24.17
					V214.72z M828.79,241.09h24.17v-8.79h-24.17V241.09z"/>

					<path id="id:SUB_FIRST_ACCENT_1_00000158740152858308215130000011472152315425219480_" opacity="0.85" fill="#68737A" d="
					M574.34,197.15L574.34,197.15L574.34,197.15L574.34,197.15L574.34,197.15z M598.51,188.36L598.51,188.36L598.51,188.36
					L598.51,188.36L598.51,188.36z M754.52,188.36L754.52,188.36L754.52,188.36L754.52,188.36L754.52,188.36z M730.35,197.15
					L730.35,197.15L730.35,197.15L730.35,197.15L730.35,197.15z M557.64,214.72h16.7v-8.79h-16.7v0V214.72z M540.94,223.51h16.7
					v-8.79h-16.7l0,0V223.51z M598.51,197.15h-24.17l0,0h0v8.79h24.17V197.15z M639.38,205.93v-8.79h-24.17v8.79H639.38z
					 M852.96,232.3v-8.79h-24.17v8.79H852.96z M696.95,223.51h-24.17v8.79h24.17V223.51z M615.21,188.36h-16.7l0,0l0,0v8.79h16.7
					V188.36z M656.08,223.51h16.7v-8.79l0,0h-16.7V223.51z M866.86,223.51L862.5,222l-3.29-1.35l-3.24-1.58l-3.02-1.64v6.09H866.86z
					 M540.94,223.51h-24.17v8.79h24.17V223.51z M516.77,217.47l-3.05,1.66l-3.24,1.59l-3.28,1.35l-4.15,1.44h13.73V217.47z
					 M696.95,223.51h16.7v-8.79h-16.7l0,0V223.51z M713.65,214.72h16.7v-8.79h-16.7v0V214.72z M639.38,214.72h16.7v-8.79v0h-16.7
					V214.72z M828.79,223.51v-8.79h-16.7v8.79H828.79z M812.09,214.72v-8.79h-16.7v8.79H812.09z M795.39,205.93v-8.79h-24.17v8.79
					H795.39z M771.22,188.36h-16.7l0,0l0,0v8.79h16.7V188.36z M754.52,197.15h-24.17l0,0l0,0v8.79h24.17V197.15z"/>
				<path id="id:SUB_FIRST_ACCENT_1_00000173122094052938131980000006362575560663444354_" fill="#68737A" d="
					M574.34,197.15L574.34,197.15l0-8.79h24.17l0,0v8.79H574.34z M615.21,188.36v-8.79v0h-16.7v8.79l0,0H615.21z M696.95,223.51
					v-8.79l0,0h-24.17l0,0v8.79H696.95z M795.39,205.93h16.7v-8.79l0,0h-16.7h0V205.93z M713.65,205.94L713.65,205.94l-16.7,0v0
					v8.79h16.7V205.94z M656.08,214.72h16.7v-8.79v0h-16.7v0V214.72z M730.35,197.15L730.35,197.15h-16.7l0,0v8.79h16.7V197.15z
					 M754.52,197.15v-8.79l0,0h-24.17v8.79l0,0H754.52z M771.22,188.36v-8.79v0h-16.7v8.79l0,0H771.22z M771.22,197.15h24.17v-8.79
					l0,0h-24.17h0V197.15z M574.34,197.15L574.34,197.15h-16.7l0,0v8.79h16.7V197.15z M615.21,197.15h24.17v-8.79l0,0h-24.17l0,0
					V197.15z M557.64,205.94L557.64,205.94l-16.7,0v0v8.79h16.7V205.94z M540.94,223.51v-8.79l0,0h-19.86l-0.84,0.6l-3.18,1.99
					l-0.3,0.16v6.04H540.94z M828.79,223.51h24.17v-6.09l-0.33-0.18l-3.17-1.99l-0.75-0.54h-19.91h0V223.51z M812.09,214.72h16.7
					v-8.79v0h-16.7l0,0V214.72z M639.38,205.93h16.7v-8.79l0,0h-16.7l0,0V205.93z"/>
			</g>
			<g id="id:SUB_FIRST_ACCENT_2_00000181804555153987102150000001889168155599873468_" display="inline">
				<path id="id:SUB_FIRST_ACCENT_2_00000160871473834740496220000009416173552437656999_" fill="#F1582A" d="
					M852.96,320.2h-24.17h0v-8.79l0,0h24.17V320.2z M442.5,285.04h-14.4l0.06,8.79h14.34V285.04z M516.77,311.41v-8.79h-16.7v0v8.79
					L516.77,311.41L516.77,311.41z M869.66,293.83v8.79v0h16.7v-8.79l0,0H869.66z M483.37,293.83v-8.79H459.2l0,0v8.79h0
					L483.37,293.83L483.37,293.83z M516.77,311.41v8.79h24.17v-8.79v0H516.77z M500.07,302.62v-8.79h-16.7v0v8.79h0L500.07,302.62
					L500.07,302.62z M574.34,293.83L574.34,293.83l24.17,0v-8.79h-24.17V293.83z M656.08,302.62v-8.79h-16.7v0v8.79l0,0
					L656.08,302.62L656.08,302.62z M852.96,311.41L852.96,311.41l16.7,0v-8.79h-16.7V311.41z M812.09,302.62v-8.79h-16.7l0,0v8.79h0
					L812.09,302.62L812.09,302.62z M941.61,285.04h-14.38l0,0v8.79h14.33L941.61,285.04z M795.39,293.83v-8.79h-24.17l0,0v8.79h0
					L795.39,293.83L795.39,293.83z M672.78,302.62h-16.7v0v8.79h16.7V302.62z M828.79,311.41v-8.79h-16.7v0v8.79l0,0L828.79,311.41
					L828.79,311.41z M886.36,285.04v8.79v0h24.17v-8.79l0,0H886.36z M672.78,311.41v8.79h24.17v-8.79l0,0H672.78z M927.23,276.25
					h-16.7v8.79v0h16.7v0V276.25z M540.94,302.62v8.79v0h16.7v-8.79v0H540.94z M771.22,276.25h-16.7v8.79v0h16.7v0V276.25z
					 M557.64,302.62L557.64,302.62l16.7,0v-8.79h-16.7V302.62z M615.21,276.25h-16.7v8.79v0h16.7v0V276.25z M730.35,293.83
					L730.35,293.83l24.17,0v-8.79h-24.17V293.83z M713.65,302.62L713.65,302.62l16.7,0v-8.79h-16.7V302.62z M639.38,293.83v-8.79
					h-24.17l0,0v8.79l0,0L639.38,293.83L639.38,293.83z M459.2,276.25h-16.7v8.79v0h16.7v0V276.25z M696.95,302.62v8.79v0h16.7
					v-8.79v0H696.95z"/>

					<path id="id:SUB_FIRST_ACCENT_2_00000064355795977689899840000006500681281543183784_" opacity="0.9" fill="#F1582A" d="
					M696.95,293.83h16.7v8.79h-16.7V293.83z M672.78,311.41h24.17v-8.79h-24.17V311.41z M910.53,276.25h16.7v-8.79h-16.7V276.25z
					 M459.2,276.25v8.79h24.17v-8.79H459.2z M516.77,311.41h24.17v-8.79h-24.17V311.41z M598.51,276.25h16.7v-8.79h-16.7V276.25z
					 M540.94,302.62h16.7v-8.79h-16.7V302.62z M812.09,285.04h-16.7v8.79h16.7V285.04z M886.36,285.04h24.17v-8.79h-24.17V285.04z
					 M557.64,293.83h16.7v-8.79h-16.7V293.83z M828.79,293.83h-16.7v8.79h16.7V293.83z M852.96,302.62h-24.17v8.79h24.17V302.62z
					 M852.96,302.62h16.7v-8.79h-16.7V302.62z M615.21,276.25v8.79h24.17v-8.79H615.21z M656.08,302.62h16.7v-8.79h-16.7V302.62z
					 M869.66,293.83h16.7v-8.79h-16.7V293.83z M927.23,285.04h14.38l0.06-8.79h-14.44V285.04z M574.34,285.04h24.17v-8.79h-24.17
					V285.04z M500.07,285.04h-16.7v8.79h16.7V285.04z M516.77,293.83h-16.7v8.79h16.7V293.83z M459.2,267.46h-16.7v8.79h16.7V267.46
					z M754.52,267.46v8.79h16.7v-8.79H754.52z M656.08,285.04h-16.7v8.79h16.7V285.04z M713.65,293.83h16.7v-8.79h-16.7V293.83z
					 M442.5,276.25h-14.46l0.06,8.79h14.4V276.25z M730.35,285.04h24.17v-8.79h-24.17V285.04z M771.22,276.25v8.79h24.17v-8.79
					H771.22z"/>

					<path id="id:SUB_FIRST_ACCENT_2_00000121246348318834657220000006920464303331172750_" opacity="0.8" fill="#F1582A" d="
					M828.79,285.04v8.79h-16.7v-8.79H828.79z M615.21,276.25h24.17v-8.79h-24.17V276.25z M795.39,276.25v8.79h16.7v-8.79H795.39z
					 M639.38,285.04h16.7v-8.79h-16.7V285.04z M459.2,258.67h-16.7v8.79h16.7V258.67z M886.36,276.25h24.17v-8.79h-24.17V276.25z
					 M713.65,276.25v8.79h16.7v-8.79H713.65z M771.22,267.46v8.79h24.17v-8.79H771.22z M696.95,285.04v8.79h16.7v-8.79H696.95z
					 M852.96,293.83h16.7v-8.79h-16.7V293.83z M656.08,293.83h16.7v-8.79h-16.7V293.83z M483.37,267.46H459.2v8.79h24.17V267.46z
					 M557.64,276.25v8.79h16.7v-8.79H557.64z M442.5,267.46h-14.51l0.06,8.79h14.46V267.46z M910.53,267.46h16.7v-8.79h-16.7V267.46
					z M598.51,267.46h16.7v-8.79h-16.7V267.46z M927.23,276.25h14.44l0.06-8.79h-14.49V276.25z M730.35,267.46v8.79h24.17v-8.79
					H730.35z M696.95,293.83h-24.17v8.79h24.17V293.83z M828.79,302.62h24.17v-8.79h-24.17V302.62z M574.34,267.46v8.79h24.17v-8.79
					H574.34z M540.94,285.04v8.79h16.7v-8.79H540.94z M771.22,258.67h-16.7v8.79h16.7V258.67z M869.66,276.25v8.79h16.7v-8.79
					H869.66z M500.07,285.04v8.79h16.7v-8.79H500.07z M483.37,276.25v8.79h16.7v-8.79H483.37z M516.77,293.83v8.79h24.17v-8.79
					H516.77z M795.39,276.25h-24.17v0L795.39,276.25L795.39,276.25z M869.66,285.04L869.66,285.04l16.7,0v0H869.66z M852.96,302.62
					h-24.17v0L852.96,302.62L852.96,302.62z M656.08,293.83h16.7v0L656.08,293.83L656.08,293.83z M852.96,293.83L852.96,293.83
					l16.7,0v0H852.96z M927.23,276.25h14.44v0L927.23,276.25L927.23,276.25z M516.77,293.83h-16.7v0L516.77,293.83L516.77,293.83z
					 M598.51,267.46h16.7v0L598.51,267.46L598.51,267.46z M483.37,276.25H459.2v0L483.37,276.25L483.37,276.25z M516.77,302.62
					L516.77,302.62l24.17,0v0H516.77z M656.08,285.04h-16.7v0L656.08,285.04L656.08,285.04z M730.35,276.25L730.35,276.25l24.17,0v0
					H730.35z M754.52,267.46L754.52,267.46l16.7,0v0H754.52z M696.95,293.83h16.7v0L696.95,293.83L696.95,293.83z M886.36,276.25
					L886.36,276.25l24.17,0v0H886.36z M672.78,302.62L672.78,302.62l24.17,0v0H672.78z M812.09,285.04h-16.7v0L812.09,285.04
					L812.09,285.04z M910.53,267.46h16.7v0L910.53,267.46L910.53,267.46z M828.79,293.83h-16.7v0L828.79,293.83L828.79,293.83z
					 M713.65,285.04h16.7v0L713.65,285.04L713.65,285.04z M540.94,293.83h16.7v0L540.94,293.83L540.94,293.83z M557.64,285.04h16.7
					v0L557.64,285.04L557.64,285.04z M500.07,285.04h-16.7v0L500.07,285.04L500.07,285.04z M639.38,276.25h-24.17v0L639.38,276.25
					L639.38,276.25z M574.34,276.25L574.34,276.25l24.17,0v0H574.34z M459.2,267.46h-16.7v0L459.2,267.46L459.2,267.46z
					 M442.5,276.25h-14.46v0L442.5,276.25L442.5,276.25z"/>

					<path id="id:SUB_FIRST_ACCENT_2_00000029043898738871845450000012271402487495312030_" opacity="0.65" fill="#F1582A" d="
					M771.22,258.67h-16.7v-8.79h16.7V258.67z M713.65,285.04v-8.79h-16.7v8.79L713.65,285.04L713.65,285.04z M656.08,285.04
					L656.08,285.04l16.7,0v-8.79h-16.7V285.04z M927.23,267.46L927.23,267.46l14.49,0l0.06-8.79h-14.55V267.46z M442.5,267.46v-8.79
					h-14.57l0.06,8.79L442.5,267.46L442.5,267.46z M828.79,276.25h-16.7v8.79v0h16.7V276.25z M615.21,267.46L615.21,267.46l24.17,0
					v-8.79h-24.17V267.46z M639.38,276.25h16.7v-8.79h-16.7V276.25L639.38,276.25z M852.96,276.25v8.79h16.7v0v-8.79H852.96z
					 M828.79,285.04v8.79v0h24.17v0v-8.79H828.79z M886.36,267.46h24.17v0v-8.79h-24.17V267.46z M730.35,276.25v-8.79h-16.7v8.79
					L730.35,276.25L730.35,276.25z M869.66,267.46v8.79h16.7v0v-8.79H869.66z M771.22,258.67v8.79v0h24.17v-8.79H771.22z
					 M910.53,258.67h16.7v-8.79h-16.7V258.67z M754.52,267.46v-8.79h-24.17v8.79L754.52,267.46L754.52,267.46z M795.39,267.46v8.79
					v0h16.7v-8.79H795.39z M696.95,293.83v-8.79h-24.17v8.79L696.95,293.83L696.95,293.83z M459.2,249.88h-16.7v8.79h16.7V249.88z
					 M598.51,258.67h16.7v-8.79h-16.7V258.67z M483.37,258.67H459.2v8.79v0h24.17V258.67z M574.34,267.46h24.17v0v-8.79h-24.17
					V267.46z M516.77,276.25h-16.7v8.79v0h16.7V276.25z M557.64,267.46v8.79h16.7v0v-8.79H557.64z M540.94,285.04h16.7v0v-8.79
					h-16.7V285.04z M483.37,267.46v8.79v0h16.7v-8.79H483.37z M540.94,293.83v-8.79h-24.17v8.79v0L540.94,293.83L540.94,293.83z"/>

					<path id="id:SUB_FIRST_ACCENT_2_00000182520167656585173320000001581401658292675467_" opacity="0.5" fill="#F1582A" d="
					M598.51,241.09h16.7v8.79h-16.7V241.09z M730.35,258.67h-16.7v8.79h16.7V258.67z M500.07,258.67h-16.7v8.79h16.7V258.67z
					 M483.37,249.88H459.2v8.79h24.17V249.88z M910.53,249.88h16.7v-8.79h-16.7V249.88z M886.36,258.67h24.17v-8.79h-24.17V258.67z
					 M812.09,267.46v8.79h16.7v-8.79H812.09z M852.96,267.46v8.79h16.7v-8.79H852.96z M927.23,258.67h14.55l0.06-8.79h-14.6V258.67z
					 M500.07,267.46v8.79h16.7v-8.79H500.07z M754.52,249.88h-24.17v8.79h24.17V249.88z M696.95,276.25h-24.17v8.79h24.17V276.25z
					 M540.94,267.46v8.79h16.7v-8.79H540.94z M656.08,276.25h16.7v-8.79h-16.7V276.25z M639.38,267.46h16.7v-8.79h-16.7V267.46z
					 M516.77,276.25v8.79h24.17v-8.79H516.77z M713.65,276.25v-8.79h-16.7v8.79H713.65z M795.39,258.67v8.79h16.7v-8.79H795.39z
					 M869.66,267.46h16.7v-8.79h-16.7V267.46z M459.2,241.09h-16.7v8.79h16.7V241.09z M557.64,258.67v8.79h16.7v-8.79H557.64z
					 M771.22,249.88v-8.79h-16.7v8.79H771.22z M828.79,285.04h24.17v-8.79h-24.17V285.04z M795.39,258.67v-8.79h-24.17v8.79H795.39z
					 M574.34,258.67h24.17v-8.79h-24.17V258.67z M615.21,258.67h24.17v-8.79h-24.17V258.67z M442.5,249.88h-14.63l0.06,8.79h14.57
					V249.88z"/>

					<path id="id:SUB_FIRST_ACCENT_2_00000114759559980608461900000018365506581391871137_" opacity="0.3" fill="#F1582A" d="
					M459.2,241.09h-16.7v-8.79h16.7V241.09z M852.96,258.67v8.79h16.7v-8.79H852.96z M615.21,249.88h24.17v-8.79h-24.17V249.88z
					 M910.53,249.88v-8.79h-24.17v8.79H910.53z M540.94,267.46h-24.17v8.79h24.17V267.46z M812.09,258.67v8.79h16.7v-8.79H812.09z
					 M639.38,258.67h16.7v-8.79h-16.7V258.67z M500.07,249.88h-16.7v8.79h16.7V249.88z M886.36,258.67v-8.79h-16.7v8.79H886.36z
					 M574.34,258.67v-8.79h-16.7v8.79H574.34z M828.79,267.46v8.79h24.17v-8.79H828.79z M598.51,249.88v-8.79h-24.17v8.79H598.51z
					 M754.52,241.09h-24.17v8.79h24.17V241.09z M672.78,267.46v-8.79h-16.7v8.79H672.78z M540.94,258.67v8.79h16.7v-8.79H540.94z
					 M795.39,258.67h16.7v-8.79h-16.7V258.67z M771.22,249.88h24.17v-8.79h-24.17V249.88z M771.22,232.3h-16.7v8.79h16.7V232.3z
					 M927.23,249.88h14.6l0.06-8.79h-14.66V249.88z M442.5,241.09h-14.69l0.06,8.79h14.63V241.09z M598.51,241.09h16.7v-8.79h-16.7
					V241.09z M730.35,249.88h-16.7v8.79h16.7V249.88z M500.07,258.67v8.79h16.7v-8.79H500.07z M927.23,241.09v-8.79h-16.7v8.79
					H927.23z M696.95,267.46h-24.17v8.79h24.17V267.46z M483.37,241.09H459.2v8.79h24.17V241.09z M713.65,258.67h-16.7v8.79h16.7
					V258.67z"/>
			</g>
		</g>
</svg>