<?xml version="1.0" encoding="utf-8"?>
<svg version="1.1"
	 xmlns="http://www.w3.org/2000/svg" xmlns:xlink="http://www.w3.org/1999/xlink" x="0px" y="0px" width="1043.76px"
	 height="693.41px" viewBox="0 0 1043.76 693.41" enable-background="new 0 0 1043.76 693.41" xml:space="preserve">>
<g id="id:drive" display="inline">

				<path id="id:SUB_FIRST_BODY_COLOR_00000015312866916813802110000015982432635110768050_" display="inline" fill="#005B9B" d="
				M382.35,447.8l-0.76,106.31l2.11,2.14l-2.14,2.11l-0.72,100.77l-0.07,9.28l-11.3-0.01l-163.54-0.08l-163.54,0.02l-11.3,0
				l-0.06-9.33l-0.69-100.73l-2.14-2.11l2.11-2.14l-0.72-106.31l-2.14-2.11l2.11-2.14l-0.72-106.31l-2.14-2.11l2.11-2.14
				l-0.64-93.83l-0.02-2.24l5.42-4.91l0.92-0.83l1.81-1.78l1.43-1.58l0.98-1.25l2.85-4.23l0.67-1.23l1.73-3.36l1.59-3.38l0.03-0.07
				l1.44-3.38l1.24-3.21l1.03-3.03l0.87-2.94l0.76-3.02l1.12-5.52l0.64-3.79l0.56-3.89l0.47-3.98l0.46-4.81l0.37-4.97l0.26-4.84
				l0.16-4.87l-0.05-5.53l-0.18-5.69l-0.3-5.75l-0.41-5.63l-0.72-7.76l-0.84-7.69l-0.95-7.61l-1.06-7.49l-1.84-8.86l-2.09-9.15
				l-1.84-7.29l-2.03-7.23l-2.19-6.45l-3.78-11.13l8.81-3l88.42-30.12l6.22-2.12l5.04,8.23l0.04,0.06l3.69,6.02l0.04,0.06l2.91,4.3
				l3.13,4.17l0.05,0.06l2.65,3.16l2.91,3.07l1.2,1.15l0.06,0.05l1.18,1l1.29,0.98l1.37,0.92l2.02,1.21l1.99,1.07l2.09,1.01
				l1.95,0.83l2.27,0.7l2.67,0.73l2.69,0.64l2.69,0.55l1.91,0.32l0.08,0.01l1.82,0.22l1.78,0.14l10.55,0.04l3.7,0.01l2.13-2.13
				l2.13,2.13l3.85-0.01l10.46-0.03l1.78-0.14l1.91-0.23l1.91-0.31l2.69-0.55l2.69-0.64l2.67-0.73l2.36-0.73l1.87-0.8l2.09-1.01
				l2.07-1.11l1.94-1.16l1.37-0.92l1.29-0.98l1.25-1.06l1.19-1.14l2.91-3.06l2.71-3.23l3.12-4.16l2.96-4.37l3.72-6.06l5.04-8.23
				l6.21,2.12l88.41,30.15l8.81,3.01l-3.81,11.19l-2.2,6.47l-2,7.14l-1.87,7.38l-2.08,9.06l-1.86,8.95l-1.04,7.4l-0.96,7.7
				l-0.84,7.69l-0.71,7.66l-0.42,5.72l-0.3,5.66l-0.18,5.69l-0.06,5.62l0.16,4.78l0.26,4.93l0.36,4.87l0.47,4.91l0.46,3.89
				l0.56,3.89l0.66,3.88l1.1,5.43l0.76,3.02l0.89,3.03l1,2.94l1.24,3.21l1.48,3.46l1.58,3.37l1.72,3.36l0.72,1.31l2.81,4.15
				l1.04,1.32l1.37,1.51l1.81,1.78l0.96,0.87l5.37,4.87l-0.02,2.24l-0.67,93.83l2.11,2.14l-2.14,2.11l-0.76,106.31l2.11,2.14
				L382.35,447.8z M942.81,432.45l-2.11-2.14L941.37,324l2.14-2.11l-2.11-2.14l0.59-93.83l0.02-3.92l-0.23-0.11l-2.7-1.49l-2.5-1.64
				l-5.89-4.68l-5.53,4.29l-0.4,0.31l-2.52,1.61l-2.72,1.46l-3.31,1.48l-3.45,1.27l-1.58,0.48l-1.67,0.43l-1.7,0.36l-1.74,0.3
				l-3.49,0.48l-3.54,0.41l-3.55,0.33l-3.36,0.23l-1.17,0l-1.4-0.01l-5.24-0.43l-5.34-0.63l-3.39-0.56l-3.24-0.72l-4.93-1.45
				l-4.91-1.7l-3.29-1.35l-3.24-1.58l-3.35-1.83l-3.17-1.99l-3.06-2.18l-2.62-2.12l-2.01-2.17l-2.23-2.61l-2.12-2.71l-2.01-2.81
				l-2.28-3.47l-2.17-3.56l-2.04-3.64l-1.77-3.43l-0.87-2.22l-0.85-2.5l-0.73-2.54l-0.61-2.6l-0.73-3.77l-0.6-3.82l-0.47-3.84
				l-0.32-3.73l-0.11-3.99l0.02-4.13l0.14-4.12l0.27-4.12l0.39-4.07l0.52-4.08l0.64-4.03l2.46-12.51l1.26-5.32l1.43-5.33l1.76-5.89
				l2.09-6.43l2.25-6.38l2.41-6.35l1.27-3.16l0.05-0.12l0.05-0.12l2.93-7.95l4.07-11.03l-8.63-3.28l-87.36-33.16l-6.29-2.39
				l-6.4,10.04l-0.26,2.15l-4.75,38.68l-0.59,4.82l-0.72,4.72l-0.82,4.76l-0.9,4.73l-0.68,3.19l-0.75,3.16l-0.82,3.09l-0.96,3.17
				l-0.79,2.61l-0.86,2.38l-0.98,2.4l-1.06,2.33l-0.9,1.76l-0.97,1.69l-1.06,1.63l-1.08,1.5l-0.95,1.14l-1.07,1.17l-1.12,1.12
				l-1.16,1.06l-1,0.83l-1.01,0.75l-1.05,0.69l-2.2,1.29l-1.92,0.93l-0.73,0.29l-2.52,0.82l-2.61,0.61l-3.13,0.54l-3.23,0.4
				l-4.47,0.35l-3.98,0.17l-2.09-2.16l-2.16,2.09l-2.26-0.09l-4.47-0.35l-3.23-0.39l-3.13-0.54l-2.61-0.61l-2.52-0.82l-0.73-0.29
				l-1.92-0.93l-2.2-1.29l-1.05-0.69l-1.01-0.75l-1-0.83l-1.16-1.06l-1.12-1.12l-1.07-1.17l-0.95-1.14l-1.08-1.5l-1.06-1.63
				l-0.97-1.69l-0.9-1.76l-1.06-2.33l-0.98-2.4l-0.86-2.38l-0.79-2.61l-0.96-3.17l-0.82-3.09l-0.75-3.16l-0.68-3.19l-0.9-4.73
				l-0.82-4.76l-0.72-4.72l-0.59-4.82l-4.76-38.68l-0.26-2.15l-6.4-10.04l-6.29,2.39L532.4,59.2l-8.63,3.28l4.07,11.02l2.94,7.95
				l0.04,0.12l0.05,0.13l1.27,3.16l2.41,6.35l2.25,6.38l2.09,6.42l1.77,5.89l1.43,5.33l1.26,5.32l2.46,12.51l0.65,4.03l0.52,4.08
				l0.4,4.08l0.27,4.12l0.14,4.12l0.02,4.13l-0.11,3.99l-0.32,3.73l-0.47,3.84l-0.6,3.82l-0.73,3.76l-0.61,2.6l-0.73,2.54l-0.85,2.5
				l-0.87,2.22l-1.77,3.44l-2.04,3.64l-2.17,3.56l-2.28,3.47l-2.01,2.81l-2.11,2.71l-2.22,2.61l-2.01,2.17l-2.62,2.12l-3.05,2.18
				l-3.18,1.99l-3.35,1.83l-3.24,1.59l-3.28,1.35l-4.91,1.7l-4.93,1.45l-3.24,0.72l-3.39,0.56l-5.34,0.64l-5.24,0.43l-1.32,0.01
				l-1.25,0l-3.36-0.23l-3.55-0.32l-3.54-0.4l-3.49-0.48l-1.74-0.3l-1.69-0.36l-1.67-0.43l-1.58-0.48l-3.45-1.27l-3.31-1.48
				l-2.72-1.46l-2.52-1.61l-0.4-0.31l-5.54-4.29l-5.88,4.68l-2.5,1.64l-2.7,1.49l-0.23,0.11l0.03,3.92l0.62,93.83l-2.11,2.14
				l2.14,2.11l0.71,106.31l-2.11,2.14l2.14,2.11l0.71,106.31l-2.11,2.14l2.14,2.11l0.67,100.77l0.06,9.28h11.3h243.06l243.07-0.09
				l11.3,0l0.06-9.28l0.63-100.78l2.14-2.11l-2.11-2.14l0.67-106.31L942.81,432.45z"/>

				<path id="id:SUB_FIRST_ACCENT_2_00000056397392257800733180000001323843855957997473_" display="inline" fill="#F1582A" d="
				M517.06,217.31l2.95-1.85v439.8h-6.75h-58.5h-6.75v-434.6l2.16,1.16l3.31,1.48l1.28,0.47l2.17,0.8l1.58,0.48l1.67,0.43l1.69,0.36
				l1.74,0.3l3.49,0.48l3.54,0.4l3.55,0.32l3.36,0.23l1.25,0l1.32-0.01l5.24-0.43l5.34-0.64l3.39-0.56l3.24-0.72l4.93-1.45l4.91-1.7
				l3.28-1.35l2.79-1.36l0.45-0.22L517.06,217.31z M919.56,221.83l-3.31,1.48l-1.28,0.47l-2.17,0.8l-1.58,0.48l-1.67,0.43
				l-1.69,0.36l-1.74,0.3l-3.49,0.48l-3.54,0.4l-3.55,0.32l-3.36,0.23l-1.25,0l-1.32-0.01l-5.24-0.43l-5.34-0.64l-3.39-0.56
				l-3.24-0.72l-4.93-1.45l-4.91-1.7l-3.28-1.35l-2.79-1.36l-0.45-0.22l-3.35-1.83l-2.95-1.85v439.8h6.75h58.5h6.75v-434.6
				L919.56,221.83z"/>

				<path id="id:SUB_FIRST_ACCENT_1_00000106142832223186403830000009496940079094425984_" display="inline" fill="#68737A" d="
				M510.47,220.72l2.79-1.36v54.1v38.18v38.18v38.18v267.26h-58.5V388.01v-38.18v-38.18v-38.18v-49.68l2.17,0.8l1.58,0.48l1.67,0.43
				l1.69,0.36l1.74,0.3l3.49,0.48l3.54,0.4l3.55,0.32l3.36,0.23l1.25,0l1.32-0.01l5.24-0.43l5.34-0.64l3.39-0.56l3.24-0.72
				l4.93-1.45l4.91-1.7L510.47,220.72z M912.8,224.57l-1.58,0.48l-1.67,0.43l-1.69,0.36l-1.74,0.3l-3.49,0.48l-3.54,0.4l-3.55,0.32
				l-3.36,0.23l-1.25,0l-1.32-0.01l-5.24-0.43l-5.34-0.64l-3.39-0.56l-3.24-0.72l-4.93-1.45l-4.91-1.7l-3.28-1.35l-2.79-1.36v54.1
				v38.18v38.18v38.18v267.26h58.5V388.01v-38.18v-38.18v-38.18v-49.68L912.8,224.57z"/>
			<path id="id:SUB_FIRST_ACCENT_3" display="inline" fill="#009949" d="M484.01,340.89l-29.25-29.25v-38.18
				l29.25,29.25l29.25-29.25v38.18L503.1,321.8L484.01,340.89z M503.1,398.16l10.16-10.16v-38.18l-29.25,29.25l-29.25-29.25v38.18
				l29.25,29.25L503.1,398.16z M885.72,340.89l29.25-29.25v-38.18l-29.25,29.25l-29.25-29.25v38.18l10.16,10.16L885.72,340.89z
				 M885.72,417.26l29.25-29.25v-38.18l-29.25,29.25l-29.25-29.25v38.18l10.16,10.16L885.72,417.26z"/>
		</g>
</svg>