<?xml version="1.0" encoding="utf-8"?>
<svg version="1.1"
	 xmlns="http://www.w3.org/2000/svg" xmlns:xlink="http://www.w3.org/1999/xlink" x="0px" y="0px" width="1043.76px"
	 height="693.41px" viewBox="0 0 1043.76 693.41" enable-background="new 0 0 1043.76 693.41" xml:space="preserve">>
<g id="id:indiana" display="inline">

				<path id="id:SUB_FIRST_BODY_COLOR_00000044890313032122933390000013203719601287869619_" display="inline" fill="#005B9B" d="
				M382.44,447.87l-0.76,106.31l2.11,2.14l-2.14,2.11l-0.72,100.77l-0.07,9.28l-11.3-0.01l-163.54-0.08l-163.54,0.02l-11.3,0
				l-0.06-9.33l-0.69-100.73l-2.14-2.11l2.11-2.14L29.67,447.8l-2.14-2.11l2.11-2.14l-0.72-106.31l-2.14-2.11l2.11-2.14l-0.64-93.83
				l-0.02-2.24l5.42-4.91l0.92-0.83l1.81-1.78l1.43-1.58l0.98-1.25l2.85-4.23l0.67-1.23l1.73-3.36l1.59-3.38l0.03-0.07l1.44-3.38
				l1.24-3.21l1.03-3.03l0.87-2.94l0.76-3.02l1.12-5.52l0.64-3.79l0.56-3.89l0.47-3.98l0.46-4.81l0.37-4.97l0.26-4.84l0.16-4.87
				l-0.05-5.53l-0.18-5.69l-0.3-5.75l-0.41-5.63l-0.72-7.76l-0.84-7.69l-0.95-7.61l-1.06-7.49l-1.84-8.86l-2.09-9.15l-1.84-7.29
				l-2.03-7.23l-2.19-6.45L36.75,58.8l8.81-3l88.42-30.12l6.22-2.12l5.04,8.23l0.04,0.06l3.69,6.02l0.04,0.06l2.91,4.3l3.13,4.17
				l0.05,0.06l2.65,3.16l2.91,3.07l1.2,1.15l0.06,0.05l1.18,1l1.29,0.98l1.37,0.92l2.02,1.21l1.99,1.07l2.09,1.01l1.95,0.83
				l2.27,0.7l2.67,0.73l2.69,0.64l2.69,0.55l1.91,0.32l0.08,0.01l1.82,0.22l1.78,0.14l10.55,0.04l3.7,0.01l2.13-2.13l2.13,2.13
				l3.85-0.01l10.46-0.03l1.78-0.14l1.91-0.23l1.91-0.31l2.69-0.55l2.69-0.64l2.67-0.73l2.36-0.73l1.87-0.8l2.09-1.01l2.07-1.11
				l1.94-1.16l1.37-0.92l1.29-0.98l1.25-1.06l1.19-1.14l2.91-3.06l2.71-3.23l3.12-4.16l2.96-4.37l3.72-6.06l5.04-8.23l6.21,2.12
				l88.41,30.15l8.81,3.01l-3.81,11.19l-2.2,6.47l-2,7.14l-1.87,7.38l-2.08,9.06l-1.86,8.95l-1.04,7.4l-0.96,7.7l-0.84,7.69
				l-0.71,7.66l-0.42,5.72l-0.3,5.66l-0.18,5.69l-0.06,5.62l0.16,4.78l0.26,4.93l0.36,4.87l0.47,4.91l0.46,3.89l0.56,3.89l0.66,3.88
				l1.1,5.43l0.76,3.02l0.89,3.03l1,2.94l1.24,3.21l1.48,3.46l1.58,3.37l1.72,3.36l0.72,1.31l2.81,4.15l1.04,1.32l1.37,1.51
				l1.81,1.78l0.96,0.87l5.37,4.87l-0.02,2.24l-0.67,93.83l2.11,2.14l-2.14,2.11l-0.76,106.31l2.11,2.14L382.44,447.87z
				 M942.83,432.42l-2.11-2.14l0.67-106.31l2.14-2.11l-2.11-2.14l0.59-93.83l0.02-3.92l-0.23-0.11l-2.7-1.49l-2.5-1.64l-5.89-4.68
				l-5.53,4.29l-0.4,0.31l-2.52,1.61l-2.72,1.46l-3.31,1.48l-3.45,1.27l-1.58,0.48l-1.67,0.43l-1.7,0.36l-1.74,0.3l-3.49,0.48
				l-3.54,0.41l-3.55,0.33l-3.36,0.23l-1.17,0l-1.4-0.01l-5.24-0.43l-5.34-0.63l-3.39-0.56l-3.24-0.72l-4.93-1.45l-4.91-1.7
				l-3.29-1.35l-3.24-1.58l-3.35-1.83l-3.17-1.99l-3.06-2.18l-2.62-2.12l-2.01-2.17l-2.23-2.61l-2.12-2.71l-2.01-2.81l-2.28-3.47
				l-2.17-3.56l-2.04-3.64l-1.77-3.43l-0.87-2.22l-0.85-2.5l-0.73-2.54l-0.61-2.6l-0.73-3.77l-0.6-3.82l-0.47-3.84l-0.32-3.73
				l-0.11-3.99l0.02-4.13l0.14-4.12l0.27-4.12l0.39-4.07l0.52-4.08l0.64-4.03l2.46-12.51l1.26-5.32l1.43-5.33l1.76-5.89l2.09-6.43
				l2.25-6.38l2.41-6.35l1.27-3.16l0.05-0.12l0.05-0.12l2.93-7.95l4.07-11.03l-8.63-3.28l-87.36-33.16l-6.29-2.39l-6.4,10.04
				l-0.26,2.15l-4.75,38.68l-0.59,4.82l-0.72,4.72l-0.82,4.76l-0.9,4.73l-0.68,3.19l-0.75,3.16l-0.82,3.09l-0.96,3.17l-0.79,2.61
				l-0.86,2.38l-0.98,2.4l-1.06,2.33l-0.9,1.76l-0.97,1.69l-1.06,1.63l-1.08,1.5l-0.95,1.14l-1.07,1.17l-1.12,1.12l-1.16,1.06
				l-1,0.83l-1.01,0.75l-1.05,0.69l-2.2,1.29l-1.92,0.93l-0.73,0.29l-2.52,0.82l-2.61,0.61l-3.13,0.54l-3.23,0.4l-4.47,0.35
				l-3.98,0.17l-2.09-2.16l-2.16,2.09l-2.26-0.09l-4.47-0.35l-3.23-0.39l-3.13-0.54l-2.61-0.61l-2.52-0.82l-0.73-0.29l-1.92-0.93
				l-2.2-1.29l-1.05-0.69l-1.01-0.75l-1-0.83l-1.16-1.06l-1.12-1.12l-1.07-1.17l-0.95-1.14l-1.08-1.5l-1.06-1.63l-0.97-1.69
				l-0.9-1.76l-1.06-2.33l-0.98-2.4l-0.86-2.38l-0.79-2.61l-0.96-3.17l-0.82-3.09l-0.75-3.16l-0.68-3.19l-0.9-4.73L638.79,84
				l-0.72-4.72l-0.59-4.82l-4.76-38.68l-0.26-2.15l-6.4-10.04l-6.29,2.39l-87.35,33.19l-8.63,3.28l4.07,11.02l2.94,7.95l0.04,0.12
				l0.05,0.13l1.27,3.16l2.41,6.35l2.25,6.38l2.09,6.42l1.77,5.89l1.43,5.33l1.26,5.32l2.46,12.51l0.65,4.03l0.52,4.08l0.4,4.08
				l0.27,4.12l0.14,4.12l0.02,4.13l-0.11,3.99l-0.32,3.73l-0.47,3.84l-0.6,3.82l-0.73,3.76l-0.61,2.6l-0.73,2.54l-0.85,2.5
				l-0.87,2.22l-1.77,3.44l-2.04,3.64l-2.17,3.56l-2.28,3.47l-2.01,2.81l-2.11,2.71l-2.22,2.61l-2.01,2.17l-2.62,2.12l-3.05,2.18
				l-3.18,1.99l-3.35,1.83l-3.24,1.59l-3.28,1.35l-4.91,1.7l-4.93,1.45l-3.24,0.72l-3.39,0.56l-5.34,0.64l-5.24,0.43l-1.32,0.01
				l-1.25,0l-3.36-0.23l-3.55-0.32l-3.54-0.4l-3.49-0.48l-1.74-0.3l-1.69-0.36l-1.67-0.43l-1.58-0.48l-3.45-1.27l-3.31-1.48
				l-2.72-1.46l-2.52-1.61l-0.4-0.31l-5.54-4.29l-5.88,4.68l-2.5,1.64l-2.7,1.49l-0.23,0.11l0.03,3.92l0.62,93.83l-2.11,2.14
				l2.14,2.11l0.71,106.31l-2.11,2.14l2.14,2.11l0.71,106.31l-2.11,2.14l2.14,2.11l0.67,100.77l0.06,9.28h11.3h243.06L928,655.15
				l11.3,0l0.06-9.28l0.63-100.78l2.14-2.11l-2.11-2.14l0.67-106.31L942.83,432.42z"/>

				<polygon id="id:SUB_FIRST_ACCENT_1_00000121243280072122972550000005417499554531994806_" display="inline" fill="#68737A" points="
				475.77,227.43 474.22,227.33 470.66,227 467.13,226.6 463.63,226.12 461.89,225.82 460.2,225.46 458.52,225.03 456.94,224.55
				453.49,223.28 450.18,221.8 447.47,220.35 444.94,218.74 444.54,218.43 439,214.14 433.12,218.82 430.62,220.47 427.93,221.96
				427.69,222.07 427.72,225.99 427.86,246.6 428.29,311.36 428.34,319.82 428.15,320.02 426.23,321.96 428.37,324.08
				428.52,346.65 428.55,350.99 428.69,372.58 428.71,374.71 428.8,388.14 428.81,390.47 428.9,403.89 428.92,406.76 429.01,420.46
				429.03,423.08 429.08,430.38 426.97,432.52 429.11,434.63 429.12,436.41 429.14,439.83 429.22,452.58 429.25,456.92
				429.34,469.22 429.36,473.56 429.45,486.02 429.47,490.18 429.57,504.41 429.6,509.5 429.68,521.63 429.72,527.23 429.8,539.34
				429.81,540.94 427.7,543.08 429.84,545.2 429.84,545.51 429.91,556.34 429.95,561.9 430.03,573.54 430.07,579.13 430.15,592.53
				430.19,598.52 430.41,631.71 430.51,645.97 430.57,655.24 436.37,655.24 441.87,655.24 446.49,655.24 452.17,655.24
				460.41,655.24 465.99,655.24 475.73,655.24 481.19,655.24 489.85,655.24 495.19,655.24 502.87,655.24 508.12,655.24
				515.82,655.24 521.93,655.24 529.96,655.24 535.9,655.24 543.25,655.24 549.03,655.24 555.81,655.24 561.36,655.24
				568.29,655.24 573.73,655.24 579.16,655.24 584.46,655.24 589.9,655.24 595.08,655.24 600.36,655.24 605.37,655.24
				609.72,655.24 614.6,655.24 619.37,655.24 623.8,655.24 684.56,655.24 			"/>

				<polygon id="id:SUB_FIRST_ACCENT_2_00000031908867295324128810000000139243756220318858_" display="inline" fill="#F1582A" points="
				623.66,654.95 620.92,649.22 619.17,645.58 616.11,639.19 615.02,636.93 610.67,627.86 606.82,619.83 598.4,602.26
				594.57,594.29 585.78,575.95 582.89,569.93 574.99,553.45 571.96,547.12 563.78,530.06 560.37,522.96 553.11,507.8
				550.42,502.21 543.19,487.11 541.05,482.67 532.71,465.27 530.48,460.62 523.34,445.72 521.3,441.47 514.02,426.29 512.49,423.1
				504.98,407.44 503.69,404.75 496.61,389.97 495.44,387.55 488.79,373.68 487.78,371.56 481.05,357.54 480.14,355.63
				427.86,246.6 428.29,311.36 428.34,319.82 428.15,320.02 426.23,321.96 428.37,324.08 428.52,346.65 428.55,350.99
				428.69,372.58 428.71,374.71 428.8,388.14 428.81,390.47 428.9,403.89 428.92,406.76 429.01,420.46 429.03,423.08 429.08,430.38
				426.97,432.52 429.11,434.63 429.12,436.41 429.14,439.83 429.22,452.58 429.25,456.92 429.34,469.22 429.36,473.56
				429.45,486.02 429.47,490.18 429.57,504.41 429.6,509.5 429.68,521.63 429.72,527.23 429.8,539.34 429.81,540.94 427.7,543.08
				429.84,545.2 429.84,545.51 429.91,556.34 429.95,561.9 430.03,573.54 430.07,579.13 430.15,592.53 430.19,598.52 430.41,631.71
				430.51,645.97 430.57,655.24 436.37,655.24 441.87,655.24 446.49,655.24 452.17,655.24 460.41,655.24 465.99,655.24
				475.73,655.24 481.19,655.24 489.85,655.24 495.19,655.24 502.87,655.24 508.12,655.24 515.82,655.24 521.93,655.24
				529.96,655.24 535.9,655.24 543.25,655.24 549.03,655.24 555.81,655.24 561.36,655.24 568.29,655.24 573.73,655.24
				579.16,655.24 584.46,655.24 589.9,655.24 595.08,655.24 600.36,655.24 605.37,655.24 609.72,655.24 614.6,655.24 619.37,655.24
				623.8,655.24 			"/>

				<path id="id:SUB_FIRST_ACCENT_3_00000052067907618363630560000004217528505245836449_" display="inline" fill="#009949" d="
				M432.22,598.85l-2.03-0.33l-0.04-5.98l176.67,27.29l3.85,8.03l-13.54-2.2l-11.36-7.16c0,0,3.91,2.67,10.22,6.97l-11.22-1.82
				l-13.17-8.4c0,0,4.6,3.17,11.88,8.19l-11.43-1.86l-10.65-6.89c0,0,3.65,2.56,9.59,6.71l-8.9-1.45l-9.89-6.64
				c0,0,3.37,2.46,8.88,6.48l-8.24-1.34l-9.26-6.49c0,0,3.14,2.4,8.3,6.33l-9.97-1.62l-9.32-6.76c0,0,3.16,2.5,8.34,6.61l-8.94-1.45
				l-8.31-6.37c0,0,2.79,2.35,7.41,6.22l-8.78-1.43l-7.58-6.16c0,0,2.53,2.26,6.72,6.02l-10.57-1.72l-5.57-4.81
				c0,0,1.82,1.74,4.9,4.7l-8.86-1.44l-6.63-6.28c0,0,2.18,2.31,5.79,6.15l-9.55-1.55l-5.68-5.92c0,0,1.83,2.17,4.9,5.79l-8.05-1.31
				l-4.6-5.57c0,0,1.44,2.04,3.87,5.46l-7.99-1.3l-4.05-5.8c0,0,1.28,2.13,3.44,5.7l-9.71-1.58l-2.89-4.63c0,0,0.89,1.68,2.4,4.55
				l-9.53-1.55l-1.85-3.49c0,0,0.54,1.25,1.48,3.43l-9.47-1.54l-0.99-2.38c0,0,0.27,0.84,0.74,2.34l-10.62-1.73l-0.41-1.17
				C431.94,597.69,432.04,598.1,432.22,598.85z M594.57,594.29l-164.55-20.75l0.04,5.59l168.33,23.13L594.57,594.29z M582.89,569.93
				l-152.98-13.59l0.04,5.56l155.83,14.04L582.89,569.93z M571.96,547.12l-142.15-7.77l0.01,1.6l-2.11,2.14l2.14,2.11l0,0.32
				l145.15,7.94L571.96,547.12z M560.37,522.96l-130.69-1.34l0.04,5.6l134.06,2.83L560.37,522.96z M550.42,502.21l-120.85,2.2
				l0.03,5.09l123.5-1.7L550.42,502.21z M541.05,482.67l-111.61,3.35l0.03,4.16l113.71-3.07L541.05,482.67z M530.48,460.62
				l-101.14,8.6l0.03,4.34l103.35-8.29L530.48,460.62z M521.3,441.47l-92.07,11.11l0.03,4.35l94.08-11.2L521.3,441.47z
				 M512.49,423.1l-83.37,13.3l0.02,3.43l84.88-13.54L512.49,423.1z M503.69,404.75l-74.68,15.71l0.02,2.62l75.95-15.64
				L503.69,404.75z M495.44,387.55l-66.54,16.34l0.02,2.87l67.69-16.78L495.44,387.55z M487.78,371.56l-58.98,16.58l0.02,2.32
				l59.98-16.79L487.78,371.56z M480.14,355.63l-51.44,16.95l0.01,2.13l52.34-17.17L480.14,355.63z M431.44,255.73l-1.68,19.17
				l32.21,85.44L431.44,255.73z M428.29,311.36l0.06,8.47l-0.2,0.2L450.43,364L428.29,311.36z M428.52,346.65l0.03,4.34l10.39,15.73
				L428.52,346.65z M430.51,645.97l0.06,9.28h5.79l-5.95-23.54L430.51,645.97z M431.94,597.69c0,0,0.1,0.41,0.29,1.15
				c1.54,6.14,8.9,35.48,14.27,56.4h5.68l-19.82-56.38L431.94,597.69z M442.23,598.25c0,0,0.27,0.84,0.74,2.34
				c2.54,7.99,11.06,34.85,17.44,54.65h5.58l-22.77-54.61L442.23,598.25z M451.21,598.75c0,0,0.54,1.25,1.48,3.43
				c3.9,9.02,14.73,34.05,23.04,53.07h5.46l-28.13-53.01L451.21,598.75z M460.19,599.24c0,0,0.89,1.68,2.4,4.55
				c5.14,9.73,17.52,33.17,27.26,51.46h5.34l-32.11-51.38L460.19,599.24z M469.36,599.74c0,0,1.28,2.13,3.44,5.7
				c6.16,10.22,19.43,32.23,30.08,49.8h5.25l-34.71-49.7L469.36,599.74z M477.53,601.38c0,0,1.44,2.04,3.87,5.46
				c6.97,9.82,22.07,31.08,34.42,48.4h6.11l-39.81-48.29L477.53,601.38z M485.28,602.48c0,0,1.83,2.17,4.9,5.79
				c8.25,9.76,25.44,30.07,39.79,46.98h5.94l-44.95-46.85L485.28,602.48z M494.72,603.8c0,0,2.18,2.31,5.79,6.15
				c9.09,9.64,27.25,28.91,42.74,45.3h5.78l-47.68-45.16L494.72,603.8z M505.32,606.82c0,0,1.82,1.74,4.9,4.7
				c8.93,8.57,28.53,27.38,45.59,43.72h5.55l-50.48-43.61L505.32,606.82z M514.74,607.34c0,0,2.53,2.26,6.72,6.02
				c10.01,8.96,29.53,26.43,46.84,41.89h5.44l-51.42-41.75L514.74,607.34z M523.69,608.7c0,0,2.79,2.35,7.41,6.22
				c10.45,8.77,30.23,25.38,48.06,40.32h5.3l-52.45-40.18L523.69,608.7z M532.6,609.92c0,0,3.16,2.5,8.34,6.61
				c10.92,8.64,30.8,24.37,48.95,38.72h5.18l-53.15-38.56L532.6,609.92z M543.6,611.97c0,0,3.14,2.4,8.3,6.33
				c10.76,8.2,30.29,23.1,48.46,36.94h5.02l-52.52-36.79L543.6,611.97z M552.21,613.32c0,0,3.37,2.46,8.88,6.48
				c10.94,7.98,30.33,22.12,48.62,35.45h4.88l-52.5-35.28L552.21,613.32z M572.05,621.58l-10.65-6.89c0,0,3.65,2.56,9.59,6.71
				c11.08,7.76,30.15,21.09,48.38,33.84h4.43l-0.14-0.29L572.05,621.58z M571.6,615.25c0,0,4.6,3.17,11.88,8.19
				c9.37,6.46,23.2,15.98,37.44,25.78l-1.75-3.64l-34.4-21.93L571.6,615.25z M585.77,618.5c0,0,3.91,2.67,10.22,6.97
				c5.31,3.62,12.31,8.4,20.11,13.72l-1.09-2.26l-17.89-11.27L585.77,618.5z"/>
		</g>
</svg>