<?xml version="1.0" encoding="utf-8"?>
<svg version="1.1"
	 xmlns="http://www.w3.org/2000/svg" xmlns:xlink="http://www.w3.org/1999/xlink" x="0px" y="0px" width="1043.76px"
	 height="693.41px" viewBox="0 0 1043.76 693.41" enable-background="new 0 0 1043.76 693.41" xml:space="preserve">>
<g id="id:orlando" display="inline">

				<path id="id:SUB_FIRST_BODY_COLOR_00000128457267358073765150000001939068431300955830_" display="inline" fill="#005B9B" d="
				M382.44,447.87l-0.76,106.31l2.11,2.14l-2.14,2.11l-0.72,100.77l-0.07,9.28l-11.3-0.01l-163.54-0.08l-163.54,0.02l-11.3,0
				l-0.06-9.33l-0.69-100.73l-2.14-2.11l2.11-2.14L29.67,447.8l-2.14-2.11l2.11-2.14l-0.72-106.31l-2.14-2.11l2.11-2.14l-0.64-93.83
				l-0.02-2.24l5.42-4.91l0.92-0.83l1.81-1.78l1.43-1.58l0.98-1.25l2.85-4.23l0.67-1.23l1.73-3.36l1.59-3.38l0.03-0.07l1.44-3.38
				l1.24-3.21l1.03-3.03l0.87-2.94l0.76-3.02l1.12-5.52l0.64-3.79l0.56-3.89l0.47-3.98l0.46-4.81l0.37-4.97l0.26-4.84l0.16-4.87
				l-0.05-5.53l-0.18-5.69l-0.3-5.75l-0.41-5.63l-0.72-7.76l-0.84-7.69l-0.95-7.61l-1.06-7.49l-1.84-8.86l-2.09-9.15l-1.84-7.29
				l-2.03-7.23l-2.19-6.45L36.75,58.8l8.81-3l88.42-30.12l6.22-2.12l5.04,8.23l0.04,0.06l3.69,6.02l0.04,0.06l2.91,4.3l3.13,4.17
				l0.05,0.06l2.65,3.16l2.91,3.07l1.2,1.15l0.06,0.05l1.18,1l1.29,0.98l1.37,0.92l2.02,1.21l1.99,1.07l2.09,1.01l1.95,0.83
				l2.27,0.7l2.67,0.73l2.69,0.64l2.69,0.55l1.91,0.32l0.08,0.01l1.82,0.22l1.78,0.14l10.55,0.04l3.7,0.01l2.13-2.13l2.13,2.13
				l3.85-0.01l10.46-0.03l1.78-0.14l1.91-0.23l1.91-0.31l2.69-0.55l2.69-0.64l2.67-0.73l2.36-0.73l1.87-0.8l2.09-1.01l2.07-1.11
				l1.94-1.16l1.37-0.92l1.29-0.98l1.25-1.06l1.19-1.14l2.91-3.06l2.71-3.23l3.12-4.16l2.96-4.37l3.72-6.06l5.04-8.23l6.21,2.12
				l88.41,30.15l8.81,3.01l-3.81,11.19l-2.2,6.47l-2,7.14l-1.87,7.38l-2.08,9.06l-1.86,8.95l-1.04,7.4l-0.96,7.7l-0.84,7.69
				l-0.71,7.66l-0.42,5.72l-0.3,5.66l-0.18,5.69l-0.06,5.62l0.16,4.78l0.26,4.93l0.36,4.87l0.47,4.91l0.46,3.89l0.56,3.89l0.66,3.88
				l1.1,5.43l0.76,3.02l0.89,3.03l1,2.94l1.24,3.21l1.48,3.46l1.58,3.37l1.72,3.36l0.72,1.31l2.81,4.15l1.04,1.32l1.37,1.51
				l1.81,1.78l0.96,0.87l5.37,4.87l-0.02,2.24l-0.67,93.83l2.11,2.14l-2.14,2.11l-0.76,106.31l2.11,2.14L382.44,447.87z
				 M942.83,432.42l-2.11-2.14l0.67-106.31l2.14-2.11l-2.11-2.14l0.59-93.83l0.02-3.92l-0.23-0.11l-2.7-1.49l-2.5-1.64l-5.89-4.68
				l-5.53,4.29l-0.4,0.31l-2.52,1.61l-2.72,1.46l-3.31,1.48l-3.45,1.27l-1.58,0.48l-1.67,0.43l-1.7,0.36l-1.74,0.3l-3.49,0.48
				l-3.54,0.41l-3.55,0.33l-3.36,0.23l-1.17,0l-1.4-0.01l-5.24-0.43l-5.34-0.63l-3.39-0.56l-3.24-0.72l-4.93-1.45l-4.91-1.7
				l-3.29-1.35l-3.24-1.58l-3.35-1.83l-3.17-1.99l-3.06-2.18l-2.62-2.12l-2.01-2.17l-2.23-2.61l-2.12-2.71l-2.01-2.81l-2.28-3.47
				l-2.17-3.56l-2.04-3.64l-1.77-3.43l-0.87-2.22l-0.85-2.5l-0.73-2.54l-0.61-2.6l-0.73-3.77l-0.6-3.82l-0.47-3.84l-0.32-3.73
				l-0.11-3.99l0.02-4.13l0.14-4.12l0.27-4.12l0.39-4.07l0.52-4.08l0.64-4.03l2.46-12.51l1.26-5.32l1.43-5.33l1.76-5.89l2.09-6.43
				l2.25-6.38l2.41-6.35l1.27-3.16l0.05-0.12l0.05-0.12l2.93-7.95l4.07-11.03l-8.63-3.28l-87.36-33.16l-6.29-2.39l-6.4,10.04
				l-0.26,2.15l-4.75,38.68l-0.59,4.82l-0.72,4.72l-0.82,4.76l-0.9,4.73l-0.68,3.19l-0.75,3.16l-0.82,3.09l-0.96,3.17l-0.79,2.61
				l-0.86,2.38l-0.98,2.4l-1.06,2.33l-0.9,1.76l-0.97,1.69l-1.06,1.63l-1.08,1.5l-0.95,1.14l-1.07,1.17l-1.12,1.12l-1.16,1.06
				l-1,0.83l-1.01,0.75l-1.05,0.69l-2.2,1.29l-1.92,0.93l-0.73,0.29l-2.52,0.82l-2.61,0.61l-3.13,0.54l-3.23,0.4l-4.47,0.35
				l-3.98,0.17l-2.09-2.16l-2.16,2.09l-2.26-0.09l-4.47-0.35l-3.23-0.39l-3.13-0.54l-2.61-0.61l-2.52-0.82l-0.73-0.29l-1.92-0.93
				l-2.2-1.29l-1.05-0.69l-1.01-0.75l-1-0.83l-1.16-1.06l-1.12-1.12l-1.07-1.17l-0.95-1.14l-1.08-1.5l-1.06-1.63l-0.97-1.69
				l-0.9-1.76l-1.06-2.33l-0.98-2.4l-0.86-2.38l-0.79-2.61l-0.96-3.17l-0.82-3.09l-0.75-3.16l-0.68-3.19l-0.9-4.73L638.79,84
				l-0.72-4.72l-0.59-4.82l-4.76-38.68l-0.26-2.15l-6.4-10.04l-6.29,2.39l-87.35,33.19l-8.63,3.28l4.07,11.02l2.94,7.95l0.04,0.12
				l0.05,0.13l1.27,3.16l2.41,6.35l2.25,6.38l2.09,6.42l1.77,5.89l1.43,5.33l1.26,5.32l2.46,12.51l0.65,4.03l0.52,4.08l0.4,4.08
				l0.27,4.12l0.14,4.12l0.02,4.13l-0.11,3.99l-0.32,3.73l-0.47,3.84l-0.6,3.82l-0.73,3.76l-0.61,2.6l-0.73,2.54l-0.85,2.5
				l-0.87,2.22l-1.77,3.44l-2.04,3.64l-2.17,3.56l-2.28,3.47l-2.01,2.81l-2.11,2.71l-2.22,2.61l-2.01,2.17l-2.62,2.12l-3.05,2.18
				l-3.18,1.99l-3.35,1.83l-3.24,1.59l-3.28,1.35l-4.91,1.7l-4.93,1.45l-3.24,0.72l-3.39,0.56l-5.34,0.64l-5.24,0.43l-1.32,0.01
				l-1.25,0l-3.36-0.23l-3.55-0.32l-3.54-0.4l-3.49-0.48l-1.74-0.3l-1.69-0.36l-1.67-0.43l-1.58-0.48l-3.45-1.27l-3.31-1.48
				l-2.72-1.46l-2.52-1.61l-0.4-0.31l-5.54-4.29l-5.88,4.68l-2.5,1.64l-2.7,1.49l-0.23,0.11l0.03,3.92l0.62,93.83l-2.11,2.14
				l2.14,2.11l0.71,106.31l-2.11,2.14l2.14,2.11l0.71,106.31l-2.11,2.14l2.14,2.11l0.67,100.77l0.06,9.28h11.3h243.06L928,655.15
				l11.3,0l0.06-9.28l0.63-100.78l2.14-2.11l-2.11-2.14l0.67-106.31L942.83,432.42z"/>

				<path id="id:SUB_FIRST_ACCENT_1_00000052097409620959696200000016573887800437066397_" display="inline" fill="#68737A" d="
				M526.63,61.37l1.25-0.47v12.67l-0.03-0.09l-1.22-3.29V61.37z M527.88,208.9l-1.25,1.35v445h1.25V208.9z M550.4,52.34l-1.25,0.48
				v602.43h1.25V52.34z M572.91,43.78l-1.25,0.47v610.99h1.25V43.78z M595.43,35.22l-1.25,0.47v619.54h1.25V35.22z M617.95,26.67
				l-1.25,0.47v628.1h1.25V26.67z M436.56,655.24h1.25V215.09l-1.25,0.99V655.24z M459.08,225.17v430.08h1.25V225.49l-0.13-0.03
				L459.08,225.17z M481.59,655.24h1.25V227.33l-1.25,0.1V655.24z M504.11,655.24h1.25V222.69l-1.25,0.43V655.24z M639.22,86.5
				v568.74h1.25V93.31l-0.86-4.54L639.22,86.5z M661.73,130.81v524.44h1.25V131.41l-0.08-0.03L661.73,130.81z M684.25,655.24h0.68
				l0.57,0V133.92l-1.25-1.29V655.24z M706.77,131.37v523.87l1.25,0V130.76L706.77,131.37L706.77,131.37z M729.29,92.85v562.38
				l1.25,0V85.98l-0.47,2.77L729.29,92.85z M751.8,655.22l1.25,0V27.16l-1.25-0.47V655.22z M775.57,35.7l-1.25-0.47v619.98l1.25,0
				V35.7z M798.09,44.25l-1.25-0.47V655.2l1.25,0V44.25z M820.61,52.8l-1.25-0.47v602.87l1.25,0V52.8z M843.12,210.23l-1.25-1.35
				v446.3l1.25,0V210.23z M843.12,61.34l-1.25-0.47v12.39l1.25-3.39V61.34z M864.39,655.17l1.25,0V223.06l-1.25-0.43V655.17z
				 M886.91,655.17l1.25,0V227.35l-1.25-0.1V655.17z M909.42,225.39v429.77l1.25,0V225.07l-1.15,0.3L909.42,225.39z M931.94,655.15
				l1.25,0V216.02l-1.25-0.99V655.15z M47.83,96.3l0.86,3.74l0.39,1.9V54.6l-1.25,0.43V96.3z M49.08,205.53l-0.74,2.19l-0.51,1.32
				v459.37l1.25,0V205.53z M71.6,46.93l-1.25,0.43V668.4l1.25,0V46.93z M94.12,39.26l-1.25,0.43V668.4l1.25,0V39.26z M116.63,31.59
				l-1.25,0.43V668.4l1.25,0V31.59z M139.15,668.4V24.66h-1.25V668.4L139.15,668.4z M160.42,52.44V668.4l1.25,0V53.66l-1.01-0.97
				L160.42,52.44z M182.94,63.29v605.1l1.25,0V63.54l-0.06-0.01L182.94,63.29z M205.45,62.78v605.61l0.57,0l0.68,0V62.74l-0.6-0.6
				L205.45,62.78z M227.97,63.57V668.4l1.25,0V63.32l-1.08,0.22L227.97,63.57z M250.49,53.78v614.63l1.25,0V52.57l-0.13,0.14
				L250.49,53.78z M274.25,668.42V24.66H273v643.77L274.25,668.42z M295.52,668.44l1.25,0V32.02l-1.25-0.43V668.44z M319.29,39.7
				l-1.25-0.43v629.18l1.25,0V39.7z M341.81,47.38l-1.25-0.43v621.51l1.25,0V47.38z M364.32,208.97l-0.46-1.19l-0.79-2.33v463.02
				l1.25,0V208.97z M363.07,102.43l0.48-2.32l0.77-3.35v-41.7l-1.25-0.43V102.43z"/>
		</g>
</svg>