<?xml version="1.0" encoding="utf-8"?>
<svg version="1.1"
	 xmlns="http://www.w3.org/2000/svg" xmlns:xlink="http://www.w3.org/1999/xlink" x="0px" y="0px" width="1043.76px"
	 height="693.41px" viewBox="0 0 1043.76 693.41" enable-background="new 0 0 1043.76 693.41" xml:space="preserve">>
<g id="id:slash" display="inline">

				<path id="id:SUB_FIRST_BODY_COLOR_00000064335221775151519670000002367677245288820394_" display="inline" fill="#005B9B" d="
				M382.35,447.8l-0.76,106.31l2.11,2.14l-2.14,2.11l-0.72,100.77l-0.07,9.28l-11.3-0.01l-163.54-0.08l-163.54,0.02l-11.3,0
				l-0.06-9.33l-0.69-100.73l-2.14-2.11l2.11-2.14l-0.72-106.31l-2.14-2.11l2.11-2.14l-0.72-106.31l-2.14-2.11l2.11-2.14
				l-0.64-93.83l-0.02-2.24l5.42-4.91l0.92-0.83l1.81-1.78l1.43-1.58l0.98-1.25l2.85-4.23l0.67-1.23l1.73-3.36l1.59-3.38l0.03-0.07
				l1.44-3.38l1.24-3.21l1.03-3.03l0.87-2.94l0.76-3.02l1.12-5.52l0.64-3.79l0.56-3.89l0.47-3.98l0.46-4.81l0.37-4.97l0.26-4.84
				l0.16-4.87l-0.05-5.53l-0.18-5.69l-0.3-5.75l-0.41-5.63l-0.72-7.76l-0.84-7.69l-0.95-7.61l-1.06-7.49l-1.84-8.86l-2.09-9.15
				l-1.84-7.29l-2.03-7.23l-2.19-6.45l-3.78-11.13l8.81-3l88.42-30.12l6.22-2.12l5.04,8.23l0.04,0.06l3.69,6.02l0.04,0.06l2.91,4.3
				l3.13,4.17l0.05,0.06l2.65,3.16l2.91,3.07l1.2,1.15l0.06,0.05l1.18,1l1.29,0.98l1.37,0.92l2.02,1.21l1.99,1.07l2.09,1.01
				l1.95,0.83l2.27,0.7l2.67,0.73l2.69,0.64l2.69,0.55l1.91,0.32l0.08,0.01l1.82,0.22l1.78,0.14l10.55,0.04l3.7,0.01l2.13-2.13
				l2.13,2.13l3.85-0.01l10.46-0.03l1.78-0.14l1.91-0.23l1.91-0.31l2.69-0.55l2.69-0.64l2.67-0.73l2.36-0.73l1.87-0.8l2.09-1.01
				l2.07-1.11l1.94-1.16l1.37-0.92l1.29-0.98l1.25-1.06l1.19-1.14l2.91-3.06l2.71-3.23l3.12-4.16l2.96-4.37l3.72-6.06l5.04-8.23
				l6.21,2.12l88.41,30.15l8.81,3.01l-3.81,11.19l-2.2,6.47l-2,7.14l-1.87,7.38l-2.08,9.06l-1.86,8.95l-1.04,7.4l-0.96,7.7
				l-0.84,7.69l-0.71,7.66l-0.42,5.72l-0.3,5.66l-0.18,5.69l-0.06,5.62l0.16,4.78l0.26,4.93l0.36,4.87l0.47,4.91l0.46,3.89
				l0.56,3.89l0.66,3.88l1.1,5.43l0.76,3.02l0.89,3.03l1,2.94l1.24,3.21l1.48,3.46l1.58,3.37l1.72,3.36l0.72,1.31l2.81,4.15
				l1.04,1.32l1.37,1.51l1.81,1.78l0.96,0.87l5.37,4.87l-0.02,2.24l-0.67,93.83l2.11,2.14l-2.14,2.11l-0.76,106.31l2.11,2.14
				L382.35,447.8z M942.81,432.45l-2.11-2.14L941.37,324l2.14-2.11l-2.11-2.14l0.59-93.83l0.02-3.92l-0.23-0.11l-2.7-1.49l-2.5-1.64
				l-5.89-4.68l-5.53,4.29l-0.4,0.31l-2.52,1.61l-2.72,1.46l-3.31,1.48l-3.45,1.27l-1.58,0.48l-1.67,0.43l-1.7,0.36l-1.74,0.3
				l-3.49,0.48l-3.54,0.41l-3.55,0.33l-3.36,0.23l-1.17,0l-1.4-0.01l-5.24-0.43l-5.34-0.63l-3.39-0.56l-3.24-0.72l-4.93-1.45
				l-4.91-1.7l-3.29-1.35l-3.24-1.58l-3.35-1.83l-3.17-1.99l-3.06-2.18l-2.62-2.12l-2.01-2.17l-2.23-2.61l-2.12-2.71l-2.01-2.81
				l-2.28-3.47l-2.17-3.56l-2.04-3.64l-1.77-3.43l-0.87-2.22l-0.85-2.5l-0.73-2.54l-0.61-2.6l-0.73-3.77l-0.6-3.82l-0.47-3.84
				l-0.32-3.73l-0.11-3.99l0.02-4.13l0.14-4.12l0.27-4.12l0.39-4.07l0.52-4.08l0.64-4.03l2.46-12.51l1.26-5.32l1.43-5.33l1.76-5.89
				l2.09-6.43l2.25-6.38l2.41-6.35l1.27-3.16l0.05-0.12l0.05-0.12l2.93-7.95l4.07-11.03l-8.63-3.28l-87.36-33.16l-6.29-2.39
				l-6.4,10.04l-0.26,2.15l-4.75,38.68l-0.59,4.82l-0.72,4.72l-0.82,4.76l-0.9,4.73l-0.68,3.19l-0.75,3.16l-0.82,3.09l-0.96,3.17
				l-0.79,2.61l-0.86,2.38l-0.98,2.4l-1.06,2.33l-0.9,1.76l-0.97,1.69l-1.06,1.63l-1.08,1.5l-0.95,1.14l-1.07,1.17l-1.12,1.12
				l-1.16,1.06l-1,0.83l-1.01,0.75l-1.05,0.69l-2.2,1.29l-1.92,0.93l-0.73,0.29l-2.52,0.82l-2.61,0.61l-3.13,0.54l-3.23,0.4
				l-4.47,0.35l-3.98,0.17l-2.09-2.16l-2.16,2.09l-2.26-0.09l-4.47-0.35l-3.23-0.39l-3.13-0.54l-2.61-0.61l-2.52-0.82l-0.73-0.29
				l-1.92-0.93l-2.2-1.29l-1.05-0.69l-1.01-0.75l-1-0.83l-1.16-1.06l-1.12-1.12l-1.07-1.17l-0.95-1.14l-1.08-1.5l-1.06-1.63
				l-0.97-1.69l-0.9-1.76l-1.06-2.33l-0.98-2.4l-0.86-2.38l-0.79-2.61l-0.96-3.17l-0.82-3.09l-0.75-3.16l-0.68-3.19l-0.9-4.73
				l-0.82-4.76l-0.72-4.72l-0.59-4.82l-4.76-38.68l-0.26-2.15l-6.4-10.04l-6.29,2.39L532.4,59.2l-8.63,3.28l4.07,11.02l2.94,7.95
				l0.04,0.12l0.05,0.13l1.27,3.16l2.41,6.35l2.25,6.38l2.09,6.42l1.77,5.89l1.43,5.33l1.26,5.32l2.46,12.51l0.65,4.03l0.52,4.08
				l0.4,4.08l0.27,4.12l0.14,4.12l0.02,4.13l-0.11,3.99l-0.32,3.73l-0.47,3.84l-0.6,3.82l-0.73,3.76l-0.61,2.6l-0.73,2.54l-0.85,2.5
				l-0.87,2.22l-1.77,3.44l-2.04,3.64l-2.17,3.56l-2.28,3.47l-2.01,2.81l-2.11,2.71l-2.22,2.61l-2.01,2.17l-2.62,2.12l-3.05,2.18
				l-3.18,1.99l-3.35,1.83l-3.24,1.59l-3.28,1.35l-4.91,1.7l-4.93,1.45l-3.24,0.72l-3.39,0.56l-5.34,0.64l-5.24,0.43l-1.32,0.01
				l-1.25,0l-3.36-0.23l-3.55-0.32l-3.54-0.4l-3.49-0.48l-1.74-0.3l-1.69-0.36l-1.67-0.43l-1.58-0.48l-3.45-1.27l-3.31-1.48
				l-2.72-1.46l-2.52-1.61l-0.4-0.31l-5.54-4.29l-5.88,4.68l-2.5,1.64l-2.7,1.49l-0.23,0.11l0.03,3.92l0.62,93.83l-2.11,2.14
				l2.14,2.11l0.71,106.31l-2.11,2.14l2.14,2.11l0.71,106.31l-2.11,2.14l2.14,2.11l0.67,100.77l0.06,9.28h11.3h243.06l243.07-0.09
				l11.3,0l0.06-9.28l0.63-100.78l2.14-2.11l-2.11-2.14l0.67-106.31L942.81,432.45z"/>

				<path id="id:SUB_FIRST_ACCENT_1_00000137129565583550856960000016646361895291045564_" display="inline" fill="#68737A" d="
				M553.81,432.31c0.49,0.49,0.94,1.05,1.49,1.45c1.02,0.75,1.54,1.73,1.77,2.95c0.12,0.62,0.31,1.26,0.64,1.79
				c1.21,1.95,2.49,3.85,3.29,6.03c0.14,0.4,0.35,0.86,0.68,1.09c1.77,1.2,2.41,3.18,3.46,4.86c3.01,4.82,5.96,9.67,8.93,14.51
				c0.06,0.1,0.16,0.17,0.39,0.18c-0.62-1.43-1.23-2.86-1.87-4.28c-1.89-4.22-3.81-8.42-5.69-12.65c-0.36-0.82-0.49-1.75-0.9-2.54
				c-0.34-0.66-0.83-1.34-1.43-1.76c-0.84-0.59-1.29-1.38-1.2-2.27c0.12-1.09-0.38-1.92-0.73-2.82c-0.19-0.49-0.4-0.98-0.66-1.44
				c-0.34-0.59-0.3-1.04,0.17-1.58c0.21-0.24,0.18-0.78,0.11-1.15c-0.05-0.27-0.29-0.59-0.53-0.74c-1.76-1.07-2.57-2.88-3.58-4.53
				c-0.23-0.38-0.37-0.85-0.46-1.3c-0.19-1.03-0.25-2.05-1.14-2.85c-0.61-0.55-0.46-1.31,0.26-2.08c-0.18-0.15-0.33-0.38-0.52-0.43
				c-1.77-0.47-1.82-2.1-2.22-3.41c-0.25-0.83-0.29-1.66-1.07-2.27c-0.38-0.3-0.56-0.87-0.78-1.34c-0.44-0.94-0.67-2-1.73-2.53
				c-0.15-0.08-0.3-0.37-0.28-0.55c0.09-1.1-0.49-1.81-1.21-2.55c-1.13-1.17-1.07-2.62-0.68-4.08c0.06-0.24,0.17-0.47,0.22-0.71
				c0.13-0.66-0.03-1.16-0.84-1.02c-0.75,0.13-1.05-0.21-1.3-0.85c-0.36-0.92-0.84-1.79-1.26-2.69c-0.38-0.81-0.98-0.97-1.9-0.48
				c-0.08-0.65-0.27-1.17-0.19-1.64c0.42-2.34-0.94-4.04-2.07-5.78c-0.55-0.84-1.14-1.47-0.23-2.39c0.15-0.15,0.1-0.5,0.14-0.76
				c-0.26,0-0.52-0.04-0.78,0c-0.51,0.08-1.01,0.19-1.71,0.12c0.32-0.5,0.57-1.07,0.97-1.49c0.67-0.7,0.47-1.51,0.38-2.29
				c-0.02-0.18-0.66-0.46-0.96-0.4c-1,0.19-1.48-0.28-1.87-1.11c-0.84-1.76-1.75-3.5-2.64-5.23c-0.48-0.93-1.39-0.9-2.39-0.94
				c0.17-0.25,0.27-0.44,0.41-0.61c0.89-1.09,0.9-1.79,0-2.89c-0.31-0.38-0.59-0.81-0.95-1.14c-1.16-1.06-1.2-2.37-0.94-3.78
				c0.1-0.53,0.17-1.07,0.27-1.74c-0.49,0.15-0.83,0.26-1.26,0.39c-0.14-1.76-1.23-2.94-2.36-4.09c-0.87-0.89-1.7-1.78-1.7-3.18
				c0-0.44-0.38-0.89-0.63-1.32c-0.39-0.66-0.81-1.31-1.24-1.95c-0.59-0.87-0.69-1.77-0.2-2.72c0.28-0.55,0.05-0.85-0.5-0.89
				c-0.94-0.06-1.54-0.46-1.9-1.37c-0.11-0.29-0.64-0.42-0.99-0.6c-0.09-0.05-0.24,0.04-0.36,0.03c-0.59-0.05-1.17-0.11-1.75-0.17
				c0.32-0.43,0.69-0.84,0.96-1.3c0.23-0.41,0.49-0.88,0.49-1.32c0.01-1.21-0.1-2.42-0.17-3.78c0.02,0.01-0.21-0.12-0.44-0.14
				c-1.36-0.11-2.05-0.99-2.58-2.11c-0.47-0.98-0.98-1.94-1.55-2.87c-0.21-0.34-0.59-0.61-0.96-0.81c-1.19-0.63-1.4-0.94-1.33-2.25
				c0.06-0.98,0.13-1.96,0.14-2.94c0-0.23-0.18-0.5-0.35-0.67c-0.97-0.97-1.05-1.53-0.35-2.7c0.22-0.37,0.46-0.72,0.77-1.21
				c-1.28-0.01-2.8,0.87-3.14-1.14c-0.36,0.08-0.6,0.12-0.84,0.18c-0.76,0.19-1.12-0.17-1.2-0.89c-0.04-0.31-0.01-0.62-0.07-0.93
				c-0.17-0.99-0.44-1.91-1.46-2.42c-1.2-0.6-1.51-1.7-1.37-2.91c0.11-0.95,0.31-1.9,0.58-2.82c0.22-0.75,0-1.23-0.73-1.24
				c-1.7-0.02-2.42-1.15-3.04-2.45c-0.31-0.66-0.66-1.23-1.52-1.33c-0.67-0.08-0.6-0.61-0.4-1.08c0.2-0.48,0.54-0.93,0.63-1.43
				c0.07-0.44,0.03-1.13-0.24-1.33c-0.34-0.26-0.97-0.18-1.47-0.15c-0.29,0.02-0.56,0.22-0.97,0.4c-0.03-0.35-0.1-0.61-0.07-0.86
				c0.28-2.04-0.69-3.53-2.12-4.82c-0.59-0.53-0.73-1.18-0.63-1.93c0.12-0.94,0.26-1.84-1.02-2.23c-0.34-0.1-0.65-0.85-0.67-1.31
				c-0.03-0.89,0.15-1.79,0.25-2.68c0.09-0.77-0.13-1.28-1.02-1.29c-0.16,0-0.44-0.07-0.47-0.16c-0.2-0.63-0.68-0.53-1.14-0.51
				c-1.18,0.05-1.29-0.16-1.53-1.31c-0.18-0.88-0.75-1.68-1.03-2.55c-0.33-1.01-1.16-1.28-2.2-1.58c0.94-0.67,0.78-1.38,0.36-2.1
				c-0.08-0.13-0.12-0.28-0.19-0.42c-1-2.09-1-2.09-0.05-4.29c-0.29,0-0.55,0.02-0.81,0.01c-1.17-0.03-2.09-0.46-2.64-1.57
				c-0.32-0.64-0.78-1.21-1.06-1.85c-0.19-0.43-0.28-0.94-0.26-1.41c0.05-1.41-0.1-1.67-1.45-2.2c-0.23-0.09-0.45-0.32-0.57-0.54
				c-1.03-1.77-2.01-3.56-3.07-5.32c-0.29-0.47-0.76-0.83-1.16-1.24c-0.13-0.13-0.31-0.23-0.39-0.38c-1.03-2.11-2.07-4.22-3.03-6.36
				c-0.23-0.51-0.22-1.14-0.25-1.72c-0.05-0.79-0.35-1.34-1.15-1.61c-0.31-0.1-0.66-0.35-0.83-0.63c-1.84-3.06-3.64-6.14-5.48-9.2
				c-1.31-2.18-2.63-4.35-3.97-6.52c-0.15-0.25-0.42-0.42-0.63-0.63c-0.08,0.06-0.16,0.12-0.23,0.18c0.58,1.25,1.16,2.5,1.73,3.76
				c1.95,4.3,3.93,8.58,5.81,12.91c0.42,0.97,0.95,2.02,0.46,3.22c-0.1,0.26,0.28,0.89,0.61,1.12c1.53,1.06,1.76,2.86,2.56,4.33
				c0.08,0.15,0.05,0.46-0.05,0.61c-0.57,0.78-0.16,1.3,0.48,1.69c0.9,0.55,1.42,1.28,1.72,2.3c0.32,1.09,0.83,2.14,1.37,3.15
				c0.73,1.38,0.74,2.6-0.57,3.8c0.41,0.14,0.7,0.27,1.02,0.33c1.46,0.3,2.53,1.24,3.39,2.32c0.4,0.5,0.36,1.37,0.48,2.08
				c0.06,0.32-0.1,0.72,0.04,0.99c0.46,0.87,0.83,1.7,0.56,2.74c-0.07,0.28,0.23,0.81,0.52,1c1.19,0.8,1.66,1.91,1.77,3.29
				c0.11,1.33,0.08,2.6-0.89,3.82c0.42,0.06,0.73,0.14,1.04,0.15c1.56,0.06,2.5,0.78,3.19,2.24c0.98,2.08,1.92,4.25,3.95,5.62
				c0.47,0.32,0.53,0.79,0.18,1.21c-0.45,0.53-0.33,1.05-0.25,1.65c0.27,1.93,1.19,3.52,2.27,5.12c1.2,1.79,2.06,3.8,3.1,5.7
				c0.23,0.42,0.58,0.78,0.87,1.17c0.53,0.68,1.08,1.35,1.58,2.06c0.12,0.17,0.21,0.56,0.12,0.66c-0.57,0.61-0.16,1.12,0.04,1.7
				c0.2,0.58,0.34,1.23,0.31,1.84c-0.04,0.84,0.37,1.31,0.95,1.79c0.44,0.36,0.83,0.81,1.16,1.28c0.46,0.67,0.48,1.36-0.09,2.04
				c-0.2,0.24-0.2,0.66-0.29,1c0.32,0.02,0.63,0.04,0.95,0.05c0.37,0,0.75-0.06,1.11-0.01c1.29,0.18,1.62,0.88,1.03,2.01
				c-0.24,0.46-0.48,0.95-0.59,1.45c-0.22,1.08,0.07,1.69,1.12,2.04c1.02,0.35,1.55,1.05,1.95,1.97c0.47,1.1,0.82,2.31,2.26,2.58
				c0.19,0.03,0.41,0.23,0.49,0.4c0.32,0.74,0.25,1.66,1.03,2.2c0.02,0.02-0.3,0.65-0.55,0.92c-0.39,0.41-0.85,0.76-1.28,1.13
				c0.46,0.38,0.87,0.87,1.4,1.1c0.77,0.34,1.24,0.85,1.54,1.62c0.49,1.22,1.16,2.33,2.3,3.09c0.71,0.48,0.63,1.05,0.18,1.68
				c-0.42,0.6-0.8,1.23-1.18,1.82c0.65,0.5,1.16,0.98,1.74,1.34c1.92,1.21,2.63,3.14,3.15,5.19c0.48,1.89,0.73,2.07,2.73,1.85
				c0.33-0.04,0.86,0.03,0.98,0.24c0.14,0.23,0.04,0.79-0.17,1c-1.02,1.08-0.7,2.09-0.03,3.17c0.37,0.6,0.6,1.3,0.99,1.89
				c0.28,0.43,0.66,0.85,1.09,1.13c1.38,0.92,1.44,1.56,0.17,2.65c-0.18,0.15-0.33,0.33-0.52,0.54c0.17,0.13,0.25,0.24,0.35,0.27
				c2.26,0.65,2.71,2.49,2.93,4.47c0.1,0.89,0.11,1.76,1.33,1.89c0.23,0.03,0.5,0.45,0.62,0.74c0.64,1.55,1.56,2.86,2.8,4
				c0.97,0.89,0.91,1.25-0.04,2.22c-0.73,0.75-0.72,0.79,0.18,1.31c0.98,0.56,1.88,1.14,2.22,2.37c0.11,0.4,0.76,0.75,1.24,0.92
				c0.72,0.25,1.03,0.5,0.75,1.33c-0.52,1.55-0.24,1.98,1.29,2.43c1.16,0.34,1.39,0.79,0.85,1.83c-0.69,1.31-0.39,2.66-0.26,4
				c0.07,0.8,0.72,1.14,1.46,1.18c0.7,0.03,1.04,0.39,1.29,0.99c0.49,1.17,1.11,2.29,1.53,3.48c0.17,0.47,0.01,1.09-0.1,1.62
				c-0.21,0.98-0.11,1.07,0.82,1.3c0.54,0.14,1.19,0.49,1.47,0.94c1.22,1.94,2.37,3.94,3.43,5.97c0.23,0.43,0,1.1-0.02,1.74
				c1.48-0.3,1.84,1.13,2.5,2.15c0.43,0.67,0.81,1.27,1.78,1.19c0.75-0.06,0.83,0.53,0.51,1.01c-0.44,0.66-0.2,1.1,0.16,1.67
				c0.85,1.38,1.93,2.63,1.93,4.45c0,0.55,0.78,1.11,1.25,1.63C552.55,431.07,553.18,431.69,553.81,432.31z M531.11,422.56
				c1.09,0.38,1.66,1.21,1.75,2.4c0.11,1.39,0.83,2.45,1.78,3.47c1.65,1.78,2.76,3.9,3.3,6.27c0.23,1.03,0.8,1.64,1.7,2.04
				c0.45,0.2,0.95,0.33,1.36,0.6c0.46,0.3,0.98,0.63,1.23,1.08c2.09,3.73,4.13,7.5,6.19,11.25c1.52,2.77,3.06,5.53,4.75,8.22
				c-0.5-1.27-0.99-2.54-1.5-3.81c-1.91-4.74-3.78-9.51-5.78-14.21c-0.6-1.4-1.59-2.63-2.4-3.94c-0.67-1.08-1.26-2.16-1.05-3.55
				c0.06-0.4-0.35-0.96-0.68-1.32c-0.57-0.62-1.15-1.16-1.15-2.13c0-0.36-0.41-0.74-0.69-1.06c-0.66-0.76-0.98-1.62-0.96-2.64
				c0.01-0.32-0.21-0.76-0.47-0.96c-1.39-1.09-1.65-2.03-0.88-3.62c0.32-0.66,0.24-1.26-0.19-1.83c-0.33-0.45-0.71-0.87-0.99-1.35
				c-0.49-0.84-1.1-1.65-0.49-2.73c0.38-0.68,0.06-1.17-0.62-1.48c-0.66-0.31-1.31-0.58-1.66-1.36c-0.4-0.88-0.59-1.65-0.05-2.53
				c0.15-0.25,0.07-0.64,0.09-0.97c-0.32,0.04-0.66,0.02-0.95,0.12c-0.46,0.17-0.89,0.42-1.43,0.69c-0.09-0.41-0.22-0.73-0.21-1.05
				c0.03-1.18-0.29-2.24-0.82-3.29c-0.22-0.42-0.17-1.01-0.13-1.52c0.1-1.33-0.14-1.62-1.45-1.65c-0.31-0.01-0.67,0.06-0.91-0.08
				c-0.23-0.13-0.52-0.57-0.45-0.71c0.33-0.67,0.5-1.35-0.08-1.89c-0.66-0.61-1.44-1.1-2.18-1.62c-0.11-0.08-0.3-0.05-0.56-0.09
				c0.26-0.25,0.46-0.44,0.64-0.62c0.52-0.52,0.59-1.08,0.09-1.65c-0.75-0.86-1.52-1.72-2.28-2.58c-0.32-0.36-0.5-0.65-0.09-1.11
				c0.17-0.19,0.24-0.72,0.11-0.91c-0.71-0.98-0.4-1.94-0.1-2.93c0.1-0.35,0.23-0.76,0.12-1.08c-0.1-0.28-0.51-0.67-0.75-0.66
				c-1.07,0.08-1.72-0.46-2.18-1.29c-0.66-1.2-1.3-2.41-1.86-3.65c-0.17-0.37-0.18-0.91-0.06-1.31c0.17-0.56,0.17-0.95-0.38-1.26
				c-1.05-0.58-1.71-1.48-2.2-2.57c-0.59-1.3-1.25-2.57-1.93-3.82c-0.17-0.3-0.55-0.59-0.88-0.66c-0.75-0.17-1.05-0.57-1.02-1.31
				c0.05-0.98,0.14-1.96,0.1-2.93c-0.02-0.45-0.2-1.02-0.52-1.31c-0.63-0.56-0.88-1.18-1-2c-0.18-1.2-0.56-2.37-1.75-3.02
				c-1.37-0.75-1.68-2.25-2.43-3.43c-0.16-0.25-0.34-0.62-0.57-0.66c-1-0.21-1.2-0.92-1.37-1.76c-0.19-0.93-0.41-1.87-0.73-2.76
				c-0.26-0.72-0.63-1.39-1.61-1.45c-0.22-0.01-0.56-0.64-0.58-0.99c-0.03-1.02-0.03-1.99-0.71-2.89c-0.26-0.34-0.18-1.09-0.02-1.57
				c0.19-0.57,0.09-0.85-0.45-0.95c-0.64-0.12-1.03-0.46-1.31-1.05c-0.12-0.26-0.46-0.51-0.76-0.6c-0.94-0.28-1.1-0.92-1.09-1.79
				c0.01-0.58-0.12-1.2-0.35-1.73c-0.36-0.82-0.91-1.56-1.28-2.38c-0.38-0.87-1-1.65-0.68-2.78c0.28-0.98-0.29-1.41-1.34-1.36
				c-0.32,0.02-0.78,0-0.96-0.2c-0.84-0.95-1.72-1.89-1.76-3.3c-0.03-1.11-0.08-2.23-0.32-3.31c-0.12-0.53-0.69-0.97-1.08-1.43
				c-0.34-0.42-0.74-0.79-1.04-1.23c-0.41-0.62-0.7-1.32-1.14-1.91c-0.31-0.42-0.78-0.71-1.06-0.96c-0.51-0.6-0.87-1.16-1.36-1.56
				c-0.63-0.51-1.05-1.05-0.92-1.89c0.22-1.4-0.17-2.64-0.95-3.78c-0.62-0.89-0.7-1.89-0.65-2.93c0.06-1.54-0.08-1.69-1.62-2.02
				c-0.23-0.05-0.5-0.24-0.62-0.45c-0.75-1.29-1.45-2.61-2.2-3.89c-0.38-0.65-0.38-1.26-0.11-1.95c0.5-1.28,0.3-1.54-1.03-1.53
				c-0.15,0-0.34,0.03-0.46-0.04c-0.85-0.55-1.75-1.05-2.51-1.72c-0.83-0.72-0.91-1.76-0.89-2.83c0.01-0.56-0.16-1.17-0.42-1.68
				c-0.65-1.3-1.38-2.57-2.13-3.82c-0.16-0.27-0.52-0.54-0.83-0.59c-0.61-0.1-0.78-0.44-0.94-0.97c-0.4-1.35-0.92-2.67-1.31-4.03
				c-0.22-0.77-0.31-1.58-0.42-2.37c-0.12-0.89-0.47-1.51-1.47-1.63c-0.27-0.03-0.58-0.32-0.73-0.58c-0.75-1.25-1.43-2.54-2.17-3.8
				c-0.39-0.67-0.65-1.31-0.63-2.15c0.02-0.54-0.49-1.31-0.99-1.61c-0.96-0.58-1.44-1.43-1.77-2.39c-0.3-0.88-0.5-1.79-0.7-2.7
				c-0.14-0.63-0.46-1-1.09-1.25c-0.47-0.19-0.94-0.59-1.21-1.02c-3.29-5.41-6.53-10.85-9.8-16.27c-0.15-0.25-0.43-0.42-0.64-0.63
				c-0.09,0.07-0.18,0.15-0.27,0.22c0.31,0.69,0.61,1.39,0.93,2.08c1.58,3.47,3.2,6.93,4.75,10.41c1.06,2.38,1.98,4.82,3.09,7.17
				c0.4,0.85,0.63,1.93,1.83,2.28c0.26,0.08,0.44,0.95,0.39,1.44c-0.05,0.56-0.41,1.09-0.59,1.66c-0.16,0.51-0.06,0.85,0.49,1.21
				c0.63,0.4,1.29,1.02,1.56,1.7c0.81,2.04,1.44,4.15,2.15,6.22c0.11,0.31,0.25,0.72,0.5,0.87c1.12,0.68,1.27,1.94,1.87,2.93
				c0.11,0.18,0.11,0.57-0.01,0.73c-0.6,0.79-0.19,1.3,0.4,1.82c0.71,0.63,1.52,1.21,2.07,1.97c0.8,1.09,1.53,2.26,2.07,3.5
				c0.27,0.61,0.06,1.43,0.09,2.16c0.01,0.34,0,0.72,0.15,1c0.54,1.03,1.19,2,1.7,3.04c0.43,0.9,0.07,1.76-0.43,2.55
				c-0.16,0.25-0.33,0.5-0.58,0.87c0.47,0.11,0.85,0.13,1.15,0.29c0.5,0.26,1.05,0.53,1.4,0.95c1.31,1.58,2.6,3.19,3.79,4.87
				c0.52,0.73,0.76,1.67,1.16,2.49c0.27,0.55,0.61,1.07,0.77,1.35c0.03,0.81-0.12,1.47,0.11,1.93c0.52,1.03,0.44,2.02,0.23,3.07
				c-0.29,1.48,0.07,2.12,1.46,2.66c1.14,0.45,1.74,1.43,1.72,2.66c-0.01,0.42,0.06,0.93,0.3,1.24c0.81,1.04,1.65,2.06,2.59,2.97
				c0.69,0.67,1.27,1.29,1.37,2.32c0.08,0.78,0.3,1.57,0.59,2.3c0.3,0.75,0.16,1.37-0.17,2.04c-0.86,1.72-0.57,2.4,1.33,2.8
				c1.15,0.24,1.88,0.85,2.29,1.91c0.33,0.87,0.55,1.8,1.02,2.59c0.48,0.8,1.24,1.42,1.8,2.18c0.3,0.41,0.71,0.98,0.63,1.4
				c-0.3,1.5,0.3,2.58,1.27,3.59c1.22,1.26,1.17,2.57-0.16,3.9c0.8,0.37,1.58,0.7,2.34,1.07c1.31,0.65,2.27,1.5,1.95,3.2
				c-0.06,0.34,0.32,0.82,0.61,1.14c0.37,0.41,0.93,0.66,1.25,1.09c0.25,0.33,0.28,0.83,0.36,1.26c0.08,0.48-0.01,1.03,0.18,1.45
				c0.37,0.82,0.79,1.53,0.48,2.53c-0.11,0.36,0.36,0.97,0.69,1.37c0.5,0.62,1.14,1.11,1.63,1.73c0.55,0.69,0.25,1.31-0.28,1.9
				c-0.24,0.27-0.36,0.65-0.53,0.99c0.35,0.12,0.7,0.35,1.05,0.36c1.48,0.04,2.35,0.72,2.69,2.17c0.08,0.36,0.25,0.69,0.39,1.03
				c0.48,1.15,1.36,2.14,1.06,3.56c-0.15,0.71,0.38,1.25,1.04,1.49c0.98,0.35,1.09,1.31,1.45,2.05c0.1,0.21-0.34,0.73-0.61,1.04
				c-0.56,0.66-0.51,1.03,0.26,1.43c0.66,0.34,1.33,0.65,1.97,1.03c0.26,0.15,0.55,0.39,0.64,0.65c0.44,1.28,1.3,2.08,2.49,2.69
				c0.33,0.17,0.43,0.93,0.48,1.44c0.12,1.25,0.1,2.52,0.23,3.77c0.03,0.26,0.37,0.55,0.64,0.72c0.92,0.58,1.51,1.36,1.63,2.47
				c0.03,0.24,0.1,0.5,0.23,0.7c0.61,0.97,1.36,1.85,1.25,3.16c-0.03,0.34,0.48,0.77,0.8,1.1c1.49,1.56,2.63,3.35,3.34,5.38
				c0.24,0.68,0.14,1.49,0.11,2.25c-0.01,0.45-0.04,0.75,0.5,0.91c0.52,0.15,1.22,0.33,1.44,0.72c0.58,1,1.13,2.09,1.33,3.21
				c0.19,1.08,0.23,2.03,1.41,2.58c0.47,0.22,0.75,0.87,1.05,1.37c0.44,0.71,0.77,1.49,1.22,2.19
				C529.52,421.41,530.08,422.21,531.11,422.56z M571.69,426.37c2.85,4.11,5.83,8.11,8.77,12.16c0.14,0.2,0.32,0.36,0.64,0.47
				c-0.22-0.58-0.42-1.17-0.67-1.74c-1.86-4.33-3.74-8.66-5.59-12.99c-0.87-2.02-1.65-4.08-2.55-6.09c-0.38-0.84-1-1.57-1.41-2.4
				c-0.2-0.39-0.3-0.94-0.2-1.36c0.36-1.61,0.09-2.14-1.37-2.84c-0.44-0.21-0.79-0.72-1.06-1.17c-0.23-0.39-0.2-0.92-0.41-1.32
				c-0.31-0.58-0.62-1.33-1.14-1.61c-1.3-0.69-1.34-1.81-1.55-3.03c-0.29-1.71-0.71-3.42-1.31-5.04c-0.41-1.1,0.08-1.7,0.85-2.55
				c-0.49-0.18-0.87-0.37-1.28-0.45c-1.39-0.28-2.1-1.43-1.93-2.82c0.06-0.48-0.24-1.21-0.62-1.51c-1.68-1.33-2.23-3.32-3.14-5.09
				c-0.18-0.35,0.12-1,0.31-1.47c0.42-1.09,0.28-1.25-0.86-1.33c-0.44-0.03-0.95-0.36-1.25-0.7c-0.31-0.35-0.48-0.87-0.6-1.34
				c-0.21-0.82-0.58-1.38-1.4-1.8c-0.79-0.4-1.43-1.14-2.09-1.78c-0.13-0.13-0.11-0.55,0-0.75c0.9-1.59,0.32-3.22,0.11-4.81
				c-0.06-0.43-0.87-0.74-1.3-1.15c-0.25-0.24-0.61-0.52-0.64-0.82c-0.19-1.68-0.5-1.92-2.26-1.5c-0.06-0.54,0.02-1.14-0.2-1.59
				c-0.22-0.44-0.74-0.72-1.22-1.15c-0.04-0.64-0.04-1.5-0.15-2.34c-0.07-0.53-0.36-0.91-1.01-1.03c-0.92-0.17-1.24-0.76-1.13-1.83
				c0.08-0.77,0.29-1.54,0.31-2.31c0.01-0.41-0.14-0.99-0.43-1.21c-1.23-0.94-1.55-2.08-1.09-3.53c0.11-0.34,0.07-0.72,0.11-1.29
				c-0.69,0.15-1.24,0.34-1.8,0.37c-0.39,0.03-0.91-0.03-1.17-0.28c-0.2-0.18-0.15-0.73-0.07-1.08c0.17-0.77,0.59-1.54-0.41-2.11
				c-0.14-0.08-0.14-0.49-0.11-0.74c0.04-0.32,0.17-0.64,0.29-1.07c-0.48-0.04-0.84-0.06-1.2-0.1c-1.65-0.17-2.5-1.5-1.98-3.05
				c0.14-0.4,0.2-0.84,0.21-1.27c0.02-1.2-0.44-1.66-1.66-1.75c-0.58-0.04-1.15-0.09-1.85-0.14c0.16-0.78,0.31-1.44,0.41-2.1
				c0.11-0.7,0.22-1.41,0.22-2.11c0-0.69-0.37-1.22-1.09-1.29c-1.15-0.11-1.65-0.88-2.03-1.8c-0.27-0.65-0.62-1.15-1.28-1.51
				c-0.35-0.19-0.49-0.76-0.76-1.23c-0.56,0.23-0.8-0.22-0.96-0.78c-0.16-0.57-0.28-1.15-0.52-1.69c-0.15-0.34-0.41-0.75-0.72-0.87
				c-0.86-0.33-1.02-1-1.1-1.77c-0.15-1.49,0.14-2.89,0.7-4.27c0.22-0.55,0.3-1.16,0.48-1.88c-0.48,0.14-0.74,0.22-1.01,0.29
				c-1.23,0.32-1.65,0.07-1.96-1.14c-0.29-1.15-0.67-2.18-2.04-2.5c-0.55-0.13-0.8-1.43-0.61-2.26c0.11-0.48,0.24-1.36,0.1-1.42
				c-0.62-0.26-1.34-0.37-2.03-0.37c-0.43,0-0.86,0.27-1.39,0.46c-0.04-0.42-0.15-0.74-0.08-1.01c0.44-1.55-0.26-2.78-1.05-3.99
				c-0.22-0.33-0.51-0.67-0.86-0.83c-0.68-0.32-1.03-0.86-1.05-1.52c-0.07-1.94-1.07-3.44-2.14-4.93c-0.29-0.41-0.52-0.76-0.24-1.34
				c0.33-0.68-0.02-1.29-0.61-1.68c-0.83-0.54-1.68-1.04-2.56-1.49c-0.8-0.41-1.05-0.96-0.78-1.82c0.1-0.32,0.05-0.75-0.07-1.07
				c-0.21-0.51-0.51-0.99-0.82-1.46c-0.55-0.84-0.94-1.63-0.11-2.58c0.42-0.48,0.11-0.96-0.47-1.12c-0.35-0.1-0.76-0.01-1.1-0.12
				c-0.27-0.09-0.69-0.39-0.68-0.58c0.06-1.75-1.13-2.7-2.38-3.41c-1.51-0.86-1.89-2.24-1.97-3.67c-0.08-1.36-0.56-2.37-1.46-3.29
				c-0.53-0.54-1.16-0.98-1.3-1.85c-0.05-0.32-0.57-0.63-0.93-0.82c-0.92-0.5-1.42-1.22-1.57-2.27c-0.18-1.29-0.69-2.44-1.7-3.33
				c-0.27-0.24-0.51-0.57-0.62-0.91c-1.12-3.42-3.58-6.06-5.27-9.14c-0.02-0.04-0.1-0.04-0.46-0.18c0.21,0.47,0.32,0.73,0.44,1
				c2.07,4.91,4.22,9.8,6.18,14.76c0.62,1.58,1.64,3.06,1.59,4.88c-0.01,0.22,0.15,0.52,0.32,0.64c1.26,0.88,1.64,2.3,2.19,3.6
				c0.56,1.32,1.26,2.59,1.16,4.15c-0.03,0.52,0.53,1.17,0.98,1.61c0.68,0.68,0.9,1.42,0.62,2.28c-0.22,0.69-0.01,1.09,0.55,1.46
				c1.2,0.78,1.77,2.04,2.35,3.26c0.17,0.36,0.11,0.85,0.09,1.27c-0.06,1.2,0.19,1.47,1.33,1.88c0.58,0.21,1.14,0.63,1.54,1.1
				c0.46,0.53,0.44,1.2-0.05,1.79c-0.29,0.35-0.56,0.71-0.82,1.04c0.54,0.26,1.18,0.37,1.42,0.74c0.57,0.91,1.04,1.91,1.37,2.94
				c0.12,0.36-0.21,0.97-0.51,1.34c-0.44,0.56-0.3,0.97,0.11,1.38c0.32,0.33,0.64,0.7,1.04,0.91c0.76,0.41,0.88,0.9,0.2,1.79
				c0.65,0.16,1.17,0.28,1.69,0.43c0.48,0.14,1,0.26,1.38,0.54c0.1,0.07-0.26,0.73-0.36,1.13c-0.05,0.21-0.08,0.48,0.01,0.68
				c0.44,1.06,0.49,2.04-0.08,3.12c-0.54,1.01-0.09,1.79,1.05,1.9c1.24,0.12,2,0.78,2.69,1.74c0.49,0.68,1.17,1.28,1.88,1.74
				c1,0.65,1.14,1.67,0.17,2.37c-0.27,0.2-0.6,0.31-0.91,0.45c-0.99,0.44-1.15,1.21-0.28,1.82c0.67,0.47,1.45,0.83,2.24,1.07
				c0.73,0.23,1.04,0.62,1.01,1.33c-0.02,0.53-0.07,1.05-0.15,1.57c-0.16,1.12,0.24,1.89,1.24,2.45c1.66,0.92,2,2.59,0.85,4.18
				c0.56,0.37,1.17,0.68,1.67,1.12c0.3,0.27,0.61,0.73,0.62,1.11c0.04,1.41,0.5,2.58,1.68,3.39c0.46,0.31,1.02,0.47,1.46,0.8
				c0.34,0.25,0.81,0.65,0.8,0.97c-0.01,0.34-0.5,0.68-0.81,0.99c-0.1,0.1-0.27,0.14-0.51,0.26c1.45,0.73,2.42,1.8,2.91,3.3
				c0.08,0.23,0.51,0.4,0.81,0.49c1.19,0.34,1.51,1.01,0.88,2.09c-0.33,0.58-0.78,1.09-1.17,1.62c0.02,0.06,0.02,0.1,0.04,0.11
				c1.88,0.73,2.65,2.13,2.7,4.11c0.02,1.1,0.86,1.82,1.67,2.47c0.88,0.7,1.5,1.41,0.81,2.66c-0.43,0.77-0.04,1.23,0.84,1.29
				c0.34,0.02,0.68,0.05,1.02,0.05c1.26-0.01,1.73,0.33,1.6,1.55c-0.18,1.74,0.67,3.13,1.34,4.56c0.54,1.16,0.75,2.28,0.41,3.51
				c-0.17,0.6-0.16,1.05,0.73,0.89c0.89-0.16,1.63,0.35,1.74,1.26c0.12,0.98,0.68,1.57,1.45,2.02c1.25,0.74,1.59,1.18,1.17,2.53
				c-0.37,1.18,0.24,1.93,1.43,2.04c0.68,0.06,1.04,0.7,0.72,1.35c-0.26,0.53-0.62,1.01-0.88,1.53c-0.16,0.33-0.22,0.7-0.34,1.12
				c1.58-0.16,2.38,0.35,2.92,1.67c0.34,0.83,0.68,1.66,1.09,2.46c0.56,1.11,1.13,2.18,0.91,3.51c-0.11,0.65,0.25,1.17,0.91,1.46
				c0.86,0.38,1.51,0.95,1.98,1.85c0.41,0.8,1.08,1.5,2.17,1.54c0.66,0.02,1.07,0.3,0.7,1.1c-0.1,0.21,0.02,0.62,0.18,0.84
				c0.68,0.99,1.41,1.95,2.11,2.92c0.23,0.32,0.4,0.74,0.7,0.96c0.88,0.65,1.39,1.52,1.85,2.5c0.37,0.79,0.99,1.45,1.46,2.2
				c0.36,0.57,0.68,1.18,0.96,1.79c0.36,0.83,0.66,1.68,1.65,2.01c0.16,0.05,0.27,0.3,0.36,0.48c0.49,0.91,0.79,2,1.49,2.7
				c1,1,1.69,2.12,1.83,3.46C570,423.96,570.87,425.19,571.69,426.37z M443.27,282.11c0.36,0.83,0.73,1.65,1.09,2.48
				c1.09,2.56,2.49,5.05,3.13,7.73c0.41,1.72,1.18,3.04,2.02,4.49c1.01,1.72,1.55,3.71,2.43,5.51c0.7,1.44,1.69,2.75,2.41,4.18
				c0.49,0.98,0.84,2.05,1.09,3.12c0.23,1.02,0.13,2.12,0.39,3.12c0.17,0.64,0.64,1.26,1.13,1.73c0.94,0.9,1.14,1.41,0.66,2.69
				c0.4,0.06,0.79,0.11,1.18,0.18c0.95,0.16,1.45,0.78,1.22,1.71c-0.21,0.85,0.05,1.55,0.36,2.32c0.34,0.85,0.44,1.8,0.73,2.67
				c0.17,0.51,0.51,0.97,0.79,1.44c0.5,0.85,1.12,1.64,1.49,2.54c0.37,0.89,0.18,1.82-0.36,2.67c-0.51,0.81-0.39,1.23,0.5,1.27
				c1.64,0.08,2.66,0.82,3.15,2.37c0.04,0.11,0.12,0.23,0.21,0.3c1.77,1.35,1.95,3.45,2.44,5.35c0.39,1.47,1.11,2.6,2.22,3.55
				c0.69,0.58,1.04,1.23,0.53,2.11c-0.09,0.15-0.09,0.35-0.1,0.53c-0.05,0.79-0.06,1.59-0.16,2.38c-0.08,0.64,0.06,1.05,0.76,1.11
				c1.29,0.1,2.14,0.82,2.62,1.94c0.39,0.91,0.67,1.86,0.94,2.82c0.08,0.28,0.07,0.69-0.08,0.91c-0.86,1.2,0.05,1.91,0.68,2.7
				c0.71,0.9,1.44,1.79,2.16,2.69c0.62,0.78,0.72,1.56,0.04,2.36c-0.11,0.14-0.26,0.31-0.26,0.47c-0.01,1.09,0.01,2.18,0.02,3.52
				c0.28-0.05,0.68-0.09,1.06-0.21c1.1-0.37,1.56-0.24,2.03,0.78c0.45,0.97,0.94,1.65,2.22,1.48c0.91-0.12,1.26,0.5,0.84,1.32
				c-0.33,0.65-0.83,1.23-1.3,1.8c-0.46,0.55-0.41,0.93,0.25,1.23c0.37,0.17,0.74,0.32,1.1,0.51c0.71,0.36,1.04,0.9,0.91,1.74
				c-0.05,0.33,0.1,0.81,0.34,1.05c0.58,0.59,1.25,1.11,1.91,1.62c1.57,1.23,1.52,2.03-0.21,3.02c-0.13,0.08-0.28,0.13-0.43,0.3
				c1.57,0.35,2.45,1.39,3.19,2.65c0.29,0.49,0.75,0.93,1.23,1.26c0.59,0.41,0.66,0.81,0.5,1.49c-0.1,0.44,0.14,1.03,0.39,1.46
				c0.4,0.68,0.36,1.18-0.22,1.73c-0.26,0.24-0.35,0.66-0.52,1c0.38,0.14,0.76,0.39,1.14,0.39c0.75,0,1.31,0.25,1.77,0.84
				c0.28,0.36,0.61,0.7,0.95,1.01c0.69,0.61,0.98,1.36,1.11,2.27c0.33,2.3,1.09,4.37,2.98,5.96c0.58,0.48,0.97,1.49,0.97,2.27
				c0.01,0.97,0.41,1.56,1.02,2.15c0.11,0.11,0.26,0.17,0.38,0.27c1.28,1.01,1.33,1.44,0.32,2.74c-0.37,0.48-0.73,0.97-1.14,1.51
				c0.53,0.08,0.93,0.11,1.31,0.2c0.92,0.22,1.41,0.85,1.57,1.76c0.1,0.55,0.19,1.1,0.34,1.64c0.22,0.82,0.7,1.36,1.61,1.44
				c1.02,0.09,1.62,0.67,1.85,1.67c0.14,0.6,0.39,1.18,0.51,1.78c0.38,1.88,1.57,3.11,3.09,4.12c0.36,0.24,0.75,0.47,1.02,0.79
				c0.42,0.5,0.59,1.03,0.13,1.68c-0.72,1.02-0.35,2.2,0.81,2.74c0.9,0.42,1.14,1.29,1.16,2.09c0.02,1.42,0.84,2.17,1.87,2.89
				c0.41,0.29,0.67,0.81,0.99,1.23c0.47,0.63,0.82,1.4,1.41,1.86c0.94,0.73,1.87,1.41,2.36,2.56c0.11,0.26,0.43,0.42,0.64,0.64
				c0.47,0.51,1.39,0.82,0.76,1.83c-0.08,0.13,0.17,0.51,0.32,0.74c2.8,4.17,5.62,8.34,8.43,12.51c0.06,0.09,0.15,0.15,0.34,0.34
				c-1.38-2.9-2.75-5.6-3.98-8.36c-1.09-2.46-2.13-4.94-2.61-7.63c-0.22-1.24-0.81-2.4-1.14-3.63c-0.13-0.48-0.1-1.07,0.04-1.54
				c0.19-0.62,0.29-1.12-0.25-1.6c-0.42-0.37-0.79-0.79-1.19-1.18c-0.98-0.97-1.62-2.05-1.58-3.53c0.02-0.69-0.35-1.43-0.68-2.09
				c-0.39-0.8-0.95-1.53-1.39-2.32c-0.47-0.85-1.05-1.62-0.76-2.75c0.21-0.81-0.13-1.61-0.86-2.22c-0.97-0.81-1.74-1.81-1.81-3.14
				c-0.03-0.56,0.07-1.19,0.32-1.69c0.3-0.59,0.26-1.04-0.24-1.38c-0.61-0.42-1.25-0.82-1.92-1.1c-0.59-0.25-0.85-0.57-0.96-1.21
				c-0.08-0.49-0.44-0.95-0.76-1.36c-0.38-0.49-0.77-0.9-0.3-1.56c0.14-0.19,0.15-0.51,0.15-0.76c0.02-0.95-0.02-1.9,0.04-2.84
				c0.03-0.56-0.26-0.64-0.67-0.62c-0.53,0.03-1.05,0.13-1.57,0.15c-0.68,0.03-1.11-0.33-1.04-1.01c0.16-1.59-0.58-2.89-1.29-4.19
				c-0.13-0.25-0.48-0.46-0.77-0.52c-0.67-0.13-0.96-0.5-1-1.14c-0.06-0.83-0.17-1.65-0.2-2.48c-0.01-0.32,0.12-0.66,0.25-0.97
				c0.17-0.43,0.47-0.83,0.57-1.27c0.09-0.39,0.1-0.91-0.1-1.21c-0.12-0.19-0.73-0.16-1.08-0.07c-1.3,0.32-1.39,0.3-2.01-0.91
				c-0.37-0.72-0.72-1.44-1.13-2.14c-0.16-0.28-0.4-0.59-0.68-0.73c-0.9-0.46-1.3-1.18-1.38-2.16c-0.04-0.49-0.19-0.97-0.27-1.46
				c-0.12-0.75-0.3-1.49-0.33-2.24c-0.03-0.86-0.45-1.35-1.16-1.74c-0.38-0.21-0.65-0.6-0.99-0.89c-0.2-0.17-0.41-0.39-0.65-0.44
				c-0.94-0.22-1.31-0.84-1.14-1.72c0.21-1.09-0.07-1.99-0.71-2.87c-0.4-0.55-0.81-1.2,0.21-1.94c-1.38,0-2.1-0.56-2.49-1.65
				c-0.14-0.4-0.55-0.8-0.94-1c-0.99-0.5-1.1-1.3-0.88-2.2c0.16-0.65,0.43-1.29,0.7-1.9c0.36-0.8,0.19-1.2-0.63-1.14
				c-1.03,0.08-1.62-0.32-2.02-1.25c-0.15-0.34-0.58-0.6-0.94-0.81c-0.95-0.57-1.29-1.31-1.25-2.47c0.03-0.82-0.44-1.7-0.84-2.47
				c-0.39-0.73-0.51-1.34-0.08-2.08c0.16-0.28,0.25-0.78,0.11-1.02c-0.12-0.2-0.64-0.14-0.96-0.25c-0.37-0.13-0.84-0.23-1.05-0.5
				c-0.43-0.56-0.75-1.21-1.07-1.85c-0.29-0.59-0.67-0.95-1.38-0.81c-0.51,0.1-0.67-0.16-0.62-0.63c0.11-1.01,0.24-2-0.32-2.99
				c-0.17-0.3,0.14-0.93,0.31-1.37c0.38-0.98,0.24-1.15-0.8-1.29c-0.49-0.07-0.93-0.45-1.39-0.71c-0.56-0.31-1.08-0.68-1.66-0.93
				c-1.05-0.45-1.13-0.59-0.54-1.51c0.53-0.83,0.02-2.21-1-2.67c-1.36-0.62-1.5-0.92-1.04-2.27c0.37-1.07,0-1.93-0.67-2.74
				c-0.76-0.9-1.52-1.8-2.23-2.74c-0.37-0.49-0.71-0.86-1.4-0.91c-0.79-0.06-0.91-0.52-0.41-1.14c0.22-0.26,0.48-0.5,0.64-0.79
				c0.57-1,0.22-1.99-0.84-2.44c-0.54-0.23-1.07-0.57-1.62-0.63c-0.8-0.08-0.81-0.48-0.81-1.11c-0.01-1.21-0.43-2.27-1.2-3.25
				c-0.73-0.92-1.38-1.92-1.89-2.97c-0.21-0.43-0.03-1.09,0.08-1.62c0.22-1.04-0.04-1.39-1.08-1.59c-0.39-0.08-0.86-0.35-1.08-0.68
				c-1.11-1.66-2.02-3.4-2.28-5.44c-0.11-0.89-0.58-1.62-1.6-1.84c-0.28-0.06-0.57-0.36-0.74-0.62c-0.48-0.76-0.92-1.54-1.32-2.35
				c-0.12-0.24-0.15-0.6-0.08-0.87c0.21-0.79-0.08-1.33-0.7-1.76c-0.1-0.07-0.21-0.13-0.32-0.2c-1.35-0.94-2.56-1.93-2.94-3.72
				c-0.19-0.9-0.83-1.71-1.32-2.53c-2.09-3.45-4.2-6.88-6.31-10.32c-0.16-0.26-0.38-0.49-0.58-0.73
				C443.43,282.01,443.35,282.06,443.27,282.11z M817.77,430.42c0.47-0.52,1.25-1.08,1.25-1.63c0.01-1.81,1.08-3.07,1.93-4.45
				c0.36-0.57,0.6-1.01,0.16-1.67c-0.32-0.48-0.24-1.07,0.51-1.01c0.97,0.08,1.34-0.52,1.78-1.19c0.66-1.02,1.02-2.45,2.5-2.15
				c-0.02-0.64-0.24-1.31-0.02-1.74c1.07-2.03,2.21-4.02,3.43-5.97c0.28-0.45,0.93-0.81,1.47-0.94c0.93-0.23,1.04-0.32,0.82-1.3
				c-0.12-0.53-0.27-1.15-0.1-1.62c0.42-1.19,1.03-2.31,1.53-3.48c0.25-0.6,0.59-0.96,1.29-0.99c0.74-0.03,1.39-0.38,1.46-1.18
				c0.12-1.33,0.42-2.69-0.26-4c-0.55-1.04-0.31-1.49,0.85-1.83c1.53-0.45,1.81-0.89,1.29-2.43c-0.28-0.83,0.04-1.08,0.75-1.33
				c0.48-0.16,1.13-0.52,1.24-0.92c0.35-1.22,1.24-1.81,2.22-2.37c0.9-0.52,0.91-0.56,0.18-1.31c-0.95-0.98-1.02-1.34-0.04-2.22
				c1.25-1.14,2.17-2.45,2.8-4c0.12-0.29,0.38-0.72,0.62-0.74c1.22-0.14,1.23-1,1.33-1.89c0.22-1.97,0.67-3.82,2.93-4.47
				c0.1-0.03,0.19-0.14,0.35-0.27c-0.2-0.2-0.35-0.38-0.52-0.54c-1.27-1.09-1.21-1.74,0.17-2.65c0.43-0.28,0.81-0.7,1.09-1.13
				c0.39-0.59,0.61-1.29,0.99-1.89c0.67-1.08,0.99-2.09-0.03-3.17c-0.21-0.22-0.3-0.78-0.17-1c0.13-0.21,0.65-0.28,0.98-0.24
				c2,0.22,2.24,0.05,2.73-1.85c0.52-2.04,1.23-3.97,3.15-5.19c0.58-0.37,1.1-0.84,1.74-1.34c-0.38-0.59-0.76-1.22-1.18-1.82
				c-0.45-0.63-0.53-1.2,0.18-1.68c1.13-0.76,1.81-1.87,2.3-3.09c0.31-0.76,0.77-1.27,1.54-1.62c0.53-0.23,0.94-0.72,1.4-1.1
				c-0.43-0.37-0.89-0.72-1.28-1.13c-0.25-0.27-0.57-0.9-0.55-0.92c0.78-0.54,0.72-1.46,1.03-2.2c0.08-0.18,0.3-0.37,0.49-0.4
				c1.44-0.27,1.8-1.48,2.26-2.58c0.4-0.93,0.93-1.63,1.95-1.97c1.04-0.35,1.34-0.96,1.12-2.04c-0.1-0.5-0.35-0.99-0.59-1.45
				c-0.59-1.13-0.25-1.83,1.03-2.01c0.36-0.05,0.74,0.01,1.11,0.01c0.32,0,0.63-0.03,0.95-0.05c-0.09-0.34-0.09-0.76-0.29-1
				c-0.58-0.69-0.56-1.37-0.09-2.04c0.32-0.47,0.72-0.92,1.16-1.28c0.58-0.48,0.99-0.95,0.95-1.79c-0.03-0.61,0.1-1.26,0.31-1.84
				c0.2-0.58,0.62-1.09,0.04-1.7c-0.1-0.1-0.01-0.49,0.12-0.66c0.5-0.7,1.05-1.37,1.58-2.06c0.3-0.39,0.64-0.75,0.87-1.17
				c1.04-1.9,1.9-3.91,3.1-5.7c1.07-1.6,1.99-3.19,2.27-5.12c0.09-0.6,0.2-1.13-0.25-1.65c-0.35-0.42-0.29-0.89,0.18-1.21
				c2.02-1.38,2.97-3.55,3.95-5.62c0.69-1.46,1.63-2.18,3.19-2.24c0.31-0.01,0.62-0.09,1.04-0.15c-0.97-1.22-1-2.49-0.89-3.82
				c0.11-1.38,0.58-2.49,1.77-3.29c0.28-0.19,0.59-0.72,0.52-1c-0.27-1.04,0.1-1.87,0.56-2.74c0.14-0.26-0.01-0.66,0.04-0.99
				c0.12-0.71,0.08-1.58,0.48-2.08c0.86-1.08,1.93-2.02,3.39-2.32c0.31-0.06,0.61-0.2,1.02-0.33c-1.32-1.2-1.31-2.43-0.57-3.8
				c0.54-1.01,1.05-2.06,1.37-3.15c0.3-1.03,0.82-1.76,1.72-2.3c0.63-0.39,1.04-0.91,0.48-1.69c-0.1-0.14-0.13-0.45-0.05-0.61
				c0.79-1.47,1.03-3.27,2.56-4.33c0.32-0.23,0.71-0.86,0.61-1.12c-0.49-1.2,0.04-2.25,0.46-3.22c1.88-4.33,3.86-8.61,5.81-12.91
				c0.57-1.26,1.15-2.5,1.73-3.76c-0.08-0.06-0.16-0.12-0.23-0.18c-0.21,0.21-0.48,0.38-0.63,0.63c-1.33,2.17-2.66,4.34-3.97,6.52
				c-1.83,3.06-3.63,6.14-5.48,9.2c-0.17,0.28-0.51,0.53-0.83,0.63c-0.8,0.27-1.1,0.82-1.15,1.61c-0.04,0.58-0.03,1.21-0.25,1.72
				c-0.96,2.14-2.01,4.25-3.03,6.36c-0.07,0.15-0.26,0.25-0.39,0.38c-0.39,0.41-0.87,0.77-1.16,1.24c-1.05,1.75-2.04,3.55-3.07,5.32
				c-0.13,0.22-0.35,0.45-0.57,0.54c-1.34,0.52-1.5,0.78-1.45,2.2c0.02,0.47-0.07,0.98-0.26,1.41c-0.29,0.65-0.75,1.22-1.06,1.85
				c-0.55,1.11-1.47,1.54-2.64,1.57c-0.26,0.01-0.52-0.01-0.81-0.01c0.95,2.19,0.95,2.19-0.05,4.29c-0.07,0.14-0.11,0.29-0.19,0.42
				c-0.42,0.72-0.58,1.43,0.36,2.1c-1.04,0.3-1.88,0.58-2.2,1.58c-0.28,0.87-0.84,1.66-1.03,2.55c-0.24,1.15-0.35,1.36-1.53,1.31
				c-0.46-0.02-0.94-0.12-1.14,0.51c-0.03,0.1-0.31,0.16-0.47,0.16c-0.89,0.01-1.1,0.52-1.02,1.29c0.1,0.89,0.28,1.79,0.25,2.68
				c-0.02,0.46-0.33,1.21-0.67,1.31c-1.28,0.39-1.15,1.29-1.02,2.23c0.1,0.75-0.04,1.41-0.63,1.93c-1.42,1.29-2.4,2.77-2.12,4.82
				c0.03,0.25-0.04,0.51-0.07,0.86c-0.41-0.18-0.69-0.38-0.97-0.4c-0.5-0.03-1.13-0.1-1.47,0.15c-0.27,0.21-0.31,0.9-0.24,1.33
				c0.08,0.5,0.43,0.95,0.63,1.43c0.2,0.47,0.27,1-0.4,1.08c-0.86,0.1-1.2,0.67-1.52,1.33c-0.62,1.3-1.35,2.43-3.04,2.45
				c-0.73,0.01-0.95,0.49-0.73,1.24c0.27,0.92,0.47,1.87,0.58,2.82c0.14,1.22-0.17,2.32-1.37,2.91c-1.03,0.51-1.29,1.43-1.46,2.42
				c-0.05,0.3-0.03,0.62-0.07,0.93c-0.08,0.72-0.45,1.07-1.2,0.89c-0.24-0.06-0.48-0.1-0.84-0.18c-0.34,2.01-1.86,1.13-3.14,1.14
				c0.31,0.49,0.55,0.84,0.77,1.21c0.7,1.17,0.61,1.72-0.35,2.7c-0.17,0.17-0.35,0.45-0.35,0.67c0.01,0.98,0.09,1.96,0.14,2.94
				c0.08,1.31-0.13,1.62-1.33,2.25c-0.36,0.19-0.75,0.47-0.96,0.81c-0.57,0.92-1.08,1.89-1.55,2.87c-0.54,1.13-1.22,2.01-2.58,2.11
				c-0.23,0.02-0.46,0.15-0.44,0.14c-0.07,1.36-0.19,2.57-0.17,3.78c0,0.44,0.26,0.91,0.49,1.32c0.27,0.46,0.63,0.87,0.96,1.3
				c-0.58,0.06-1.17,0.12-1.75,0.17c-0.12,0.01-0.27-0.08-0.36-0.03c-0.35,0.18-0.88,0.31-0.99,0.6c-0.36,0.91-0.96,1.31-1.9,1.37
				c-0.56,0.03-0.79,0.34-0.5,0.89c0.49,0.95,0.39,1.85-0.2,2.72c-0.43,0.64-0.84,1.29-1.24,1.95c-0.25,0.42-0.63,0.88-0.63,1.32
				c0,1.4-0.83,2.29-1.7,3.18c-1.13,1.15-2.22,2.32-2.36,4.09c-0.43-0.13-0.77-0.24-1.26-0.39c0.1,0.67,0.17,1.21,0.27,1.74
				c0.26,1.4,0.22,2.72-0.94,3.78c-0.36,0.33-0.64,0.76-0.95,1.14c-0.9,1.1-0.9,1.8,0,2.89c0.14,0.17,0.25,0.37,0.41,0.61
				c-1,0.04-1.91,0-2.39,0.94c-0.9,1.74-1.8,3.47-2.64,5.23c-0.4,0.83-0.87,1.3-1.87,1.11c-0.3-0.06-0.94,0.22-0.96,0.4
				c-0.09,0.77-0.28,1.59,0.38,2.29c0.4,0.42,0.65,0.99,0.97,1.49c-0.69,0.08-1.2-0.04-1.71-0.12c-0.25-0.04-0.52,0-0.78,0
				c0.04,0.26-0.01,0.61,0.14,0.76c0.91,0.92,0.32,1.56-0.23,2.39c-1.13,1.74-2.5,3.44-2.07,5.78c0.09,0.47-0.11,1-0.19,1.64
				c-0.92-0.49-1.53-0.33-1.9,0.48c-0.42,0.9-0.9,1.77-1.26,2.69c-0.25,0.64-0.55,0.98-1.3,0.85c-0.8-0.14-0.96,0.36-0.84,1.02
				c0.05,0.24,0.16,0.47,0.22,0.71c0.38,1.46,0.44,2.91-0.68,4.08c-0.71,0.74-1.3,1.45-1.21,2.55c0.02,0.18-0.13,0.48-0.28,0.55
				c-1.06,0.53-1.29,1.59-1.73,2.53c-0.22,0.47-0.4,1.04-0.78,1.34c-0.77,0.61-0.81,1.44-1.07,2.27c-0.4,1.31-0.45,2.94-2.22,3.41
				c-0.2,0.05-0.35,0.28-0.52,0.43c0.72,0.77,0.88,1.52,0.26,2.08c-0.89,0.8-0.95,1.82-1.14,2.85c-0.08,0.45-0.22,0.91-0.46,1.3
				c-1.01,1.65-1.82,3.46-3.58,4.53c-0.24,0.15-0.48,0.47-0.53,0.74c-0.07,0.38-0.1,0.91,0.11,1.15c0.47,0.54,0.51,0.99,0.17,1.58
				c-0.26,0.46-0.47,0.94-0.66,1.44c-0.35,0.91-0.84,1.73-0.73,2.82c0.1,0.89-0.35,1.68-1.2,2.27c-0.6,0.42-1.09,1.1-1.43,1.76
				c-0.41,0.79-0.53,1.72-0.9,2.54c-1.88,4.22-3.8,8.43-5.69,12.65c-0.64,1.42-1.25,2.85-1.87,4.28c0.23-0.01,0.33-0.08,0.39-0.18
				c2.98-4.84,5.92-9.69,8.93-14.51c1.05-1.68,1.7-3.66,3.46-4.86c0.33-0.22,0.54-0.69,0.68-1.09c0.79-2.18,2.07-4.08,3.29-6.03
				c0.33-0.53,0.53-1.17,0.64-1.79c0.23-1.22,0.74-2.2,1.77-2.95c0.55-0.4,1-0.96,1.49-1.45
				C816.54,431.69,817.18,431.07,817.77,430.42z M840.75,420.59c0.46-0.7,0.79-1.48,1.22-2.19c0.3-0.5,0.59-1.15,1.05-1.37
				c1.18-0.55,1.21-1.5,1.41-2.58c0.2-1.12,0.75-2.21,1.33-3.21c0.23-0.39,0.92-0.57,1.44-0.72c0.54-0.16,0.52-0.47,0.5-0.91
				c-0.02-0.75-0.12-1.56,0.11-2.25c0.7-2.03,1.84-3.82,3.34-5.38c0.32-0.33,0.83-0.76,0.8-1.1c-0.11-1.3,0.64-2.18,1.25-3.16
				c0.13-0.2,0.2-0.46,0.23-0.7c0.12-1.11,0.7-1.88,1.63-2.47c0.27-0.17,0.61-0.46,0.64-0.72c0.12-1.25,0.11-2.51,0.23-3.77
				c0.05-0.51,0.15-1.27,0.48-1.44c1.19-0.61,2.05-1.42,2.49-2.69c0.09-0.26,0.38-0.5,0.64-0.65c0.64-0.37,1.31-0.69,1.97-1.03
				c0.78-0.39,0.83-0.77,0.26-1.43c-0.27-0.31-0.71-0.84-0.61-1.04c0.36-0.74,0.47-1.7,1.45-2.05c0.65-0.24,1.19-0.78,1.04-1.49
				c-0.3-1.42,0.58-2.41,1.06-3.56c0.14-0.34,0.31-0.68,0.39-1.03c0.34-1.44,1.21-2.13,2.69-2.17c0.35-0.01,0.7-0.23,1.05-0.36
				c-0.17-0.33-0.29-0.72-0.53-0.99c-0.54-0.59-0.83-1.22-0.28-1.9c0.49-0.62,1.14-1.11,1.63-1.73c0.32-0.4,0.8-1.01,0.69-1.37
				c-0.31-1,0.11-1.71,0.48-2.53c0.19-0.42,0.1-0.97,0.18-1.45c0.08-0.43,0.11-0.93,0.36-1.26c0.33-0.43,0.88-0.68,1.25-1.09
				c0.29-0.32,0.67-0.81,0.61-1.14c-0.32-1.7,0.64-2.55,1.95-3.2c0.76-0.38,1.54-0.71,2.34-1.07c-1.33-1.33-1.37-2.64-0.16-3.9
				c0.97-1.01,1.57-2.09,1.27-3.59c-0.08-0.41,0.32-0.99,0.63-1.4c0.56-0.76,1.32-1.38,1.8-2.18c0.47-0.79,0.69-1.72,1.02-2.59
				c0.41-1.06,1.13-1.68,2.29-1.91c1.9-0.39,2.19-1.08,1.33-2.8c-0.33-0.67-0.47-1.29-0.17-2.04c0.29-0.73,0.51-1.52,0.59-2.3
				c0.1-1.02,0.68-1.65,1.37-2.32c0.94-0.91,1.78-1.94,2.59-2.97c0.24-0.31,0.3-0.82,0.3-1.24c-0.02-1.23,0.58-2.21,1.72-2.66
				c1.39-0.54,1.75-1.18,1.46-2.66c-0.21-1.05-0.29-2.04,0.23-3.07c0.23-0.46,0.08-1.12,0.11-1.93c0.16-0.28,0.5-0.8,0.77-1.35
				c0.4-0.82,0.64-1.75,1.16-2.49c1.19-1.68,2.48-3.28,3.79-4.87c0.35-0.42,0.9-0.69,1.4-0.95c0.3-0.16,0.68-0.18,1.15-0.29
				c-0.24-0.37-0.41-0.61-0.58-0.87c-0.5-0.79-0.87-1.65-0.43-2.55c0.5-1.04,1.16-2.01,1.7-3.04c0.15-0.28,0.13-0.66,0.15-1
				c0.03-0.72-0.18-1.55,0.09-2.16c0.55-1.23,1.27-2.41,2.07-3.5c0.56-0.75,1.36-1.33,2.07-1.97c0.59-0.52,1-1.03,0.4-1.82
				c-0.12-0.16-0.12-0.55-0.01-0.73c0.6-0.98,0.76-2.25,1.87-2.93c0.25-0.15,0.39-0.55,0.5-0.87c0.72-2.08,1.34-4.19,2.15-6.22
				c0.27-0.68,0.93-1.29,1.56-1.7c0.56-0.35,0.66-0.69,0.49-1.21c-0.18-0.56-0.54-1.09-0.59-1.66c-0.04-0.48,0.13-1.36,0.39-1.44
				c1.2-0.35,1.43-1.43,1.83-2.28c1.11-2.35,2.03-4.79,3.09-7.17c1.55-3.48,3.17-6.94,4.75-10.41c0.32-0.69,0.62-1.39,0.93-2.08
				c-0.09-0.07-0.18-0.15-0.27-0.22c-0.22,0.21-0.49,0.38-0.64,0.63c-3.27,5.42-6.52,10.86-9.8,16.27
				c-0.26,0.43-0.74,0.83-1.21,1.02c-0.63,0.25-0.95,0.62-1.09,1.25c-0.2,0.91-0.4,1.82-0.7,2.7c-0.33,0.96-0.81,1.81-1.77,2.39
				c-0.5,0.3-1.01,1.07-0.99,1.61c0.02,0.85-0.24,1.48-0.63,2.15c-0.74,1.26-1.42,2.55-2.17,3.8c-0.15,0.26-0.47,0.55-0.73,0.58
				c-1,0.12-1.35,0.74-1.47,1.63c-0.11,0.79-0.19,1.6-0.42,2.37c-0.39,1.36-0.91,2.68-1.31,4.03c-0.16,0.53-0.33,0.87-0.94,0.97
				c-0.31,0.05-0.67,0.32-0.83,0.59c-0.75,1.25-1.47,2.52-2.13,3.82c-0.25,0.51-0.43,1.12-0.42,1.68c0.03,1.07-0.05,2.11-0.89,2.83
				c-0.76,0.66-1.66,1.16-2.51,1.72c-0.11,0.07-0.3,0.05-0.46,0.04c-1.33-0.02-1.53,0.25-1.03,1.53c0.27,0.69,0.27,1.3-0.11,1.95
				c-0.75,1.29-1.45,2.61-2.2,3.89c-0.12,0.2-0.39,0.4-0.62,0.45c-1.54,0.33-1.69,0.48-1.62,2.02c0.04,1.04-0.04,2.04-0.65,2.93
				c-0.79,1.14-1.17,2.38-0.95,3.78c0.13,0.83-0.29,1.38-0.92,1.89c-0.49,0.4-0.85,0.96-1.36,1.56c-0.28,0.25-0.75,0.54-1.06,0.96
				c-0.44,0.59-0.73,1.29-1.14,1.91c-0.3,0.44-0.7,0.81-1.04,1.23c-0.38,0.47-0.96,0.9-1.08,1.43c-0.24,1.07-0.29,2.2-0.32,3.31
				c-0.04,1.41-0.93,2.35-1.76,3.3c-0.17,0.2-0.64,0.22-0.96,0.2c-1.05-0.05-1.62,0.38-1.34,1.36c0.32,1.13-0.29,1.91-0.68,2.78
				c-0.36,0.82-0.92,1.55-1.28,2.38c-0.23,0.53-0.36,1.15-0.35,1.73c0.02,0.87-0.15,1.51-1.09,1.79c-0.29,0.09-0.63,0.33-0.76,0.6
				c-0.28,0.59-0.67,0.93-1.31,1.05c-0.54,0.1-0.64,0.38-0.45,0.95c0.16,0.48,0.24,1.23-0.02,1.57c-0.69,0.9-0.68,1.86-0.71,2.89
				c-0.01,0.35-0.35,0.97-0.58,0.99c-0.98,0.06-1.35,0.73-1.61,1.45c-0.32,0.89-0.54,1.83-0.73,2.76c-0.17,0.84-0.37,1.56-1.37,1.76
				c-0.23,0.05-0.41,0.41-0.57,0.66c-0.75,1.19-1.06,2.68-2.43,3.43c-1.19,0.65-1.57,1.82-1.75,3.02c-0.12,0.82-0.38,1.44-1,2
				c-0.32,0.29-0.5,0.86-0.52,1.31c-0.04,0.97,0.05,1.95,0.1,2.93c0.04,0.73-0.27,1.14-1.02,1.31c-0.33,0.07-0.71,0.36-0.88,0.66
				c-0.69,1.25-1.34,2.52-1.93,3.82c-0.49,1.08-1.15,1.98-2.2,2.57c-0.54,0.3-0.55,0.69-0.38,1.26c0.12,0.4,0.11,0.93-0.06,1.31
				c-0.57,1.24-1.21,2.45-1.86,3.65c-0.46,0.83-1.11,1.38-2.18,1.29c-0.24-0.02-0.65,0.37-0.75,0.66c-0.11,0.31,0.02,0.73,0.12,1.08
				c0.3,0.99,0.61,1.95-0.1,2.93c-0.14,0.19-0.07,0.71,0.11,0.91c0.41,0.46,0.23,0.76-0.09,1.11c-0.77,0.85-1.53,1.71-2.28,2.58
				c-0.5,0.57-0.42,1.13,0.09,1.65c0.19,0.19,0.38,0.37,0.64,0.62c-0.26,0.04-0.45,0.01-0.56,0.09c-0.74,0.52-1.52,1.01-2.18,1.62
				c-0.58,0.54-0.41,1.22-0.08,1.89c0.07,0.14-0.22,0.59-0.45,0.71c-0.24,0.14-0.6,0.08-0.91,0.08c-1.31,0.02-1.55,0.32-1.45,1.65
				c0.04,0.51,0.08,1.1-0.13,1.52c-0.54,1.05-0.86,2.11-0.82,3.29c0.01,0.32-0.12,0.64-0.21,1.05c-0.55-0.27-0.97-0.52-1.43-0.69
				c-0.29-0.11-0.63-0.09-0.95-0.12c0.02,0.33-0.06,0.72,0.09,0.97c0.54,0.88,0.35,1.65-0.05,2.53c-0.36,0.78-1,1.05-1.66,1.36
				c-0.68,0.32-1,0.8-0.62,1.48c0.61,1.08,0,1.89-0.49,2.73c-0.28,0.48-0.66,0.9-0.99,1.35c-0.42,0.57-0.51,1.17-0.19,1.83
				c0.77,1.59,0.51,2.53-0.88,3.62c-0.26,0.2-0.47,0.64-0.47,0.96c0.02,1.02-0.29,1.88-0.96,2.64c-0.28,0.32-0.69,0.71-0.69,1.06
				c0,0.97-0.58,1.51-1.15,2.13c-0.33,0.36-0.74,0.92-0.68,1.32c0.21,1.39-0.38,2.46-1.05,3.55c-0.81,1.31-1.81,2.54-2.4,3.94
				c-2,4.7-3.87,9.47-5.78,14.21c-0.51,1.27-1,2.54-1.5,3.81c1.7-2.69,3.23-5.45,4.75-8.22c2.06-3.75,4.1-7.52,6.19-11.25
				c0.25-0.45,0.77-0.79,1.23-1.08c0.41-0.27,0.91-0.4,1.36-0.6c0.9-0.4,1.46-1,1.7-2.04c0.54-2.37,1.65-4.5,3.3-6.27
				c0.95-1.02,1.67-2.09,1.78-3.47c0.09-1.19,0.66-2.02,1.75-2.4C839.65,422.21,840.21,421.41,840.75,420.59z M799.88,422.38
				c0.14-1.34,0.83-2.45,1.83-3.46c0.7-0.7,1-1.79,1.49-2.7c0.1-0.18,0.21-0.43,0.36-0.48c0.99-0.32,1.28-1.18,1.65-2.01
				c0.27-0.62,0.6-1.22,0.96-1.79c0.47-0.75,1.09-1.41,1.46-2.2c0.46-0.97,0.97-1.84,1.85-2.5c0.3-0.23,0.47-0.64,0.7-0.96
				c0.71-0.97,1.43-1.93,2.11-2.92c0.15-0.23,0.28-0.63,0.18-0.84c-0.37-0.8,0.04-1.08,0.7-1.1c1.09-0.03,1.76-0.74,2.17-1.54
				c0.46-0.9,1.11-1.47,1.98-1.85c0.66-0.29,1.02-0.81,0.91-1.46c-0.22-1.33,0.35-2.4,0.91-3.51c0.4-0.8,0.74-1.63,1.09-2.46
				c0.54-1.32,1.34-1.83,2.92-1.67c-0.12-0.42-0.18-0.79-0.34-1.12c-0.26-0.53-0.62-1.01-0.88-1.53c-0.32-0.65,0.04-1.28,0.72-1.35
				c1.18-0.11,1.8-0.86,1.43-2.04c-0.43-1.35-0.08-1.79,1.17-2.53c0.78-0.46,1.33-1.04,1.45-2.02c0.11-0.9,0.84-1.42,1.74-1.26
				c0.89,0.16,0.89-0.29,0.73-0.89c-0.34-1.23-0.13-2.35,0.41-3.51c0.67-1.44,1.52-2.83,1.34-4.56c-0.13-1.22,0.34-1.56,1.6-1.55
				c0.34,0,0.68-0.02,1.02-0.05c0.88-0.06,1.27-0.52,0.84-1.29c-0.7-1.25-0.07-1.96,0.81-2.66c0.82-0.65,1.65-1.37,1.67-2.47
				c0.04-1.98,0.82-3.38,2.7-4.11c0.02-0.01,0.02-0.06,0.04-0.11c-0.39-0.53-0.83-1.04-1.17-1.62c-0.62-1.08-0.3-1.75,0.88-2.09
				c0.3-0.09,0.73-0.26,0.81-0.49c0.49-1.5,1.45-2.56,2.91-3.3c-0.24-0.12-0.41-0.16-0.51-0.26c-0.3-0.32-0.8-0.65-0.81-0.99
				c-0.01-0.32,0.46-0.72,0.8-0.97c0.45-0.32,1.01-0.48,1.46-0.8c1.18-0.81,1.64-1.97,1.68-3.39c0.01-0.38,0.31-0.84,0.62-1.11
				c0.5-0.44,1.11-0.75,1.67-1.12c-1.15-1.6-0.81-3.26,0.85-4.18c1-0.56,1.41-1.33,1.24-2.45c-0.08-0.52-0.12-1.05-0.15-1.57
				c-0.03-0.71,0.27-1.11,1.01-1.33c0.78-0.24,1.57-0.61,2.24-1.07c0.87-0.6,0.71-1.38-0.28-1.82c-0.31-0.14-0.64-0.25-0.91-0.45
				c-0.98-0.7-0.84-1.73,0.17-2.37c0.71-0.46,1.39-1.06,1.88-1.74c0.7-0.96,1.46-1.62,2.69-1.74c1.14-0.11,1.59-0.89,1.05-1.9
				c-0.57-1.08-0.52-2.06-0.08-3.12c0.08-0.2,0.06-0.46,0.01-0.68c-0.1-0.4-0.46-1.05-0.36-1.13c0.39-0.28,0.9-0.4,1.38-0.54
				c0.51-0.15,1.04-0.27,1.69-0.43c-0.68-0.89-0.56-1.38,0.2-1.79c0.4-0.21,0.72-0.58,1.04-0.91c0.41-0.42,0.55-0.83,0.11-1.38
				c-0.29-0.37-0.62-0.97-0.51-1.34c0.32-1.03,0.79-2.03,1.37-2.94c0.23-0.37,0.88-0.47,1.42-0.74c-0.26-0.33-0.53-0.7-0.82-1.04
				c-0.49-0.59-0.51-1.26-0.05-1.79c0.41-0.47,0.97-0.89,1.54-1.1c1.13-0.41,1.39-0.68,1.33-1.88c-0.02-0.43-0.08-0.92,0.09-1.27
				c0.59-1.22,1.16-2.48,2.35-3.26c0.57-0.37,0.78-0.77,0.55-1.46c-0.28-0.86-0.06-1.61,0.62-2.28c0.44-0.44,1.01-1.09,0.98-1.61
				c-0.1-1.56,0.61-2.82,1.16-4.15c0.55-1.3,0.92-2.72,2.19-3.6c0.18-0.12,0.33-0.43,0.32-0.64c-0.05-1.82,0.96-3.31,1.59-4.88
				c1.96-4.96,4.11-9.85,6.18-14.76c0.11-0.26,0.23-0.53,0.44-1c-0.35,0.14-0.44,0.14-0.46,0.18c-1.69,3.08-4.15,5.72-5.27,9.14
				c-0.11,0.34-0.35,0.68-0.62,0.91c-1.01,0.89-1.52,2.04-1.7,3.33c-0.15,1.04-0.64,1.77-1.57,2.27c-0.37,0.2-0.88,0.5-0.93,0.82
				c-0.14,0.87-0.77,1.31-1.3,1.85c-0.89,0.92-1.38,1.93-1.46,3.29c-0.08,1.42-0.46,2.81-1.97,3.67c-1.25,0.71-2.44,1.66-2.38,3.41
				c0.01,0.19-0.41,0.48-0.68,0.58c-0.34,0.12-0.75,0.02-1.1,0.12c-0.58,0.17-0.89,0.64-0.47,1.12c0.83,0.95,0.44,1.74-0.11,2.58
				c-0.31,0.47-0.61,0.95-0.82,1.46c-0.13,0.32-0.17,0.74-0.07,1.07c0.27,0.87,0.02,1.41-0.78,1.82c-0.88,0.45-1.73,0.95-2.56,1.49
				c-0.6,0.39-0.95,1-0.61,1.68c0.28,0.58,0.05,0.93-0.24,1.34c-1.06,1.49-2.07,2.99-2.14,4.93c-0.02,0.66-0.37,1.21-1.05,1.52
				c-0.34,0.16-0.64,0.5-0.86,0.83c-0.8,1.2-1.49,2.44-1.05,3.99c0.08,0.27-0.04,0.59-0.08,1.01c-0.53-0.19-0.96-0.46-1.39-0.46
				c-0.69,0.01-1.41,0.11-2.03,0.37c-0.15,0.06-0.01,0.94,0.1,1.42c0.18,0.83-0.07,2.13-0.61,2.26c-1.36,0.32-1.75,1.35-2.04,2.5
				c-0.3,1.22-0.73,1.46-1.96,1.14c-0.26-0.07-0.52-0.15-1.01-0.29c0.18,0.72,0.26,1.33,0.48,1.88c0.56,1.38,0.85,2.78,0.7,4.27
				c-0.08,0.77-0.24,1.44-1.1,1.77c-0.31,0.12-0.57,0.53-0.72,0.87c-0.23,0.54-0.35,1.12-0.52,1.69c-0.16,0.56-0.4,1.01-0.96,0.78
				c-0.27,0.46-0.41,1.04-0.76,1.23c-0.66,0.36-1.01,0.85-1.28,1.51c-0.38,0.92-0.89,1.69-2.03,1.8c-0.72,0.07-1.1,0.6-1.09,1.29
				c0,0.71,0.12,1.41,0.22,2.11c0.1,0.67,0.26,1.32,0.41,2.1c-0.7,0.05-1.28,0.09-1.85,0.14c-1.22,0.09-1.67,0.55-1.66,1.75
				c0.01,0.42,0.07,0.86,0.21,1.27c0.52,1.54-0.33,2.88-1.98,3.05c-0.36,0.04-0.72,0.06-1.2,0.1c0.12,0.43,0.25,0.74,0.29,1.07
				c0.03,0.25,0.03,0.67-0.11,0.74c-1,0.56-0.58,1.33-0.41,2.11c0.08,0.35,0.13,0.9-0.07,1.08c-0.26,0.24-0.77,0.3-1.17,0.28
				c-0.56-0.04-1.11-0.22-1.8-0.37c0.04,0.57,0,0.95,0.11,1.29c0.46,1.44,0.14,2.58-1.09,3.53c-0.29,0.22-0.44,0.8-0.43,1.21
				c0.02,0.77,0.24,1.53,0.31,2.31c0.11,1.07-0.21,1.66-1.13,1.83c-0.65,0.12-0.94,0.5-1.01,1.03c-0.11,0.84-0.11,1.69-0.15,2.34
				c-0.47,0.42-1,0.71-1.22,1.15c-0.22,0.45-0.15,1.04-0.2,1.59c-1.76-0.42-2.06-0.18-2.26,1.5c-0.03,0.3-0.38,0.58-0.64,0.82
				c-0.43,0.4-1.25,0.72-1.3,1.15c-0.22,1.59-0.8,3.22,0.11,4.81c0.11,0.2,0.13,0.62,0,0.75c-0.65,0.64-1.29,1.37-2.09,1.78
				c-0.82,0.42-1.19,0.98-1.4,1.8c-0.12,0.47-0.29,0.99-0.6,1.34c-0.31,0.34-0.81,0.67-1.25,0.7c-1.14,0.08-1.28,0.24-0.86,1.33
				c0.18,0.47,0.48,1.12,0.31,1.47c-0.91,1.77-1.46,3.77-3.14,5.09c-0.38,0.3-0.68,1.03-0.62,1.51c0.17,1.39-0.54,2.54-1.93,2.82
				c-0.41,0.08-0.79,0.28-1.28,0.45c0.78,0.85,1.26,1.45,0.85,2.55c-0.6,1.62-1.02,3.33-1.31,5.04c-0.2,1.22-0.25,2.34-1.55,3.03
				c-0.52,0.28-0.83,1.02-1.14,1.61c-0.21,0.4-0.18,0.93-0.41,1.32c-0.26,0.45-0.61,0.96-1.06,1.17c-1.46,0.71-1.73,1.24-1.37,2.84
				c0.09,0.42-0.01,0.96-0.2,1.36c-0.41,0.83-1.03,1.56-1.41,2.4c-0.9,2.01-1.68,4.07-2.55,6.09c-1.85,4.33-3.73,8.66-5.59,12.99
				c-0.25,0.57-0.45,1.16-0.67,1.74c0.32-0.11,0.5-0.27,0.64-0.47c2.94-4.04,5.92-8.05,8.77-12.16
				C798.86,425.19,799.72,423.96,799.88,422.38z M926.22,281.96c-0.19,0.24-0.41,0.47-0.58,0.73c-2.11,3.44-4.22,6.87-6.31,10.32
				c-0.5,0.82-1.13,1.63-1.32,2.53c-0.38,1.79-1.59,2.78-2.94,3.72c-0.1,0.07-0.21,0.13-0.32,0.2c-0.62,0.43-0.91,0.97-0.7,1.76
				c0.07,0.27,0.05,0.62-0.08,0.87c-0.4,0.8-0.84,1.59-1.32,2.35c-0.17,0.26-0.46,0.56-0.74,0.62c-1.02,0.23-1.48,0.95-1.6,1.84
				c-0.26,2.04-1.17,3.78-2.28,5.44c-0.22,0.33-0.68,0.6-1.08,0.68c-1.05,0.21-1.3,0.55-1.08,1.59c0.11,0.53,0.28,1.19,0.08,1.62
				c-0.51,1.05-1.17,2.05-1.89,2.97c-0.77,0.97-1.19,2.04-1.2,3.25c0,0.64-0.01,1.03-0.81,1.11c-0.56,0.06-1.09,0.4-1.62,0.63
				c-1.06,0.45-1.41,1.45-0.84,2.44c0.17,0.29,0.43,0.53,0.64,0.79c0.51,0.62,0.38,1.08-0.41,1.14c-0.69,0.05-1.03,0.42-1.4,0.91
				c-0.71,0.94-1.48,1.84-2.23,2.74c-0.68,0.81-1.04,1.67-0.67,2.74c0.46,1.35,0.32,1.65-1.04,2.27c-1.01,0.47-1.53,1.84-1,2.67
				c0.59,0.92,0.51,1.07-0.54,1.51c-0.58,0.25-1.11,0.62-1.66,0.93c-0.46,0.25-0.9,0.64-1.39,0.71c-1.04,0.14-1.18,0.31-0.8,1.29
				c0.17,0.45,0.49,1.07,0.31,1.37c-0.56,0.99-0.43,1.97-0.32,2.99c0.05,0.48-0.11,0.74-0.62,0.63c-0.71-0.14-1.09,0.22-1.38,0.81
				c-0.32,0.64-0.64,1.29-1.07,1.85c-0.21,0.28-0.68,0.37-1.05,0.5c-0.32,0.11-0.84,0.05-0.96,0.25c-0.14,0.24-0.06,0.74,0.1,1.02
				c0.43,0.74,0.31,1.35-0.08,2.08c-0.41,0.77-0.87,1.65-0.84,2.47c0.04,1.16-0.3,1.9-1.25,2.47c-0.36,0.21-0.79,0.47-0.94,0.81
				c-0.4,0.93-0.98,1.33-2.02,1.25c-0.83-0.07-0.99,0.34-0.63,1.14c0.27,0.62,0.54,1.25,0.7,1.9c0.22,0.9,0.11,1.7-0.88,2.2
				c-0.39,0.19-0.79,0.6-0.94,1c-0.39,1.08-1.1,1.64-2.49,1.65c1.02,0.73,0.61,1.39,0.21,1.94c-0.64,0.88-0.92,1.78-0.71,2.87
				c0.17,0.88-0.2,1.5-1.14,1.72c-0.24,0.06-0.45,0.27-0.65,0.44c-0.34,0.29-0.61,0.68-0.99,0.89c-0.72,0.39-1.13,0.88-1.16,1.74
				c-0.03,0.75-0.2,1.5-0.33,2.24c-0.08,0.49-0.23,0.97-0.27,1.46c-0.08,0.98-0.49,1.69-1.38,2.16c-0.28,0.14-0.51,0.45-0.68,0.73
				c-0.4,0.7-0.76,1.42-1.13,2.14c-0.62,1.21-0.71,1.23-2.01,0.91c-0.35-0.09-0.95-0.11-1.08,0.07c-0.2,0.3-0.19,0.82-0.1,1.21
				c0.1,0.44,0.4,0.84,0.57,1.27c0.12,0.31,0.26,0.65,0.25,0.97c-0.03,0.83-0.14,1.65-0.2,2.48c-0.05,0.64-0.34,1.01-1,1.14
				c-0.28,0.05-0.63,0.27-0.77,0.52c-0.71,1.3-1.45,2.6-1.29,4.19c0.07,0.68-0.37,1.04-1.04,1.01c-0.52-0.02-1.05-0.12-1.57-0.15
				c-0.41-0.02-0.71,0.06-0.67,0.62c0.06,0.94,0.02,1.89,0.04,2.84c0.01,0.26,0.01,0.57,0.15,0.76c0.47,0.65,0.08,1.07-0.3,1.56
				c-0.32,0.41-0.68,0.88-0.76,1.36c-0.11,0.64-0.36,0.96-0.96,1.21c-0.68,0.28-1.32,0.68-1.92,1.1c-0.5,0.34-0.54,0.79-0.24,1.38
				c0.25,0.5,0.35,1.13,0.32,1.69c-0.07,1.33-0.84,2.33-1.81,3.14c-0.73,0.61-1.07,1.4-0.86,2.22c0.29,1.13-0.3,1.9-0.76,2.75
				c-0.43,0.79-0.99,1.51-1.39,2.32c-0.32,0.66-0.69,1.4-0.68,2.09c0.04,1.48-0.6,2.56-1.58,3.53c-0.4,0.39-0.77,0.81-1.19,1.18
				c-0.55,0.48-0.45,0.98-0.25,1.6c0.15,0.48,0.17,1.06,0.04,1.54c-0.33,1.22-0.92,2.39-1.14,3.63c-0.47,2.69-1.51,5.17-2.61,7.63
				c-1.23,2.76-2.59,5.47-3.98,8.36c0.2-0.19,0.29-0.26,0.34-0.34c2.81-4.17,5.62-8.33,8.43-12.51c0.15-0.23,0.4-0.61,0.32-0.74
				c-0.63-1.01,0.3-1.32,0.76-1.83c0.2-0.22,0.53-0.39,0.64-0.64c0.48-1.15,1.42-1.82,2.36-2.56c0.59-0.46,0.94-1.23,1.41-1.86
				c0.32-0.42,0.57-0.94,0.99-1.23c1.04-0.72,1.85-1.46,1.87-2.89c0.01-0.8,0.26-1.67,1.16-2.09c1.15-0.54,1.53-1.72,0.81-2.74
				c-0.46-0.65-0.29-1.18,0.13-1.68c0.27-0.32,0.67-0.55,1.02-0.79c1.52-1.01,2.72-2.24,3.09-4.12c0.12-0.6,0.37-1.18,0.51-1.78
				c0.23-1,0.83-1.58,1.85-1.67c0.91-0.08,1.39-0.62,1.61-1.44c0.14-0.54,0.24-1.09,0.34-1.64c0.16-0.91,0.65-1.54,1.57-1.76
				c0.38-0.09,0.77-0.12,1.31-0.2c-0.41-0.54-0.77-1.03-1.14-1.51c-1.01-1.3-0.96-1.73,0.32-2.74c0.12-0.1,0.27-0.16,0.38-0.27
				c0.61-0.58,1.01-1.18,1.02-2.15c0.01-0.77,0.4-1.78,0.97-2.27c1.89-1.59,2.66-3.66,2.98-5.96c0.13-0.91,0.41-1.66,1.11-2.27
				c0.35-0.3,0.67-0.64,0.95-1.01c0.46-0.59,1.02-0.84,1.77-0.84c0.38,0,0.76-0.25,1.14-0.39c-0.17-0.34-0.26-0.76-0.52-1
				c-0.58-0.55-0.62-1.05-0.22-1.73c0.25-0.43,0.48-1.02,0.39-1.46c-0.15-0.68-0.08-1.08,0.5-1.49c0.47-0.33,0.94-0.77,1.23-1.26
				c0.74-1.26,1.62-2.3,3.19-2.65c-0.14-0.17-0.29-0.22-0.43-0.3c-1.73-0.99-1.78-1.8-0.21-3.02c0.66-0.51,1.33-1.03,1.91-1.62
				c0.24-0.24,0.39-0.72,0.34-1.05c-0.13-0.85,0.2-1.38,0.91-1.74c0.36-0.18,0.73-0.34,1.1-0.51c0.65-0.3,0.71-0.67,0.25-1.23
				c-0.48-0.57-0.97-1.15-1.3-1.8c-0.42-0.82-0.07-1.44,0.84-1.32c1.28,0.17,1.77-0.51,2.22-1.48c0.48-1.02,0.93-1.15,2.03-0.78
				c0.37,0.12,0.77,0.16,1.06,0.21c0.01-1.33,0.03-2.43,0.02-3.52c0-0.16-0.15-0.33-0.26-0.47c-0.68-0.8-0.58-1.58,0.04-2.36
				c0.72-0.9,1.45-1.78,2.16-2.69c0.62-0.79,1.54-1.5,0.68-2.7c-0.16-0.22-0.16-0.63-0.08-0.91c0.27-0.95,0.55-1.91,0.94-2.82
				c0.48-1.12,1.34-1.84,2.62-1.94c0.69-0.05,0.84-0.47,0.76-1.11c-0.1-0.79-0.1-1.59-0.16-2.38c-0.01-0.18-0.02-0.38-0.1-0.53
				c-0.51-0.88-0.16-1.53,0.53-2.11c1.12-0.94,1.84-2.08,2.22-3.55c0.5-1.9,0.68-4.01,2.44-5.35c0.09-0.07,0.18-0.19,0.21-0.3
				c0.48-1.55,1.51-2.29,3.15-2.37c0.89-0.04,1.02-0.46,0.5-1.27c-0.54-0.85-0.73-1.78-0.36-2.67c0.38-0.9,0.99-1.7,1.49-2.54
				c0.28-0.47,0.62-0.93,0.79-1.44c0.29-0.87,0.38-1.82,0.73-2.67c0.31-0.77,0.57-1.46,0.36-2.32c-0.22-0.93,0.28-1.55,1.22-1.71
				c0.39-0.07,0.77-0.12,1.18-0.18c-0.48-1.28-0.28-1.79,0.66-2.69c0.49-0.47,0.96-1.09,1.13-1.73c0.26-1.01,0.16-2.11,0.39-3.12
				c0.24-1.07,0.59-2.14,1.09-3.12c0.72-1.43,1.71-2.74,2.41-4.18c0.88-1.8,1.42-3.79,2.43-5.51c0.85-1.45,1.61-2.76,2.02-4.49
				c0.64-2.67,2.04-5.16,3.13-7.73c0.35-0.83,0.72-1.65,1.09-2.48C926.38,282.06,926.3,282.01,926.22,281.96z"/>
		</g>
</svg>