<?xml version="1.0" encoding="utf-8"?>
<svg version="1.1"
	 xmlns="http://www.w3.org/2000/svg" xmlns:xlink="http://www.w3.org/1999/xlink" x="0px" y="0px" width="1043.76px"
	 height="693.41px" viewBox="0 0 1043.76 693.41" enable-background="new 0 0 1043.76 693.41" xml:space="preserve">>
<g id="id:speedy" display="inline">

				<path id="id:SUB_FIRST_BODY_COLOR_00000055707243148273971170000010367229581508385214_" display="inline" fill="#005B9B" d="
				M382.35,447.8l-0.76,106.31l2.11,2.14l-2.14,2.11l-0.72,100.77l-0.07,9.28l-11.3-0.01l-163.54-0.08l-163.54,0.02l-11.3,0
				l-0.06-9.33l-0.69-100.73l-2.14-2.11l2.11-2.14l-0.72-106.31l-2.14-2.11l2.11-2.14l-0.72-106.31l-2.14-2.11l2.11-2.14
				l-0.64-93.83l-0.02-2.24l5.42-4.91l0.92-0.83l1.81-1.78l1.43-1.58l0.98-1.25l2.85-4.23l0.67-1.23l1.73-3.36l1.59-3.38l0.03-0.07
				l1.44-3.38l1.24-3.21l1.03-3.03l0.87-2.94l0.76-3.02l1.12-5.52l0.64-3.79l0.56-3.89l0.47-3.98l0.46-4.81l0.37-4.97l0.26-4.84
				l0.16-4.87l-0.05-5.53l-0.18-5.69l-0.3-5.75l-0.41-5.63l-0.72-7.76l-0.84-7.69l-0.95-7.61l-1.06-7.49l-1.84-8.86l-2.09-9.15
				l-1.84-7.29l-2.03-7.23l-2.19-6.45l-3.78-11.13l8.81-3l88.42-30.12l6.22-2.12l5.04,8.23l0.04,0.06l3.69,6.02l0.04,0.06l2.91,4.3
				l3.13,4.17l0.05,0.06l2.65,3.16l2.91,3.07l1.2,1.15l0.06,0.05l1.18,1l1.29,0.98l1.37,0.92l2.02,1.21l1.99,1.07l2.09,1.01
				l1.95,0.83l2.27,0.7l2.67,0.73l2.69,0.64l2.69,0.55l1.91,0.32l0.08,0.01l1.82,0.22l1.78,0.14l10.55,0.04l3.7,0.01l2.13-2.13
				l2.13,2.13l3.85-0.01l10.46-0.03l1.78-0.14l1.91-0.23l1.91-0.31l2.69-0.55l2.69-0.64l2.67-0.73l2.36-0.73l1.87-0.8l2.09-1.01
				l2.07-1.11l1.94-1.16l1.37-0.92l1.29-0.98l1.25-1.06l1.19-1.14l2.91-3.06l2.71-3.23l3.12-4.16l2.96-4.37l3.72-6.06l5.04-8.23
				l6.21,2.12l88.41,30.15l8.81,3.01l-3.81,11.19l-2.2,6.47l-2,7.14l-1.87,7.38l-2.08,9.06l-1.86,8.95l-1.04,7.4l-0.96,7.7
				l-0.84,7.69l-0.71,7.66l-0.42,5.72l-0.3,5.66l-0.18,5.69l-0.06,5.62l0.16,4.78l0.26,4.93l0.36,4.87l0.47,4.91l0.46,3.89
				l0.56,3.89l0.66,3.88l1.1,5.43l0.76,3.02l0.89,3.03l1,2.94l1.24,3.21l1.48,3.46l1.58,3.37l1.72,3.36l0.72,1.31l2.81,4.15
				l1.04,1.32l1.37,1.51l1.81,1.78l0.96,0.87l5.37,4.87l-0.02,2.24l-0.67,93.83l2.11,2.14l-2.14,2.11l-0.76,106.31l2.11,2.14
				L382.35,447.8z M942.81,432.45l-2.11-2.14L941.37,324l2.14-2.11l-2.11-2.14l0.59-93.83l0.02-3.92l-0.23-0.11l-2.7-1.49l-2.5-1.64
				l-5.89-4.68l-5.53,4.29l-0.4,0.31l-2.52,1.61l-2.72,1.46l-3.31,1.48l-3.45,1.27l-1.58,0.48l-1.67,0.43l-1.7,0.36l-1.74,0.3
				l-3.49,0.48l-3.54,0.41l-3.55,0.33l-3.36,0.23l-1.17,0l-1.4-0.01l-5.24-0.43l-5.34-0.63l-3.39-0.56l-3.24-0.72l-4.93-1.45
				l-4.91-1.7l-3.29-1.35l-3.24-1.58l-3.35-1.83l-3.17-1.99l-3.06-2.18l-2.62-2.12l-2.01-2.17l-2.23-2.61l-2.12-2.71l-2.01-2.81
				l-2.28-3.47l-2.17-3.56l-2.04-3.64l-1.77-3.43l-0.87-2.22l-0.85-2.5l-0.73-2.54l-0.61-2.6l-0.73-3.77l-0.6-3.82l-0.47-3.84
				l-0.32-3.73l-0.11-3.99l0.02-4.13l0.14-4.12l0.27-4.12l0.39-4.07l0.52-4.08l0.64-4.03l2.46-12.51l1.26-5.32l1.43-5.33l1.76-5.89
				l2.09-6.43l2.25-6.38l2.41-6.35l1.27-3.16l0.05-0.12l0.05-0.12l2.93-7.95l4.07-11.03l-8.63-3.28l-87.36-33.16l-6.29-2.39
				l-6.4,10.04l-0.26,2.15l-4.75,38.68l-0.59,4.82l-0.72,4.72l-0.82,4.76l-0.9,4.73l-0.68,3.19l-0.75,3.16l-0.82,3.09l-0.96,3.17
				l-0.79,2.61l-0.86,2.38l-0.98,2.4l-1.06,2.33l-0.9,1.76l-0.97,1.69l-1.06,1.63l-1.08,1.5l-0.95,1.14l-1.07,1.17l-1.12,1.12
				l-1.16,1.06l-1,0.83l-1.01,0.75l-1.05,0.69l-2.2,1.29l-1.92,0.93l-0.73,0.29l-2.52,0.82l-2.61,0.61l-3.13,0.54l-3.23,0.4
				l-4.47,0.35l-3.98,0.17l-2.09-2.16l-2.16,2.09l-2.26-0.09l-4.47-0.35l-3.23-0.39l-3.13-0.54l-2.61-0.61l-2.52-0.82l-0.73-0.29
				l-1.92-0.93l-2.2-1.29l-1.05-0.69l-1.01-0.75l-1-0.83l-1.16-1.06l-1.12-1.12l-1.07-1.17l-0.95-1.14l-1.08-1.5l-1.06-1.63
				l-0.97-1.69l-0.9-1.76l-1.06-2.33l-0.98-2.4l-0.86-2.38l-0.79-2.61l-0.96-3.17l-0.82-3.09l-0.75-3.16l-0.68-3.19l-0.9-4.73
				l-0.82-4.76l-0.72-4.72l-0.59-4.82l-4.76-38.68l-0.26-2.15l-6.4-10.04l-6.29,2.39L532.4,59.2l-8.63,3.28l4.07,11.02l2.94,7.95
				l0.04,0.12l0.05,0.13l1.27,3.16l2.41,6.35l2.25,6.38l2.09,6.42l1.77,5.89l1.43,5.33l1.26,5.32l2.46,12.51l0.65,4.03l0.52,4.08
				l0.4,4.08l0.27,4.12l0.14,4.12l0.02,4.13l-0.11,3.99l-0.32,3.73l-0.47,3.84l-0.6,3.82l-0.73,3.76l-0.61,2.6l-0.73,2.54l-0.85,2.5
				l-0.87,2.22l-1.77,3.44l-2.04,3.64l-2.17,3.56l-2.28,3.47l-2.01,2.81l-2.11,2.71l-2.22,2.61l-2.01,2.17l-2.62,2.12l-3.05,2.18
				l-3.18,1.99l-3.35,1.83l-3.24,1.59l-3.28,1.35l-4.91,1.7l-4.93,1.45l-3.24,0.72l-3.39,0.56l-5.34,0.64l-5.24,0.43l-1.32,0.01
				l-1.25,0l-3.36-0.23l-3.55-0.32l-3.54-0.4l-3.49-0.48l-1.74-0.3l-1.69-0.36l-1.67-0.43l-1.58-0.48l-3.45-1.27l-3.31-1.48
				l-2.72-1.46l-2.52-1.61l-0.4-0.31l-5.54-4.29l-5.88,4.68l-2.5,1.64l-2.7,1.49l-0.23,0.11l0.03,3.92l0.62,93.83l-2.11,2.14
				l2.14,2.11l0.71,106.31l-2.11,2.14l2.14,2.11l0.71,106.31l-2.11,2.14l2.14,2.11l0.67,100.77l0.06,9.28h11.3h243.06l243.07-0.09
				l11.3,0l0.06-9.28l0.63-100.78l2.14-2.11l-2.11-2.14l0.67-106.31L942.81,432.45z"/>

				<path id="id:SUB_FIRST_ACCENT_1_00000062184377004794242800000004923673915441277061_" display="inline" fill="#68737A" d="
				M505.37,375.42l-3.53,26.26c-15.48-8.11-48-31.74-54.44-89.29C447.4,312.39,462.08,355.85,505.37,375.42z M515.35,312.41l0-0.01
				c-49.97-19.46-64.31-68.81-64.31-68.81c3.12,72.63,57.02,92.52,59.5,93.4l3.37-25.09L515.35,312.41z M864.35,375.42l3.53,26.26
				c15.48-8.11,48-31.74,54.44-89.29C922.32,312.39,907.64,355.85,864.35,375.42z M859.19,336.99c2.48-0.88,56.38-20.77,59.5-93.4
				c0,0-14.34,49.35-64.31,68.81l0,0.01l1.44-0.51L859.19,336.99z"/>

				<path id="id:SUB_FIRST_ACCENT_2_00000146500355887299800540000002995803201852452001_" display="inline" fill="#F1582A" d="
				M452.5,301.55c-0.02-0.04-0.04-0.08-0.05-0.11c-0.33-0.69-0.04-1.51,0.64-1.85c0.69-0.33,1.51-0.04,1.85,0.64
				c0.02,0.04,0.04,0.07,0.05,0.11c0.33,0.69,0.05,1.51-0.64,1.85C453.66,302.52,452.83,302.24,452.5,301.55z M448.43,359.95
				c-0.67,0.37-0.92,1.21-0.55,1.88l0.02,0.04c0.37,0.67,1.21,0.92,1.88,0.55s0.92-1.21,0.55-1.88l-0.02-0.04
				C449.94,359.83,449.1,359.58,448.43,359.95z M451.86,293.34c-0.29-0.71-1.1-1.04-1.8-0.75c-0.71,0.29-1.04,1.1-0.75,1.8
				c0.02,0.04,0.03,0.08,0.05,0.12c0.29,0.71,1.1,1.04,1.8,0.75c0.71-0.29,1.04-1.1,0.75-1.8v0
				C451.89,293.42,451.87,293.38,451.86,293.34z M449.21,286.33c-0.25-0.72-1.04-1.1-1.76-0.85c-0.72,0.25-1.1,1.04-0.85,1.76
				l0.02,0.04c0.25,0.72,1.04,1.1,1.76,0.85c0.72-0.25,1.1-1.04,0.85-1.76L449.21,286.33z M457.96,308.91
				c0.67-0.37,0.9-1.22,0.53-1.88v0c-0.02-0.04-0.04-0.07-0.06-0.11c-0.37-0.67-1.22-0.9-1.88-0.53c-0.67,0.37-0.9,1.22-0.53,1.88
				c0.02,0.04,0.04,0.07,0.06,0.11C456.45,309.05,457.29,309.29,457.96,308.91z M471.23,327.54c0.58-0.49,0.65-1.37,0.16-1.95
				c-0.03-0.03-0.05-0.06-0.08-0.09c-0.49-0.58-1.36-0.66-1.95-0.16c-0.58,0.49-0.66,1.36-0.16,1.95c0.03,0.03,0.05,0.06,0.08,0.1
				C469.77,327.96,470.64,328.03,471.23,327.54z M466.62,319.58c-0.45-0.61-1.32-0.74-1.93-0.29c-0.61,0.45-0.74,1.32-0.29,1.93
				c0.02,0.03,0.05,0.07,0.07,0.1c0.46,0.61,1.32,0.74,1.93,0.29s0.74-1.32,0.29-1.93v0C466.67,319.65,466.65,319.62,466.62,319.58z
				 M462.32,313.38c-0.41-0.64-1.27-0.82-1.91-0.41c-0.64,0.41-0.82,1.27-0.41,1.91c0.02,0.04,0.05,0.07,0.07,0.11
				c0.42,0.64,1.27,0.82,1.91,0.41c0.64-0.42,0.82-1.27,0.41-1.91v0C462.37,313.45,462.35,313.42,462.32,313.38z M454.17,367.04
				c-0.41-0.64-1.26-0.84-1.91-0.43c-0.64,0.41-0.84,1.26-0.43,1.91c0.02,0.04,0.05,0.07,0.07,0.11c0.41,0.64,1.26,0.83,1.91,0.42
				c0.64-0.41,0.83-1.26,0.42-1.91l0,0C454.21,367.11,454.19,367.07,454.17,367.04z M473.88,392.55c0.52-0.56,0.48-1.44-0.08-1.95v0
				c-0.03-0.03-0.06-0.06-0.09-0.08c-0.56-0.52-1.43-0.48-1.95,0.08c-0.52,0.56-0.48,1.43,0.08,1.95c0.03,0.03,0.06,0.06,0.09,0.09
				C472.49,393.14,473.37,393.11,473.88,392.55z M479.5,395.53c-0.59-0.48-1.46-0.39-1.94,0.2c-0.48,0.59-0.39,1.46,0.2,1.94
				c0.03,0.03,0.07,0.05,0.1,0.08c0.59,0.48,1.46,0.39,1.94-0.2s0.39-1.46-0.2-1.94v0C479.56,395.58,479.53,395.55,479.5,395.53z
				 M470.59,654.25l45.5-341.58l-0.74-0.26l-1.44-0.51l-3.37,25.09l-5.16,38.43l-3.53,26.26L467.9,654.25l0,0L470.59,654.25
				L470.59,654.25z M468.35,385.22c-0.03-0.03-0.06-0.06-0.09-0.09c-0.53-0.55-1.4-0.58-1.95-0.05c-0.55,0.53-0.58,1.4-0.05,1.95
				c0.03,0.03,0.06,0.06,0.09,0.09c0.53,0.55,1.4,0.58,1.95,0.05C468.86,386.65,468.88,385.77,468.35,385.22z M476.41,333.14
				c0.55-0.53,0.57-1.4,0.04-1.95c-0.03-0.03-0.06-0.06-0.08-0.09c-0.53-0.55-1.4-0.57-1.95-0.04c-0.55,0.53-0.57,1.4-0.04,1.95
				c0.03,0.03,0.06,0.06,0.09,0.09C474.98,333.66,475.86,333.67,476.41,333.14z M492,404.34c-0.65-0.4-1.5-0.19-1.9,0.47
				c-0.4,0.65-0.19,1.5,0.47,1.9c0.04,0.02,0.07,0.04,0.11,0.07c0.65,0.39,1.5,0.18,1.9-0.47c0.39-0.65,0.18-1.5-0.47-1.9v0
				C492.07,404.38,492.03,404.36,492,404.34z M456.54,373.06c-0.62,0.45-0.75,1.31-0.3,1.93c0.02,0.03,0.05,0.07,0.08,0.1
				c0.45,0.62,1.31,0.75,1.93,0.3c0.62-0.45,0.75-1.31,0.3-1.93c-0.02-0.03-0.05-0.07-0.07-0.1
				C458.03,372.75,457.16,372.61,456.54,373.06z M461.24,379.23c-0.59,0.49-0.67,1.36-0.18,1.95c0.03,0.03,0.05,0.07,0.08,0.1
				c0.49,0.59,1.36,0.66,1.95,0.18c0.59-0.49,0.66-1.36,0.18-1.95c-0.03-0.03-0.05-0.06-0.08-0.1
				C462.69,378.82,461.82,378.74,461.24,379.23z M497.51,410.53c0.69,0.34,1.51,0.05,1.85-0.63c0.34-0.69,0.05-1.51-0.63-1.85
				l-0.05-0.03c-0.69-0.34-1.51-0.05-1.85,0.63c-0.34,0.69-0.05,1.51,0.63,1.85L497.51,410.53z M484.11,402.48
				c0.62,0.44,1.49,0.29,1.93-0.33c0.44-0.62,0.29-1.49-0.33-1.93h0c-0.03-0.02-0.07-0.05-0.1-0.07c-0.62-0.44-1.49-0.29-1.93,0.33
				c-0.44,0.62-0.29,1.49,0.33,1.93C484.04,402.43,484.08,402.46,484.11,402.48z M499.15,292.72c-0.62-0.45-1.48-0.31-1.93,0.31
				c-0.45,0.62-0.31,1.48,0.31,1.93c0.03,0.02,0.06,0.04,0.09,0.07c0.62,0.45,1.48,0.31,1.93-0.31c0.45-0.62,0.31-1.48-0.31-1.93v0
				C499.21,292.76,499.18,292.74,499.15,292.72z M483.86,281.42c0.55-0.53,0.56-1.41,0.03-1.95c-0.03-0.03-0.05-0.05-0.08-0.08
				c-0.53-0.55-1.41-0.56-1.95-0.03c-0.55,0.53-0.56,1.41-0.03,1.95c0.03,0.03,0.05,0.05,0.08,0.08
				C482.44,281.93,483.32,281.95,483.86,281.42z M488.83,286.15c0.52-0.56,0.48-1.44-0.08-1.95c-0.03-0.02-0.05-0.05-0.08-0.07
				c-0.56-0.52-1.44-0.48-1.95,0.08c-0.52,0.56-0.48,1.44,0.08,1.95c0.03,0.03,0.06,0.05,0.08,0.08
				C487.44,286.75,488.31,286.71,488.83,286.15z M477.3,274.23c-0.58,0.5-0.64,1.37-0.15,1.95c0.02,0.03,0.05,0.06,0.07,0.09
				c0.5,0.58,1.37,0.64,1.95,0.14c0.58-0.5,0.64-1.37,0.14-1.95c-0.02-0.03-0.05-0.06-0.07-0.08
				C478.75,273.8,477.88,273.73,477.3,274.23z M503.36,298.92c0.64,0.41,1.5,0.22,1.91-0.43c0.41-0.64,0.22-1.5-0.43-1.91
				c-0.03-0.02-0.06-0.04-0.09-0.06c-0.64-0.41-1.5-0.22-1.91,0.42c-0.41,0.64-0.22,1.5,0.42,1.91
				C503.3,298.88,503.33,298.9,503.36,298.92z M474.78,271.14c0.61-0.46,0.72-1.33,0.25-1.94v0c-0.02-0.03-0.04-0.06-0.07-0.09
				c-0.46-0.61-1.33-0.72-1.94-0.26c-0.61,0.46-0.72,1.33-0.26,1.94c0.02,0.03,0.05,0.06,0.07,0.09
				C473.31,271.49,474.18,271.6,474.78,271.14z M517.42,304.71c0.28-0.71-0.07-1.51-0.78-1.79v0l0,0c-0.01,0-0.02-0.01-0.05-0.02
				c-0.71-0.28-1.51,0.06-1.8,0.77c-0.28,0.71,0.06,1.51,0.77,1.8c0.04,0.02,0.06,0.02,0.06,0.02
				C516.34,305.77,517.14,305.42,517.42,304.71z M481.76,336.37c-0.56-0.52-1.44-0.48-1.95,0.09c-0.52,0.56-0.48,1.44,0.09,1.95
				c0.03,0.03,0.06,0.06,0.09,0.08c0.56,0.51,1.44,0.48,1.95-0.09c0.51-0.56,0.48-1.44-0.09-1.95v0
				C481.82,336.43,481.79,336.4,481.76,336.37z M509.35,302.45c0.67,0.36,1.51,0.12,1.87-0.56c0.36-0.67,0.12-1.51-0.56-1.87l0,0
				c-0.03-0.02-0.06-0.03-0.1-0.05c-0.67-0.36-1.51-0.12-1.87,0.55s-0.12,1.51,0.55,1.87C509.28,302.42,509.32,302.43,509.35,302.45
				z M494.06,290.59c0.48-0.59,0.4-1.46-0.19-1.94c-0.03-0.02-0.06-0.05-0.09-0.07c-0.59-0.48-1.46-0.4-1.95,0.19
				c-0.48,0.59-0.4,1.46,0.19,1.95c0.03,0.02,0.06,0.05,0.09,0.07C492.71,291.26,493.58,291.18,494.06,290.59z M498.51,352.36
				c0.65,0.39,1.5,0.18,1.9-0.48c0.39-0.65,0.18-1.5-0.48-1.9l0,0c-0.03-0.02-0.07-0.04-0.1-0.06c-0.65-0.39-1.5-0.18-1.9,0.47
				c-0.39,0.65-0.18,1.5,0.47,1.9C498.44,352.31,498.48,352.33,498.51,352.36z M505.26,356.04c0.69,0.34,1.51,0.05,1.85-0.63
				c0.34-0.69,0.05-1.51-0.63-1.85l-0.05-0.03c-0.69-0.34-1.51-0.05-1.85,0.63c-0.34,0.69-0.05,1.51,0.63,1.85L505.26,356.04z
				 M470.7,265.63c0.63-0.43,0.79-1.29,0.36-1.92c-0.02-0.03-0.04-0.06-0.06-0.09c-0.43-0.63-1.29-0.8-1.92-0.37
				s-0.8,1.29-0.37,1.92c0.02,0.03,0.04,0.06,0.06,0.09C469.21,265.89,470.07,266.06,470.7,265.63z M492.03,348.15
				c0.63,0.44,1.49,0.28,1.92-0.34c0.44-0.63,0.28-1.49-0.34-1.92v0c-0.03-0.02-0.07-0.05-0.1-0.07c-0.63-0.44-1.49-0.29-1.92,0.34
				c-0.44,0.63-0.29,1.49,0.34,1.92C491.96,348.1,491.99,348.13,492.03,348.15z M460.4,247.82c0.69-0.32,1-1.14,0.68-1.83
				l-0.02-0.05c-0.32-0.69-1.14-1-1.83-0.68c-0.69,0.32-1,1.14-0.68,1.83l0.02,0.05C458.89,247.84,459.71,248.14,460.4,247.82z
				 M487.48,341.28c-0.6-0.48-1.46-0.38-1.94,0.21c-0.48,0.59-0.38,1.46,0.21,1.94c0.03,0.03,0.07,0.05,0.1,0.08
				c0.6,0.48,1.47,0.38,1.94-0.21c0.48-0.6,0.38-1.47-0.21-1.94v0C487.55,341.34,487.51,341.31,487.48,341.28z M466.94,259.89
				c0.65-0.39,0.87-1.24,0.47-1.9c-0.02-0.03-0.04-0.06-0.06-0.09c-0.39-0.65-1.24-0.87-1.9-0.47c-0.65,0.39-0.87,1.24-0.47,1.9
				c0.02,0.03,0.04,0.06,0.06,0.1C465.43,260.07,466.28,260.29,466.94,259.89z M464.03,251.99c-0.36-0.68-1.19-0.94-1.87-0.58
				c-0.68,0.36-0.94,1.19-0.58,1.87c0.02,0.03,0.03,0.07,0.05,0.1c0.36,0.68,1.19,0.93,1.87,0.58c0.68-0.36,0.93-1.19,0.58-1.87v0
				C464.07,252.06,464.05,252.02,464.03,251.99z M854.94,303.67c-0.28-0.71-1.09-1.05-1.8-0.77c-0.03,0.01-0.04,0.02-0.05,0.02l0,0
				v0c-0.71,0.28-1.06,1.08-0.78,1.79c0.28,0.71,1.08,1.06,1.79,0.78c0,0,0.02-0.01,0.06-0.02
				C854.87,305.19,855.22,304.38,854.94,303.67z M877.73,404.34c-0.04,0.02-0.07,0.04-0.11,0.06v0c-0.65,0.39-0.86,1.24-0.47,1.9
				c0.39,0.65,1.24,0.86,1.9,0.47c0.04-0.02,0.07-0.04,0.11-0.07c0.65-0.4,0.86-1.24,0.47-1.9
				C879.23,404.16,878.38,403.95,877.73,404.34z M871.05,408.02l-0.05,0.03c-0.69,0.34-0.97,1.16-0.63,1.85
				c0.34,0.69,1.16,0.97,1.85,0.63l0.05-0.03c0.69-0.34,0.97-1.16,0.63-1.85C872.57,407.97,871.74,407.68,871.05,408.02z
				 M866.37,298.92c0.03-0.02,0.06-0.04,0.1-0.06c0.64-0.41,0.83-1.26,0.42-1.91c-0.41-0.64-1.26-0.83-1.91-0.42
				c-0.03,0.02-0.06,0.04-0.09,0.06c-0.64,0.41-0.83,1.26-0.43,1.91C864.87,299.14,865.72,299.33,866.37,298.92z M860.38,302.45
				c0.03-0.02,0.07-0.04,0.1-0.05c0.67-0.36,0.92-1.2,0.55-1.87c-0.36-0.67-1.2-0.92-1.87-0.55c-0.03,0.02-0.06,0.04-0.1,0.05l0,0
				c-0.67,0.36-0.92,1.2-0.56,1.87C858.87,302.57,859.71,302.82,860.38,302.45z M882.85,286.23c0.03-0.03,0.06-0.05,0.08-0.08
				c0.56-0.52,0.6-1.39,0.08-1.95c-0.52-0.56-1.39-0.6-1.95-0.08c-0.03,0.02-0.05,0.05-0.08,0.07c-0.56,0.52-0.6,1.39-0.08,1.95
				C881.41,286.71,882.29,286.75,882.85,286.23z M887.82,281.39c0.03-0.03,0.05-0.05,0.08-0.08c0.53-0.55,0.52-1.42-0.03-1.95
				c-0.55-0.53-1.42-0.52-1.95,0.03c-0.03,0.03-0.05,0.05-0.08,0.08c-0.53,0.55-0.52,1.42,0.03,1.95
				C886.41,281.95,887.29,281.93,887.82,281.39z M872.11,295.02c0.03-0.02,0.06-0.04,0.09-0.07c0.62-0.45,0.75-1.31,0.31-1.93
				c-0.45-0.62-1.31-0.75-1.93-0.31c-0.03,0.02-0.06,0.04-0.09,0.06v0c-0.62,0.45-0.76,1.31-0.31,1.93
				C870.63,295.33,871.49,295.47,872.11,295.02z M877.61,290.78c0.03-0.02,0.06-0.05,0.09-0.07c0.59-0.48,0.68-1.35,0.19-1.95
				c-0.48-0.59-1.36-0.68-1.95-0.19c-0.03,0.02-0.06,0.05-0.09,0.07c-0.59,0.48-0.68,1.35-0.19,1.94
				C876.15,291.18,877.02,291.26,877.61,290.78z M884.13,400.15c-0.03,0.02-0.07,0.05-0.1,0.07h0c-0.62,0.44-0.77,1.3-0.33,1.93
				c0.44,0.62,1.3,0.77,1.93,0.33c0.03-0.02,0.07-0.05,0.1-0.07c0.62-0.44,0.77-1.3,0.33-1.93
				C885.61,399.86,884.75,399.71,884.13,400.15z M915.56,367.04c-0.02,0.04-0.04,0.07-0.07,0.11l0,0c-0.41,0.64-0.22,1.5,0.42,1.91
				c0.64,0.41,1.5,0.22,1.91-0.42c0.02-0.04,0.05-0.07,0.07-0.11c0.41-0.64,0.22-1.5-0.43-1.91
				C916.82,366.2,915.97,366.39,915.56,367.04z M919.42,360.5l-0.02,0.04c-0.37,0.67-0.12,1.51,0.55,1.88s1.51,0.12,1.88-0.55
				l0.02-0.04c0.37-0.67,0.12-1.51-0.55-1.88C920.63,359.58,919.79,359.83,919.42,360.5z M859.19,336.99l-3.37-25.09l-1.44,0.51
				l-0.74,0.26l45.5,341.58l0,0h2.69l0,0l-33.95-252.57l-3.53-26.26L859.19,336.99z M911.25,373.37c-0.02,0.03-0.05,0.07-0.07,0.1
				c-0.45,0.62-0.32,1.48,0.3,1.93c0.62,0.45,1.48,0.32,1.93-0.3c0.02-0.03,0.05-0.07,0.08-0.1c0.45-0.62,0.31-1.48-0.3-1.93
				C912.57,372.61,911.7,372.75,911.25,373.37z M895.84,392.55c0.52,0.56,1.39,0.6,1.95,0.08c0.03-0.03,0.06-0.06,0.09-0.09
				c0.56-0.52,0.59-1.39,0.08-1.95c-0.52-0.56-1.39-0.59-1.95-0.08c-0.03,0.03-0.06,0.06-0.09,0.08v0
				C895.36,391.11,895.33,391.99,895.84,392.55z M923.11,287.28l0.02-0.04c0.25-0.72-0.13-1.51-0.85-1.76
				c-0.72-0.25-1.51,0.13-1.76,0.85l-0.02,0.04c-0.25,0.72,0.13,1.51,0.85,1.76C922.07,288.38,922.86,288,923.11,287.28z
				 M890.23,395.53c-0.03,0.03-0.06,0.05-0.1,0.08v0c-0.59,0.48-0.68,1.35-0.2,1.94s1.35,0.68,1.94,0.2
				c0.03-0.03,0.07-0.05,0.1-0.08c0.59-0.48,0.68-1.35,0.2-1.94C891.69,395.14,890.82,395.05,890.23,395.53z M892.5,276.26
				c0.02-0.03,0.05-0.06,0.07-0.09c0.5-0.58,0.43-1.45-0.15-1.95c-0.58-0.5-1.45-0.43-1.95,0.15c-0.02,0.03-0.05,0.06-0.07,0.08
				c-0.5,0.58-0.43,1.45,0.14,1.95C891.13,276.91,892,276.84,892.5,276.26z M901.46,385.13c-0.03,0.03-0.06,0.06-0.09,0.09
				c-0.53,0.55-0.5,1.43,0.05,1.95c0.55,0.53,1.43,0.5,1.95-0.05c0.03-0.03,0.06-0.06,0.09-0.09c0.53-0.55,0.5-1.43-0.05-1.95
				C902.86,384.55,901.98,384.58,901.46,385.13z M906.55,379.41c-0.03,0.03-0.05,0.06-0.08,0.1c-0.49,0.59-0.41,1.46,0.18,1.95
				c0.59,0.49,1.46,0.41,1.95-0.18c0.03-0.03,0.05-0.07,0.08-0.1c0.49-0.59,0.41-1.46-0.18-1.95
				C907.91,378.74,907.03,378.82,906.55,379.41z M869.9,349.92c-0.04,0.02-0.07,0.04-0.1,0.06l0,0c-0.65,0.39-0.87,1.24-0.48,1.9
				c0.39,0.65,1.24,0.87,1.9,0.48c0.04-0.02,0.07-0.04,0.11-0.06c0.65-0.39,0.87-1.24,0.47-1.9
				C871.4,349.74,870.55,349.53,869.9,349.92z M907.4,313.38c-0.02,0.03-0.04,0.07-0.07,0.1v0c-0.42,0.64-0.23,1.5,0.41,1.91
				c0.64,0.42,1.5,0.23,1.91-0.41c0.02-0.03,0.05-0.07,0.07-0.11c0.41-0.64,0.23-1.5-0.41-1.91
				C908.67,312.56,907.82,312.74,907.4,313.38z M903.1,319.58c-0.02,0.03-0.05,0.07-0.07,0.1v0c-0.46,0.61-0.33,1.48,0.29,1.93
				s1.48,0.33,1.93-0.29c0.02-0.03,0.05-0.07,0.07-0.1c0.45-0.61,0.33-1.48-0.29-1.93C904.42,318.84,903.56,318.97,903.1,319.58z
				 M863.31,353.53l-0.05,0.03c-0.69,0.34-0.97,1.16-0.63,1.85c0.34,0.69,1.16,0.97,1.85,0.63l0.05-0.03
				c0.69-0.34,0.97-1.16,0.63-1.85C864.82,353.48,863.99,353.19,863.31,353.53z M893.37,331.1c-0.03,0.03-0.06,0.06-0.08,0.09
				c-0.53,0.55-0.51,1.42,0.04,1.95c0.55,0.53,1.42,0.51,1.95-0.04c0.03-0.03,0.06-0.06,0.09-0.09c0.53-0.55,0.51-1.43-0.04-1.95
				C894.77,330.53,893.9,330.55,893.37,331.1z M875.77,347.81c0.44,0.63,1.3,0.78,1.92,0.34c0.03-0.02,0.07-0.05,0.1-0.07
				c0.63-0.44,0.78-1.3,0.34-1.92c-0.44-0.63-1.3-0.78-1.92-0.34c-0.03,0.02-0.07,0.05-0.1,0.07v0
				C875.49,346.32,875.34,347.18,875.77,347.81z M882.24,341.28c-0.03,0.03-0.06,0.05-0.1,0.08v0c-0.6,0.48-0.69,1.35-0.21,1.94
				c0.48,0.6,1.35,0.69,1.94,0.21c0.03-0.03,0.07-0.05,0.1-0.08c0.59-0.48,0.69-1.35,0.21-1.94
				C883.71,340.9,882.84,340.81,882.24,341.28z M887.97,336.37c-0.03,0.03-0.06,0.06-0.09,0.08v0c-0.56,0.51-0.6,1.39-0.09,1.95
				c0.51,0.56,1.39,0.6,1.95,0.09c0.03-0.03,0.06-0.06,0.09-0.08c0.56-0.52,0.6-1.39,0.09-1.95
				C889.41,335.89,888.53,335.86,887.97,336.37z M898.42,325.5c-0.03,0.03-0.05,0.06-0.08,0.09c-0.49,0.58-0.42,1.45,0.16,1.95
				c0.58,0.49,1.45,0.42,1.95-0.16c0.03-0.03,0.05-0.06,0.08-0.1c0.49-0.58,0.42-1.46-0.16-1.95
				C899.78,324.84,898.91,324.91,898.42,325.5z M904.69,259.42c0.02-0.03,0.04-0.06,0.06-0.1c0.39-0.65,0.18-1.5-0.47-1.9
				c-0.65-0.39-1.5-0.18-1.9,0.47c-0.02,0.03-0.04,0.06-0.06,0.09c-0.39,0.65-0.18,1.5,0.47,1.9
				C903.44,260.29,904.29,260.07,904.69,259.42z M911.77,308.91c0.66,0.37,1.51,0.14,1.88-0.53c0.02-0.04,0.04-0.07,0.06-0.11
				c0.37-0.67,0.14-1.51-0.53-1.88c-0.67-0.37-1.51-0.14-1.88,0.53c-0.02,0.04-0.04,0.07-0.06,0.11v0
				C910.87,307.7,911.1,308.54,911.77,308.91z M911.16,247.14l0.02-0.05c0.32-0.69,0.01-1.51-0.68-1.83
				c-0.69-0.32-1.51-0.01-1.83,0.68l-0.02,0.05c-0.32,0.69-0.01,1.51,0.68,1.83C910.02,248.14,910.84,247.84,911.16,247.14z
				 M900.95,265.26c0.02-0.03,0.04-0.06,0.06-0.09c0.43-0.63,0.26-1.49-0.37-1.92s-1.49-0.26-1.92,0.37
				c-0.02,0.03-0.04,0.06-0.06,0.09c-0.43,0.63-0.27,1.49,0.36,1.92C899.66,266.06,900.52,265.89,900.95,265.26z M908.09,253.38
				c0.02-0.03,0.04-0.07,0.05-0.1c0.36-0.68,0.1-1.51-0.58-1.87c-0.68-0.36-1.51-0.1-1.87,0.58c-0.02,0.03-0.03,0.07-0.05,0.1v0
				c-0.36,0.68-0.1,1.51,0.58,1.87C906.9,254.31,907.73,254.05,908.09,253.38z M894.94,271.14c0.61,0.46,1.47,0.35,1.94-0.25
				c0.02-0.03,0.05-0.06,0.07-0.09c0.46-0.61,0.35-1.47-0.26-1.94c-0.61-0.46-1.47-0.35-1.94,0.26c-0.02,0.03-0.04,0.06-0.07,0.09v0
				C894.22,269.81,894.34,270.67,894.94,271.14z M917.82,293.46L917.82,293.46c-0.29,0.71,0.05,1.51,0.75,1.8
				c0.71,0.29,1.51-0.05,1.8-0.75c0.02-0.04,0.03-0.08,0.05-0.12c0.29-0.71-0.05-1.51-0.75-1.8c-0.71-0.29-1.51,0.05-1.8,0.75
				C917.85,293.38,917.84,293.42,917.82,293.46z M914.79,300.24c-0.02,0.04-0.04,0.07-0.05,0.11c-0.33,0.69-0.05,1.51,0.64,1.85
				c0.69,0.33,1.51,0.05,1.85-0.64c0.02-0.04,0.04-0.08,0.05-0.11c0.33-0.69,0.04-1.51-0.64-1.85S915.12,299.55,914.79,300.24z"/>
		</g>
</svg>