<?xml version="1.0" encoding="utf-8"?>
<svg version="1.1"
	 xmlns="http://www.w3.org/2000/svg" xmlns:xlink="http://www.w3.org/1999/xlink" x="0px" y="0px" width="1104.07px"
	 height="761.93px" viewBox="0 0 1104.07 761.93" enable-background="new 0 0 1104.07 761.93" xml:space="preserve">>
<g id="id:arizona" display="inline">

				<path id="id:SUB_SECOND_BODY_COLOR_00000105413002147446328540000000463021058024017332_" display="inline" fill="#005B9B" d="
				M840.24,133.62l-0.02-40.72l18.44,0.23l12.97-0.01l18.11-0.21l43.49-0.9l-6.63-17.87l-37.22,0.77l-17.95,0.21l-12.66,0.01
				l-18.55-0.23l-0.02-35.61l-0.01-13.89l6.99,0.09l2.44,0.03l9.43,0.12l11.8-0.01l17.51-0.2l6.39-0.13l6.39-0.13l5.54-4.71
				l5.93,15.98l40.9,110.19l2.61,7.02l-0.44,0.31l-1.34,1.02l-3.83,3.17l-1.54,0.05l-1.54,0.05l-1.86,0.06l-1.67,0.12l-1.66,0.19
				l-1.66,0.26l-1.64,0.33l-1.63,0.4l-1.61,0.47l-1.59,0.54l-1.57,0.6l-1.54,0.67l-1.51,0.73l-1.48,0.79l-1.45,0.85l-1.41,0.91
				l-1.37,0.97l-1.22,0.94l-1.09,0.97l-1,1.04l-0.92,1.11l-0.83,1.18l-0.29,0.48l1.08,2.8l-2.81,1.07v0l-0.11,0.36l-0.22,1.15
				l-0.19,1.43l-0.09,1.2l0,1.47l-0.01,50.11l2.13,2.13l-2.13,2.13l-0.01,55.55l2.13,2.13l-2.13,2.13l-0.01,57.68l0,6.44l-8.75,0.45
				l-59.79,3.06l-7.16,0.37l0-7.26l-0.05-94.33l-2.13-2.12l2.12-2.13l0-4.62l0-0.33l-2.13-2.12l2.12-2.13l-0.05-101.41l-2.13-2.12
				l2.12-2.13l0-4.95l-2.13-2.12L840.24,133.62z M148.55,154.97l3.83,3.17l1.54,0.05l1.54,0.05l1.86,0.06l1.67,0.12l1.66,0.19
				l1.66,0.26l1.64,0.33l1.63,0.4l1.61,0.47l1.59,0.54l1.57,0.6l1.54,0.67l1.51,0.73l1.48,0.79l1.45,0.85l1.41,0.91l1.37,0.97
				l1.22,0.94l1.09,0.97l1,1.04l0.92,1.11l0.83,1.18l0.29,0.48l-1.08,2.8l2.81,1.07v0l0.11,0.36l0.22,1.15l0.19,1.43l0.09,1.2
				l0,1.47l0.01,50.11l-2.13,2.13l2.13,2.13l0.01,55.55l-2.13,2.13l2.13,2.13l0.01,57.68l0,6.44l8.75,0.45l59.79,3.06l7.16,0.37
				l0-7.26l0.05-94.33l2.13-2.12l-2.12-2.13l0-4.62l0-0.33l2.13-2.12l-2.12-2.13l0.05-101.41l2.13-2.12l-2.12-2.13l0-4.95l2.13-2.12
				l-2.12-2.13l0.02-40.72l-18.44,0.23l-12.97-0.01l-18.11-0.21l-43.49-0.9l-20.27,54.61l-2.61,7.02l0.44,0.31L148.55,154.97z
				 M231.44,75.12l12.66,0.01l18.55-0.23l0.02-35.61l0.01-13.89l-6.99,0.09l-2.44,0.03l-9.43,0.12l-11.8-0.01l-17.51-0.2l-6.39-0.13
				l-6.39-0.13l-5.54-4.71l-5.93,15.98l-14,37.71l37.22,0.77L231.44,75.12z M290.17,606.25l7.79,2.21l-3.48,7.4L244.4,722.45
				l2.09,14.27l-11.15-1.69l-12.6-1.91l-12.56-1.8l-12.58-1.7L185,728.04l-12.6-1.49l-12.61-1.39l-12.62-1.28l-12.64-1.18
				l-13.15-1.12l-13.16-1.02l-13.17-0.92l-13.17-0.81l-13.18-0.71l-13.18-0.6l-13.19-0.5l-13.24-0.4l-6.4-0.19l-0.01-13.6
				l-0.05-94.33l-2.13-2.12l2.12-2.13l0-4.95l-2.13-2.12l2.12-2.13l-0.05-101.41l-2.13-2.12l2.12-2.13l0-4.95l-2.13-2.12l2.12-2.13
				l0-0.22l-0.05-94.11l0-6.58l4.37-0.21l2.02-2.23l2.23,2.02l162.93-7.88l6.97-0.34l0.17,7.06l2.98,122.32l2.18,2.07l-2.07,2.18
				l0.19,7.76l0.33,3.83l0.5,3.88l0.14,0.8l2.47,1.71l-1.71,2.47l0.58,2.7l0.97,3.78l1.13,3.74l1.29,3.69l1.44,3.63l1.59,3.56
				l1.74,3.49l1.88,3.42l2.02,3.33l2.16,3.24l2.29,3.15l2.42,3.05l2.59,2.99l3.1,3.32l3.26,3.25l3.38,3.13l3.48,3l3.59,2.87
				l3.69,2.74l3.78,2.6l3.87,2.47l3.96,2.32l4.04,2.18l4.11,2.03l4.18,1.88l4.25,1.72l4.3,1.57l4.36,1.41L290.17,606.25z
				 M268.23,671.74l-35.66-5.4l-13.38-1.91l-13.12-1.77L192.92,661l-13.15-1.55l-13.16-1.44l-13.17-1.34l-13.18-1.23l-13.68-1.17
				l-13.69-1.06l-13.69-0.95l-13.7-0.84l-13.71-0.74l-13.71-0.63l-13.72-0.52l-21.72-0.66l0.01,18.01l21.16,0.64l13.58,0.51
				l13.57,0.62l13.57,0.73l13.56,0.83l13.55,0.94l13.55,1.05l13.54,1.15l13.03,1.22l13.03,1.32l13.01,1.43l13,1.53l12.99,1.64
				l12.98,1.75l12.96,1.85l0.2,0.03l30.3,4.59L268.23,671.74z M825.3,435.54l0.71,1.75L825.3,435.54l-3.18-8.06l-1.17-3.05
				l1.17,3.05L825.3,435.54z M637.25,443.44l15.14-0.93l15.91-1.25l15.31-1.45l7.71-0.83l28.84-3.33l28.8-3.58l28.78-3.83l42.36-6
				l-1.08-2.82l-3-8.13l-2.92-8.16l-2.83-8.19l-2.34-7.05l0.31-7.43l0.34-6.58l-9.42,1.33l-28.38,4.02l-28.36,3.77l-28.38,3.53
				l-28.42,3.28l-7.3,0.78l-14.71,1.39l-14.7,1.15l-14.73,0.91l-7.38,0.35l-4.58,0.22l-0.66-0.8l-5.16-6.26l-5.32,15.1l-15.08,42.77
				l33.14-1.57L637.25,443.44z M810.66,543.42l1.75-2.7l1.9-2.75l2-2.71l2.05-2.61l2.14-2.57l2.21-2.5l2.28-2.44l2.37-2.38
				l2.41-2.28l2.49-2.22l2.55-2.14l2.61-2.07l2.68-1.99l2.73-1.9l2.79-1.82l2.84-1.74l2.98-1.71l5.98-3.44l-3.45-6.03l-3.06-5.36
				l-2.96-5.37l-2.88-5.41l-2.79-5.46l-2.71-5.5l-2.62-5.54l-2.54-5.58l-2.46-5.64l-3.37-8.01l-1.67-4.11l-8.83,1.25l-38.08,5.39
				l-28.65,3.81l-29.24,3.63l-28.71,3.32l-8.27,0.89L670,459.18l-16.35,1.29l-15.28,0.94l-8.32,0.4l-40.48,1.92l-17.31,49.11
				l-2.27,0l-0.01,29.57l-2.13,2.13l2.13,2.13l-0.01,55.38l-2.13,2.13l2.13,2.13l-0.01,55.38l-2.13,2.13l2.13,2.13l-0.01,57.51
				l0,6.91l7.26,0.36l2.13,2.12l2.12-2.13l206.38-8.29l6.55-0.26v-6.63V609.33l2.17-2.08l-2.08-2.17l0.68-16.57l0.36-3.04l0.47-3.19
				l0.57-3.17l0.67-3.17l0.76-3.1l0.86-3.1l0.95-3.07l1.04-3.04l1.14-3.01l1.23-2.97l1.32-2.93l1.41-2.89l1.51-2.87l1.57-2.77
				L810.66,543.42z M1086.34,498.47l-2.12-2.13l0-4.95l2.13-2.12l-2.12-2.13l0-0.22l0.05-94.11l0-6.58l-4.37-0.21l-2.02-2.23
				l-2.23,2.02l-162.93-7.88l-6.97-0.34l-0.17,7.06l-2.98,122.32l-2.18,2.07l2.07,2.18l-0.19,7.76l-0.33,3.83l-0.5,3.88l-0.14,0.8
				l-2.47,1.71l1.71,2.47l-0.58,2.7l-0.97,3.78l-1.13,3.74l-1.29,3.69l-1.44,3.63l-1.59,3.56l-1.74,3.49l-1.88,3.42l-2.02,3.33
				l-2.16,3.24l-2.29,3.15l-2.42,3.05l-2.59,2.99l-3.1,3.32l-3.26,3.25l-3.38,3.13l-3.48,3l-3.59,2.87l-3.69,2.74l-3.78,2.6
				l-3.87,2.47l-3.96,2.32l-4.04,2.18l-4.11,2.03l-4.18,1.88l-4.25,1.72l-4.3,1.57l-4.36,1.41l-4.52,1.28l-7.79,2.21l3.48,7.4
				l26.26,55.88l35.66-5.4l13.38-1.91l13.12-1.77l13.14-1.66l13.15-1.55l13.16-1.44l13.17-1.34l13.18-1.23l13.68-1.17l13.69-1.06
				l13.69-0.95l13.7-0.84l13.71-0.74l13.71-0.63l13.72-0.52l21.72-0.66l0.02-40.4l2.13-2.12l-2.12-2.13l0-4.95l2.13-2.12l-2.12-2.13
				l0.05-101.41L1086.34,498.47z M1049.39,675.02l-13.57,0.62l-13.57,0.73l-13.56,0.83l-13.55,0.94l-13.55,1.05l-13.54,1.15
				l-13.03,1.22l-13.03,1.32l-13.01,1.43l-13,1.53l-12.99,1.64l-12.98,1.75l-12.96,1.85l-0.2,0.03l-30.3,4.59l-6.26-13.33
				l22.1,47.04l-2.09,14.27l11.15-1.69l12.6-1.91l12.56-1.8l12.58-1.7l12.59-1.59l12.6-1.49l12.61-1.39l12.62-1.28l12.64-1.18
				l13.15-1.12l13.16-1.02l13.17-0.92l13.17-0.81l13.18-0.71l13.18-0.6l13.19-0.5l13.24-0.4l6.4-0.19l0.01-13.6l0.02-35.92
				l-21.16,0.64L1049.39,675.02z M545.13,661.68l-0.01-55.38l2.13-2.13l-2.13-2.13l-0.01-55.38l2.13-2.13l-2.13-2.13l-0.01-29.57
				l-2.27,0l-38.85-110.21l-5.32-15.1l-5.16,6.26l-0.66,0.8l-4.58-0.22l-7.38-0.35l-14.73-0.91l-14.7-1.15l-14.71-1.39l-7.3-0.78
				l-28.42-3.28l-28.38-3.53l-28.36-3.77l-28.38-4.02l-9.42-1.33l0.34,6.58l0.31,7.43l-2.34,7.05l-2.83,8.19l-2.92,8.16l-3,8.13
				l-2.26,5.92l1.19-3.11l42.36,6l28.78,3.83l28.8,3.58l28.84,3.33l7.71,0.83l15.31,1.45l15.91,1.25l15.14,0.93l8.09,0.39
				l33.14,1.57l6.46,18.33l-40.48-1.92l-8.32-0.4l-15.28-0.94l-16.35-1.29l-15.12-1.43l-8.27-0.89l-28.71-3.32l-29.24-3.63
				l-28.65-3.81l-38.08-5.39l-8.83-1.25l0.63-1.54l-2.3,5.65l-3.37,8.01l-2.46,5.64l-2.54,5.58l-2.62,5.54l-2.71,5.5l-2.79,5.46
				l-2.88,5.41l-2.96,5.37l-3.06,5.36l-3.45,6.03l5.98,3.44l2.98,1.71l2.84,1.74l2.79,1.82l2.73,1.9l2.68,1.99l2.61,2.07l2.55,2.14
				l2.49,2.22l2.41,2.28l2.37,2.38l2.28,2.44l2.21,2.5l2.14,2.57l2.05,2.61l2,2.71l1.9,2.75l1.75,2.7l1.66,2.75l1.57,2.77l1.51,2.87
				l1.41,2.89l1.32,2.93l1.23,2.97l1.14,3.01l1.04,3.04l0.95,3.07l0.86,3.1l0.76,3.1l0.67,3.17l0.57,3.17l0.47,3.19l0.36,3.04
				l0.68,16.57l-2.08,2.17l2.17,2.08v106.18v6.63l6.55,0.26l206.38,8.29l2.12,2.13l2.13-2.12l7.26-0.36l0-6.91l-0.01-57.51
				l2.13-2.13L545.13,661.68z M1048.7,657.03l-13.71,0.63l-13.71,0.74l-13.7,0.84l-13.69,0.95l-13.69,1.06l-13.68,1.17l-13.18,1.23
				l-13.17,1.34l-13.16,1.44l-13.15,1.55l-13.14,1.66l-13.12,1.77l-13.38,1.91l-35.66,5.4l0,0l1.72,3.67l6.26,13.33l30.3-4.59
				l0.2-0.03l12.96-1.85l12.98-1.75l12.99-1.64l13-1.53l13.01-1.43l13.03-1.32l13.03-1.22l13.54-1.15l13.55-1.05l13.55-0.94
				l13.56-0.83l13.57-0.73l13.57-0.62l13.58-0.51l21.16-0.64l0,0l0.01-18.01l0,0l-21.72,0.66L1048.7,657.03z M219.18,664.43
				l-13.12-1.77L192.92,661l-13.15-1.55l-13.16-1.44l-13.17-1.34l-13.18-1.23l-13.68-1.17l-13.69-1.06l-13.69-0.95l-13.7-0.84
				l-13.71-0.74l-13.71-0.63l-13.72-0.52l-21.72-0.66l0.01,18.01l21.16,0.64l13.58,0.51l13.57,0.62l13.57,0.73l13.56,0.83
				l13.55,0.94l13.55,1.05l13.54,1.15l13.03,1.22l13.03,1.32l13.01,1.43l13,1.53l12.99,1.64l12.98,1.75l12.96,1.85l0.2,0.03
				l30.3,4.59l7.99-17l-35.66-5.4L219.18,664.43z M297.02,440.7l38.08,5.39l28.65,3.81l29.24,3.63l28.71,3.32l8.27,0.89l15.12,1.43
				l16.35,1.29l15.28,0.94l8.32,0.4l40.48,1.92l-6.46-18.33l-33.14-1.57l-8.09-0.39l-15.14-0.93l-15.91-1.25l-15.31-1.45l-7.71-0.83
				l-28.84-3.33l-28.8-3.58l-28.78-3.83l-42.36-6l-1.19,3.11l-0.82,2.13l-3.18,8.06l-0.97,2.37l-0.63,1.54L297.02,440.7z
				 M638.36,461.41l15.28-0.94l16.35-1.29l15.12-1.43l8.27-0.89l28.71-3.32l29.24-3.63l28.65-3.81l38.08-5.39l8.83-1.25l0,0
				l-0.88-2.17l-0.71-1.75l-3.18-8.06l-1.17-3.05l-0.84-2.19l0,0l-42.36,6l-28.78,3.83l-28.8,3.58l-28.84,3.33l-7.71,0.83
				l-15.31,1.45l-15.91,1.25l-15.14,0.93l-8.09,0.39l-33.14,1.57l0,0l-6.46,18.33l0,0l40.48-1.92L638.36,461.41z M231.23,93.12
				l12.97,0.01l18.44-0.23l0,0l0.01-18l0,0l-18.55,0.23l-12.66-0.01l-17.95-0.21l-37.22-0.77l0,0l-6.63,17.87l0,0l43.49,0.9
				L231.23,93.12z M871.64,93.12l18.11-0.21l43.49-0.9l-6.63-17.87l-37.22,0.77l-17.95,0.21l-12.66,0.01l-18.55-0.23l0,0l0.01,18
				l0,0l18.44,0.23L871.64,93.12z"/>

				<path id="id:SUB_SECOND_ACCENT_1_00000080886715841639803970000000125249768798178962_" display="inline" fill="#68737A" d="
				M56.49,286.64l0-42.79l0-6.9l6.82,0l36.6,0l2.13-2.13l2.13,2.13l36.6,0h6.82l0,6.9l0,42.79l0,42.79l0,6.9l-6.82,0l-36.39,0
				l-2.13,2.13l-2.13-2.13l-36.81,0l-6.82,0l0-6.9L56.49,286.64z M549.31,158.51l2.13,2.13l2.13-2.13l266.41,0.02l6.82,0l0-6.9
				l0-39.11l0-39.11l0-6.9l-6.82,0l-266.41,0.01l-2.13-2.13l-2.13,2.13L282.9,66.49l-6.82,0l0,6.9l0,39.11l0,39.11l0,6.9l6.82,0
				L549.31,158.51z M723.5,319.14l0-6.88l0-38.98l0-38.99l0-6.88l-6.82,0l-158.57,0l-2.13-2.13l-2.13,2.13h-2.42l-2.42,0l-2.13-2.13
				l-2.13,2.13h0l-158.57,0.02l-6.82,0l0,6.89l0,38.98l0,38.99l0,6.88l6.82,0l158.57,0l2.13,2.13l2.13-2.13l2.42,0l2.42,0l2.13,2.13
				l2.13-2.13l158.57-0.02L723.5,319.14z M1061.33,620.53l-14,0.53l-14,0.64l-13.99,0.75l-13.98,0.86l-13.98,0.97l-13.97,1.08
				l-13.96,1.19L950,627.8l-13.46,1.37l-13.45,1.48l-13.44,1.58l-13.43,1.7l-13.41,1.8l-13.82,1.97l-46.39,7.03l15.97,33.99
				l35.66-5.4l13.38-1.91l13.12-1.77l13.14-1.66l13.15-1.55l13.16-1.44l13.17-1.34l13.18-1.23l13.68-1.17l13.69-1.06l13.69-0.95
				l13.7-0.84l13.71-0.74l13.71-0.63l13.72-0.52l21.72-0.66l0.02-36.02L1061.33,620.53z M1049.39,675.02l-13.57,0.62l-13.57,0.73
				l-13.56,0.83l-13.55,0.94l-13.55,1.05l-13.54,1.15l-13.03,1.22l-13.03,1.32l-13.01,1.43l-13,1.53l-12.99,1.64l-12.98,1.75
				l-12.96,1.85l-0.2,0.03l-30.3,4.59l15.84,33.71l-2.09,14.27l11.15-1.69l12.6-1.91l12.56-1.8l12.58-1.7l12.59-1.59l12.6-1.49
				l12.61-1.39l12.62-1.28l12.64-1.18l13.15-1.12l13.16-1.02l13.17-0.92l13.17-0.81l13.18-0.71l13.18-0.6l13.19-0.5l13.24-0.4
				l6.4-0.19l0.01-13.6l0.02-35.92l-21.16,0.64L1049.39,675.02z M223.99,628.75l-13.41-1.8l-13.43-1.7l-13.44-1.58l-13.45-1.48
				l-13.46-1.37l-13.46-1.25l-13.96-1.19l-13.97-1.08l-13.98-0.97l-13.98-0.86l-13.99-0.75l-14-0.64l-14-0.53l-22.82-0.69
				l0.02,36.02l21.72,0.66l13.72,0.52l13.71,0.63l13.71,0.74l13.7,0.84l13.69,0.95l13.69,1.06l13.68,1.17l13.18,1.23l13.17,1.34
				l13.16,1.44l13.15,1.55l13.14,1.66l13.12,1.77l13.38,1.91l35.66,5.4l15.97-33.99l-46.39-7.03L223.99,628.75z M229.94,684.15
				l-0.2-0.03l-12.96-1.85l-12.98-1.75l-12.99-1.64l-13-1.53l-13.01-1.43l-13.03-1.32l-13.03-1.22l-13.54-1.15l-13.55-1.05
				l-13.55-0.94l-13.56-0.83l-13.57-0.73l-13.57-0.62l-13.58-0.51l-21.16-0.64l0.02,35.92l0.01,13.6l6.4,0.19l13.24,0.4l13.19,0.5
				l13.18,0.6l13.18,0.71l13.17,0.81l13.17,0.92l13.16,1.02l13.15,1.12l12.64,1.18l12.62,1.28l12.61,1.39l12.6,1.49l12.59,1.59
				l12.58,1.7l12.56,1.8l12.6,1.91l11.15,1.69l-2.09-14.27l15.84-33.71L229.94,684.15z M485.05,461.81l-8.32-0.4l-15.28-0.94
				l-16.35-1.29l-15.12-1.43l-8.27-0.89l-28.71-3.32l-29.24-3.63l-28.65-3.81l-38.08-5.39l-8.83-1.25l-1.67,4.11l-3.37,8.01
				l-2.46,5.64l-2.54,5.58l-2.62,5.54l-2.62,5.32l19.07,2.7l38.23,5.41l28.8,3.83l0.44,0.06l28.82,3.58l0.44,0.05l28.86,3.34
				l8.16,0.88l16.82,1.6l16.39,1.28l16.3,1.01l8.1,0.39l55.11,2.61l-12.92-36.65L485.05,461.81z M301.97,403.13l-2.92,8.16l-3,8.13
				l-1.08,2.82l42.36,6l28.78,3.83l28.8,3.58l28.84,3.33l7.71,0.83l15.31,1.45l15.91,1.25l15.14,0.93l8.09,0.39l33.14,1.57
				l-15.08-42.77l-5.32-15.1l-5.16,6.26l-0.66,0.8l-4.58-0.22l-7.38-0.35l-14.73-0.91l-14.7-1.15l-14.71-1.39l-7.3-0.78l-28.42-3.28
				l-28.38-3.53l-28.36-3.77l-28.38-4.02l-9.42-1.33l0.34,6.58l0.31,7.43l-2.34,7.05L301.97,403.13z M842.19,473.65l-2.62-5.32
				l-2.62-5.54l-2.54-5.58l-2.46-5.64l-3.37-8.01l-1.67-4.11l-8.83,1.25l-38.08,5.39l-28.65,3.81l-29.24,3.63l-28.71,3.32
				l-8.27,0.89L670,459.18l-16.35,1.29l-15.28,0.94l-8.32,0.4l-40.48,1.92l-12.92,36.65l55.11-2.61l8.1-0.39l16.3-1.01l16.39-1.28
				l16.82-1.6l8.16-0.88l28.86-3.34l0.44-0.05l28.82-3.58l0.44-0.06l28.8-3.83l38.23-5.41L842.19,473.65z M808.61,373.87l-9.42,1.33
				l-28.38,4.02l-28.36,3.77l-28.38,3.53l-28.42,3.28l-7.3,0.78l-14.71,1.39l-14.7,1.15l-14.73,0.91l-7.38,0.35l-4.58,0.22
				l-0.66-0.8l-5.16-6.26l-5.32,15.1l-15.08,42.77l33.14-1.57l8.09-0.39l15.14-0.93l15.91-1.25l15.31-1.45l7.71-0.83l28.84-3.33
				l28.8-3.58l28.78-3.83l42.36-6l-1.08-2.82l-3-8.13l-2.92-8.16l-2.83-8.19l-2.34-7.05l0.31-7.43L808.61,373.87z M199.92,128.64
				v231.68l49.5,2.53V129.07l13.21-0.16l0.02-36l-13.23,0.16l-5.21,0.06l-12.97-0.01l-18.11-0.21l-13.21-0.27l-30.28-0.62
				l-8.46,22.79l-4.81,12.95l43.23,0.89L199.92,128.64z M231.44,75.12l12.66,0.01l18.55-0.23l0.02-35.61l0.01-13.89l-6.99,0.09
				l-2.44,0.03l-9.43,0.12l-11.8-0.01l-17.51-0.2l-6.39-0.13l-6.39-0.13l-5.54-4.71l-5.93,15.98l-14,37.71l37.22,0.77L231.44,75.12z
				 M889.74,92.9l-18.11,0.21l-12.97,0.01l-5.21-0.06l-13.23-0.16l0.02,36l13.21,0.16v233.78l49.5-2.53V128.64l0.31-0.01l43.23-0.89
				l-13.27-35.73l-30.28,0.62L889.74,92.9z M840.21,74.9l18.55,0.23l12.66-0.01l17.95-0.21l37.22-0.77l-14-37.71l-5.93-15.98
				l-5.54,4.71l-6.39,0.13l-6.39,0.13l-17.51,0.2l-11.8,0.01l-9.43-0.12l-2.44-0.03l-6.99-0.09l0.01,13.89L840.21,74.9z"/>
		</g>
</svg>