<?xml version="1.0" encoding="utf-8"?>
<svg version="1.1"
	 xmlns="http://www.w3.org/2000/svg" xmlns:xlink="http://www.w3.org/1999/xlink" x="0px" y="0px" width="1104.07px"
	 height="761.93px" viewBox="0 0 1104.07 761.93" enable-background="new 0 0 1104.07 761.93" xml:space="preserve">>
<g id="id:big_m" display="inline">

				<path id="id:SUB_SECOND_BODY_COLOR_00000062875152382286206670000012608908780246162580_" display="inline" fill="#005B9B" d="
				M290.17,606.25l7.79,2.21l-3.48,7.4L244.4,722.45l2.09,14.27l-11.15-1.69l-12.6-1.91l-12.56-1.8l-12.58-1.7L185,728.04
				l-12.6-1.49l-12.61-1.39l-12.62-1.28l-12.64-1.18l-13.15-1.12l-13.16-1.02l-13.17-0.92l-13.17-0.81l-13.18-0.71l-13.18-0.6
				l-13.19-0.5l-13.24-0.4l-6.4-0.19l-0.01-13.6l-0.05-94.33l-2.13-2.12l2.12-2.13l0-4.95l-2.13-2.12l2.12-2.13l-0.05-101.41
				l-2.13-2.12l2.12-2.13l0-4.95l-2.13-2.12l2.12-2.13l0-0.22l-0.05-94.11l0-6.58l4.37-0.21l2.02-2.23l2.23,2.02l162.93-7.88
				l6.97-0.34l0.17,7.06l2.98,122.32l2.18,2.07l-2.07,2.18l0.19,7.76l0.33,3.83l0.5,3.88l0.14,0.8l2.47,1.71l-1.71,2.47l0.58,2.7
				l0.97,3.78l1.13,3.74l1.29,3.69l1.44,3.63l1.59,3.56l1.74,3.49l1.88,3.42l2.02,3.33l2.16,3.24l2.29,3.15l2.42,3.05l2.59,2.99
				l3.1,3.32l3.26,3.25l3.38,3.13l3.48,3l3.59,2.87l3.69,2.74l3.78,2.6l3.87,2.47l3.96,2.32l4.04,2.18l4.11,2.03l4.18,1.88
				l4.25,1.72l4.3,1.57l4.36,1.41L290.17,606.25z M810.66,543.42l1.75-2.7l1.9-2.75l2-2.71l2.05-2.61l2.14-2.57l2.21-2.5l2.28-2.44
				l2.37-2.38l2.41-2.28l2.49-2.22l2.55-2.14l2.61-2.07l2.68-1.99l2.73-1.9l2.79-1.82l2.84-1.74l2.98-1.71l5.98-3.44l-3.45-6.03
				l-3.06-5.36l-2.96-5.37l-2.88-5.41l-2.79-5.46l-2.71-5.5l-2.62-5.54l-2.54-5.58l-2.46-5.64l-3.37-8.01l-3.27-8.02l-3.18-8.06
				l-3.08-8.06l-3-8.13l-2.92-8.16l-2.83-8.19l-2.34-7.05l0.31-7.43l0.34-6.58l-9.42,1.33l-28.38,4.02l-28.36,3.77l-28.38,3.53
				l-28.42,3.28l-7.3,0.78l-14.71,1.39l-14.7,1.15l-14.73,0.91l-7.38,0.35l-4.58,0.22l-0.66-0.8l-5.16-6.26l-5.32,15.1
				l-38.85,110.21l-2.27,0l-0.01,29.57l-2.13,2.13l2.13,2.13l-0.01,55.38l-2.13,2.13l2.13,2.13l-0.01,55.38l-2.13,2.13l2.13,2.13
				l-0.01,57.51l0,6.91l7.26,0.36l2.13,2.12l2.12-2.13l206.38-8.29l6.55-0.26v-6.63V609.33l2.17-2.08l-2.08-2.17l0.68-16.57
				l0.36-3.04l0.47-3.19l0.57-3.17l0.67-3.17l0.76-3.1l0.86-3.1l0.95-3.07l1.04-3.04l1.14-3.01l1.23-2.97l1.32-2.93l1.41-2.89
				l1.51-2.87l1.57-2.77L810.66,543.42z M1086.34,498.47l-2.12-2.13l0-4.95l2.13-2.12l-2.12-2.13l0-0.22l0.05-94.11l0-6.58
				l-4.37-0.21l-2.02-2.23l-2.23,2.02l-162.93-7.88l-6.97-0.34l-0.17,7.06l-2.98,122.32l-2.18,2.07l2.07,2.18l-0.19,7.76l-0.33,3.83
				l-0.5,3.88l-0.14,0.8l-2.47,1.71l1.71,2.47l-0.58,2.7l-0.97,3.78l-1.13,3.74l-1.29,3.69l-1.44,3.63l-1.59,3.56l-1.74,3.49
				l-1.88,3.42l-2.02,3.33l-2.16,3.24l-2.29,3.15l-2.42,3.05l-2.59,2.99l-3.1,3.32l-3.26,3.25l-3.38,3.13l-3.48,3l-3.59,2.87
				l-3.69,2.74l-3.78,2.6l-3.87,2.47l-3.96,2.32l-4.04,2.18l-4.11,2.03l-4.18,1.88l-4.25,1.72l-4.3,1.57l-4.36,1.41l-4.52,1.28
				l-7.79,2.21l3.48,7.4l50.09,106.59l-2.09,14.27l11.15-1.69l12.6-1.91l12.56-1.8l12.58-1.7l12.59-1.59l12.6-1.49l12.61-1.39
				l12.62-1.28l12.64-1.18l13.15-1.12l13.16-1.02l13.17-0.92l13.17-0.81l13.18-0.71l13.18-0.6l13.19-0.5l13.24-0.4l6.4-0.19
				l0.01-13.6l0.05-94.33l2.13-2.12l-2.12-2.13l0-4.95l2.13-2.12l-2.12-2.13l0.05-101.41L1086.34,498.47z M545.13,661.68
				l-0.01-55.38l2.13-2.13l-2.13-2.13l-0.01-55.38l2.13-2.13l-2.13-2.13l-0.01-29.57l-2.27,0l-38.85-110.21l-5.32-15.1l-5.16,6.26
				l-0.66,0.8l-4.58-0.22l-7.38-0.35l-14.73-0.91l-14.7-1.15l-14.71-1.39l-7.3-0.78l-28.42-3.28l-28.38-3.53l-28.36-3.77
				l-28.38-4.02l-9.42-1.33l0.34,6.58l0.31,7.43l-2.34,7.05l-2.83,8.19l-2.92,8.16l-3,8.13l-3.08,8.06l-3.18,8.06l-3.27,8.02
				l-3.37,8.01l-2.46,5.64l-2.54,5.58l-2.62,5.54l-2.71,5.5l-2.79,5.46l-2.88,5.41l-2.96,5.37l-3.06,5.36l-3.45,6.03l5.98,3.44
				l2.98,1.71l2.84,1.74l2.79,1.82l2.73,1.9l2.68,1.99l2.61,2.07l2.55,2.14l2.49,2.22l2.41,2.28l2.37,2.38l2.28,2.44l2.21,2.5
				l2.14,2.57l2.05,2.61l2,2.71l1.9,2.75l1.75,2.7l1.66,2.75l1.57,2.77l1.51,2.87l1.41,2.89l1.32,2.93l1.23,2.97l1.14,3.01
				l1.04,3.04l0.95,3.07l0.86,3.1l0.76,3.1l0.67,3.17l0.57,3.17l0.47,3.19l0.36,3.04l0.68,16.57l-2.08,2.17l2.17,2.08v106.18v6.63
				l6.55,0.26l206.38,8.29l2.12,2.13l2.13-2.12l7.26-0.36l0-6.91l-0.01-57.51l2.13-2.13L545.13,661.68z M840.24,137.87l0,4.95
				l-2.12,2.13l2.13,2.12l0.05,101.41l-2.12,2.13l2.13,2.12l0,0.33l0,4.62l-2.12,2.13l2.13,2.12l0.05,94.33l0,7.26l7.16-0.37
				l59.79-3.06l8.75-0.45l0-6.44l0.01-57.68l2.13-2.13l-2.13-2.13l0.01-55.55l2.13-2.13l-2.13-2.13l0.01-50.11l0-1.47l0.09-1.2
				l0.19-1.43l0.22-1.15l0.11-0.36v0l2.81-1.07l-1.08-2.8l0.29-0.48l0.83-1.18l0.92-1.11l1-1.04l1.09-0.97l1.22-0.94l1.37-0.97
				l1.41-0.91l1.45-0.85l1.48-0.79l1.51-0.73l1.54-0.67l1.57-0.6l1.59-0.54l1.61-0.47l1.63-0.4l1.64-0.33l1.66-0.26l1.66-0.19
				l1.67-0.12l1.86-0.06l1.54-0.05l1.54-0.05l3.83-3.17l1.34-1.02l0.44-0.31l-2.61-7.02L912.6,36.43l-5.93-15.98l-5.54,4.71
				l-6.39,0.13l-6.39,0.13l-17.51,0.2l-11.8,0.01l-9.43-0.12l-2.44-0.03l-6.99-0.09l0.01,13.89l0.05,94.33l-2.12,2.13L840.24,137.87
				z M148.55,154.97l3.83,3.17l1.54,0.05l1.54,0.05l1.86,0.06l1.67,0.12l1.66,0.19l1.66,0.26l1.64,0.33l1.63,0.4l1.61,0.47
				l1.59,0.54l1.57,0.6l1.54,0.67l1.51,0.73l1.48,0.79l1.45,0.85l1.41,0.91l1.37,0.97l1.22,0.94l1.09,0.97l1,1.04l0.92,1.11
				l0.83,1.18l0.29,0.48l-1.08,2.8l2.81,1.07v0l0.11,0.36l0.22,1.15l0.19,1.43l0.09,1.2l0,1.47l0.01,50.11l-2.13,2.13l2.13,2.13
				l0.01,55.55l-2.13,2.13l2.13,2.13l0.01,57.68l0,6.44l8.75,0.45l59.79,3.06l7.16,0.37l0-7.26l0.05-94.33l2.13-2.12l-2.12-2.13
				l0-4.62l0-0.33l2.13-2.12l-2.12-2.13l0.05-101.41l2.13-2.12l-2.12-2.13l0-4.95l2.13-2.12l-2.12-2.13l0.05-94.33l0.01-13.89
				l-6.99,0.09l-2.44,0.03l-9.43,0.12l-11.8-0.01l-17.51-0.2l-6.39-0.13l-6.39-0.13l-5.54-4.71l-5.93,15.98l-40.9,110.19l-2.61,7.02
				l0.44,0.31L148.55,154.97z"/>

				<path id="id:SUB_SECOND_ACCENT_1_00000121985210930482440320000011510073817583910016_" display="inline" fill="#68737A" d="
				M56.49,286.64l0-42.79l0-6.9l6.82,0l36.6,0l2.13-2.13l2.13,2.13l36.6,0h6.82l0,6.9l0,42.79l0,42.79l0,6.9l-6.82,0l-36.39,0
				l-2.13,2.13l-2.13-2.13l-36.81,0l-6.82,0l0-6.9L56.49,286.64z M553.56,66.52l-2.13-2.13l-2.13,2.13L282.9,66.49l-6.82,0l0,6.9
				l0,39.11l0,39.11l0,6.9l6.82,0l266.41-0.01l2.13,2.13l2.13-2.13l266.41,0.02l6.82,0l0-6.9l0-39.11l0-39.11l0-6.9l-6.82,0
				L553.56,66.52z M723.5,319.14l0-6.88l0-38.98l0-38.99l0-6.88l-6.82,0l-158.57,0l-2.13-2.13l-2.13,2.13h-2.42l-2.42,0l-2.13-2.13
				l-2.13,2.13h0l-158.57,0.02l-6.82,0l0,6.89l0,38.98l0,38.99l0,6.88l6.82,0l158.57,0l2.13,2.13l2.13-2.13l2.42,0l2.42,0l2.13,2.13
				l2.13-2.13l158.57-0.02L723.5,319.14z M1063.04,677.2l-13.55,0.51l-13.55,0.62l-13.55,0.73l-13.54,0.83l-13.53,0.94l-13.52,1.05
				l-13.52,1.15l-13.01,1.21l-13,1.32L929.27,687l-12.98,1.53l-12.97,1.64l-12.96,1.74l-13.13,1.88l-29.49,4.47l1.6,3.4l1.6,3.4
				l1.6,3.4l1.6,3.4l8.25,17.56l-2.09,14.27l11.15-1.69l12.6-1.91l12.56-1.8l12.58-1.7l12.59-1.59l12.6-1.49l12.61-1.39l12.62-1.28
				l12.64-1.18l13.15-1.12l13.16-1.02l13.17-0.92l13.17-0.81l13.18-0.71l13.18-0.6l13.19-0.5l13.24-0.4l6.4-0.19l0.01-13.6
				l0.01-18.81l0-3.6l0-3.6l0-3.6l0-3.6L1063.04,677.2z M216.42,684.94l-12.96-1.74l-12.97-1.64l-12.98-1.53l-12.99-1.43l-13-1.32
				l-13.01-1.21l-13.52-1.15l-13.52-1.05l-13.53-0.94l-13.54-0.83l-13.55-0.73l-13.55-0.62l-13.55-0.51l-21.08-0.64l0,3.6l0,3.6
				l0,3.6l0,3.6l0.01,18.81l0.01,13.6l6.4,0.19l13.24,0.4l13.19,0.5l13.18,0.6l13.18,0.71l13.17,0.81l13.17,0.92l13.16,1.02
				l13.15,1.12l12.64,1.18l12.62,1.28l12.61,1.39l12.6,1.49l12.59,1.59l12.58,1.7l12.56,1.8l12.6,1.91l11.15,1.69l-2.09-14.27
				l8.25-17.56l1.6-3.4l1.6-3.4l1.6-3.4l1.6-3.4l-29.49-4.47L216.42,684.94z M515.51,435.32l-1.29-3.67l-1.29-3.67l-8.94-25.36
				l-5.32-15.1l-5.16,6.26l-0.66,0.8l-4.58-0.22l-7.38-0.35l-14.73-0.91l-14.7-1.15l-14.71-1.39l-7.3-0.78l-28.42-3.28l-28.38-3.53
				l-28.36-3.77l-28.38-4.02l-9.42-1.33l0.34,6.58l0.31,7.43l-2.34,7.05l-2.83,8.19l-0.96,2.69l-1.24,3.46l-0.72,2.01l-0.54,1.45
				l-1.28,3.46l-1.19,3.23l-0.09,0.23l41.75,5.91l28.76,3.82l28.78,3.58l28.82,3.33l7.69,0.82l15.28,1.45l15.85,1.25l15.12,0.93
				l8.05,0.39l32.04,1.52l-1.29-3.67L515.51,435.32z M817.85,416.19l-1.28-3.46l-0.54-1.45l-0.72-2.01l-1.24-3.46l-0.96-2.69
				l-2.83-8.19l-2.34-7.05l0.31-7.43l0.34-6.58l-9.42,1.33l-28.38,4.02l-28.36,3.77l-28.38,3.53l-28.42,3.28l-7.3,0.78l-14.71,1.39
				l-14.7,1.15l-14.73,0.91l-7.38,0.35l-4.58,0.22l-0.66-0.8l-5.16-6.26l-5.32,15.1l-8.94,25.36l-1.29,3.67l-1.29,3.67l-1.29,3.67
				l-1.29,3.67l32.04-1.52l8.05-0.39l15.12-0.93l15.85-1.25l15.28-1.45l7.69-0.82l28.82-3.33l28.78-3.58l28.76-3.82l41.75-5.91
				l-0.09-0.23L817.85,416.19z M253.25,25.51l-9.43,0.12l-11.8-0.01l-17.51-0.2l-6.39-0.13l-6.39-0.13l-5.54-4.71l-5.93,15.98
				l-7.7,20.74l-1.33,3.57l-1.33,3.57l-1.33,3.57l-1.33,3.57l36.28,0.75l17.92,0.21l12.61,0.01l18.57-0.23l0-3.6l0-3.6l0-3.6l0-3.6
				l0.01-18.51l0.01-13.89l-6.99,0.09L253.25,25.51z M871.39,72.42l17.92-0.21l36.28-0.75l-1.33-3.57l-1.33-3.57l-1.33-3.57
				l-1.33-3.57l-7.7-20.74l-5.93-15.98l-5.54,4.71l-6.39,0.13l-6.39,0.13l-17.51,0.2l-11.8,0.01l-9.43-0.12l-2.44-0.03l-6.99-0.09
				l0.01,13.89l0.01,18.51l0,3.6l0,3.6l0,3.6l0,3.6l18.57,0.23L871.39,72.42z"/>

				<path id="id:SUB_SECOND_ACCENT_2_00000098916088960403510040000013110980445150214537_" display="inline" fill="#F1582A" d="
				M826.79,126.18l0,11.95H276.08l0-11.95H826.79z M723.49,286.94H379.37l0,11.95H723.5L723.49,286.94z M1063.15,680.8l-13.53,0.51
				l-13.52,0.62l-13.52,0.73l-13.51,0.83l-13.5,0.94l-13.5,1.04l-13.49,1.15l-12.98,1.21l-12.97,1.32l-12.96,1.42l-12.95,1.53
				l-12.94,1.64l-12.93,1.74l-13.09,1.87l-28.42,4.3l1.6,3.4l1.6,3.4l1.6,3.4l25.33-3.84l12.82-1.83l12.84-1.73l12.85-1.62
				l12.86-1.52l12.88-1.41l12.89-1.31l12.9-1.2l13.4-1.14l13.41-1.04l13.42-0.93l13.43-0.83l13.43-0.72l13.44-0.62l13.44-0.51
				l20.64-0.62l0-3.6l0-3.6l0-3.6L1063.15,680.8z M215.94,688.51l-12.93-1.74l-12.94-1.64l-12.95-1.53l-12.96-1.42l-12.97-1.32
				l-12.98-1.21l-13.49-1.15l-13.5-1.04l-13.5-0.94l-13.51-0.83l-13.52-0.73l-13.52-0.62l-13.53-0.51l-20.97-0.63l0,3.6l0,3.6l0,3.6
				l20.64,0.62l13.44,0.51l13.44,0.62l13.43,0.72l13.43,0.83l13.42,0.93l13.41,1.04l13.4,1.14l12.9,1.2l12.89,1.31l12.88,1.41
				l12.86,1.52l12.85,1.62l12.84,1.73l12.82,1.83l25.33,3.84l1.6-3.4l1.6-3.4l1.6-3.4l-28.42-4.3L215.94,688.51z M514.22,431.66
				l-1.29-3.67l-26.19-1.24l-7.85-0.38l-15.26-0.95l-15.23-1.2l-15.1-1.43l-7.57-0.81l-28.7-3.32l-28.66-3.56l-28.64-3.81
				l-38.73-5.48l-1.24,3.46l-0.72,2.01l-0.54,1.45l-1.28,3.46l40.98,5.8l28.73,3.82l28.75,3.57l28.79,3.33l7.66,0.82l15.24,1.45
				l15.76,1.24l15.09,0.93l8,0.39l30.58,1.45l-1.29-3.67L514.22,431.66z M816.04,411.29l-0.72-2.01l-1.24-3.46l-38.73,5.48
				l-28.64,3.81l-28.66,3.56l-28.7,3.32l-7.57,0.81l-15.1,1.43l-15.23,1.2l-15.26,0.95l-7.85,0.38l-26.19,1.24l-1.29,3.67
				l-1.29,3.67l-1.29,3.67l30.58-1.45l8-0.39l15.09-0.93l15.76-1.24l15.24-1.45l7.66-0.82l28.79-3.33l28.75-3.57l28.73-3.82
				l40.98-5.8l-1.28-3.46L816.04,411.29z M231.64,58.02l-17.8-0.21l-31.27-0.64l-1.33,3.57l-1.33,3.57l-1.33,3.57l35.03,0.72
				l17.89,0.21l12.55,0.01l18.59-0.23l0-3.6l0-3.6l0-3.6l-18.66,0.23L231.64,58.02z M871.35,68.82l17.89-0.21l35.03-0.72l-1.33-3.57
				l-1.33-3.57l-1.33-3.57l-31.27,0.64l-17.8,0.21l-12.36,0.01L840.2,57.8l0,3.6l0,3.6l0,3.6l18.59,0.23L871.35,68.82z"/>

				<path id="id:SUB_SECOND_ACCENT_3_00000105390216475800694020000011362467071544032686_" display="inline" fill="#009949" d="
				M1084.12,683.77l0,3.6l-20.75,0.63l-13.47,0.51l-13.47,0.62l-13.46,0.72l-13.45,0.83l-13.45,0.93l-13.44,1.04l-13.43,1.15
				L956.28,695l-12.92,1.31l-12.91,1.42l-12.89,1.52l-12.88,1.63l-12.87,1.73l-12.85,1.84l-26.42,4l-1.6-3.4l27.51-4.16l12.88-1.84
				l12.9-1.74l12.91-1.63l12.92-1.53l12.93-1.42l12.95-1.32l12.95-1.21l13.46-1.15l13.47-1.04l13.48-0.94l13.48-0.83l13.49-0.72
				l13.49-0.62l13.5-0.51L1084.12,683.77z M215.46,692.08l-12.9-1.74l-12.91-1.63l-12.92-1.53l-12.93-1.42l-12.95-1.32l-12.95-1.21
				l-13.46-1.15l-13.47-1.04l-13.48-0.94l-13.48-0.83l-13.49-0.72l-13.49-0.62l-13.5-0.51l-20.86-0.63l0,3.6l20.75,0.63l13.47,0.51
				l13.47,0.62l13.46,0.72l13.45,0.83l13.45,0.93l13.44,1.04l13.43,1.15l12.92,1.21l12.92,1.31l12.91,1.42l12.89,1.52l12.88,1.63
				l12.87,1.73l12.85,1.84l26.42,4l1.6-3.4l-27.51-4.16L215.46,692.08z M486.57,430.35l-7.9-0.38l-15.03-0.93l-15.58-1.22
				l-15.15-1.44l-7.6-0.81l-28.73-3.32l-28.69-3.56l-28.67-3.81l-39.46-5.59l-0.72,2.01l-0.54,1.45l40.21,5.69l28.7,3.82l28.72,3.57
				l28.76,3.32l7.63,0.82l15.19,1.44l15.67,1.23l15.06,0.93l7.95,0.38l29.11,1.38l-1.29-3.67L486.57,430.35z M815.32,409.28
				l-39.46,5.59l-28.67,3.81l-28.69,3.56l-28.73,3.32l-7.6,0.81l-15.15,1.44l-15.58,1.22l-15.03,0.93l-7.9,0.38l-27.65,1.31
				l-1.29,3.67l29.11-1.38l7.95-0.38l15.06-0.93l15.67-1.23l15.19-1.44l7.63-0.82l28.76-3.32l28.72-3.57l28.7-3.82l40.21-5.69
				l-0.54-1.45L815.32,409.28z M231.6,61.62l-17.83-0.21l-32.53-0.67l-1.33,3.57l33.78,0.7l17.86,0.21l12.49,0.01L262.66,65l0-3.6
				l-18.64,0.23L231.6,61.62z M871.31,65.22l17.86-0.21l33.78-0.7l-1.33-3.57l-32.53,0.67l-17.83,0.21l-12.43,0.01l-18.64-0.23
				l0,3.6l18.61,0.23L871.31,65.22z"/>
		</g>
</svg>