<?xml version="1.0" encoding="utf-8"?>
<svg version="1.1"
	 xmlns="http://www.w3.org/2000/svg" xmlns:xlink="http://www.w3.org/1999/xlink" x="0px" y="0px" width="1104.07px"
	 height="761.93px" viewBox="0 0 1104.07 761.93" enable-background="new 0 0 1104.07 761.93" xml:space="preserve">>
<g id="id:chicago" display="inline">

				<path id="id:SUB_SECOND_BODY_COLOR_00000034780463973347435540000009376073437204819844_" display="inline" fill="#005B9B" d="
				M290.17,606.25l7.79,2.21l-3.48,7.4L244.4,722.45l2.09,14.27l-11.15-1.69l-12.6-1.91l-12.56-1.8l-12.58-1.7L185,728.04
				l-12.6-1.49l-12.61-1.39l-12.62-1.28l-12.64-1.18l-13.15-1.12l-13.16-1.02l-13.17-0.92l-13.17-0.81l-13.18-0.71l-13.18-0.6
				l-13.19-0.5l-13.24-0.4l-6.4-0.19l-0.01-13.6l-0.05-94.33l-2.13-2.12l2.12-2.13l0-4.95l-2.13-2.12l2.12-2.13l-0.05-101.41
				l-2.13-2.12l2.12-2.13l0-4.95l-2.13-2.12l2.12-2.13l0-0.22l-0.05-94.11l0-6.58l4.37-0.21l2.02-2.23l2.23,2.02l162.93-7.88
				l6.97-0.34l0.17,7.06l2.98,122.32l2.18,2.07l-2.07,2.18l0.19,7.76l0.33,3.83l0.5,3.88l0.14,0.8l2.47,1.71l-1.71,2.47l0.58,2.7
				l0.97,3.78l1.13,3.74l1.29,3.69l1.44,3.63l1.59,3.56l1.74,3.49l1.88,3.42l2.02,3.33l2.16,3.24l2.29,3.15l2.42,3.05l2.59,2.99
				l3.1,3.32l3.26,3.25l3.38,3.13l3.48,3l3.59,2.87l3.69,2.74l3.78,2.6l3.87,2.47l3.96,2.32l4.04,2.18l4.11,2.03l4.18,1.88
				l4.25,1.72l4.3,1.57l4.36,1.41L290.17,606.25z M810.66,543.42l1.75-2.7l1.9-2.75l2-2.71l2.05-2.61l2.14-2.57l2.21-2.5l2.28-2.44
				l2.37-2.38l2.41-2.28l2.49-2.22l2.55-2.14l2.61-2.07l2.68-1.99l2.73-1.9l2.79-1.82l2.84-1.74l2.98-1.71l5.98-3.44l-3.45-6.03
				l-3.06-5.36l-2.96-5.37l-2.88-5.41l-2.79-5.46l-2.71-5.5l-2.62-5.54l-2.54-5.58l-2.46-5.64l-3.37-8.01l-3.27-8.02l-3.18-8.06
				l-3.08-8.06l-3-8.13l-2.92-8.16l-2.83-8.19l-2.34-7.05l0.31-7.43l0.34-6.58l-9.42,1.33l-28.38,4.02l-28.36,3.77l-28.38,3.53
				l-28.42,3.28l-7.3,0.78l-14.71,1.39l-14.7,1.15l-14.73,0.91l-7.38,0.35l-4.58,0.22l-0.66-0.8l-5.16-6.26l-5.32,15.1
				l-38.85,110.21l-2.27,0l-0.01,29.57l-2.13,2.13l2.13,2.13l-0.01,55.38l-2.13,2.13l2.13,2.13l-0.01,55.38l-2.13,2.13l2.13,2.13
				l-0.01,57.51l0,6.91l7.26,0.36l2.13,2.12l2.12-2.13l206.38-8.29l6.55-0.26v-6.63V609.33l2.17-2.08l-2.08-2.17l0.68-16.57
				l0.36-3.04l0.47-3.19l0.57-3.17l0.67-3.17l0.76-3.1l0.86-3.1l0.95-3.07l1.04-3.04l1.14-3.01l1.23-2.97l1.32-2.93l1.41-2.89
				l1.51-2.87l1.57-2.77L810.66,543.42z M1086.34,498.47l-2.12-2.13l0-4.95l2.13-2.12l-2.12-2.13l0-0.22l0.05-94.11l0-6.58
				l-4.37-0.21l-2.02-2.23l-2.23,2.02l-162.93-7.88l-6.97-0.34l-0.17,7.06l-2.98,122.32l-2.18,2.07l2.07,2.18l-0.19,7.76l-0.33,3.83
				l-0.5,3.88l-0.14,0.8l-2.47,1.71l1.71,2.47l-0.58,2.7l-0.97,3.78l-1.13,3.74l-1.29,3.69l-1.44,3.63l-1.59,3.56l-1.74,3.49
				l-1.88,3.42l-2.02,3.33l-2.16,3.24l-2.29,3.15l-2.42,3.05l-2.59,2.99l-3.1,3.32l-3.26,3.25l-3.38,3.13l-3.48,3l-3.59,2.87
				l-3.69,2.74l-3.78,2.6l-3.87,2.47l-3.96,2.32l-4.04,2.18l-4.11,2.03l-4.18,1.88l-4.25,1.72l-4.3,1.57l-4.36,1.41l-4.52,1.28
				l-7.79,2.21l3.48,7.4l50.09,106.59l-2.09,14.27l11.15-1.69l12.6-1.91l12.56-1.8l12.58-1.7l12.59-1.59l12.6-1.49l12.61-1.39
				l12.62-1.28l12.64-1.18l13.15-1.12l13.16-1.02l13.17-0.92l13.17-0.81l13.18-0.71l13.18-0.6l13.19-0.5l13.24-0.4l6.4-0.19
				l0.01-13.6l0.05-94.33l2.13-2.12l-2.12-2.13l0-4.95l2.13-2.12l-2.12-2.13l0.05-101.41L1086.34,498.47z M545.13,661.68
				l-0.01-55.38l2.13-2.13l-2.13-2.13l-0.01-55.38l2.13-2.13l-2.13-2.13l-0.01-29.57l-2.27,0l-38.85-110.21l-5.32-15.1l-5.16,6.26
				l-0.66,0.8l-4.58-0.22l-7.38-0.35l-14.73-0.91l-14.7-1.15l-14.71-1.39l-7.3-0.78l-28.42-3.28l-28.38-3.53l-28.36-3.77
				l-28.38-4.02l-9.42-1.33l0.34,6.58l0.31,7.43l-2.34,7.05l-2.83,8.19l-2.92,8.16l-3,8.13l-3.08,8.06l-3.18,8.06l-3.27,8.02
				l-3.37,8.01l-2.46,5.64l-2.54,5.58l-2.62,5.54l-2.71,5.5l-2.79,5.46l-2.88,5.41l-2.96,5.37l-3.06,5.36l-3.45,6.03l5.98,3.44
				l2.98,1.71l2.84,1.74l2.79,1.82l2.73,1.9l2.68,1.99l2.61,2.07l2.55,2.14l2.49,2.22l2.41,2.28l2.37,2.38l2.28,2.44l2.21,2.5
				l2.14,2.57l2.05,2.61l2,2.71l1.9,2.75l1.75,2.7l1.66,2.75l1.57,2.77l1.51,2.87l1.41,2.89l1.32,2.93l1.23,2.97l1.14,3.01
				l1.04,3.04l0.95,3.07l0.86,3.1l0.76,3.1l0.67,3.17l0.57,3.17l0.47,3.19l0.36,3.04l0.68,16.57l-2.08,2.17l2.17,2.08v106.18v6.63
				l6.55,0.26l206.38,8.29l2.12,2.13l2.13-2.12l7.26-0.36l0-6.91l-0.01-57.51l2.13-2.13L545.13,661.68z M840.24,137.87l0,4.95
				l-2.12,2.13l2.13,2.12l0.05,101.41l-2.12,2.13l2.13,2.12l0,0.33l0,4.62l-2.12,2.13l2.13,2.12l0.05,94.33l0,7.26l7.16-0.37
				l59.79-3.06l8.75-0.45l0-6.44l0.01-57.68l2.13-2.13l-2.13-2.13l0.01-55.55l2.13-2.13l-2.13-2.13l0.01-50.11l0-1.47l0.09-1.2
				l0.19-1.43l0.22-1.15l0.11-0.36v0l2.81-1.07l-1.08-2.8l0.29-0.48l0.83-1.18l0.92-1.11l1-1.04l1.09-0.97l1.22-0.94l1.37-0.97
				l1.41-0.91l1.45-0.85l1.48-0.79l1.51-0.73l1.54-0.67l1.57-0.6l1.59-0.54l1.61-0.47l1.63-0.4l1.64-0.33l1.66-0.26l1.66-0.19
				l1.67-0.12l1.86-0.06l1.54-0.05l1.54-0.05l3.83-3.17l1.34-1.02l0.44-0.31l-2.61-7.02L912.6,36.43l-5.93-15.98l-5.54,4.71
				l-6.39,0.13l-6.39,0.13l-17.51,0.2l-11.8,0.01l-9.43-0.12l-2.44-0.03l-6.99-0.09l0.01,13.89l0.05,94.33l-2.12,2.13L840.24,137.87
				z M148.55,154.97l3.83,3.17l1.54,0.05l1.54,0.05l1.86,0.06l1.67,0.12l1.66,0.19l1.66,0.26l1.64,0.33l1.63,0.4l1.61,0.47
				l1.59,0.54l1.57,0.6l1.54,0.67l1.51,0.73l1.48,0.79l1.45,0.85l1.41,0.91l1.37,0.97l1.22,0.94l1.09,0.97l1,1.04l0.92,1.11
				l0.83,1.18l0.29,0.48l-1.08,2.8l2.81,1.07v0l0.11,0.36l0.22,1.15l0.19,1.43l0.09,1.2l0,1.47l0.01,50.11l-2.13,2.13l2.13,2.13
				l0.01,55.55l-2.13,2.13l2.13,2.13l0.01,57.68l0,6.44l8.75,0.45l59.79,3.06l7.16,0.37l0-7.26l0.05-94.33l2.13-2.12l-2.12-2.13
				l0-4.62l0-0.33l2.13-2.12l-2.12-2.13l0.05-101.41l2.13-2.12l-2.12-2.13l0-4.95l2.13-2.12l-2.12-2.13l0.05-94.33l0.01-13.89
				l-6.99,0.09l-2.44,0.03l-9.43,0.12l-11.8-0.01l-17.51-0.2l-6.39-0.13l-6.39-0.13l-5.54-4.71l-5.93,15.98l-40.9,110.19l-2.61,7.02
				l0.44,0.31L148.55,154.97z"/>

				<path id="id:SUB_SECOND_ACCENT_1_00000070797814962711058240000012370667161720441989_" display="inline" fill="#68737A" d="
				M809.97,615.11l0.75-0.21v4.57l-0.75-1.6V615.11z M831.11,662.86l0.75,1.6v-56.34l-0.75,0.3V662.86z M1064.4,385.27l-0.75-0.04
				v275.75l-1,0.03l-13.68,0.52l-5.71,0.26V384.25l-0.75-0.04v277.61l-7.21,0.33l-13.18,0.71V383.23l-0.75-0.04V662.9l-13.41,0.83
				l-6.98,0.48V382.2l-0.75-0.04v282.1l-5.93,0.41l-13.65,1.05l-0.81,0.07V381.18l-0.75-0.04v284.72l-12.09,1.03l-8.31,0.77V380.16
				l-0.75-0.04v287.62l-4.09,0.38l-13.14,1.33l-3.17,0.35V379.14l-0.75-0.04v290.79l-9.2,1.01l-11.19,1.32v-294.1l-0.75-0.04V672.3
				l-1.18,0.14l-13.1,1.66l-6.11,0.82V548.95l-0.11,0.27l-0.64,1.44v124.36l-6.23,0.84l-13.33,1.9l-0.84,0.13v-97.87l-0.75,0.75
				v97.24L853,681.09v-83.96l-0.75,0.48v83.6l-11.69,1.77l3.99,8.5l3.99,8.5l3.7,7.87v0l0.75,1.6v0l9.39,19.97l-2.09,14.27
				l11.15-1.69l12.6-1.91l12.56-1.8l12.58-1.7l12.59-1.59l12.6-1.49l2.42-0.27l0,0l0.6-0.07l9.59-1.05l12.62-1.28l12.64-1.18
				l13.15-1.12l13.16-1.02l1.66-0.12l0,0l0.75-0.05v0l10.75-0.75l13.17-0.81l13.18-0.71l13.18-0.6l12.39-0.47l0,0l0.75-0.03l0,0
				l0.05,0l13.24-0.4l6.4-0.19l0.01-13.6l0.02-31.42l0-9l0-9l-19.73,0.6V385.27z M1084.79,605.63l0.75-0.75v-1.49l-0.75-0.75V605.63
				z M1084.79,614.82l0.75-0.75v-1.48l-0.75-0.75V614.82z M1084.79,487.72v3.1l0.75-0.75v-1.6L1084.79,487.72z M1084.79,500.02
				l0.75-0.75v-1.59l-0.75-0.75V500.02z M526.84,730.42l0.75,0.03V469.58l-0.75-2.13V730.42z M273.16,510.79l0.75,0.52v-39.69
				l-0.75,1.52V510.79z M161.62,113.6l-0.75,2.02v43.03l0.75,0.12V113.6z M182.01,168.67l0.42,0.43l0.33,0.4V87.83l8.49,0.17
				l11.9,19.05v253.44l0.75,0.04V108.25l20.39,32.63v220.69l0.75,0.04V140.98l20.39-32.89v254.56l0.75,0.04V106.88l11.43-18.44
				l5.04-0.06l0-8.07l0-0.93l0-9l0.01-23.23l0-7.85l0-6.23l0-7.67l-6.99,0.09l-2.44,0.03l-7.07,0.09l0,0l-0.34,0l-2.02,0.02
				l-11.8-0.01l-6.98-0.08l0,0l-0.75-0.01l0,0l-9.78-0.11l-6.39-0.13l-6.39-0.13l-5.54-4.71l-4.66,12.55l-1.27,3.43l-3.99,10.74
				l-8.37,22.55l-3.32,8.93l-3.32,8.93l10.73,0.22V168.67z M296.07,612.5l0.75-1.6v-2.76l-0.75-0.21V612.5z M274.93,657.48l0.75-1.6
				v-54.44l-0.75-0.3V657.48z M254.54,590.64l-0.75-0.48v83.96l-20.39-3.09v-97.24l-0.75-0.75v97.87l-0.84-0.13l-13.33-1.9
				l-6.23-0.84V543.69l-0.64-1.44l-0.11-0.27v125.97l-6.11-0.82l-13.1-1.66l-1.18-0.14V371.11l-0.75,0.04v294.1l-11.19-1.32
				l-9.2-1.01V372.13l-0.75,0.04v290.67l-3.17-0.35l-13.14-1.33l-4.09-0.38V373.15l-0.75,0.04V660.7l-8.31-0.77l-12.09-1.03V374.17
				l-0.75,0.04v284.62l-0.81-0.07l-13.65-1.05l-5.93-0.41V375.2l-0.75,0.04v282.01l-6.98-0.48l-13.41-0.83V376.22l-0.75,0.04v279.64
				l-13.18-0.71l-7.21-0.33V377.24l-0.75,0.04v277.54l-5.71-0.26l-13.68-0.52l-1-0.03V378.26l-0.75,0.04v275.69l-19.73-0.6l0,9l0,9
				l0.02,31.42l0.01,13.6l6.4,0.19l13.24,0.4l0.05,0l0,0l0.75,0.03l0,0l12.39,0.47l8,0.37l0,0l0.75,0.03v0l4.43,0.2l13.18,0.71
				l2.78,0.17l0,0l0.75,0.05v0l9.64,0.59l13.17,0.92l13.16,1.02l5.57,0.48v0l0.75,0.06v0l6.83,0.58l12.64,1.18l0.92,0.09v0
				l0.75,0.08l0,0l10.95,1.11l9.44,1.04l0,0l0.25,0.03l2.93,0.32l12.6,1.49l5.36,0.68l0,0l0.75,0.09v0l6.48,0.82l12.58,1.7
				l1.34,0.19l0,0l0.75,0.11v0l10.48,1.5l9.91,1.5l0,0l0.75,0.11l0,0l1.94,0.29l11.15,1.69l-2.09-14.27L258.24,693l3.99-8.5
				l3.99-8.5l-11.69-1.77V590.64z M21.24,607.1l0.75,0.75v-2.98l-0.75,0.75V607.1z M21.24,483.1l0.75,0.75v-3.1l-0.75,0.75V483.1z
				 M21.24,492.3l0.75,0.75v-3.09l-0.75,0.75V492.3z M21.24,597.9l0.75,0.75v-2.99l-0.75,0.75V597.9z M587.5,730.45l0.75-0.03
				V467.45l-0.75,2.13V730.45z M841.94,510.79v-37.64l-0.75-1.52v39.69L841.94,510.79z M942,115.62l-0.75-2.02v45.17l0.75-0.12
				V115.62z M520.72,450.1l-3.23-9.16l-13.5-38.3l-5.32-15.1l-5.16,6.26l-0.66,0.8l-4.58-0.22l-7.38-0.35l-14.73-0.91l-1.99-0.16v0
				l-0.75-0.06l0,0l-11.97-0.94l-14.71-1.39l-7.3-0.78l-7.56-0.87l0,0l-0.71-0.08l-20.16-2.33l-0.94-0.12l-0.09-0.01l0,0
				l-20.75-2.58l-0.39-0.05l0,0l-6.22-0.77l-28.36-3.77l-6.95-0.98l0,0l-0.75-0.11v0l-20.68-2.93l-9.42-1.33l0.34,6.58l0.31,7.43
				l-2.34,7.05l-2.83,8.19l-2.92,8.16l-2.57,6.96l-0.43,1.17l-1,2.62l0,0l-0.75,1.96l0,0l-1.09,2.86l-0.23,0.61l-3.16,8l4.49,0.64
				v93.63l0.3,0.34l0.45,0.54v-94.41l20.39,2.89v128.02l0.75,2.42V439.21l16.85,2.39l3.54,0.47v280.71l0.75,0.03V442.17l20.39,2.71
				v278.75l0.75,0.03V444.98l3.73,0.5l16.66,2.07v276.93l0.75,0.03V447.64l11.24,1.4l9.15,1.06v275.24l0.75,0.03V450.18l19.06,2.2
				l1.33,0.14v273.65l0.75,0.03v-273.6l6.12,0.66l14.27,1.35v272.41l0.75,0.03V454.69l0.07,0.01l16.24,1.28l4.07,0.25v271.65
				l0.75,0.03V456.27l10.43,0.64l8.26,0.4l1.7,0.08v271.33l0.75,0.03V457.43l20.39,0.97v271.18l0.75,0.03V458.43l17.5,0.83
				L520.72,450.1z M822.12,427.48l-0.23-0.61l-2.85-7.45l-0.43-1.17l-2.57-6.96l-2.92-8.16l-2.83-8.19l-2.34-7.05l0.31-7.43
				l0.34-6.58l-9.42,1.33l-20.68,2.93v0l-0.75,0.11v0l-6.95,0.98l-28.36,3.77l-6.22,0.77l0,0l-0.47,0.06l-20.67,2.57l0,0l-0.16,0.02
				l-0.86,0.11l-20.11,2.32l0,0l-0.75,0.09l0,0l-7.56,0.87l-7.3,0.78l-14.71,1.39l-11.97,0.94v0l-0.75,0.06v0l-1.99,0.16
				l-14.73,0.91l-7.38,0.35l-4.58,0.22l-0.66-0.8l-5.16-6.26l-5.32,15.1l-1.71,4.85v0l-0.75,2.13v0l-11.04,31.32l-3.23,9.16
				l-3.23,9.16l17.5-0.83V729.6l0.75-0.03V458.4l20.39-0.97v271.32l0.75-0.03V457.4l1.7-0.08l8.26-0.4l10.43-0.64v271.64l0.75-0.03
				V456.23l4.07-0.25l16.24-1.28l0.07-0.01v272.37l0.75-0.03V454.62l14.27-1.35l6.12-0.66v273.6l0.75-0.03V452.53l1.33-0.14
				l19.06-2.2v275.18l0.75-0.03V450.1l9.15-1.06l11.24-1.4v276.87l0.75-0.03V447.55l16.66-2.07l3.73-0.5v278.68l0.75-0.03V444.88
				l20.39-2.71v280.64l0.75-0.03V442.07l3.54-0.47l16.85-2.39v130.34l0.75-2.42V439.11l20.39-2.89v94.41l0.45-0.54l0.3-0.34v-93.63
				l4.49-0.64L822.12,427.48z M856.69,106.88v255.81l0.75-0.04V108.09l20.39,32.89V361.6l0.75-0.04V140.87l20.39-32.63v252.28
				l0.75-0.04V107.05L911.62,88l8.49-0.17v81.69l0.33-0.4l0.42-0.43V87.81l10.73-0.22l-3.32-8.93l-3.32-8.93l-4.1-11.05v0
				l-0.75-2.02v0l-3.52-9.49l-3.99-10.74l-1.27-3.43l-4.66-12.55l-5.54,4.71l-6.39,0.13l-6.39,0.13l-9.78,0.11l0,0l-0.75,0.01l0,0
				l-6.98,0.08l-11.8,0.01l-2.02-0.02l-0.34,0l0,0l-7.07-0.09l-2.44-0.03l-6.99-0.09l0,7.67l0,6.23l0,7.85l0.01,23.23l0,9l0,0.93
				l0,8.07l5.04,0.06L856.69,106.88z"/>

				<path id="id:SUB_SECOND_ACCENT_2_00000068673842089752197580000000044560505262182549_" display="inline" fill="#F1582A" d="
				M231.81,670.79l34.42,5.21l-3.99,8.5l-3.99,8.5l-29.05-4.4l-13.11-1.87l-12.94-1.74l-12.96-1.64l-12.97-1.53l-12.98-1.42
				l-12.99-1.32l-13-1.21l-13.5-1.15l-13.51-1.04l-13.52-0.94l-13.52-0.83l-13.53-0.73l-13.54-0.62l-13.54-0.51l-20.92-0.63l0-9l0-9
				l21.48,0.65l13.68,0.52l13.68,0.63l13.67,0.73l13.67,0.84l13.66,0.95l13.65,1.05l13.64,1.16l13.14,1.23l13.14,1.33l13.12,1.44
				l13.11,1.55l13.1,1.66l13.09,1.76L231.81,670.79z M1062.66,661.01l-13.68,0.52l-13.68,0.63l-13.67,0.73l-13.67,0.84l-13.66,0.95
				l-13.65,1.05l-13.64,1.16l-13.14,1.23l-13.14,1.33l-13.12,1.44l-13.11,1.55l-13.1,1.66l-13.09,1.76l-13.33,1.9l-34.42,5.21
				l3.99,8.5l3.99,8.5l29.05-4.4l13.11-1.87l12.94-1.74l12.96-1.64l12.97-1.53l12.98-1.42l12.99-1.32l13-1.21l13.5-1.15l13.51-1.04
				l13.52-0.94l13.52-0.83l13.53-0.73l13.54-0.62l13.54-0.51l20.92-0.63l0-9l0-9L1062.66,661.01z M517.49,440.94l-33.76-1.6
				l-8.03-0.39l-15.1-0.93l-15.8-1.24l-15.26-1.45l-7.67-0.82l-28.8-3.33l-28.76-3.57l-28.74-3.82l-39.07-5.53l-0.43,1.17
				l-2.85,7.45l-0.23,0.61l-3.16,8l43.22,6.12l29.16,3.88l28.65,3.56l28.96,3.35l8.21,0.88l15.09,1.43l16.24,1.28l15.25,0.94
				l8.26,0.4l41.1,1.95l-3.23-9.16L517.49,440.94z M821.89,426.87l-2.85-7.45l-0.43-1.17l-39.07,5.53l-28.74,3.82l-28.76,3.57
				l-28.8,3.33l-7.67,0.82l-15.26,1.45l-15.8,1.24l-15.1,0.93l-8.03,0.39l-33.76,1.6l-3.23,9.16l-3.23,9.16l41.1-1.95l8.26-0.4
				l15.25-0.94l16.24-1.28l15.09-1.43l8.21-0.88l28.96-3.35l28.65-3.56l29.16-3.88l43.22-6.12l-3.16-8L821.89,426.87z M224.7,141.53
				l32.91-53.09l5.04-0.06l0-8.07l0-0.93l0-9l-4.22,0.05l-10.28,0.13l-23.53,37.96l-23.95-38.32l-10.38-0.21l-12.38-0.25l-3.32,8.93
				l-3.32,8.93L191.25,88L224.7,141.53z M878.17,141.53L911.62,88l19.97-0.41l-3.32-8.93l-3.32-8.93l-12.38,0.25l-10.38,0.21
				l-23.95,38.32l-23.53-37.96l-10.28-0.13l-4.22-0.05l0,9l0,0.93l0,8.07l5.04,0.06L878.17,141.53z"/>

				<path id="id:SUB_SECOND_ACCENT_3_00000081649829992541135870000008879411025400364421_" display="inline" fill="#009949" d="
				M56.49,286.64l0-42.79l0-6.9l6.82,0l36.6,0l2.13-2.13l2.13,2.13l36.6,0h6.82l0,6.9l0,42.79l0,42.79l0,6.9l-6.82,0l-36.39,0
				l-2.13,2.13l-2.13-2.13l-36.81,0l-6.82,0l0-6.9L56.49,286.64z M553.56,66.52l-2.13-2.13l-2.13,2.13L282.9,66.49l-6.82,0l0,6.9
				l0,39.11l0,39.11l0,6.9l6.82,0l266.41-0.01l2.13,2.13l2.13-2.13l266.41,0.02l6.82,0l0-6.9l0-39.11l0-39.11l0-6.9l-6.82,0
				L553.56,66.52z M723.5,319.14l0-6.88l0-38.98l0-38.99l0-6.88l-6.82,0l-158.57,0l-2.13-2.13l-2.13,2.13h-2.42l-2.42,0l-2.13-2.13
				l-2.13,2.13h0l-158.57,0.02l-6.82,0l0,6.89l0,38.98l0,38.99l0,6.88l6.82,0l158.57,0l2.13,2.13l2.13-2.13l2.42,0l2.42,0l2.13,2.13
				l2.13-2.13l158.57-0.02L723.5,319.14z M218.48,668.89l-13.09-1.76l-13.1-1.66l-13.11-1.55l-13.12-1.44l-13.14-1.33l-13.14-1.23
				l-13.64-1.16l-13.65-1.05l-13.66-0.95l-13.67-0.84l-13.67-0.73l-13.68-0.63l-13.68-0.52l-21.48-0.65l0,9l21.2,0.64l13.61,0.52
				l13.61,0.62l13.6,0.73l13.59,0.84l13.59,0.94l13.58,1.05l13.57,1.16l13.07,1.22l13.06,1.33l13.05,1.43l13.04,1.54l13.03,1.65
				l13.01,1.75l13.22,1.89l31.73,4.81l3.99-8.5l-34.42-5.21L218.48,668.89z M1062.66,661.01l-13.68,0.52l-13.68,0.63l-13.67,0.73
				l-13.67,0.84l-13.66,0.95l-13.65,1.05l-13.64,1.16l-13.14,1.23l-13.14,1.33l-13.12,1.44l-13.11,1.55l-13.1,1.66l-13.09,1.76
				l-13.33,1.9l-34.42,5.21l3.99,8.5l31.73-4.81l13.22-1.89l13.01-1.75l13.03-1.65l13.04-1.54l13.05-1.43l13.06-1.33l13.07-1.22
				l13.57-1.16l13.58-1.05l13.59-0.94l13.59-0.84l13.6-0.73l13.61-0.62l13.61-0.52l21.2-0.64l0-9L1062.66,661.01z M483.31,448.33
				l-8.16-0.39L459.98,447l-16.02-1.26l-15.37-1.46l-7.75-0.83l-28.88-3.34l-28.84-3.58l-28.82-3.83l-41.09-5.82l-0.23,0.61l-3.16,8
				l43.22,6.12l29.16,3.88l28.65,3.56l28.96,3.35l8.21,0.88l15.09,1.43l16.24,1.28l15.25,0.94l8.26,0.4l41.1,1.95l-3.23-9.16
				L483.31,448.33z M821.89,426.87l-41.09,5.82l-28.82,3.83l-28.84,3.58l-28.88,3.34l-7.75,0.83l-15.37,1.46L655.12,447l-15.17,0.94
				l-8.16,0.39l-37.42,1.77l-3.23,9.16l41.1-1.95l8.26-0.4l15.25-0.94l16.24-1.28l15.09-1.43l8.21-0.88l28.96-3.35l28.65-3.56
				l29.16-3.88l43.22-6.12l-3.16-8L821.89,426.87z M224.7,141.53l32.91-53.09l5.04-0.06l0-8.07l0-0.93l-9.84,0.12l-28.17,45.45
				L195.99,79.1l-10.44-0.21l-10.96-0.23l-3.32,8.93L191.25,88L224.7,141.53z M878.17,141.53L911.62,88l19.97-0.41l-3.32-8.93
				l-10.96,0.23l-10.44,0.21l-28.65,45.85l-28.17-45.45l-9.84-0.12l0,0.93l0,8.07l5.04,0.06L878.17,141.53z"/>
		</g>
</svg>