<?xml version="1.0" encoding="utf-8"?>
<svg version="1.1"
	 xmlns="http://www.w3.org/2000/svg" xmlns:xlink="http://www.w3.org/1999/xlink" x="0px" y="0px" width="1104.07px"
	 height="761.93px" viewBox="0 0 1104.07 761.93" enable-background="new 0 0 1104.07 761.93" xml:space="preserve">>
<g id="id:custom_design_line" display="inline">
			<path id="id:SUB_SECOND_BODY_COLOR" display="inline" fill="#005B9B" d="M294.47,615.86l-50.09,106.59l2.09,14.27
				l-11.15-1.69l-12.6-1.91l-12.56-1.8l-12.58-1.7l-12.59-1.59l-12.6-1.49l-12.61-1.39l-12.62-1.28l-12.64-1.18l-13.15-1.12
				l-13.16-1.02l-13.17-0.92l-13.17-0.81l-13.18-0.71l-13.18-0.6l-13.19-0.5l-13.24-0.4l-6.4-0.19l-0.01-13.6l-0.05-94.33
				l-2.13-2.12l2.12-2.13l0-4.95l-2.13-2.12l2.12-2.13l-0.05-101.41l-2.13-2.12l2.12-2.13l0-4.95l-2.13-2.12l2.12-2.13l0-0.22
				l-0.05-94.11l0-6.58l4.37-0.21l2.02-2.23l2.23,2.02l162.93-7.88l6.97-0.34l0.17,7.06l2.98,122.32l2.18,2.07l-2.07,2.18l0.19,7.76
				l0.33,3.83l0.5,3.88l0.14,0.8l2.47,1.71l-1.71,2.47l0.58,2.7l0.97,3.78l1.13,3.74l1.29,3.69l1.44,3.63l1.59,3.56l1.74,3.49
				l1.88,3.42l2.02,3.33l2.16,3.24l2.29,3.15l2.42,3.05l2.59,2.99l3.1,3.32l3.26,3.25l3.38,3.13l3.48,3l3.59,2.87l3.69,2.74
				l3.78,2.6l3.87,2.47l3.96,2.32l4.04,2.18l4.11,2.03l4.18,1.88l4.25,1.72l4.3,1.57l4.36,1.41l4.52,1.28l7.79,2.21L294.47,615.86z
				 M567.83,604.17l2.13,2.13l-0.01,55.38l-2.13,2.13l2.13,2.13l-0.01,57.51l0,6.91l7.26,0.36l2.13,2.12l2.12-2.13l206.38-8.29
				l6.55-0.26v-6.63V609.33l2.17-2.08l-2.08-2.17l0.68-16.57l0.36-3.04l0.47-3.19l0.57-3.17l0.67-3.17l0.76-3.1l0.86-3.1l0.95-3.07
				l1.04-3.04l1.14-3.01l1.23-2.97l1.32-2.93l1.41-2.89l1.51-2.87l1.57-2.77l1.66-2.75l1.75-2.7l1.9-2.75l2-2.71l2.05-2.61
				l2.14-2.57l2.21-2.5l2.28-2.44l2.37-2.38l2.41-2.28l2.49-2.22l2.55-2.14l2.61-2.07l2.68-1.99l2.73-1.9l2.79-1.82l2.84-1.74
				l2.98-1.71l5.98-3.44l-3.45-6.03l-3.06-5.36l-2.96-5.37l-2.88-5.41l-2.79-5.46l-2.71-5.5l-2.62-5.54l-2.54-5.58l-2.46-5.64
				l-3.37-8.01l-3.27-8.02l-3.18-8.06l-3.08-8.06l-3-8.13l-2.92-8.16l-2.83-8.19l-2.34-7.05l0.31-7.43l0.34-6.58l-9.42,1.33
				l-28.38,4.02l-28.36,3.77l-28.38,3.53l-28.42,3.28l-7.3,0.78l-14.71,1.39l-14.7,1.15l-14.73,0.91l-7.38,0.35l-4.58,0.22
				l-0.66-0.8l-5.16-6.26l-5.32,15.1l-38.85,110.21l-2.27,0l-0.01,29.57l-2.13,2.13l2.13,2.13l-0.01,55.38L567.83,604.17z
				 M812.29,622.83l50.09,106.59l-2.09,14.27l11.15-1.69l12.6-1.91l12.56-1.8l12.58-1.7l12.59-1.59l12.6-1.49l12.61-1.39l12.62-1.28
				l12.64-1.18l13.15-1.12l13.16-1.02l13.17-0.92l13.17-0.81l13.18-0.71l13.18-0.6l13.19-0.5l13.24-0.4l6.4-0.19l0.01-13.6
				l0.05-94.33l2.13-2.12l-2.12-2.13l0-4.95l2.13-2.12l-2.12-2.13l0.05-101.41l2.13-2.12l-2.12-2.13l0-4.95l2.13-2.12l-2.12-2.13
				l0-0.22l0.05-94.11l0-6.58l-4.37-0.21l-2.02-2.23l-2.23,2.02l-162.93-7.88l-6.97-0.34l-0.17,7.06l-2.98,122.32l-2.18,2.07
				l2.07,2.18l-0.19,7.76l-0.33,3.83l-0.5,3.88l-0.14,0.8l-2.47,1.71l1.71,2.47l-0.58,2.7l-0.97,3.78l-1.13,3.74l-1.29,3.69
				l-1.44,3.63l-1.59,3.56l-1.74,3.49l-1.88,3.42l-2.02,3.33l-2.16,3.24l-2.29,3.15l-2.42,3.05l-2.59,2.99l-3.1,3.32l-3.26,3.25
				l-3.38,3.13l-3.48,3l-3.59,2.87l-3.69,2.74l-3.78,2.6l-3.87,2.47l-3.96,2.32l-4.04,2.18l-4.11,2.03l-4.18,1.88l-4.25,1.72
				l-4.3,1.57l-4.36,1.41l-4.52,1.28l-7.79,2.21L812.29,622.83z M545.11,602.04l-0.01-55.38l2.13-2.13l-2.13-2.13l-0.01-29.57
				l-2.27,0l-38.85-110.21l-5.32-15.1l-5.16,6.26l-0.66,0.8l-4.58-0.22l-7.38-0.35l-14.73-0.91l-14.7-1.15l-14.71-1.39l-7.3-0.78
				l-28.42-3.28l-28.38-3.53l-28.36-3.77l-28.38-4.02l-9.42-1.33l0.34,6.58l0.31,7.43l-2.34,7.05l-2.83,8.19l-2.92,8.16l-3,8.13
				l-3.08,8.06l-3.18,8.06l-3.27,8.02l-3.37,8.01l-2.46,5.64l-2.54,5.58l-2.62,5.54l-2.71,5.5l-2.79,5.46l-2.88,5.41l-2.96,5.37
				l-3.06,5.36l-3.45,6.03l5.98,3.44l2.98,1.71l2.84,1.74l2.79,1.82l2.73,1.9l2.68,1.99l2.61,2.07l2.55,2.14l2.49,2.22l2.41,2.28
				l2.37,2.38l2.28,2.44l2.21,2.5l2.14,2.57l2.05,2.61l2,2.71l1.9,2.75l1.75,2.7l1.66,2.75l1.57,2.77l1.51,2.87l1.41,2.89l1.32,2.93
				l1.23,2.97l1.14,3.01l1.04,3.04l0.95,3.07l0.86,3.1l0.76,3.1l0.67,3.17l0.57,3.17l0.47,3.19l0.36,3.04l0.68,16.57l-2.08,2.17
				l2.17,2.08v106.18v6.63l6.55,0.26l206.38,8.29l2.12,2.13l2.13-2.12l7.26-0.36l0-6.91l-0.01-57.51l2.13-2.13l-2.13-2.13
				l-0.01-55.38l2.13-2.13L545.11,602.04z M840.23,133.62l-2.12,2.13l2.13,2.12l0,0l0,4.95l-2.12,2.13l2.13,2.12l0.05,101.41
				l-2.12,2.13l2.13,2.12l0,0.33l0,4.62l-2.12,2.13l2.13,2.12l0.05,94.33l0,7.26l7.16-0.37l59.79-3.06l8.75-0.45l0-6.44l0.01-57.68
				l2.13-2.13l-2.13-2.13l0.01-55.55l2.13-2.13l-2.13-2.13l0.01-50.11l0-1.47l0.09-1.2l0.19-1.43l0.22-1.15l0.11-0.36v0l2.81-1.07
				l-1.08-2.8l0.29-0.48l0.83-1.18l0.92-1.11l1-1.04l1.09-0.97l1.22-0.94l1.37-0.97l1.41-0.91l1.45-0.85l1.48-0.79l1.51-0.73
				l1.54-0.67l1.57-0.6l1.59-0.54l1.61-0.47l1.63-0.4l1.64-0.33l1.66-0.26l1.66-0.19l1.67-0.12l1.86-0.06l1.54-0.05l1.54-0.05
				l3.83-3.17l1.34-1.02l0.44-0.31l-2.61-7.02l-40.9-110.19l-5.93-15.98l-5.54,4.71l-6.39,0.13l-6.39,0.13l-17.51,0.2l-11.8,0.01
				l-9.43-0.12l-2.44-0.03l-6.99-0.09l0.01,13.89L840.23,133.62z M262.66,39.29l0.01-13.89l-6.99,0.09l-2.44,0.03l-9.43,0.12
				l-11.8-0.01l-17.51-0.2l-6.39-0.13l-6.39-0.13l-5.54-4.71l-5.93,15.98l-40.9,110.19l-2.61,7.02l0.44,0.31l1.34,1.02l3.83,3.17
				l1.54,0.05l1.54,0.05l1.86,0.06l1.67,0.12l1.66,0.19l1.66,0.26l1.64,0.33l1.63,0.4l1.61,0.47l1.59,0.54l1.57,0.6l1.54,0.67
				l1.51,0.73l1.48,0.79l1.45,0.85l1.41,0.91l1.37,0.97l1.22,0.94l1.09,0.97l1,1.04l0.92,1.11l0.83,1.18l0.29,0.48l-1.08,2.8
				l2.81,1.07v0l0.11,0.36l0.22,1.15l0.19,1.43l0.09,1.2l0,1.47l0.01,50.11l-2.13,2.13l2.13,2.13l0.01,55.55l-2.13,2.13l2.13,2.13
				l0.01,57.68l0,6.44l8.75,0.45l59.79,3.06l7.16,0.37l0-7.26l0.05-94.33l2.13-2.12l-2.12-2.13l0-4.62l0-0.33l2.13-2.12l-2.12-2.13
				l0.05-101.41l2.13-2.12l-2.12-2.13l0-4.95l0,0l2.13-2.12l-2.12-2.13L262.66,39.29z M140.74,336.33l-36.39,0l-2.13,2.13
				l-2.13-2.13l-36.81,0l-6.82,0l0-6.9l0-42.79l0-42.79l0-6.9l6.82,0l36.6,0l2.13-2.13l2.13,2.13l36.6,0h6.82l0,6.9l0,42.79l0,42.79
				l0,6.9L140.74,336.33z M826.78,73.41l0,39.11l0,39.11l0,6.9l-6.82,0l-266.41-0.02l-2.13,2.13l-2.13-2.13l-266.41,0.01l-6.82,0
				l0-6.9l0-39.11l0-39.11l0-6.9l6.82,0l266.41,0.02l2.13-2.13l2.13,2.13l266.41-0.01l6.82,0L826.78,73.41z M723.48,312.26l0-38.98
				l0-38.99l0-6.88l-6.82,0l-158.57,0l-2.13-2.13l-2.13,2.13h-2.42l-2.42,0l-2.13-2.13l-2.13,2.13h0l-158.57,0.02l-6.82,0l0,6.89
				l0,38.98l0,38.99l0,6.88l6.82,0l158.57,0l2.13,2.13l2.13-2.13l2.42,0l2.42,0l2.13,2.13l2.13-2.13l158.57-0.02l6.82,0
				L723.48,312.26z"/>
		</g>
</svg>