<?xml version="1.0" encoding="utf-8"?>
<svg version="1.1"
	 xmlns="http://www.w3.org/2000/svg" xmlns:xlink="http://www.w3.org/1999/xlink" x="0px" y="0px" width="1104.07px"
	 height="761.93px" viewBox="0 0 1104.07 761.93" enable-background="new 0 0 1104.07 761.93" xml:space="preserve">>
<g id="id:dominant" display="inline">

				<path id="id:SUB_SECOND_BODY_COLOR_00000183936669832315998930000003437867149283092648_" display="inline" fill="#005B9B" d="
				M840.18,39.29l-0.01-13.89l6.99,0.09l2.44,0.03l9.43,0.12l11.8-0.01l17.51-0.2l6.39-0.13l6.39-0.13l5.54-4.71l5.93,15.98
				l40.9,110.19l2.61,7.02l-0.44,0.31l-1.34,1.02l-3.83,3.17l-1.54,0.05l-1.54,0.05l-1.86,0.06l-1.67,0.12l-1.66,0.19l-1.66,0.26
				l-1.64,0.33l-1.63,0.4l-1.61,0.47l-1.59,0.54l-1.57,0.6l-1.54,0.67l-1.51,0.73l-1.48,0.79l-1.45,0.85l-1.41,0.91l-1.37,0.97
				l-1.22,0.94l-1.09,0.97l-1,1.04l-0.92,1.11l-0.83,1.18l-0.29,0.48l1.08,2.8l-2.81,1.07v0l-0.11,0.36l-0.22,1.15l-0.19,1.43
				l-0.09,1.2l0,1.47l-0.01,50.11l2.13,2.13l-2.13,2.13l-0.01,55.55l2.13,2.13l-2.13,2.13l-0.01,57.68l0,6.44l-8.75,0.45
				l-59.79,3.06l-7.16,0.37l0-7.26l-0.05-94.33l-2.13-2.12l2.12-2.13l0-4.62l0-0.33l-2.13-2.12l2.12-2.13l-0.05-101.41l-2.13-2.12
				l2.12-2.13l0-4.95l0,0l-2.13-2.12l2.12-2.13L840.18,39.29z M262.66,39.29l0.01-13.89l-6.99,0.09l-2.44,0.03l-9.43,0.12
				l-11.8-0.01l-17.51-0.2l-6.39-0.13l-6.39-0.13l-5.54-4.71l-5.93,15.98l-40.9,110.19l-2.61,7.02l0.44,0.31l1.34,1.02l3.83,3.17
				l1.54,0.05l1.54,0.05l1.86,0.06l1.67,0.12l1.66,0.19l1.66,0.26l1.64,0.33l1.63,0.4l1.61,0.47l1.59,0.54l1.57,0.6l1.54,0.67
				l1.51,0.73l1.48,0.79l1.45,0.85l1.41,0.91l1.37,0.97l1.22,0.94l1.09,0.97l1,1.04l0.92,1.11l0.83,1.18l0.29,0.48l-1.08,2.8
				l2.81,1.07v0l0.11,0.36l0.22,1.15l0.19,1.43l0.09,1.2l0,1.47l0.01,50.11l-2.13,2.13l2.13,2.13l0.01,55.55l-2.13,2.13l2.13,2.13
				l0.01,57.68l0,6.44l8.75,0.45l59.79,3.06l7.16,0.37l0-7.26l0.05-94.33l2.13-2.12l-2.12-2.13l0-4.62l0-0.33l2.13-2.12l-2.12-2.13
				l0.05-101.41l2.13-2.12l-2.12-2.13l0-4.95l0,0l2.13-2.12l-2.12-2.13L262.66,39.29z M140.74,336.33l-36.39,0l-2.13,2.13
				l-2.13-2.13l-36.81,0l-6.82,0l0-6.9l0-42.79l0-42.79l0-6.9l6.82,0l36.6,0l2.13-2.13l2.13,2.13l36.6,0h6.82l0,6.9l0,42.79l0,42.79
				l0,6.9L140.74,336.33z M826.78,73.41l0,39.11l0,39.11l0,6.9l-6.82,0l-266.41-0.02l-2.13,2.13l-2.13-2.13l-266.41,0.01l-6.82,0
				l0-6.9l0-39.11l0-39.11l0-6.9l6.82,0l266.41,0.02l2.13-2.13l2.13,2.13l266.41-0.01l6.82,0L826.78,73.41z M723.48,312.26l0-38.98
				l0-38.99l0-6.88l-6.82,0l-158.57,0l-2.13-2.13l-2.13,2.13h-2.42l-2.42,0l-2.13-2.13l-2.13,2.13h0l-158.57,0.02l-6.82,0l0,6.89
				l0,38.98l0,38.99l0,6.88l6.82,0l158.57,0l2.13,2.13l2.13-2.13l2.42,0l2.42,0l2.13,2.13l2.13-2.13l158.57-0.02l6.82,0
				L723.48,312.26z M567.83,604.17l2.13,2.13l-0.01,55.38l-2.13,2.13l2.13,2.13l-0.01,57.51l0,6.91l7.26,0.36l2.13,2.12l2.12-2.13
				l206.38-8.29l6.55-0.26v-6.63V609.33l2.17-2.08l-2.08-2.17l0.68-16.57l0.36-3.04l0.47-3.19l0.57-3.17l0.67-3.17l0.76-3.1
				l0.86-3.1l0.95-3.07l1.04-3.04l1.14-3.01l1.23-2.97l1.32-2.93l1.41-2.89l1.51-2.87l1.57-2.77l1.66-2.75l1.75-2.7l1.9-2.75l2-2.71
				l2.05-2.61l2.14-2.57l2.21-2.5l2.28-2.44l2.37-2.38l2.41-2.28l2.49-2.22l2.55-2.14l2.61-2.07l2.68-1.99l2.73-1.9l2.79-1.82
				l2.84-1.74l2.98-1.71l5.98-3.44l-3.45-6.03l-3.06-5.36l-2.96-5.37l-2.88-5.41l-2.79-5.46l-2.71-5.5l-2.62-5.54l-2.54-5.58
				l-2.46-5.64l-3.37-8.01l-3.27-8.02l-3.18-8.06l-3.08-8.06l-3-8.13l-2.92-8.16l-2.83-8.19l-2.34-7.05l0.31-7.43l0.34-6.58
				l-9.42,1.33l-28.38,4.02l-28.36,3.77l-28.38,3.53l-28.42,3.28l-7.3,0.78l-14.71,1.39l-14.7,1.15l-14.73,0.91l-7.38,0.35
				l-4.58,0.22l-0.66-0.8l-5.16-6.26l-5.32,15.1l-38.85,110.21l-2.27,0l-0.01,29.57l-2.13,2.13l2.13,2.13l-0.01,55.38L567.83,604.17
				z M808.81,615.43l7.79-2.21l4.52-1.28l4.36-1.41l4.3-1.57l4.25-1.72l4.18-1.88l4.11-2.03l4.04-2.18l3.96-2.32l3.87-2.47l3.78-2.6
				l3.69-2.74l3.59-2.87l3.48-3l3.38-3.13l3.26-3.25l3.1-3.32l2.59-2.99l2.42-3.05l2.29-3.15l2.16-3.24l2.02-3.33l1.88-3.42
				l1.74-3.49l1.59-3.56l1.44-3.63l1.29-3.69l1.13-3.74l0.97-3.78l0.58-2.7l-1.71-2.47l2.47-1.71l0.14-0.8l0.5-3.88l0.33-3.83
				l0.19-7.76l-2.07-2.18l2.18-2.07l2.98-122.32l0.17-7.06l6.97,0.34l162.93,7.88l2.23-2.02l2.02,2.23l4.37,0.21l0,6.58l-0.05,94.11
				l0,0.22l2.12,2.13l-2.13,2.12l0,4.95l2.12,2.13l-2.13,2.12l-0.05,101.41l2.12,2.13l-2.13,2.12l0,4.95l2.12,2.13l-2.13,2.12
				l-0.05,94.33l-0.01,13.6l-6.4,0.19l-13.24,0.4l-13.19,0.5l-13.18,0.6l-13.18,0.71l-13.17,0.81l-13.17,0.92l-13.16,1.02
				l-13.15,1.12l-12.64,1.18l-12.62,1.28l-12.61,1.39l-12.6,1.49l-12.59,1.59l-12.58,1.7l-12.56,1.8l-12.6,1.91l-11.15,1.69
				l2.09-14.27l-50.09-106.59L808.81,615.43z M294.47,615.86l-50.09,106.59l2.09,14.27l-11.15-1.69l-12.6-1.91l-12.56-1.8
				l-12.58-1.7l-12.59-1.59l-12.6-1.49l-12.61-1.39l-12.62-1.28l-12.64-1.18l-13.15-1.12l-13.16-1.02l-13.17-0.92l-13.17-0.81
				l-13.18-0.71l-13.18-0.6l-13.19-0.5l-13.24-0.4l-6.4-0.19l-0.01-13.6l-0.05-94.33l-2.13-2.12l2.12-2.13l0-4.95l-2.13-2.12
				l2.12-2.13l-0.05-101.41l-2.13-2.12l2.12-2.13l0-4.95l-2.13-2.12l2.12-2.13l0-0.22l-0.05-94.11l0-6.58l4.37-0.21l2.02-2.23
				l2.23,2.02l162.93-7.88l6.97-0.34l0.17,7.06l2.98,122.32l2.18,2.07l-2.07,2.18l0.19,7.76l0.33,3.83l0.5,3.88l0.14,0.8l2.47,1.71
				l-1.71,2.47l0.58,2.7l0.97,3.78l1.13,3.74l1.29,3.69l1.44,3.63l1.59,3.56l1.74,3.49l1.88,3.42l2.02,3.33l2.16,3.24l2.29,3.15
				l2.42,3.05l2.59,2.99l3.1,3.32l3.26,3.25l3.38,3.13l3.48,3l3.59,2.87l3.69,2.74l3.78,2.6l3.87,2.47l3.96,2.32l4.04,2.18
				l4.11,2.03l4.18,1.88l4.25,1.72l4.3,1.57l4.36,1.41l4.52,1.28l7.79,2.21L294.47,615.86z M547.24,604.17l-2.13,2.13l0.01,55.38
				l2.13,2.13l-2.13,2.13l0.01,57.51l0,6.91l-7.26,0.36l-2.13,2.12l-2.12-2.13l-206.38-8.29l-6.55-0.26v-6.63V609.33l-2.17-2.08
				l2.08-2.17l-0.68-16.57l-0.36-3.04l-0.47-3.19l-0.57-3.17l-0.67-3.17l-0.76-3.1l-0.86-3.1l-0.95-3.07l-1.04-3.04l-1.14-3.01
				l-1.23-2.97l-1.32-2.93l-1.41-2.89l-1.51-2.87l-1.57-2.77l-1.66-2.75l-1.75-2.7l-1.9-2.75l-2-2.71l-2.05-2.61l-2.14-2.57
				l-2.21-2.5l-2.28-2.44l-2.37-2.38l-2.41-2.28l-2.49-2.22l-2.55-2.14l-2.61-2.07l-2.68-1.99l-2.73-1.9l-2.79-1.82l-2.84-1.74
				l-2.98-1.71l-5.98-3.44l3.45-6.03l3.06-5.36l2.96-5.37l2.88-5.41l2.79-5.46l2.71-5.5l2.62-5.54l2.54-5.58l2.46-5.64l3.37-8.01
				l3.27-8.02l3.18-8.06l3.08-8.06l3-8.13l2.92-8.16l2.83-8.19l2.34-7.05l-0.31-7.43l-0.34-6.58l9.42,1.33l28.38,4.02l28.36,3.77
				l28.38,3.53l28.42,3.28l7.3,0.78l14.71,1.39l14.7,1.15l14.73,0.91l7.38,0.35l4.58,0.22l0.66-0.8l5.16-6.26l5.32,15.1
				l38.85,110.21l2.27,0l0.01,29.57l2.13,2.13l-2.13,2.13l0.01,55.38L547.24,604.17z"/>

				<path id="id:SUB_SECOND_ACCENT_1_00000049218044700294960120000008659950952375390122_" display="inline" fill="#68737A" d="
				M623.93,430.56l-23.07,1.09l10.23-29.02l5.32-15.1l5.16,6.26l0.66,0.8l4.58-0.22l7.38-0.35l14.73-0.91l14.7-1.15l14.71-1.39
				l7.3-0.78l28.42-3.28l28.38-3.53l28.36-3.77l28.38-4.02l9.42-1.33l-0.34,6.58l-0.31,7.43l2.34,7.05l2.83,8.19l2.2,6.15
				l-39.46,5.59c-0.1,0.01-0.2,0.03-0.3,0.04l-28.36,3.77c-0.1,0.01-0.2,0.03-0.3,0.04l-28.38,3.53c-0.1,0.01-0.2,0.02-0.3,0.04
				l-28.42,3.28c-0.1,0.01-0.2,0.02-0.3,0.03l-7.3,0.78c-0.15,0.02-0.29,0.03-0.44,0.04l-14.71,1.39c-0.2,0.02-0.39,0.04-0.59,0.05
				l-14.7,1.15c-0.2,0.02-0.39,0.03-0.59,0.04l-14.73,0.91c-0.17,0.01-0.33,0.02-0.5,0.03L623.93,430.56z M1063.07,688.01
				l-13.19,0.5c-0.09,0-0.19,0.01-0.28,0.01l-13.18,0.6c-0.09,0-0.19,0.01-0.28,0.01l-13.18,0.71c-0.09,0.01-0.19,0.01-0.28,0.02
				l-13.17,0.81c-0.09,0.01-0.19,0.01-0.28,0.02l-13.17,0.92c-0.09,0.01-0.19,0.01-0.28,0.02l-13.16,1.02
				c-0.09,0.01-0.19,0.01-0.28,0.02l-13.15,1.12c-0.1,0.01-0.19,0.02-0.29,0.03L956.26,695c-0.1,0.01-0.19,0.02-0.29,0.03
				l-12.62,1.28c-0.1,0.01-0.19,0.02-0.29,0.03l-12.61,1.39c-0.1,0.01-0.19,0.02-0.29,0.03l-12.6,1.49c-0.1,0.01-0.2,0.02-0.29,0.04
				l-12.59,1.59c-0.1,0.01-0.19,0.02-0.29,0.04l-12.58,1.7c-0.1,0.01-0.19,0.03-0.29,0.04l-12.56,1.8c-0.1,0.01-0.19,0.03-0.29,0.04
				l-26.13,3.96l9.85,20.96l-2.09,14.27l11.15-1.69l12.6-1.91l12.56-1.8l12.58-1.7l12.59-1.59l12.6-1.49l12.61-1.39l12.62-1.28
				l12.64-1.18l13.15-1.12l13.16-1.02l13.17-0.92l13.17-0.81l13.18-0.71l13.18-0.6l13.19-0.5l13.24-0.4l6.4-0.19l0.01-13.6
				l0.01-22.42l-20.75,0.63C1063.26,688,1063.17,688.01,1063.07,688.01z M916.06,181.36l0-1.47l0.09-1.2l0.19-1.43l0.22-1.15
				l0.11-0.36l0,0l2.81-1.07l-1.08-2.8l0.29-0.48l0.83-1.18l0.92-1.11l1-1.04l1.09-0.97l1.22-0.94l1.37-0.97l1.41-0.91l1.45-0.85
				l1.48-0.79l1.51-0.73l1.54-0.67l1.57-0.6l1.59-0.54l1.61-0.47l1.63-0.4l1.64-0.33l1.66-0.26l1.66-0.19l1.67-0.12l1.86-0.06
				l1.54-0.05l1.54-0.05l3.83-3.17l1.34-1.02l0.44-0.31l-2.61-7.02l-40.9-110.19l-5.93-15.98l-5.54,4.71l-6.39,0.13l-6.39,0.13
				l-17.51,0.2l-11.8,0.01l-9.43-0.12l-2.44-0.03l-6.99-0.09l0.01,13.89l0.05,94.33l-2.12,2.13l2.13,2.12l0,4.95l-2.12,2.13
				l2.13,2.12l0.04,79.65h75.78L916.06,181.36z M262.61,147.08l2.13-2.12l-2.12-2.13l0-4.95l2.13-2.12l-2.12-2.13l0.05-94.33
				l0.01-13.89l-6.99,0.09l-2.44,0.03l-9.43,0.12l-11.8-0.01l-17.51-0.2l-6.39-0.13l-6.39-0.13l-5.54-4.71l-5.93,15.98l-40.9,110.19
				l-2.61,7.02l0.44,0.31l1.34,1.02l3.83,3.17l1.54,0.05l1.54,0.05l1.86,0.06l1.67,0.12l1.66,0.19l1.66,0.26l1.64,0.33l1.63,0.4
				l1.61,0.47l1.59,0.54l1.57,0.6l1.54,0.67l1.51,0.73l1.48,0.79l1.45,0.85l1.41,0.91l1.37,0.97l1.22,0.94l1.09,0.97l1,1.04
				l0.92,1.11l0.83,1.18l0.29,0.48l-1.08,2.8l2.81,1.07l0,0l0.11,0.36l0.22,1.15l0.19,1.43l0.09,1.2l0,1.47l0,45.36h75.78
				L262.61,147.08z M339.52,414.91l28.36,3.77c0.1,0.01,0.2,0.03,0.3,0.04l28.38,3.53c0.1,0.01,0.2,0.02,0.3,0.04l28.42,3.28
				c0.1,0.01,0.2,0.02,0.3,0.03l7.3,0.78c0.15,0.02,0.29,0.03,0.44,0.04l14.71,1.39c0.2,0.02,0.39,0.04,0.59,0.05l14.7,1.15
				c0.2,0.02,0.39,0.03,0.59,0.04l14.73,0.91c0.17,0.01,0.33,0.02,0.5,0.03l11.98,0.57l23.07,1.09l-10.23-29.02l-5.32-15.1
				l-5.16,6.26l-0.66,0.8l-4.58-0.22l-7.38-0.35l-14.73-0.91l-14.7-1.15l-14.71-1.39l-7.3-0.78l-28.42-3.28l-28.38-3.53l-28.36-3.77
				l-28.38-4.02l-9.42-1.33l0.34,6.58l0.31,7.43l-2.34,7.05l-2.83,8.19l-2.2,6.15l39.46,5.59
				C339.32,414.88,339.42,414.89,339.52,414.91z M227.82,697.48l-12.56-1.8c-0.1-0.01-0.19-0.03-0.29-0.04l-12.58-1.7
				c-0.1-0.01-0.19-0.03-0.29-0.04l-12.59-1.59c-0.1-0.01-0.2-0.02-0.29-0.04l-12.6-1.49c-0.1-0.01-0.19-0.02-0.29-0.03l-12.61-1.39
				c-0.1-0.01-0.19-0.02-0.29-0.03l-12.62-1.28c-0.1-0.01-0.19-0.02-0.29-0.03l-12.64-1.18c-0.1-0.01-0.19-0.02-0.29-0.03
				l-13.15-1.12c-0.09-0.01-0.19-0.02-0.28-0.02l-13.16-1.02c-0.09-0.01-0.19-0.01-0.28-0.02l-13.17-0.92
				c-0.09-0.01-0.19-0.01-0.28-0.02l-13.17-0.81c-0.09-0.01-0.19-0.01-0.28-0.02l-13.18-0.71c-0.09-0.01-0.19-0.01-0.28-0.01
				l-13.18-0.6c-0.09,0-0.19-0.01-0.28-0.01l-13.19-0.5c-0.09,0-0.19-0.01-0.28-0.01l-20.75-0.63l0.01,22.42l0.01,13.6l6.4,0.19
				l13.24,0.4l13.19,0.5l13.18,0.6l13.18,0.71l13.17,0.81l13.17,0.92l13.16,1.02l13.15,1.12l12.64,1.18l12.62,1.28l12.61,1.39
				l12.6,1.49l12.59,1.59l12.58,1.7l12.56,1.8l12.6,1.91l11.15,1.69l-2.09-14.27l9.85-20.96l-26.13-3.96
				C228.01,697.51,227.91,697.5,227.82,697.48z"/>

				<path id="id:SUB_SECOND_ACCENT_2_00000048488423625056907420000016852116653818304407_" display="inline" fill="#F1582A" d="
				M630.64,475.3l-45.93,2.18l8.08-22.91l36.79-1.74c0.01,0,0.02,0,0.03,0l7.38-0.35c0.27-0.01,0.54-0.03,0.81-0.04l14.73-0.91
				c0.32-0.02,0.64-0.04,0.96-0.07l14.7-1.15c0.32-0.02,0.64-0.05,0.95-0.08l14.71-1.39c0.24-0.02,0.48-0.05,0.72-0.07l7.3-0.78
				c0.16-0.02,0.32-0.04,0.49-0.05l28.42-3.28c0.17-0.02,0.33-0.04,0.5-0.06l28.38-3.53c0.17-0.02,0.33-0.04,0.5-0.06l28.36-3.77
				c0.16-0.02,0.33-0.04,0.49-0.07l44.44-6.29l1.85,4.69l3.27,8.02l3.37,8.01l0.33,0.76l-50.1,7.09c-0.23,0.03-0.46,0.06-0.68,0.09
				l-28.36,3.77c-0.23,0.03-0.46,0.06-0.69,0.09l-28.38,3.53c-0.23,0.03-0.46,0.06-0.69,0.08l-28.42,3.28
				c-0.22,0.03-0.45,0.05-0.67,0.07l-7.3,0.78c-0.33,0.04-0.66,0.07-0.99,0.1l-14.71,1.39c-0.44,0.04-0.88,0.08-1.32,0.11
				l-14.7,1.15c-0.44,0.03-0.88,0.07-1.32,0.09l-14.73,0.91c-0.37,0.02-0.75,0.04-1.12,0.06l-7.38,0.35
				C630.66,475.3,630.65,475.3,630.64,475.3z M1061.36,643.04l-13.19,0.5c-0.21,0.01-0.42,0.02-0.63,0.03l-13.18,0.6
				c-0.21,0.01-0.43,0.02-0.64,0.03l-13.18,0.71c-0.21,0.01-0.42,0.02-0.63,0.04l-13.17,0.81c-0.21,0.01-0.42,0.03-0.64,0.04
				l-13.17,0.92c-0.21,0.01-0.42,0.03-0.63,0.05l-13.16,1.02c-0.21,0.02-0.42,0.03-0.64,0.05l-13.15,1.12
				c-0.22,0.02-0.43,0.04-0.65,0.06l-12.64,1.18c-0.22,0.02-0.44,0.04-0.66,0.06l-12.62,1.28c-0.22,0.02-0.44,0.05-0.66,0.07
				L925.52,653c-0.22,0.02-0.44,0.05-0.66,0.07l-12.6,1.49c-0.22,0.03-0.44,0.05-0.66,0.08l-12.59,1.59
				c-0.22,0.03-0.44,0.06-0.65,0.09l-12.58,1.7c-0.22,0.03-0.44,0.06-0.65,0.09l-12.56,1.8c-0.22,0.03-0.44,0.06-0.65,0.1
				l-39.36,5.96l9.98,21.24l32.74-4.96c0.16-0.02,0.31-0.05,0.47-0.07l12.56-1.8c0.16-0.02,0.31-0.04,0.47-0.07l12.58-1.7
				c0.16-0.02,0.32-0.04,0.47-0.06l12.59-1.59c0.16-0.02,0.32-0.04,0.48-0.06l12.6-1.49c0.16-0.02,0.32-0.04,0.47-0.05l12.61-1.39
				c0.16-0.02,0.32-0.03,0.47-0.05l12.62-1.28c0.16-0.02,0.32-0.03,0.47-0.05l12.64-1.18c0.16-0.01,0.31-0.03,0.47-0.04l13.15-1.12
				c0.15-0.01,0.31-0.03,0.46-0.04l13.16-1.02c0.15-0.01,0.31-0.02,0.46-0.03l13.17-0.92c0.15-0.01,0.31-0.02,0.46-0.03l13.17-0.81
				c0.15-0.01,0.31-0.02,0.46-0.03l13.18-0.71c0.15-0.01,0.31-0.02,0.46-0.02l13.18-0.6c0.15-0.01,0.31-0.01,0.46-0.02l13.19-0.5
				c0.15-0.01,0.31-0.01,0.46-0.02l21.44-0.65l0.01-22.51l-22.13,0.67C1061.79,643.03,1061.58,643.03,1061.36,643.04z
				 M916.05,249.22h-76.51l-1.38,1.39l2.13,2.12l0,0.33l0,4.62l-2.12,2.13l2.13,2.12l0,9.79h75.75L916.05,249.22z M262.55,271.72
				l0-9.79l2.13-2.12l-2.12-2.13l0-4.62l0-0.33l2.13-2.12l-1.38-1.39h-76.51l0,22.5H262.55z M522.28,454.56l-36.79-1.74
				c-0.01,0-0.02,0-0.03,0l-7.38-0.35c-0.27-0.01-0.54-0.03-0.81-0.04l-14.73-0.91c-0.32-0.02-0.64-0.04-0.96-0.07l-14.7-1.15
				c-0.32-0.02-0.64-0.05-0.95-0.08l-14.71-1.39c-0.24-0.02-0.48-0.05-0.72-0.07l-7.3-0.78c-0.16-0.02-0.32-0.04-0.49-0.05
				l-28.42-3.28c-0.17-0.02-0.33-0.04-0.5-0.06l-28.38-3.53c-0.17-0.02-0.33-0.04-0.5-0.06l-28.36-3.77
				c-0.16-0.02-0.33-0.04-0.49-0.07l-44.44-6.29l-1.85,4.69l-3.27,8.02l-3.37,8.01l-0.33,0.76l50.1,7.09
				c0.23,0.03,0.46,0.06,0.68,0.09l28.36,3.77c0.23,0.03,0.46,0.06,0.69,0.09l28.38,3.53c0.23,0.03,0.46,0.06,0.69,0.08l28.42,3.28
				c0.22,0.03,0.45,0.05,0.67,0.07l7.3,0.78c0.33,0.04,0.66,0.07,0.99,0.1l14.71,1.39c0.44,0.04,0.88,0.08,1.32,0.11l14.7,1.15
				c0.44,0.03,0.88,0.07,1.32,0.09l14.73,0.91c0.37,0.02,0.75,0.04,1.12,0.06l7.38,0.35c0.01,0,0.02,0,0.04,0l45.93,2.18
				L522.28,454.56z M234.19,652.94l-12.56-1.8c-0.22-0.03-0.44-0.06-0.65-0.09l-12.58-1.7c-0.22-0.03-0.44-0.06-0.65-0.09
				l-12.59-1.59c-0.22-0.03-0.44-0.05-0.66-0.08l-12.6-1.49c-0.22-0.03-0.44-0.05-0.66-0.07l-12.61-1.39
				c-0.22-0.02-0.44-0.05-0.66-0.07l-12.62-1.28c-0.22-0.02-0.44-0.04-0.66-0.06l-12.64-1.18c-0.22-0.02-0.43-0.04-0.65-0.06
				l-13.15-1.12c-0.21-0.02-0.42-0.04-0.64-0.05l-13.16-1.02c-0.21-0.02-0.42-0.03-0.63-0.05l-13.17-0.92
				c-0.21-0.01-0.42-0.03-0.64-0.04l-13.17-0.81c-0.21-0.01-0.42-0.03-0.63-0.04l-13.18-0.71c-0.21-0.01-0.43-0.02-0.64-0.03
				l-13.18-0.6c-0.21-0.01-0.42-0.02-0.63-0.03l-13.19-0.5c-0.21-0.01-0.42-0.02-0.64-0.02l-22.13-0.67l0.01,22.51l21.44,0.65
				c0.15,0,0.31,0.01,0.46,0.02l13.19,0.5c0.15,0.01,0.31,0.01,0.46,0.02l13.18,0.6c0.15,0.01,0.31,0.01,0.46,0.02l13.18,0.71
				c0.15,0.01,0.31,0.02,0.46,0.03l13.17,0.81c0.15,0.01,0.31,0.02,0.46,0.03l13.17,0.92c0.15,0.01,0.31,0.02,0.46,0.03l13.16,1.02
				c0.15,0.01,0.31,0.02,0.46,0.04l13.15,1.12c0.16,0.01,0.31,0.03,0.47,0.04l12.64,1.18c0.16,0.01,0.32,0.03,0.47,0.05l12.62,1.28
				c0.16,0.02,0.32,0.03,0.47,0.05l12.61,1.39c0.16,0.02,0.32,0.04,0.47,0.05l12.6,1.49c0.16,0.02,0.32,0.04,0.48,0.06l12.59,1.59
				c0.16,0.02,0.32,0.04,0.47,0.06l12.58,1.7c0.16,0.02,0.31,0.04,0.47,0.07l12.56,1.8c0.16,0.02,0.31,0.05,0.47,0.07l32.74,4.96
				L274.2,659l-39.36-5.96C234.63,653,234.41,652.97,234.19,652.94z"/>
		</g>
</svg>