<?xml version="1.0" encoding="utf-8"?>
<svg version="1.1"
	 xmlns="http://www.w3.org/2000/svg" xmlns:xlink="http://www.w3.org/1999/xlink" x="0px" y="0px" width="1104.07px"
	 height="761.93px" viewBox="0 0 1104.07 761.93" enable-background="new 0 0 1104.07 761.93" xml:space="preserve">>
<g id="id:hardwood_pinstripe" display="inline">

				<path id="id:SUB_SECOND_BODY_COLOR_00000128482417017255128750000013232006726983933826_" display="inline" fill="#005B9B" d="
				M840.18,39.29l-0.01-13.89l6.99,0.09l2.44,0.03l9.43,0.12l11.8-0.01l17.51-0.2l6.39-0.13l6.39-0.13l5.54-4.71l5.93,15.98
				l40.9,110.19l2.61,7.02l-0.44,0.31l-1.34,1.02l-3.83,3.17l-1.54,0.05l-1.54,0.05l-1.86,0.06l-1.67,0.12l-1.66,0.19l-1.66,0.26
				l-1.64,0.33l-1.63,0.4l-1.61,0.47l-1.59,0.54l-1.57,0.6l-1.54,0.67l-1.51,0.73l-1.48,0.79l-1.45,0.85l-1.41,0.91l-1.37,0.97
				l-1.22,0.94l-1.09,0.97l-1,1.04l-0.92,1.11l-0.83,1.18l-0.29,0.48l1.08,2.8l-2.81,1.07v0l-0.11,0.36l-0.22,1.15l-0.19,1.43
				l-0.09,1.2l0,1.47l-0.01,50.11l2.13,2.13l-2.13,2.13l-0.01,55.55l2.13,2.13l-2.13,2.13l-0.01,57.68l0,6.44l-8.75,0.45
				l-59.79,3.06l-7.16,0.37l0-7.26l-0.05-94.33l-2.13-2.12l2.12-2.13l0-4.62l0-0.33l-2.13-2.12l2.12-2.13l-0.05-101.41l-2.13-2.12
				l2.12-2.13l0-4.95l0,0l-2.13-2.12l2.12-2.13L840.18,39.29z M262.66,39.29l0.01-13.89l-6.99,0.09l-2.44,0.03l-9.43,0.12
				l-11.8-0.01l-17.51-0.2l-6.39-0.13l-6.39-0.13l-5.54-4.71l-5.93,15.98l-40.9,110.19l-2.61,7.02l0.44,0.31l1.34,1.02l3.83,3.17
				l1.54,0.05l1.54,0.05l1.86,0.06l1.67,0.12l1.66,0.19l1.66,0.26l1.64,0.33l1.63,0.4l1.61,0.47l1.59,0.54l1.57,0.6l1.54,0.67
				l1.51,0.73l1.48,0.79l1.45,0.85l1.41,0.91l1.37,0.97l1.22,0.94l1.09,0.97l1,1.04l0.92,1.11l0.83,1.18l0.29,0.48l-1.08,2.8
				l2.81,1.07v0l0.11,0.36l0.22,1.15l0.19,1.43l0.09,1.2l0,1.47l0.01,50.11l-2.13,2.13l2.13,2.13l0.01,55.55l-2.13,2.13l2.13,2.13
				l0.01,57.68l0,6.44l8.75,0.45l59.79,3.06l7.16,0.37l0-7.26l0.05-94.33l2.13-2.12l-2.12-2.13l0-4.62l0-0.33l2.13-2.12l-2.12-2.13
				l0.05-101.41l2.13-2.12l-2.12-2.13l0-4.95l0,0l2.13-2.12l-2.12-2.13L262.66,39.29z M140.74,336.33l-36.39,0l-2.13,2.13
				l-2.13-2.13l-36.81,0l-6.82,0l0-6.9l0-42.79l0-42.79l0-6.9l6.82,0l36.6,0l2.13-2.13l2.13,2.13l36.6,0h6.82l0,6.9l0,42.79l0,42.79
				l0,6.9L140.74,336.33z M826.78,73.41l0,39.11l0,39.11l0,6.9l-6.82,0l-266.41-0.02l-2.13,2.13l-2.13-2.13l-266.41,0.01l-6.82,0
				l0-6.9l0-39.11l0-39.11l0-6.9l6.82,0l266.41,0.02l2.13-2.13l2.13,2.13l266.41-0.01l6.82,0L826.78,73.41z M723.48,312.26l0-38.98
				l0-38.99l0-6.88l-6.82,0l-158.57,0l-2.13-2.13l-2.13,2.13h-2.42l-2.42,0l-2.13-2.13l-2.13,2.13h0l-158.57,0.02l-6.82,0l0,6.89
				l0,38.98l0,38.99l0,6.88l6.82,0l158.57,0l2.13,2.13l2.13-2.13l2.42,0l2.42,0l2.13,2.13l2.13-2.13l158.57-0.02l6.82,0
				L723.48,312.26z M297.95,608.46l-7.79-2.21l-4.52-1.28l-4.36-1.41l-4.3-1.57l-4.25-1.72l-4.18-1.88l-4.11-2.03l-4.04-2.18
				l-3.96-2.32l-3.87-2.47l-3.78-2.6l-3.69-2.74l-3.59-2.87l-3.48-3l-3.38-3.13l-3.26-3.25l-3.1-3.32l-2.59-2.99l-2.42-3.05
				l-2.29-3.15l-2.16-3.24l-2.02-3.33l-1.88-3.42l-1.74-3.49l-1.59-3.56l-1.44-3.63l-1.29-3.69l-1.13-3.74l-0.97-3.78l-0.58-2.7
				l1.71-2.47l-2.47-1.71l-0.14-0.8l-0.5-3.88l-0.33-3.83l-0.19-7.76l2.07-2.18l-2.18-2.07l-2.98-122.32l-0.17-7.06l-6.97,0.34
				l-162.93,7.88l-2.23-2.02l-2.02,2.23l-4.37,0.21l0,6.58l0.05,94.11l0,0.22l-2.12,2.13l2.13,2.12l0,4.95l-2.12,2.13l2.13,2.12
				l0.05,101.41l-2.12,2.13l2.13,2.12l0,4.95l-2.12,2.13l2.13,2.12l0.05,94.33l0.01,13.6l6.4,0.19l13.24,0.4l13.19,0.5l13.18,0.6
				l13.18,0.71l13.17,0.81l13.17,0.92l13.16,1.02l13.15,1.12l12.64,1.18l12.62,1.28l12.61,1.39l12.6,1.49l12.59,1.59l12.58,1.7
				l12.56,1.8l12.6,1.91l11.15,1.69l-2.09-14.27l50.09-106.59L297.95,608.46z M569.96,602.04l0.01-55.38l-2.13-2.13l2.13-2.13
				l0.01-29.57l2.27,0l38.85-110.21l5.32-15.1l5.16,6.26l0.66,0.8l4.58-0.22l7.38-0.35l14.73-0.91l14.7-1.15l14.71-1.39l7.3-0.78
				l28.42-3.28l28.38-3.53l28.36-3.77l28.38-4.02l9.42-1.33l-0.34,6.58l-0.31,7.43l2.34,7.05l2.83,8.19l2.92,8.16l3,8.13l3.08,8.06
				l3.18,8.06l3.27,8.02l3.37,8.01l2.46,5.64l2.54,5.58l2.62,5.54l2.71,5.5l2.79,5.46l2.88,5.41l2.96,5.37l3.06,5.36l3.45,6.03
				l-5.98,3.44l-2.98,1.71l-2.84,1.74l-2.79,1.82l-2.73,1.9l-2.68,1.99l-2.61,2.07l-2.55,2.14l-2.49,2.22l-2.41,2.28l-2.37,2.38
				l-2.28,2.44l-2.21,2.5l-2.14,2.57l-2.05,2.61l-2,2.71l-1.9,2.75l-1.75,2.7l-1.66,2.75l-1.57,2.77l-1.51,2.87l-1.41,2.89
				l-1.32,2.93l-1.23,2.97l-1.14,3.01l-1.04,3.04l-0.95,3.07l-0.86,3.1l-0.76,3.1l-0.67,3.17l-0.57,3.17l-0.47,3.19l-0.36,3.04
				l-0.68,16.57l2.08,2.17l-2.17,2.08v106.18v6.63l-6.55,0.26l-206.38,8.29l-2.12,2.13l-2.13-2.12l-7.26-0.36l0-6.91l0.01-57.51
				l-2.13-2.13l2.13-2.13l0.01-55.38l-2.13-2.13L569.96,602.04z M808.81,615.43l7.79-2.21l4.52-1.28l4.36-1.41l4.3-1.57l4.25-1.72
				l4.18-1.88l4.11-2.03l4.04-2.18l3.96-2.32l3.87-2.47l3.78-2.6l3.69-2.74l3.59-2.87l3.48-3l3.38-3.13l3.26-3.25l3.1-3.32
				l2.59-2.99l2.42-3.05l2.29-3.15l2.16-3.24l2.02-3.33l1.88-3.42l1.74-3.49l1.59-3.56l1.44-3.63l1.29-3.69l1.13-3.74l0.97-3.78
				l0.58-2.7l-1.71-2.47l2.47-1.71l0.14-0.8l0.5-3.88l0.33-3.83l0.19-7.76l-2.07-2.18l2.18-2.07l2.98-122.32l0.17-7.06l6.97,0.34
				l162.93,7.88l2.23-2.02l2.02,2.23l4.37,0.21l0,6.58l-0.05,94.11l0,0.22l2.12,2.13l-2.13,2.12l0,4.95l2.12,2.13l-2.13,2.12
				l-0.05,101.41l2.12,2.13l-2.13,2.12l0,4.95l2.12,2.13l-2.13,2.12l-0.05,94.33l-0.01,13.6l-6.4,0.19l-13.24,0.4l-13.19,0.5
				l-13.18,0.6l-13.18,0.71l-13.17,0.81l-13.17,0.92l-13.16,1.02l-13.15,1.12l-12.64,1.18l-12.62,1.28l-12.61,1.39l-12.6,1.49
				l-12.59,1.59l-12.58,1.7l-12.56,1.8l-12.6,1.91l-11.15,1.69l2.09-14.27l-50.09-106.59L808.81,615.43z M547.24,604.17l-2.13,2.13
				l0.01,55.38l2.13,2.13l-2.13,2.13l0.01,57.51l0,6.91l-7.26,0.36l-2.13,2.12l-2.12-2.13l-206.38-8.29l-6.55-0.26v-6.63V609.33
				l-2.17-2.08l2.08-2.17l-0.68-16.57l-0.36-3.04l-0.47-3.19l-0.57-3.17l-0.67-3.17l-0.76-3.1l-0.86-3.1l-0.95-3.07l-1.04-3.04
				l-1.14-3.01l-1.23-2.97l-1.32-2.93l-1.41-2.89l-1.51-2.87l-1.57-2.77l-1.66-2.75l-1.75-2.7l-1.9-2.75l-2-2.71l-2.05-2.61
				l-2.14-2.57l-2.21-2.5l-2.28-2.44l-2.37-2.38l-2.41-2.28l-2.49-2.22l-2.55-2.14l-2.61-2.07l-2.68-1.99l-2.73-1.9l-2.79-1.82
				l-2.84-1.74l-2.98-1.71l-5.98-3.44l3.45-6.03l3.06-5.36l2.96-5.37l2.88-5.41l2.79-5.46l2.71-5.5l2.62-5.54l2.54-5.58l2.46-5.64
				l3.37-8.01l3.27-8.02l3.18-8.06l3.08-8.06l3-8.13l2.92-8.16l2.83-8.19l2.34-7.05l-0.31-7.43l-0.34-6.58l9.42,1.33l28.38,4.02
				l28.36,3.77l28.38,3.53l28.42,3.28l7.3,0.78l14.71,1.39l14.7,1.15l14.73,0.91l7.38,0.35l4.58,0.22l0.66-0.8l5.16-6.26l5.32,15.1
				l38.85,110.21l2.27,0l0.01,29.57l2.13,2.13l-2.13,2.13l0.01,55.38L547.24,604.17z"/>

				<path id="id:SUB_SECOND_ACCENT_1_00000136398454582950103450000013351978621520371362_" display="inline" fill="#68737A" d="
				M899.79,360.48l-43.22,2.21V25.6l2.47,0.03l11.8-0.01l17.51-0.2l6.39-0.13l5.06-0.1V360.48z M203.06,360.48l43.22,2.21V25.6
				l-2.47,0.03l-11.8-0.01l-17.51-0.2l-6.39-0.13l-5.06-0.1V360.48z M273.54,660.41l1.98-4.21v-54.8l-1.98-0.8V660.41z
				 M296.57,611.4l1.38-2.94l-1.38-0.39V611.4z M181.42,727.61l1.98,0.23V371.48l-1.98,0.1V727.61z M204.45,500.27v3.82l1.91-2
				L204.45,500.27z M206.43,525.82l-0.24-1.12l0.24-0.34v-3.15l-1-0.69l-0.14-0.8l-0.5-3.88l-0.33-3.83l-0.02-0.86v219.4l1.98,0.27
				V525.82z M227.48,567.56v166.28l1.98,0.3V569.75l-1.18-1.26L227.48,567.56z M250.51,709.42l1.98-4.21V589.34l-1.98-1.36V709.42z
				 M158.39,725.02l1.38,0.14l0.6,0.07V372.59l-1.98,0.1V725.02z M135.36,722.77l1.98,0.19V373.71l-1.98,0.1V722.77z M112.33,720.87
				l1.98,0.15V374.82l-1.98,0.1V720.87z M89.3,719.29l1.98,0.12V375.93l-1.98,0.1V719.29z M22.19,484.06v-3.53l-1.76,1.76
				L22.19,484.06z M20.43,491.5l1.76,1.76v-3.52L20.43,491.5z M22.19,598.87v-3.41l-1.71,1.71L22.19,598.87z M22.19,604.66l-1.7,1.7
				l1.7,1.7V604.66z M43.24,717.05l1.98,0.08V378.16l-1.98,0.1V717.05z M66.27,718.01l1.98,0.09V377.05l-1.98,0.1V718.01z
				 M613.67,729.4l1.98-0.08V389.7l-1.98,5.62V729.4z M590.64,730.33l1.98-0.08V455.03l-1.98,5.62V730.33z M569.59,546.28v-3.5
				l-1.75,1.75L569.59,546.28z M569.59,605.93v-3.52l-1.76,1.76L569.59,605.93z M569.59,662.03l-1.77,1.77l1.77,1.77V662.03z
				 M636.7,728.48l1.98-0.08V393.76l-1.98,0.12V728.48z M659.73,727.55l1.98-0.08V392.13l-1.98,0.15V727.55z M682.76,726.63
				l1.98-0.08V389.9l-1.98,0.21V726.63z M705.79,725.7l1.98-0.08V387.24l-1.98,0.23V725.7z M774.88,722.93l1.98-0.08V378.36
				l-1.98,0.28V722.93z M751.85,723.85l1.98-0.08v-342.3l-1.98,0.26V723.85z M728.82,724.78l1.98-0.08V384.44l-1.98,0.25V724.78z
				 M843.97,477.16v32.25l1.64-1.07l0.34-0.21v-27.16l-0.89-1.68L843.97,477.16z M820.94,529.57l1.76-1.99l0.22-0.24v-97.82
				l-0.81-2.04l-1.17-3.07V529.57z M799.89,375.1l-0.71,0.1l-1.27,0.18v197.75l0.07-0.29l0.86-3.1l0.95-3.07l0.1-0.3V375.1z
				 M831.24,663.17l1.98,4.21v-59.82l-1.98,0.8V663.17z M810.19,615.04l-1.38,0.39l1.38,2.94V615.04z M923.36,734.82l1.98-0.23
				V378.55l-1.98-0.1V734.82z M902.31,511.05v-3.82l-1.91,1.81L902.31,511.05z M902.31,518.13l-0.02,0.86l-0.33,3.83l-0.5,3.88
				l-0.14,0.8l-1,0.69v3.15l0.24,0.34l-0.24,1.12v205l1.98-0.27V518.13z M877.3,576.72v164.39l1.98-0.3V574.53l-0.8,0.92
				L877.3,576.72z M854.27,712.17l1.98,4.21V594.95l-1.98,1.36V712.17z M946.39,732.2l0.6-0.07l1.38-0.14V379.66l-1.98-0.1V732.2z
				 M969.42,729.93l1.98-0.18V380.77l-1.98-0.1V729.93z M992.45,728l1.98-0.15V381.89l-1.98-0.1V728z M1015.48,726.38l1.98-0.12V383
				l-1.98-0.1V726.38z M1084.57,611.63v3.4l1.7-1.7L1084.57,611.63z M1084.57,491.03l1.76-1.76l-1.76-1.76V491.03z M1084.57,602.43
				v3.41l1.71-1.7L1084.57,602.43z M1084.57,496.71v3.52l1.76-1.76L1084.57,496.71z M1061.54,724.09l1.98-0.08V385.23l-1.98-0.1
				V724.09z M1038.51,725.07l1.98-0.09V384.11l-1.98-0.1V725.07z M499.42,729.32l1.98,0.08V395.32l-1.98-5.62V729.32z
				 M522.45,730.25l1.98,0.08V460.64l-1.98-5.62V730.25z M545.48,602.41v3.52l1.76-1.76L545.48,602.41z M545.48,662.03v3.54
				l1.77-1.77L545.48,662.03z M545.48,546.28l1.75-1.75l-1.75-1.75V546.28z M476.39,728.4l1.98,0.08v-334.6l-1.98-0.12V728.4z
				 M453.36,727.47l1.98,0.08V392.28l-1.98-0.15V727.47z M430.33,726.55l1.98,0.08V390.11l-1.98-0.21V726.55z M407.3,725.62
				l1.98,0.08V387.47l-1.98-0.23V725.62z M338.21,722.85l1.98,0.08V378.65l-1.98-0.28V722.85z M361.24,723.77l1.98,0.08V381.74
				l-1.98-0.26V723.77z M384.27,724.7l1.98,0.08v-340.1l-1.98-0.25V724.7z M269.12,508.13l0.34,0.21l1.64,1.07v-32.25l-1.09,2.12
				l-0.89,1.68V508.13z M292.15,527.35l0.22,0.24l1.76,1.99V424.41l-1.17,3.07l-0.81,2.04V527.35z M317.16,375.38l-1.27-0.18
				l-0.71-0.1v191.26l0.1,0.3l0.95,3.07l0.86,3.1l0.07,0.29V375.38z"/>

				<path id="id:SUB_SECOND_ACCENT_2_00000123441267718258756840000011755483085634530731_" display="inline" fill="#F1582A" d="
				M906.65,20.45l2.13,5.75v333.82l-1.49,0.08l-3.01,0.15V22.46L906.65,20.45z M847.56,25.49v337.66l4.5-0.23V25.55l-2.46-0.03
				L847.56,25.49z M194.06,26.19v333.82l1.49,0.08l3.01,0.15V22.46l-2.37-2.01L194.06,26.19z M255.28,25.49l-2.04,0.02l-2.46,0.03
				v337.38l4.5,0.23V25.49z"/>
		</g>
</svg>