<?xml version="1.0" encoding="utf-8"?>
<svg version="1.1"
	 xmlns="http://www.w3.org/2000/svg" xmlns:xlink="http://www.w3.org/1999/xlink" x="0px" y="0px" width="1104.07px"
	 height="761.93px" viewBox="0 0 1104.07 761.93" enable-background="new 0 0 1104.07 761.93" xml:space="preserve">>
<g id="id:indiana" display="inline">

				<path id="id:SUB_SECOND_BODY_COLOR_00000016761038251155368740000005871062555990181311_" display="inline" fill="#005B9B" d="
				M294.48,615.86l-50.09,106.59l2.09,14.27l-11.15-1.69l-12.6-1.91l-12.56-1.8l-12.58-1.7l-12.59-1.59l-12.6-1.49l-12.61-1.39
				l-12.62-1.28l-12.64-1.18l-13.15-1.12l-13.16-1.02l-13.17-0.92l-13.17-0.81l-13.18-0.71l-13.18-0.6l-13.19-0.5l-13.24-0.4
				l-6.4-0.19l-0.01-13.6l-0.05-94.33l-2.13-2.12l2.12-2.13l0-4.95l-2.13-2.12l2.12-2.13l-0.05-101.41l-2.13-2.12l2.12-2.13l0-4.95
				l-2.13-2.12l2.12-2.13l0-0.22l-0.05-94.11l0-6.58l4.37-0.21l2.02-2.23l2.23,2.02l162.93-7.88l6.97-0.34l0.17,7.06l2.98,122.32
				l2.18,2.07l-2.07,2.18l0.19,7.76l0.33,3.83l0.5,3.88l0.14,0.8l2.47,1.71l-1.71,2.47l0.58,2.7l0.97,3.78l1.13,3.74l1.29,3.69
				l1.44,3.63l1.59,3.56l1.74,3.49l1.88,3.42l2.02,3.33l2.16,3.24l2.29,3.15l2.42,3.05l2.59,2.99l3.1,3.32l3.26,3.25l3.38,3.13
				l3.48,3l3.59,2.87l3.69,2.74l3.78,2.6l3.87,2.47l3.96,2.32l4.04,2.18l4.11,2.03l4.18,1.88l4.25,1.72l4.3,1.57l4.36,1.41
				l4.52,1.28l7.79,2.21L294.48,615.86z M567.83,604.17l2.13,2.13l-0.01,55.38l-2.13,2.13l2.13,2.13l-0.01,57.51l0,6.91l7.26,0.36
				l2.13,2.12l2.12-2.13l206.38-8.29l6.55-0.26v-6.63V609.33l2.17-2.08l-2.08-2.17l0.68-16.57l0.36-3.04l0.47-3.19l0.57-3.17
				l0.67-3.17l0.76-3.1l0.86-3.1l0.95-3.07l1.04-3.04l1.14-3.01l1.23-2.97l1.32-2.93l1.41-2.89l1.51-2.87l1.57-2.77l1.66-2.75
				l1.75-2.7l1.9-2.75l2-2.71l2.05-2.61l2.14-2.57l2.21-2.5l2.28-2.44l2.37-2.38l2.41-2.28l2.49-2.22l2.55-2.14l2.61-2.07l2.68-1.99
				l2.73-1.9l2.79-1.82l2.84-1.74l2.98-1.71l5.98-3.44l-3.45-6.03l-3.06-5.36l-2.96-5.37l-2.88-5.41l-2.79-5.46l-2.71-5.5
				l-2.62-5.54l-2.54-5.58l-2.46-5.64l-3.37-8.01l-3.27-8.02l-3.18-8.06l-3.08-8.06l-3-8.13l-2.92-8.16l-2.83-8.19l-2.34-7.05
				l0.31-7.43l0.34-6.58l-9.42,1.33l-28.38,4.02l-28.36,3.77l-28.38,3.53l-28.42,3.28l-7.3,0.78l-14.71,1.39l-14.7,1.15l-14.73,0.91
				l-7.38,0.35l-4.58,0.22l-0.66-0.8l-5.16-6.26l-5.32,15.1l-38.85,110.21l-2.27,0l-0.01,29.57l-2.13,2.13l2.13,2.13l-0.01,55.38
				L567.83,604.17z M812.29,622.83l50.09,106.59l-2.09,14.27l11.15-1.69l12.6-1.91l12.56-1.8l12.58-1.7l12.59-1.59l12.6-1.49
				l12.61-1.39l12.62-1.28l12.64-1.18l13.15-1.12l13.16-1.02l13.17-0.92l13.17-0.81l13.18-0.71l13.18-0.6l13.19-0.5l13.24-0.4
				l6.4-0.19l0.01-13.6l0.05-94.33l2.13-2.12l-2.12-2.13l0-4.95l2.13-2.12l-2.12-2.13l0.05-101.41l2.13-2.12l-2.12-2.13l0-4.95
				l2.13-2.12l-2.12-2.13l0-0.22l0.05-94.11l0-6.58l-4.37-0.21l-2.02-2.23l-2.23,2.02l-162.93-7.88l-6.97-0.34l-0.17,7.06
				l-2.98,122.32l-2.18,2.07l2.07,2.18l-0.19,7.76l-0.33,3.83l-0.5,3.88l-0.14,0.8l-2.47,1.71l1.71,2.47l-0.58,2.7l-0.97,3.78
				l-1.13,3.74l-1.29,3.69l-1.44,3.63l-1.59,3.56l-1.74,3.49l-1.88,3.42l-2.02,3.33l-2.16,3.24l-2.29,3.15l-2.42,3.05l-2.59,2.99
				l-3.1,3.32l-3.26,3.25l-3.38,3.13l-3.48,3l-3.59,2.87l-3.69,2.74l-3.78,2.6l-3.87,2.47l-3.96,2.32l-4.04,2.18l-4.11,2.03
				l-4.18,1.88l-4.25,1.72l-4.3,1.57l-4.36,1.41l-4.52,1.28l-7.79,2.21L812.29,622.83z M545.11,602.04l-0.01-55.38l2.13-2.13
				l-2.13-2.13l-0.01-29.57l-2.27,0l-38.85-110.21l-5.32-15.1l-5.16,6.26l-0.66,0.8l-4.58-0.22l-7.38-0.35l-14.73-0.91l-14.7-1.15
				l-14.71-1.39l-7.3-0.78l-28.42-3.28l-28.38-3.53l-28.36-3.77l-28.38-4.02l-9.42-1.33l0.34,6.58l0.31,7.43l-2.34,7.05l-2.83,8.19
				l-2.92,8.16l-3,8.13l-3.08,8.06l-3.18,8.06l-3.27,8.02l-3.37,8.01l-2.46,5.64l-2.54,5.58l-2.62,5.54l-2.71,5.5l-2.79,5.46
				l-2.88,5.41l-2.96,5.37l-3.06,5.36l-3.45,6.03l5.98,3.44l2.98,1.71l2.84,1.74l2.79,1.82l2.73,1.9l2.68,1.99l2.61,2.07l2.55,2.14
				l2.49,2.22l2.41,2.28l2.37,2.38l2.28,2.44l2.21,2.5l2.14,2.57l2.05,2.61l2,2.71l1.9,2.75l1.75,2.7l1.66,2.75l1.57,2.77l1.51,2.87
				l1.41,2.89l1.32,2.93l1.23,2.97l1.14,3.01l1.04,3.04l0.95,3.07l0.86,3.1l0.76,3.1l0.67,3.17l0.57,3.17l0.47,3.19l0.36,3.04
				l0.68,16.57l-2.08,2.17l2.17,2.08v106.18v6.63l6.55,0.26l206.38,8.29l2.12,2.13l2.13-2.12l7.26-0.36l0-6.91l-0.01-57.51
				l2.13-2.13l-2.13-2.13l-0.01-55.38l2.13-2.13L545.11,602.04z M840.23,133.62l-2.12,2.13l2.13,2.12l0,0l0,4.95l-2.12,2.13
				l2.13,2.12l0.05,101.41l-2.12,2.13l2.13,2.12l0,0.33l0,4.62l-2.12,2.13l2.13,2.12l0.05,94.33l0,7.26l7.16-0.37l59.79-3.06
				l8.75-0.45l0-6.44l0.01-57.68l2.13-2.13l-2.13-2.13l0.01-55.55l2.13-2.13l-2.13-2.13l0.01-50.11l0-1.47l0.09-1.2l0.19-1.43
				l0.22-1.15l0.11-0.36v0l2.81-1.07l-1.08-2.8l0.29-0.48l0.83-1.18l0.92-1.11l1-1.04l1.09-0.97l1.22-0.94l1.37-0.97l1.41-0.91
				l1.45-0.85l1.48-0.79l1.51-0.73l1.54-0.67l1.57-0.6l1.59-0.54l1.61-0.47l1.63-0.4l1.64-0.33l1.66-0.26l1.66-0.19l1.67-0.12
				l1.86-0.06l1.54-0.05l1.54-0.05l3.83-3.17l1.34-1.02l0.44-0.31l-2.61-7.02l-40.9-110.19l-5.93-15.98l-5.54,4.71l-6.39,0.13
				l-6.39,0.13l-17.51,0.2l-11.8,0.01l-9.43-0.12l-2.44-0.03l-6.99-0.09l0.01,13.89L840.23,133.62z M262.66,39.29l0.01-13.89
				l-6.99,0.09l-2.44,0.03l-9.43,0.12l-11.8-0.01l-17.51-0.2l-6.39-0.13l-6.39-0.13l-5.54-4.71l-5.93,15.98l-40.9,110.19l-2.61,7.02
				l0.44,0.31l1.34,1.02l3.83,3.17l1.54,0.05l1.54,0.05l1.86,0.06l1.67,0.12l1.66,0.19l1.66,0.26l1.64,0.33l1.63,0.4l1.61,0.47
				l1.59,0.54l1.57,0.6l1.54,0.67l1.51,0.73l1.48,0.79l1.45,0.85l1.41,0.91l1.37,0.97l1.22,0.94l1.09,0.97l1,1.04l0.92,1.11
				l0.83,1.18l0.29,0.48l-1.08,2.8l2.81,1.07v0l0.11,0.36l0.22,1.15l0.19,1.43l0.09,1.2l0,1.47l0.01,50.11l-2.13,2.13l2.13,2.13
				l0.01,55.55l-2.13,2.13l2.13,2.13l0.01,57.68l0,6.44l8.75,0.45l59.79,3.06l7.16,0.37l0-7.26l0.05-94.33l2.13-2.12l-2.12-2.13
				l0-4.62l0-0.33l2.13-2.12l-2.12-2.13l0.05-101.41l2.13-2.12l-2.12-2.13l0-4.95l0,0l2.13-2.12l-2.12-2.13L262.66,39.29z
				 M826.78,73.41l0,39.11l0,39.11l0,6.9l-6.82,0l-266.41-0.02l-2.13,2.13l-2.13-2.13l-266.41,0.01l-6.82,0l0-6.9l0-39.11l0-39.11
				l0-6.9l6.82,0l266.41,0.02l2.13-2.13l2.13,2.13l266.41-0.01l6.82,0L826.78,73.41z M723.49,312.26l0-38.98l0-38.99l0-6.88l-6.82,0
				l-158.57,0l-2.13-2.13l-2.13,2.13h-2.42l-2.42,0l-2.13-2.13l-2.13,2.13h0l-158.57,0.02l-6.82,0l0,6.89l0,38.98l0,38.99l0,6.88
				l6.82,0l158.57,0l2.13,2.13l2.13-2.13l2.42,0l2.42,0l2.13,2.13l2.13-2.13l158.57-0.02l6.82,0L723.49,312.26z"/>

				<path id="id:SUB_SECOND_ACCENT_1_00000164508983559561417150000011742136570465326739_" display="inline" fill="#68737A" d="
				M414.75,388.11l14.69,1.7l7.3,0.78l14.71,1.39l1.88,0.15l91.78,167.31l0.01,42.61l2.12,2.12l-2.12,2.13l0,15.62L414.75,388.11z
				 M1084.21,491.4l2.13-2.12l-2.12-2.13v-0.23l0-6.65L943.57,732.51l3.42-0.38l12.62-1.28l12.64-1.18l9.71-0.83l98-178.64l0,0
				l4.22-7.7l0.02-41.9l2.12-2.12l-2.12-2.13L1084.21,491.4z M147.2,153.95l1.34,1.02l3.82,3.18l1.54,0.05l1.54,0.05l1.86,0.06
				l1.67,0.12l1.66,0.19l1.66,0.26l1.64,0.33l1.63,0.4l1.61,0.47l1.59,0.53l1.57,0.6l1.54,0.66l1.51,0.73l1.48,0.79l1.45,0.85
				l1.41,0.92l1.37,0.97l1.22,0.94l1.09,0.97l1,1.04l0.92,1.11l0.83,1.18l0.29,0.49l-1.08,2.8l2.8,1.07l0.11,0.36l0.22,1.15
				l0.19,1.43l0.08,1.2v1.47l0.01,45.66l25.74,46.17l17.03,30.55l17.03-30.55l15.96-28.62l0.03-62.62l-9.29,16.93l0,0l-23.73,43.26
				l-23.73-43.27l0-0.01l-45.25-82.49l-11.23,30.24l-2.6,7.02L147.2,153.95z"/>

				<path id="id:SUB_SECOND_ACCENT_2_00000049916023892398907150000007801615432955972510_" display="inline" fill="#F1582A" d="
				M140.74,336.33l-36.39,0l-2.13,2.13l-2.13-2.13l-36.81,0l-6.82,0l0-6.9l0-42.79l0-42.79l0-6.9l6.82,0l36.6,0l2.13-2.13l2.13,2.13
				l36.6,0h6.82l0,6.9l0,42.79l0,42.79l0,6.9L140.74,336.33z M545.11,559.43l0-12.77l2.12-2.13l-2.13-2.12l-0.01-29.57h-2.27
				l-38.85-110.21l-5.32-15.1l-5.16,6.26l-0.66,0.8l-4.58-0.22l-7.38-0.35l-14.73-0.91l-12.82-1L545.11,559.43z M1084.15,606.26
				l2.12-2.12l-2.12-2.13l0.03-59.51l-4.22,7.7l0,0l-98,178.64l3.44-0.29l13.16-1.02l13.17-0.91l13.17-0.81l13.18-0.71l13.18-0.6
				l13.19-0.5l13.24-0.4l6.4-0.2l0.01-13.6l0.05-94.33l2.13-2.12l-2.12-2.13L1084.15,606.26z M205.83,198.87L205.83,198.87
				l23.74,43.28l23.73-43.26l0,0l9.29-16.93l0.02-34.88l2.12-2.12l-2.12-2.13l0-4.95l2.13-2.12l-2.12-2.13l0.05-94.33l0.01-13.89
				l-6.99,0.09l-2.44,0.03l-9.43,0.12l-11.8-0.01l-17.51-0.21l-6.39-0.13l-6.39-0.13l-5.54-4.71l-5.93,15.98l-29.68,79.95
				L205.83,198.87z"/>

				<path id="id:SUB_SECOND_ACCENT_3_00000084525094650852519160000002587418189678797234_" display="inline" fill="#009949" d="
				M476.06,433.57l39.98,3.28l1.4,3.97l-38.92-2.76L476.06,433.57z M486.06,451.79l35.68,1.21l-1.17-3.32l-36.37-1.28L486.06,451.79
				z M493.11,464.65h32.73l-1.26-3.57h-33.43L493.11,464.65z M500.58,478.26l29.6-1.32l-1.31-3.71l-30.49,1.02L500.58,478.26z
				 M506.99,489.96l27.08-1.98l-1.08-3.08l-27.72,1.9L506.99,489.96z M513.03,500.97l24.87-2.11l-0.87-2.47l-25.37,2.07
				L513.03,500.97z M519.85,513.4l22.08-3.1l-0.91-2.59l-22.61,3.06L519.85,513.4z M525.77,524.19l19.33-3.41l0-2.59l-20.64,3.61
				L525.77,524.19z M531.45,534.54l13.65-2.95l0-2.01l-14.64,3.16L531.45,534.54z M537.12,544.88l8.24-2.21l-0.26-0.26l0-1.36
				l-8.81,2.32L537.12,544.88z M541.69,553.21l0.75,1.37l2.67-0.81l0-1.6L541.69,553.21z M498.66,387.54l-1.06,1.29l2.25,2.11
				L498.66,387.54z M502.03,397.11c-2.35-2.23-4.51-4.27-6.33-5.99l-1.97,2.39l10.03,8.51L502.03,397.11z M505.58,407.18
				c-5.21-4.47-10.44-8.96-14.77-12.67l-2.55-0.12l-2.08-0.1l20.41,15.78L505.58,407.18z M508.43,415.26
				c-8.56-6.86-18.9-15.13-26.47-21.17l-1.08-0.05l-3.69-0.23L509,416.88L508.43,415.26z M510.45,420.99
				c-9.85-7.39-25.94-19.46-36.55-27.39l-4.87-0.3l41.69,28.46L510.45,420.99z M457.77,392.47l-4.45-0.35l0.35,0.63l48.23,30
				l-4.81-0.51c-9.34-6.06-28.89-18.75-42.29-27.41l2.05,3.74l39.65,23.61l-5.19-0.56c-7.48-4.65-21-13.05-33.07-20.54l1.53,2.79
				l30.93,17.68l-6.67-0.71c-5.63-3.44-13.93-8.51-22.48-13.74l1.13,2.05l20.6,11.6l-6.55-0.7c-3.19-1.93-7.39-4.47-12.07-7.3
				l0.7,1.28l10.71,5.96l-7.91-0.85l2.48,4.53l42.24,4.18l-0.67-1.89l-0.05-0.14l-0.72-2.05l-2.57-0.27
				c-9.55-6.74-30.45-21.5-43.1-30.4l-5.12-0.4l47.64,30.74l-5.82-0.62C492.63,416.13,470.61,401.17,457.77,392.47z M997.44,700.63
				l7.91-0.85l-10.71,5.96l-0.7,1.28c4.68-2.83,8.89-5.37,12.07-7.3l6.55-0.7l-20.6,11.6l-1.13,2.05
				c8.55-5.22,16.85-10.3,22.48-13.74l6.67-0.71l-30.93,17.68l-1.53,2.79c12.07-7.49,25.59-15.89,33.07-20.54l5.19-0.56
				l-39.65,23.61l-2.05,3.74c13.39-8.67,32.95-21.36,42.29-27.41l4.81-0.51l-48.23,30l-1,1.83l3.23-0.27
				c12.46-8.43,36.23-24.59,46.56-31.61l5.82-0.62l-49.62,32.02l5.3-0.41c12.37-8.7,34.88-24.59,44.89-31.67l5.22-0.56l-46.83,31.97
				l2.02-0.16l3.11-0.22c12.11-9.05,33.09-24.79,42.23-31.65l5.13-0.55l-44.1,31.98l5-0.35c11.65-9.29,31.17-24.93,39.6-31.68
				l6.17-0.66l-41.49,32.06l4.84-0.3c11.33-9.7,29.85-25.62,37.04-31.81l5.18-0.55l-37.82,32.09l1.44-0.09l3.3-0.18
				c10.23-9.68,26.45-25.11,33.57-31.88l5.58-0.6l-34.48,32.22l4.65-0.25c9.41-9.91,24.03-25.39,30.29-32.02l4.7-0.5l-29.72,32.28
				l4.53-0.21c8.1-10.11,20.43-25.61,25.6-32.11l4.66-0.5l-25.36,32.4l3.71-0.14c7-10.21,17.51-25.67,22.01-32.29l5.67-0.61
				l-23.03,32.72l3.67-0.14c6.4-10.56,15.95-26.46,19.64-32.61l0.21-0.02l0-0.32l0-0.33l0-2.94l-84.19,8.33L997.44,700.63z
				 M1005.35,686.2l78.76-6.47l0-3.44l-76.3,5.41L1005.35,686.2z M1013.49,671.37l70.63-2.49l0-3.24l-68.77,2.34L1013.49,671.37z
				 M1020.44,658.69h63.68l0-3.57h-61.72L1020.44,658.69z M1027.67,645.51l56.46,1.89l0-3.48l-54.26-2.41L1027.67,645.51z
				 M1034.56,632.97l49.58,3.4l0-3.06l-47.85-3.49L1034.56,632.97z M1040.95,621.31l43.19,3.53l0-2.49l-41.82-3.55L1040.95,621.31z
				 M1084.24,611.3l-35.1-4.93l-1.44,2.62l37.79,5.12l0.78-0.78L1084.24,611.3z M1084.15,602.01l0-1.29l-29.09-5.13l-1.31,2.4
				l31.96,5.59L1084.15,602.01z M1084.16,590.29l-23.42-5.06l-0.98,1.8l24.4,5.27L1084.16,590.29z M1084.16,579.65l-17.75-4.76
				l-0.83,1.51l18.58,4.9L1084.16,579.65z M1084.17,568.98l-12.44-3.78l-0.75,1.37l13.19,4.05L1084.17,568.98z M1084.17,558.74
				l-7.5-2.56l-0.65,1.19l8.15,2.77L1084.17,558.74z M1084.18,548.21l-2.58-1.01l-0.59,1.08l3.17,1.23L1084.18,548.21z
				 M1082.69,723.43c0.45-1.17,0.92-2.39,1.41-3.66l0-6.58l-4.99,10.35L1082.69,723.43z M1073.17,723.72
				c3.27-6.47,7.47-14.86,10.94-21.79l0-2.25l-14.56,24.15L1073.17,723.72z M162.17,119.27l67.41-4.92l33.05,2.41l0-3.12
				l-33.05-2.26v0l-68.89,4.72l-0.1,0.28l0,0L162.17,119.27z M229.57,132.5l-55.99,7.59l1.44,2.62l54.55-7.66l33.04,4.64l0-1.82
				l0.79-0.79L229.57,132.5L229.57,132.5z M179.63,151.1l1.31,2.4l48.63-8.58l33.04,5.83l0-2.6l-33.04-5.78L179.63,151.1z
				 M185.64,162.05l0.98,1.8l42.95-9.28l33.03,7.14l0-2.01l-33.03-7.14L185.64,162.05z M191.46,172.68l0.83,1.51l37.28-10
				l33.03,8.86l0-1.71l-33.03-8.71L191.46,172.68z M196.86,182.52l0.75,1.37l31.96-9.72l31.96,9.72l0.75-1.37l-32.71-10.04
				L196.86,182.52z M201.9,191.7l0.65,1.19l27.02-9.21v0l27.02,9.21l0.65-1.19l-27.67-9.4L201.9,191.7z M206.89,200.8l0.59,1.08
				l22.09-8.64l22.09,8.64l0.59-1.08l-22.68-8.84L206.89,200.8z M229.57,206.71l5.16-10.61l-5.16,8.94v0l-5.16-8.94L229.57,206.71
				L229.57,206.71z M229.57,47.1l6.7-21.48l-3.54,0c-0.95,4.46-2.08,9.79-3.15,14.93v0c-1.08-5.16-2.21-10.52-3.17-14.99l-3.56-0.04
				L229.57,47.1L229.57,47.1z M262.65,59.98l0-0.99v-0.03l0-2.68l-1.89,0.2l1.89-2.05l0-0.81c-0.87,1.1-1.65,2.08-2.31,2.91
				l-4.66,0.5l6.98-8.92l0-1.84c-2.98,4.38-5.61,8.24-7.34,10.8l-5.67,0.61l13.02-18.5l0-3.6c-5.25,8.7-10.72,17.82-13.31,22.13
				l-5.56,0.6l18.88-31.31l0-1.59l-2.61,0.03c-5.52,10.94-13.7,27.32-16.48,32.89l-5.53,0.59l16.13-33.41l-0.94,0.01l-2.63,0.03
				c-4.38,11.37-10.87,28.52-12.71,33.38l-6.2,0.66l14.08-33.99l-1.97,0.02l-1.57,0c-3.79,11.98-9.46,30.29-10.6,33.97l-2.06,0.22
				l-2.06-0.22c-1.15-3.7-6.87-22.19-10.66-34.16l-2.35-0.03l-1.23-0.03l14.17,34.2l-6.2-0.66c-1.85-4.9-8.43-22.27-12.81-33.64
				l-0.32-0.01l-3.29-0.07l16.27,33.7l-5.53-0.59c-3.19-6.4-13.49-27.03-18.73-37.33l-0.64-0.54l-1.4,3.76l20.55,34.09l-5.56-0.6
				c-3.2-5.34-10.82-18.02-16.96-28.18l-1.08,2.92l17.76,25.23l-5.67-0.61c-2.92-4.29-8.36-12.3-13.73-20.18l-0.77,2.08l14.14,18.07
				l-4.66-0.5c-2.44-3.07-6.48-8.14-10.91-13.71l-0.6,1.62l11.09,12.05l-4.7-0.5c-1.91-2.02-4.59-4.86-7.66-8.11l-0.37,0.99
				l7.57,7.08l-5.58-0.6c-0.94-0.89-2.03-1.93-3.25-3.09l-0.2,0.53l2.96,2.51l-3.74-0.4l-0.3,0.82l-0.05,0.13l-1.01,2.72l47.52,4.7
				L262.65,59.98z M262.65,71.83l0-3.59l-33.08,2.72l-50.59-4.15l-1.37,3.69l51.96,3.69L262.65,71.83z M262.64,82.98l0-3.25
				l-33.07,1.17l-55.1-1.94l-1.2,3.24l56.3,1.91L262.64,82.98z M262.64,93.96l0-3.57h-33.07h-59.34l-1.33,3.57h60.67H262.64z
				 M262.63,105.76l0-3.63l-33.06-1.11l-64.09,2.15l-1.5,4.04l65.58-2.91L262.63,105.76z M262.62,127.88l0-2.53l-33.05-2.7
				l-62.74,5.13l1.37,2.51l61.37-5.21L262.62,127.88z M229.57,225.18l-11.72-26.61l11.72,33.3v0l11.72-33.3L229.57,225.18
				L229.57,225.18z"/>
		</g>
</svg>