<?xml version="1.0" encoding="utf-8"?>
<svg version="1.1"
	 xmlns="http://www.w3.org/2000/svg" xmlns:xlink="http://www.w3.org/1999/xlink" x="0px" y="0px" width="1104.07px"
	 height="761.93px" viewBox="0 0 1104.07 761.93" enable-background="new 0 0 1104.07 761.93" xml:space="preserve">>
<g id="id:mardi_gras" display="inline">

				<path id="id:SUB_SECOND_BODY_COLOR_00000139276769016778055760000007744594986323022992_" display="inline" fill="#005B9B" d="
				M840.18,39.29l-0.01-13.89l6.99,0.09l2.44,0.03l9.43,0.12l11.8-0.01l17.51-0.2l6.39-0.13l6.39-0.13l5.54-4.71l5.93,15.98
				l40.9,110.19l2.61,7.02l-0.44,0.31l-1.34,1.02l-3.83,3.17l-1.54,0.05l-1.54,0.05l-1.86,0.06l-1.67,0.12l-1.66,0.19l-1.66,0.26
				l-1.64,0.33l-1.63,0.4l-1.61,0.47l-1.59,0.54l-1.57,0.6l-1.54,0.67l-1.51,0.73l-1.48,0.79l-1.45,0.85l-1.41,0.91l-1.37,0.97
				l-1.22,0.94l-1.09,0.97l-1,1.04l-0.92,1.11l-0.83,1.18l-0.29,0.48l1.08,2.8l-2.81,1.07v0l-0.11,0.36l-0.22,1.15l-0.19,1.43
				l-0.09,1.2l0,1.47l-0.01,50.11l2.13,2.13l-2.13,2.13l-0.01,55.55l2.13,2.13l-2.13,2.13l-0.01,57.68l0,6.44l-8.75,0.45
				l-59.79,3.06l-7.16,0.37l0-7.26l-0.05-94.33l-2.13-2.12l2.12-2.13l0-4.62l0-0.33l-2.13-2.12l2.12-2.13l-0.05-101.41l-2.13-2.12
				l2.12-2.13l0-4.95l0,0l-2.13-2.12l2.12-2.13L840.18,39.29z M262.66,39.29l0.01-13.89l-6.99,0.09l-2.44,0.03l-9.43,0.12
				l-11.8-0.01l-17.51-0.2l-6.39-0.13l-6.39-0.13l-5.54-4.71l-5.93,15.98l-40.9,110.19l-2.61,7.02l0.44,0.31l1.34,1.02l3.83,3.17
				l1.54,0.05l1.54,0.05l1.86,0.06l1.67,0.12l1.66,0.19l1.66,0.26l1.64,0.33l1.63,0.4l1.61,0.47l1.59,0.54l1.57,0.6l1.54,0.67
				l1.51,0.73l1.48,0.79l1.45,0.85l1.41,0.91l1.37,0.97l1.22,0.94l1.09,0.97l1,1.04l0.92,1.11l0.83,1.18l0.29,0.48l-1.08,2.8
				l2.81,1.07v0l0.11,0.36l0.22,1.15l0.19,1.43l0.09,1.2l0,1.47l0.01,50.11l-2.13,2.13l2.13,2.13l0.01,55.55l-2.13,2.13l2.13,2.13
				l0.01,57.68l0,6.44l8.75,0.45l59.79,3.06l7.16,0.37l0-7.26l0.05-94.33l2.13-2.12l-2.12-2.13l0-4.62l0-0.33l2.13-2.12l-2.12-2.13
				l0.05-101.41l2.13-2.12l-2.12-2.13l0-4.95l0,0l2.13-2.12l-2.12-2.13L262.66,39.29z M140.74,336.33l-36.39,0l-2.13,2.13
				l-2.13-2.13l-36.81,0l-6.82,0l0-6.9l0-42.79l0-42.79l0-6.9l6.82,0l36.6,0l2.13-2.13l2.13,2.13l36.6,0h6.82l0,6.9l0,42.79l0,42.79
				l0,6.9L140.74,336.33z M826.78,73.41l0,39.11l0,39.11l0,6.9l-6.82,0l-266.41-0.02l-2.13,2.13l-2.13-2.13l-266.41,0.01l-6.82,0
				l0-6.9l0-39.11l0-39.11l0-6.9l6.82,0l266.41,0.02l2.13-2.13l2.13,2.13l266.41-0.01l6.82,0L826.78,73.41z M723.48,312.26l0-38.98
				l0-38.99l0-6.88l-6.82,0l-158.57,0l-2.13-2.13l-2.13,2.13h-2.42l-2.42,0l-2.13-2.13l-2.13,2.13h0l-158.57,0.02l-6.82,0l0,6.89
				l0,38.98l0,38.99l0,6.88l6.82,0l158.57,0l2.13,2.13l2.13-2.13l2.42,0l2.42,0l2.13,2.13l2.13-2.13l158.57-0.02l6.82,0
				L723.48,312.26z M297.95,608.46l-7.79-2.21l-4.52-1.28l-4.36-1.41l-4.3-1.57l-4.25-1.72l-4.18-1.88l-4.11-2.03l-4.04-2.18
				l-3.96-2.32l-3.87-2.47l-3.78-2.6l-3.69-2.74l-3.59-2.87l-3.48-3l-3.38-3.13l-3.26-3.25l-3.1-3.32l-2.59-2.99l-2.42-3.05
				l-2.29-3.15l-2.16-3.24l-2.02-3.33l-1.88-3.42l-1.74-3.49l-1.59-3.56l-1.44-3.63l-1.29-3.69l-1.13-3.74l-0.97-3.78l-0.58-2.7
				l1.71-2.47l-2.47-1.71l-0.14-0.8l-0.5-3.88l-0.33-3.83l-0.19-7.76l2.07-2.18l-2.18-2.07l-2.98-122.32l-0.17-7.06l-6.97,0.34
				l-162.93,7.88l-2.23-2.02l-2.02,2.23l-4.37,0.21l0,6.58l0.05,94.11l0,0.22l-2.12,2.13l2.13,2.12l0,4.95l-2.12,2.13l2.13,2.12
				l0.05,101.41l-2.12,2.13l2.13,2.12l0,4.95l-2.12,2.13l2.13,2.12l0.05,94.33l0.01,13.6l6.4,0.19l13.24,0.4l13.19,0.5l13.18,0.6
				l13.18,0.71l13.17,0.81l13.17,0.92l13.16,1.02l13.15,1.12l12.64,1.18l12.62,1.28l12.61,1.39l12.6,1.49l12.59,1.59l12.58,1.7
				l12.56,1.8l12.6,1.91l11.15,1.69l-2.09-14.27l50.09-106.59L297.95,608.46z M547.24,604.17l-2.13,2.13l0.01,55.38l2.13,2.13
				l-2.13,2.13l0.01,57.51l0,6.91l-7.26,0.36l-2.13,2.12l-2.12-2.13l-206.38-8.29l-6.55-0.26v-6.63V609.33l-2.17-2.08l2.08-2.17
				l-0.68-16.57l-0.36-3.04l-0.47-3.19l-0.57-3.17l-0.67-3.17l-0.76-3.1l-0.86-3.1l-0.95-3.07l-1.04-3.04l-1.14-3.01l-1.23-2.97
				l-1.32-2.93l-1.41-2.89l-1.51-2.87l-1.57-2.77l-1.66-2.75l-1.75-2.7l-1.9-2.75l-2-2.71l-2.05-2.61l-2.14-2.57l-2.21-2.5
				l-2.28-2.44l-2.37-2.38l-2.41-2.28l-2.49-2.22l-2.55-2.14l-2.61-2.07l-2.68-1.99l-2.73-1.9l-2.79-1.82l-2.84-1.74l-2.98-1.71
				l-5.98-3.44l3.45-6.03l3.06-5.36l2.96-5.37l2.88-5.41l2.79-5.46l2.71-5.5l2.62-5.54l2.54-5.58l2.46-5.64l3.37-8.01l3.27-8.02
				l3.18-8.06l3.08-8.06l3-8.13l2.92-8.16l2.83-8.19l2.34-7.05l-0.31-7.43l-0.34-6.58l9.42,1.33l28.38,4.02l28.36,3.77l28.38,3.53
				l28.42,3.28l7.3,0.78l14.71,1.39l14.7,1.15l14.73,0.91l7.38,0.35l4.58,0.22l0.66-0.8l5.16-6.26l5.32,15.1l38.85,110.21l2.27,0
				l0.01,29.57l2.13,2.13l-2.13,2.13l0.01,55.38L547.24,604.17z M569.96,602.04l0.01-55.38l-2.13-2.13l2.13-2.13l0.01-29.57l2.27,0
				l38.85-110.21l5.32-15.1l5.16,6.26l0.66,0.8l4.58-0.22l7.38-0.35l14.73-0.91l14.7-1.15l14.71-1.39l7.3-0.78l28.42-3.28
				l28.38-3.53l28.36-3.77l28.38-4.02l9.42-1.33l-0.34,6.58l-0.31,7.43l2.34,7.05l2.83,8.19l2.92,8.16l3,8.13l3.08,8.06l3.18,8.06
				l3.27,8.02l3.37,8.01l2.46,5.64l2.54,5.58l2.62,5.54l2.71,5.5l2.79,5.46l2.88,5.41l2.96,5.37l3.06,5.36l3.45,6.03l-5.98,3.44
				l-2.98,1.71l-2.84,1.74l-2.79,1.82l-2.73,1.9l-2.68,1.99l-2.61,2.07l-2.55,2.14l-2.49,2.22l-2.41,2.28l-2.37,2.38l-2.28,2.44
				l-2.21,2.5l-2.14,2.57l-2.05,2.61l-2,2.71l-1.9,2.75l-1.75,2.7l-1.66,2.75l-1.57,2.77l-1.51,2.87l-1.41,2.89l-1.32,2.93
				l-1.23,2.97l-1.14,3.01l-1.04,3.04l-0.95,3.07l-0.86,3.1l-0.76,3.1l-0.67,3.17l-0.57,3.17l-0.47,3.19l-0.36,3.04l-0.68,16.57
				l2.08,2.17l-2.17,2.08v106.18v6.63l-6.55,0.26l-206.38,8.29l-2.12,2.13l-2.13-2.12l-7.26-0.36l0-6.91l0.01-57.51l-2.13-2.13
				l2.13-2.13l0.01-55.38l-2.13-2.13L569.96,602.04z M808.81,615.43l7.79-2.21l4.52-1.28l4.36-1.41l4.3-1.57l4.25-1.72l4.18-1.88
				l4.11-2.03l4.04-2.18l3.96-2.32l3.87-2.47l3.78-2.6l3.69-2.74l3.59-2.87l3.48-3l3.38-3.13l3.26-3.25l3.1-3.32l2.59-2.99
				l2.42-3.05l2.29-3.15l2.16-3.24l2.02-3.33l1.88-3.42l1.74-3.49l1.59-3.56l1.44-3.63l1.29-3.69l1.13-3.74l0.97-3.78l0.58-2.7
				l-1.71-2.47l2.47-1.71l0.14-0.8l0.5-3.88l0.33-3.83l0.19-7.76l-2.07-2.18l2.18-2.07l2.98-122.32l0.17-7.06l6.97,0.34l162.93,7.88
				l2.23-2.02l2.02,2.23l4.37,0.21l0,6.58l-0.05,94.11l0,0.22l2.12,2.13l-2.13,2.12l0,4.95l2.12,2.13l-2.13,2.12l-0.05,101.41
				l2.12,2.13l-2.13,2.12l0,4.95l2.12,2.13l-2.13,2.12l-0.05,94.33l-0.01,13.6l-6.4,0.19l-13.24,0.4l-13.19,0.5l-13.18,0.6
				l-13.18,0.71l-13.17,0.81l-13.17,0.92l-13.16,1.02l-13.15,1.12l-12.64,1.18l-12.62,1.28l-12.61,1.39l-12.6,1.49l-12.59,1.59
				l-12.58,1.7l-12.56,1.8l-12.6,1.91l-11.15,1.69l2.09-14.27l-50.09-106.59L808.81,615.43z"/>

				<path id="id:SUB_SECOND_ACCENT_1_00000099622260956781511260000004082581537953819776_" display="inline" fill="#68737A" d="
				M252.24,705.73l-7.85,16.71l2.09,14.27l-11.15-1.69l-12.6-1.91l-12.56-1.8l-12.58-1.7l-12.59-1.59l-12.6-1.49l-12.61-1.39
				l-12.62-1.28l-12.64-1.18l-13.15-1.12l-13.16-1.02l-13.17-0.92l-13.17-0.81l-13.18-0.71l-13.18-0.6l-13.19-0.5l-13.24-0.4
				l-6.4-0.19l-0.01-13.6l-0.01-17.91l20.61,0.62c0.08,0,0.16,0.01,0.25,0.01l13.19,0.5c0.08,0,0.16,0.01,0.25,0.01l13.18,0.6
				c0.08,0,0.17,0.01,0.25,0.01l13.18,0.71c0.08,0,0.16,0.01,0.25,0.01l13.17,0.81c0.08,0.01,0.17,0.01,0.25,0.02l13.17,0.92
				c0.08,0.01,0.16,0.01,0.25,0.02l13.16,1.02c0.08,0.01,0.17,0.01,0.25,0.02l13.15,1.12c0.08,0.01,0.17,0.01,0.25,0.02l12.64,1.18
				c0.09,0.01,0.17,0.02,0.26,0.02l12.62,1.28c0.08,0.01,0.17,0.02,0.26,0.03l12.61,1.39c0.09,0.01,0.17,0.02,0.26,0.03l12.6,1.49
				c0.09,0.01,0.17,0.02,0.26,0.03l12.59,1.59c0.08,0.01,0.17,0.02,0.25,0.03l12.58,1.7c0.08,0.01,0.17,0.02,0.25,0.04l12.56,1.8
				c0.08,0.01,0.17,0.02,0.25,0.04L252.24,705.73z M498.65,387.54l-5.16,6.26l-0.66,0.8l-4.58-0.22l-7.38-0.35l-14.73-0.91
				l-14.7-1.15l-14.71-1.39l-7.3-0.78l-28.42-3.28l-28.38-3.53l-28.36-3.77l-28.38-4.02l-9.42-1.33l0.34,6.58l0.31,7.43l-2.34,7.05
				l-2.83,8.19l-0.65,1.83l38.54,5.46c0.09,0.01,0.18,0.02,0.27,0.04l28.36,3.77c0.09,0.01,0.18,0.02,0.27,0.03l28.38,3.53
				c0.09,0.01,0.18,0.02,0.27,0.03l28.42,3.28c0.09,0.01,0.17,0.02,0.26,0.03l7.3,0.78c0.13,0.01,0.26,0.03,0.39,0.04l14.71,1.39
				c0.17,0.02,0.34,0.03,0.51,0.04l14.7,1.15c0.17,0.01,0.34,0.03,0.51,0.04l14.73,0.91c0.15,0.01,0.29,0.02,0.44,0.02l7.4,0.35
				l25.82,1.22l-8.62-24.44L498.65,387.54z M214.13,56.91l17.51,0.2c0.11,0,0.23,0,0.34,0l11.8,0.01c0.01,0,0.02,0,0.03,0
				c0.12,0,0.25,0,0.37,0l18.46-0.23l0.01-17.61l0.01-13.89l-6.99,0.09l-2.44,0.03l-9.43,0.12l-11.8-0.01l-17.51-0.2l-6.39-0.13
				l-6.39-0.13l-5.54-4.71l-5.93,15.98l-7.37,19.84l30.96,0.64C213.94,56.91,214.04,56.91,214.13,56.91z M264.74,135.75l-2.12-2.13
				l0-4.41h-106.8l-6.46,17.4l-2.61,7.02l0.44,0.31l1.34,1.02l3.83,3.17l1.54,0.05l1.54,0.05l1.86,0.06l1.67,0.12l1.66,0.19
				l1.66,0.26l1.64,0.33l1.63,0.4l1.61,0.47l1.59,0.54l1.57,0.6l1.54,0.67l1.51,0.73l1.48,0.79l1.45,0.85l1.41,0.91l1.37,0.97
				l1.22,0.94l1.09,0.97l1,1.04l0.92,1.11l0.83,1.18l0.29,0.48l-1.08,2.8l2.81,1.07l0.11,0.36l0.22,1.15l0.19,1.43l0.09,1.2l0,1.47
				l0,1.85l0.01,48.26l-2.13,2.13l2.13,2.13l0,1.49l0.01,54h75.74l0.01-29.28l2.13-2.12l-2.12-2.13l0-4.62l0-0.33l2.13-2.12
				l-2.12-2.13l0.01-11.27l0.03-54l0.02-36.14l2.13-2.12l-2.12-2.13l0-4.95L264.74,135.75z M1063.49,692.5
				c-0.08,0-0.16,0.01-0.25,0.01l-13.19,0.5c-0.08,0-0.16,0.01-0.25,0.01l-13.18,0.6c-0.08,0-0.17,0.01-0.25,0.01l-13.18,0.71
				c-0.08,0-0.16,0.01-0.25,0.01l-13.17,0.81c-0.08,0.01-0.17,0.01-0.25,0.02l-13.17,0.92c-0.08,0.01-0.16,0.01-0.25,0.02
				l-13.16,1.02c-0.08,0.01-0.17,0.01-0.25,0.02l-13.15,1.12c-0.08,0.01-0.17,0.01-0.25,0.02l-12.64,1.18
				c-0.09,0.01-0.17,0.02-0.26,0.02l-12.62,1.28c-0.08,0.01-0.17,0.02-0.26,0.03l-12.61,1.39c-0.09,0.01-0.17,0.02-0.26,0.03
				l-12.6,1.49c-0.09,0.01-0.17,0.02-0.26,0.03l-12.59,1.59c-0.08,0.01-0.17,0.02-0.25,0.03l-12.58,1.7
				c-0.08,0.01-0.17,0.02-0.25,0.04l-12.56,1.8c-0.08,0.01-0.17,0.02-0.25,0.04l-24.81,3.76l7.85,16.71l-2.09,14.27l11.15-1.69
				l12.6-1.91l12.56-1.8l12.58-1.7l12.59-1.59l12.6-1.49l12.61-1.39l12.62-1.28l12.64-1.18l13.15-1.12l13.16-1.02l13.17-0.92
				l13.17-0.81l13.18-0.71l13.18-0.6l13.19-0.5l13.24-0.4l6.4-0.19l0.01-13.6l0.01-17.91L1063.49,692.5z M810.28,394.93l-2.34-7.05
				l0.31-7.43l0.34-6.58l-9.42,1.33l-28.38,4.02l-28.36,3.77l-28.38,3.53l-28.42,3.28l-7.3,0.78l-14.71,1.39l-14.7,1.15l-14.73,0.91
				l-7.38,0.35l-4.58,0.22l-0.66-0.8l-5.16-6.26l-5.32,15.1l-8.62,24.44l25.82-1.22l7.4-0.35c0.15-0.01,0.29-0.01,0.44-0.02
				l14.73-0.91c0.17-0.01,0.34-0.02,0.51-0.04l14.7-1.15c0.17-0.01,0.34-0.03,0.51-0.04l14.71-1.39c0.13-0.01,0.26-0.03,0.39-0.04
				l7.3-0.78c0.09-0.01,0.17-0.02,0.26-0.03l28.42-3.28c0.09-0.01,0.18-0.02,0.27-0.03l28.38-3.53c0.09-0.01,0.18-0.02,0.27-0.03
				l28.36-3.77c0.09-0.01,0.18-0.02,0.27-0.04l38.54-5.46l-0.65-1.83L810.28,394.93z M840.19,56.9l18.46,0.23c0.12,0,0.25,0,0.37,0
				c0.01,0,0.02,0,0.03,0l11.8-0.01c0.11,0,0.23,0,0.34,0l17.51-0.2c0.09,0,0.19,0,0.28,0l30.96-0.64l-7.37-19.84l-5.93-15.98
				l-5.54,4.71l-6.39,0.13l-6.39,0.13l-17.51,0.2l-11.8,0.01l-9.43-0.12l-2.44-0.03l-6.99-0.09l0.01,13.89L840.19,56.9z
				 M916.05,237.22l0-1.49l2.13-2.13l-2.13-2.13l0.01-48.26l0-1.85l0-1.47l0.09-1.2l0.19-1.43l0.22-1.15l0.11-0.36l2.81-1.07
				l-1.08-2.8l0.29-0.48l0.83-1.18l0.92-1.11l1-1.04l1.09-0.97l1.22-0.94l1.37-0.97l1.41-0.91l1.45-0.85l1.48-0.79l1.51-0.73
				l1.54-0.67l1.57-0.6l1.59-0.54l1.61-0.47l1.63-0.4l1.64-0.33l1.66-0.26l1.66-0.19l1.67-0.12l1.86-0.06l1.54-0.05l1.54-0.05
				l3.83-3.17l1.34-1.02l0.44-0.31l-2.61-7.02l-6.46-17.4h-106.8l0,4.41l-2.12,2.13l2.13,2.12l0,4.95l-2.12,2.13l2.13,2.12
				l0.02,36.14l0.03,54l0.01,11.27l-2.12,2.13l2.13,2.12l0,0.33l0,4.62l-2.12,2.13l2.13,2.12l0.01,29.28h75.74L916.05,237.22z"/>

				<path id="id:SUB_SECOND_ACCENT_2_00000125582778739720346410000005225230736576939163_" display="inline" fill="#F1582A" d="
				M262.56,237.22h-75.77l0-1.49l-2.13-2.13l2.13-2.13l-0.01-48.26h75.8L262.56,237.22z M840.28,237.22h75.77l0-1.49l2.13-2.13
				l-2.13-2.13l0.01-48.26h-75.8L840.28,237.22z"/>

				<path id="id:SUB_SECOND_ACCENT_3_00000132775337001558808110000015023377672888204940_" display="inline" fill="#009949" d="
				M262.59,183.22h-75.8l0-1.85l0-1.47l-0.09-1.2l-0.19-1.43l-0.22-1.15l-0.11-0.36l0,0l-2.81-1.07l1.08-2.8l-0.29-0.48l-0.83-1.18
				l-0.92-1.11l-1-1.04l-1.09-0.97l-1.22-0.94l-1.37-0.97l-1.41-0.91l-1.45-0.85l-1.48-0.79l-1.51-0.73l-1.54-0.67l-1.57-0.6
				l-1.59-0.54l-1.61-0.47l-1.63-0.4l-1.64-0.33l-1.66-0.26l-1.66-0.19l-1.67-0.12l-1.86-0.06l-1.54-0.05l-1.54-0.05l-3.83-3.17
				l-1.34-1.02l-0.44-0.31l2.61-7.02l6.46-17.4h106.8l0,4.41l2.12,2.13l-2.13,2.12l0,4.95l2.12,2.13l-2.13,2.12L262.59,183.22z
				 M840.23,133.62l-2.12,2.13l2.13,2.12l0,4.95l-2.12,2.13l2.13,2.12l0.02,36.14h75.8l0-1.85l0-1.47l0.09-1.2l0.19-1.43l0.22-1.15
				l0.11-0.36l0,0l2.81-1.07l-1.08-2.8l0.29-0.48l0.83-1.18l0.92-1.11l1-1.04l1.09-0.97l1.22-0.94l1.37-0.97l1.41-0.91l1.45-0.85
				l1.48-0.79l1.51-0.73l1.54-0.67l1.57-0.6l1.59-0.54l1.61-0.47l1.63-0.4l1.64-0.33l1.66-0.26l1.66-0.19l1.67-0.12l1.86-0.06
				l1.54-0.05l1.54-0.05l3.83-3.17l1.34-1.02l0.44-0.31l-2.61-7.02l-6.46-17.4h-106.8L840.23,133.62z"/>
		</g>
</svg>