<?xml version="1.0" encoding="utf-8"?>
<svg version="1.1"
	 xmlns="http://www.w3.org/2000/svg" xmlns:xlink="http://www.w3.org/1999/xlink" x="0px" y="0px" width="1104.07px"
	 height="761.93px" viewBox="0 0 1104.07 761.93" enable-background="new 0 0 1104.07 761.93" xml:space="preserve">>
<g id="id:orlando" display="inline">

				<path id="id:SUB_SECOND_BODY_COLOR_00000111869908936333205100000004896801002147160980_" display="inline" fill="#005B9B" d="
				M290.17,606.25l7.79,2.21l-3.48,7.4L244.4,722.45l2.09,14.27l-11.15-1.69l-12.6-1.91l-12.56-1.8l-12.58-1.7L185,728.04
				l-12.6-1.49l-12.61-1.39l-12.62-1.28l-12.64-1.18l-13.15-1.12l-13.16-1.02l-13.17-0.92l-13.17-0.81l-13.18-0.71l-13.18-0.6
				l-13.19-0.5l-13.24-0.4l-6.4-0.19l-0.01-13.6l-0.05-94.33l-2.13-2.12l2.12-2.13l0-4.95l-2.13-2.12l2.12-2.13l-0.05-101.41
				l-2.13-2.12l2.12-2.13l0-4.95l-2.13-2.12l2.12-2.13l0-0.22l-0.05-94.11l0-6.58l4.37-0.21l2.02-2.23l2.23,2.02l162.93-7.88
				l6.97-0.34l0.17,7.06l2.98,122.32l2.18,2.07l-2.07,2.18l0.19,7.76l0.33,3.83l0.5,3.88l0.14,0.8l2.47,1.71l-1.71,2.47l0.58,2.7
				l0.97,3.78l1.13,3.74l1.29,3.69l1.44,3.63l1.59,3.56l1.74,3.49l1.88,3.42l2.02,3.33l2.16,3.24l2.29,3.15l2.42,3.05l2.59,2.99
				l3.1,3.32l3.26,3.25l3.38,3.13l3.48,3l3.59,2.87l3.69,2.74l3.78,2.6l3.87,2.47l3.96,2.32l4.04,2.18l4.11,2.03l4.18,1.88
				l4.25,1.72l4.3,1.57l4.36,1.41L290.17,606.25z M810.66,543.42l1.75-2.7l1.9-2.75l2-2.71l2.05-2.61l2.14-2.57l2.21-2.5l2.28-2.44
				l2.37-2.38l2.41-2.28l2.49-2.22l2.55-2.14l2.61-2.07l2.68-1.99l2.73-1.9l2.79-1.82l2.84-1.74l2.98-1.71l5.98-3.44l-3.45-6.03
				l-3.06-5.36l-2.96-5.37l-2.88-5.41l-2.79-5.46l-2.71-5.5l-2.62-5.54l-2.54-5.58l-2.46-5.64l-3.37-8.01l-3.27-8.02l-3.18-8.06
				l-3.08-8.06l-3-8.13l-2.92-8.16l-2.83-8.19l-2.34-7.05l0.31-7.43l0.34-6.58l-9.42,1.33l-28.38,4.02l-28.36,3.77l-28.38,3.53
				l-28.42,3.28l-7.3,0.78l-14.71,1.39l-14.7,1.15l-14.73,0.91l-7.38,0.35l-4.58,0.22l-0.66-0.8l-5.16-6.26l-5.32,15.1
				l-38.85,110.21l-2.27,0l-0.01,29.57l-2.13,2.13l2.13,2.13l-0.01,55.38l-2.13,2.13l2.13,2.13l-0.01,55.38l-2.13,2.13l2.13,2.13
				l-0.01,57.51l0,6.91l7.26,0.36l2.13,2.12l2.12-2.13l206.38-8.29l6.55-0.26v-6.63V609.33l2.17-2.08l-2.08-2.17l0.68-16.57
				l0.36-3.04l0.47-3.19l0.57-3.17l0.67-3.17l0.76-3.1l0.86-3.1l0.95-3.07l1.04-3.04l1.14-3.01l1.23-2.97l1.32-2.93l1.41-2.89
				l1.51-2.87l1.57-2.77L810.66,543.42z M1086.34,498.47l-2.12-2.13l0-4.95l2.13-2.12l-2.12-2.13l0-0.22l0.05-94.11l0-6.58
				l-4.37-0.21l-2.02-2.23l-2.23,2.02l-162.93-7.88l-6.97-0.34l-0.17,7.06l-2.98,122.32l-2.18,2.07l2.07,2.18l-0.19,7.76l-0.33,3.83
				l-0.5,3.88l-0.14,0.8l-2.47,1.71l1.71,2.47l-0.58,2.7l-0.97,3.78l-1.13,3.74l-1.29,3.69l-1.44,3.63l-1.59,3.56l-1.74,3.49
				l-1.88,3.42l-2.02,3.33l-2.16,3.24l-2.29,3.15l-2.42,3.05l-2.59,2.99l-3.1,3.32l-3.26,3.25l-3.38,3.13l-3.48,3l-3.59,2.87
				l-3.69,2.74l-3.78,2.6l-3.87,2.47l-3.96,2.32l-4.04,2.18l-4.11,2.03l-4.18,1.88l-4.25,1.72l-4.3,1.57l-4.36,1.41l-4.52,1.28
				l-7.79,2.21l3.48,7.4l50.09,106.59l-2.09,14.27l11.15-1.69l12.6-1.91l12.56-1.8l12.58-1.7l12.59-1.59l12.6-1.49l12.61-1.39
				l12.62-1.28l12.64-1.18l13.15-1.12l13.16-1.02l13.17-0.92l13.17-0.81l13.18-0.71l13.18-0.6l13.19-0.5l13.24-0.4l6.4-0.19
				l0.01-13.6l0.05-94.33l2.13-2.12l-2.12-2.13l0-4.95l2.13-2.12l-2.12-2.13l0.05-101.41L1086.34,498.47z M545.13,661.68
				l-0.01-55.38l2.13-2.13l-2.13-2.13l-0.01-55.38l2.13-2.13l-2.13-2.13l-0.01-29.57l-2.27,0l-38.85-110.21l-5.32-15.1l-5.16,6.26
				l-0.66,0.8l-4.58-0.22l-7.38-0.35l-14.73-0.91l-14.7-1.15l-14.71-1.39l-7.3-0.78l-28.42-3.28l-28.38-3.53l-28.36-3.77
				l-28.38-4.02l-9.42-1.33l0.34,6.58l0.31,7.43l-2.34,7.05l-2.83,8.19l-2.92,8.16l-3,8.13l-3.08,8.06l-3.18,8.06l-3.27,8.02
				l-3.37,8.01l-2.46,5.64l-2.54,5.58l-2.62,5.54l-2.71,5.5l-2.79,5.46l-2.88,5.41l-2.96,5.37l-3.06,5.36l-3.45,6.03l5.98,3.44
				l2.98,1.71l2.84,1.74l2.79,1.82l2.73,1.9l2.68,1.99l2.61,2.07l2.55,2.14l2.49,2.22l2.41,2.28l2.37,2.38l2.28,2.44l2.21,2.5
				l2.14,2.57l2.05,2.61l2,2.71l1.9,2.75l1.75,2.7l1.66,2.75l1.57,2.77l1.51,2.87l1.41,2.89l1.32,2.93l1.23,2.97l1.14,3.01
				l1.04,3.04l0.95,3.07l0.86,3.1l0.76,3.1l0.67,3.17l0.57,3.17l0.47,3.19l0.36,3.04l0.68,16.57l-2.08,2.17l2.17,2.08v106.18v6.63
				l6.55,0.26l206.38,8.29l2.12,2.13l2.13-2.12l7.26-0.36l0-6.91l-0.01-57.51l2.13-2.13L545.13,661.68z M840.24,137.87l0,4.95
				l-2.12,2.13l2.13,2.12l0.05,101.41l-2.12,2.13l2.13,2.12l0,0.33l0,4.62l-2.12,2.13l2.13,2.12l0.05,94.33l0,7.26l7.16-0.37
				l59.79-3.06l8.75-0.45l0-6.44l0.01-57.68l2.13-2.13l-2.13-2.13l0.01-55.55l2.13-2.13l-2.13-2.13l0.01-50.11l0-1.47l0.09-1.2
				l0.19-1.43l0.22-1.15l0.11-0.36v0l2.81-1.07l-1.08-2.8l0.29-0.48l0.83-1.18l0.92-1.11l1-1.04l1.09-0.97l1.22-0.94l1.37-0.97
				l1.41-0.91l1.45-0.85l1.48-0.79l1.51-0.73l1.54-0.67l1.57-0.6l1.59-0.54l1.61-0.47l1.63-0.4l1.64-0.33l1.66-0.26l1.66-0.19
				l1.67-0.12l1.86-0.06l1.54-0.05l1.54-0.05l3.83-3.17l1.34-1.02l0.44-0.31l-2.61-7.02L912.6,36.43l-5.93-15.98l-5.54,4.71
				l-6.39,0.13l-6.39,0.13l-17.51,0.2l-11.8,0.01l-9.43-0.12l-2.44-0.03l-6.99-0.09l0.01,13.89l0.05,94.33l-2.12,2.13L840.24,137.87
				z M148.55,154.97l3.83,3.17l1.54,0.05l1.54,0.05l1.86,0.06l1.67,0.12l1.66,0.19l1.66,0.26l1.64,0.33l1.63,0.4l1.61,0.47
				l1.59,0.54l1.57,0.6l1.54,0.67l1.51,0.73l1.48,0.79l1.45,0.85l1.41,0.91l1.37,0.97l1.22,0.94l1.09,0.97l1,1.04l0.92,1.11
				l0.83,1.18l0.29,0.48l-1.08,2.8l2.81,1.07v0l0.11,0.36l0.22,1.15l0.19,1.43l0.09,1.2l0,1.47l0.01,50.11l-2.13,2.13l2.13,2.13
				l0.01,55.55l-2.13,2.13l2.13,2.13l0.01,57.68l0,6.44l8.75,0.45l59.79,3.06l7.16,0.37l0-7.26l0.05-94.33l2.13-2.12l-2.12-2.13
				l0-4.62l0-0.33l2.13-2.12l-2.12-2.13l0.05-101.41l2.13-2.12l-2.12-2.13l0-4.95l2.13-2.12l-2.12-2.13l0.05-94.33l0.01-13.89
				l-6.99,0.09l-2.44,0.03l-9.43,0.12l-11.8-0.01l-17.51-0.2l-6.39-0.13l-6.39-0.13l-5.54-4.71l-5.93,15.98l-40.9,110.19l-2.61,7.02
				l0.44,0.31L148.55,154.97z M56.49,329.43l0,6.9l6.82,0l36.81,0l2.13,2.13l2.13-2.13l36.39,0l6.82,0l0-6.9l0-42.79l0-42.79l0-6.9
				h-6.82l-36.6,0l-2.13-2.13l-2.13,2.13l-36.6,0l-6.82,0l0,6.9l0,42.79L56.49,329.43z"/>

				<path id="id:SUB_SECOND_ACCENT_1_00000052062024750320403410000009552574169297447608_" display="inline" fill="#68737A" d="
				M819.97,66.51l6.82,0l0,6.9l0,39.11l0,39.11l0,6.9l-6.82,0l-266.41-0.02l-2.13,2.13l-2.13-2.13l-266.41,0.01l-6.82,0l0-6.9
				l0-39.11l0-39.11l0-6.9l6.82,0l266.41,0.02l2.13-2.13l2.13,2.13L819.97,66.51z M723.49,273.27l0-38.99l0-6.88l-6.82,0l-158.57,0
				l-2.13-2.13l-2.13,2.13h-2.42l-2.42,0l-2.13-2.13l-2.13,2.13h0l-158.57,0.02l-6.82,0l0,6.89l0,38.98l0,38.99l0,6.88l6.82,0
				l158.57,0l2.13,2.13l2.13-2.13l2.42,0l2.42,0l2.13,2.13l2.13-2.13l158.57-0.02l6.82,0l0-6.88L723.49,273.27z M815.27,629.14
				l1.25,2.66v-18.56l-1.25,0.36V629.14z M837.78,605.55v71.51l1.25,2.66v-74.77l-0.81,0.4L837.78,605.55z M860.3,743.69l1.25-0.19
				v-8.37l-1.25,8.54V743.69z M860.3,724.98l1.25,2.66V591.12l-1.25,0.93V724.98z M882.82,570.28v170l1.24-0.19l0.01,0V568.64
				l-0.57,0.78L882.82,570.28z M905.58,384.66l-0.24,9.86v342.6l1.25-0.17V377.64l-0.84-0.04L905.58,384.66z M927.85,734.29
				l1.25-0.15V378.73l-1.25-0.06V734.29z M950.37,731.79l1.25-0.13V379.82l-1.25-0.06V731.79z M972.89,729.61l1.25-0.11v-348.6
				l-1.25-0.06V729.61z M995.41,727.77l1.25-0.1V381.99l-1.25-0.06V727.77z M1017.92,726.23l1.25-0.08V383.08l-1.25-0.06V726.23z
				 M1040.44,724.98l1.25-0.06V384.17l-1.25-0.06V724.98z M1062.96,724.04l1.25-0.05V385.26l-1.25-0.06V724.04z M1085.48,614.14
				l0.81-0.81l-0.81-0.81V614.14z M1085.48,499.34l0.86-0.86l-0.86-0.86V499.34z M1085.48,488.4v1.74l0.87-0.87L1085.48,488.4z
				 M1085.48,604.94l0.81-0.81l-0.81-0.81V604.94z M478.8,728.49l1.25,0.05V393.98l-1.25-0.08V728.49z M456.28,727.59l1.25,0.05
				V392.45l-1.25-0.1V727.59z M433.77,726.69l1.25,0.05V390.4l-1.25-0.13V726.69z M411.25,725.78l1.25,0.05V387.84l-1.25-0.14
				V725.78z M388.73,724.88l1.25,0.05V385.15l-1.25-0.16V724.88z M546.35,545.42l0.88-0.88l-0.88-0.88V545.42z M546.35,664.71
				l0.91-0.91l-0.91-0.91V664.71z M546.35,605.06l0.9-0.9l-0.9-0.89V605.06z M523.84,730.3l1.25,0.05V462.48l-1.25-3.55V730.3z
				 M501.32,729.4l1.25,0.05V398.61l-1.25-3.55V729.4z M366.21,723.97l1.25,0.05V382.3l-1.25-0.17V723.97z M343.7,379.14v343.93
				l1.25,0.05V379.31l-0.67-0.09L343.7,379.14z M321.18,722.17l1.25,0.05V376.13l-1.25-0.18V722.17z M298.66,412.35v122.77
				l0.12,0.15l1.13,1.54V408.89l-0.86,2.4L298.66,412.35z M276.14,512.92l1.25,0.93v-49.47l-1.25,2.64V512.92z M246.56,362.71
				l1.25,0.06V25.58l-1.25,0.02V362.71z M224.04,361.55l1.25,0.06V25.54l-1.25-0.01V361.55z M201.53,24.97V360.4l1.25,0.06V25.18
				l-1.04-0.02L201.53,24.97z M179.01,166.08l0.11,0.08l1.14,0.88V63.4l-1.25,3.37V166.08z M156.49,158.28l0.82,0.03l0.43,0.03
				v-34.28l-1.25,3.37V158.28z M290.27,624.83l1.25-2.66v-15.54l-1.25-0.36V624.83z M267.75,597.98v74.77l1.25-2.66v-71.51
				l-0.44-0.2L267.75,597.98z M245.23,720.67l1.25-2.66V585.07l-1.25-0.93V720.67z M245.23,736.53l1.25,0.19v-0.02l-1.25-8.54
				V736.53z M222.72,561.67v171.45l0.01,0l1.24,0.19v-170l-0.68-0.86L222.72,561.67z M201.03,370.63l-0.84,0.04v359.31l1.25,0.17
				v-342.6l-0.24-9.86L201.03,370.63z M177.68,727.17l1.25,0.15V371.7l-1.25,0.06V727.17z M155.16,724.69l1.25,0.13V372.78
				l-1.25,0.06V724.69z M132.65,722.54l1.25,0.11V373.87l-1.25,0.06V722.54z M110.13,720.7l1.25,0.1V374.96l-1.25,0.06V720.7z
				 M87.61,719.18l1.25,0.08V376.05l-1.25,0.06V719.18z M65.1,717.95l1.25,0.06V377.14l-1.25,0.06V717.95z M42.58,717.02l1.25,0.05
				V378.23l-1.25,0.06V717.02z M21.31,607.17v-1.61l-0.81,0.81L21.31,607.17z M21.31,492.37v-1.73l-0.86,0.86L21.31,492.37z
				 M21.31,597.97v-1.62l-0.81,0.81L21.31,597.97z M21.31,483.17v-1.74l-0.87,0.87L21.31,483.17z M635.04,728.55l1.25-0.05V393.91
				l-1.25,0.08V728.55z M657.56,727.64l1.25-0.05V392.35l-1.25,0.1V727.64z M680.08,726.74l1.25-0.05V390.26l-1.25,0.13V726.74z
				 M702.59,725.83l1.25-0.05V387.7l-1.25,0.14V725.83z M725.11,724.93l1.25-0.05V384.99l-1.25,0.16V724.93z M568.74,605.06v-1.79
				l-0.9,0.89L568.74,605.06z M568.74,545.42v-1.77l-0.88,0.88L568.74,545.42z M568.74,664.71v-1.81l-0.91,0.91L568.74,664.71z
				 M590.01,730.35l1.25-0.05V458.93l-1.25,3.55V730.35z M612.52,729.45l1.25-0.05V395.06l-1.25,3.55V729.45z M747.63,724.02
				l1.25-0.05V382.14l-1.25,0.17V724.02z M770.14,379.31v343.81l1.25-0.05V379.14l-0.58,0.08L770.14,379.31z M792.66,722.22
				l1.25-0.05V375.95l-1.25,0.18V722.22z M816.43,535.12V412.35l-0.39-1.06l-0.86-2.4v127.92l1.13-1.54L816.43,535.12z
				 M838.95,467.02l-1.25-2.64v49.47l1.25-0.93V467.02z M855.06,362.77l1.25-0.06V25.6l-1.25-0.02V362.77z M877.58,361.62l1.25-0.06
				V25.53l-1.25,0.01V361.62z M900.09,25.18v335.29l1.25-0.06V24.97l-0.21,0.18L900.09,25.18z M922.61,167.03l1.14-0.88l0.11-0.08
				V66.76l-1.25-3.37V167.03z M945.13,158.33l0.43-0.03l0.82-0.03v-30.85l-1.25-3.37V158.33z"/>

				<path id="id:SUB_SECOND_ACCENT_2_00000173127985155979523150000012524992644737311644_" display="inline" fill="#F1582A" d="
				M826.79,138.13H276.08l0-11.95h550.7L826.79,138.13z M379.37,286.94l0,11.95H723.5l0-11.95H379.37z"/>
		</g>
</svg>