<?xml version="1.0" encoding="utf-8"?>
<svg version="1.1"
	 xmlns="http://www.w3.org/2000/svg" xmlns:xlink="http://www.w3.org/1999/xlink" x="0px" y="0px" width="1104.07px"
	 height="761.93px" viewBox="0 0 1104.07 761.93" enable-background="new 0 0 1104.07 761.93" xml:space="preserve">>
<g id="id:pace" display="inline">

				<path id="id:SUB_SECOND_BODY_COLOR_00000102525043409512055720000012042573249049669268_" display="inline" fill="#005B9B" d="
				M840.23,133.62l-2.12,2.13l2.13,2.12l0,0l0,4.95l-2.12,2.13l2.13,2.12l0.05,101.41l-2.12,2.13l2.13,2.12l0,0.33l0,4.62
				l-2.12,2.13l2.13,2.12l0.05,94.33l0,7.26l7.16-0.37l59.79-3.06l8.75-0.45l0-6.44l0.01-57.68l2.13-2.13l-2.13-2.13l0.01-55.55
				l2.13-2.13l-2.13-2.13l0.01-50.11l0-1.47l0.09-1.2l0.19-1.43l0.22-1.15l0.11-0.36v0l2.81-1.07l-1.08-2.8l0.29-0.48l0.83-1.18
				l0.92-1.11l1-1.04l1.09-0.97l1.22-0.94l1.37-0.97l1.41-0.91l1.45-0.85l1.48-0.79l1.51-0.73l1.54-0.67l1.57-0.6l1.59-0.54
				l1.61-0.47l1.63-0.4l1.64-0.33l1.66-0.26l1.66-0.19l1.67-0.12l1.86-0.06l1.54-0.05l1.54-0.05l3.83-3.17l1.34-1.02l0.44-0.31
				l-2.61-7.02l-40.9-110.19l-5.93-15.98l-5.54,4.71l-6.39,0.13l-6.39,0.13l-17.51,0.2l-11.8,0.01l-9.43-0.12l-2.44-0.03l-6.99-0.09
				l0.01,13.89L840.23,133.62z M262.66,39.29l0.01-13.89l-6.99,0.09l-2.44,0.03l-9.43,0.12l-11.8-0.01l-17.51-0.2l-6.39-0.13
				l-6.39-0.13l-5.54-4.71l-5.93,15.98l-40.9,110.19l-2.61,7.02l0.44,0.31l1.34,1.02l3.83,3.17l1.54,0.05l1.54,0.05l1.86,0.06
				l1.67,0.12l1.66,0.19l1.66,0.26l1.64,0.33l1.63,0.4l1.61,0.47l1.59,0.54l1.57,0.6l1.54,0.67l1.51,0.73l1.48,0.79l1.45,0.85
				l1.41,0.91l1.37,0.97l1.22,0.94l1.09,0.97l1,1.04l0.92,1.11l0.83,1.18l0.29,0.48l-1.08,2.8l2.81,1.07v0l0.11,0.36l0.22,1.15
				l0.19,1.43l0.09,1.2l0,1.47l0.01,50.11l-2.13,2.13l2.13,2.13l0.01,55.55l-2.13,2.13l2.13,2.13l0.01,57.68l0,6.44l8.75,0.45
				l59.79,3.06l7.16,0.37l0-7.26l0.05-94.33l2.13-2.12l-2.12-2.13l0-4.62l0-0.33l2.13-2.12l-2.12-2.13l0.05-101.41l2.13-2.12
				l-2.12-2.13l0-4.95l0,0l2.13-2.12l-2.12-2.13L262.66,39.29z M294.47,615.86l-50.09,106.59l2.09,14.27l-11.15-1.69l-12.6-1.91
				l-12.56-1.8l-12.58-1.7l-12.59-1.59l-12.6-1.49l-12.61-1.39l-12.62-1.28l-12.64-1.18l-13.15-1.12l-13.16-1.02l-13.17-0.92
				l-13.17-0.81l-13.18-0.71l-13.18-0.6l-13.19-0.5l-13.24-0.4l-6.4-0.19l-0.01-13.6l-0.05-94.33l-2.13-2.12l2.12-2.13l0-4.95
				l-2.13-2.12l2.12-2.13l-0.05-101.41l-2.13-2.12l2.12-2.13l0-4.95l-2.13-2.12l2.12-2.13l0-0.22l-0.05-94.11l0-6.58l4.37-0.21
				l2.02-2.23l2.23,2.02l162.93-7.88l6.97-0.34l0.17,7.06l2.98,122.32l2.18,2.07l-2.07,2.18l0.19,7.76l0.33,3.83l0.5,3.88l0.14,0.8
				l2.47,1.71l-1.71,2.47l0.58,2.7l0.97,3.78l1.13,3.74l1.29,3.69l1.44,3.63l1.59,3.56l1.74,3.49l1.88,3.42l2.02,3.33l2.16,3.24
				l2.29,3.15l2.42,3.05l2.59,2.99l3.1,3.32l3.26,3.25l3.38,3.13l3.48,3l3.59,2.87l3.69,2.74l3.78,2.6l3.87,2.47l3.96,2.32
				l4.04,2.18l4.11,2.03l4.18,1.88l4.25,1.72l4.3,1.57l4.36,1.41l4.52,1.28l7.79,2.21L294.47,615.86z M567.83,604.17l2.13,2.13
				l-0.01,55.38l-2.13,2.13l2.13,2.13l-0.01,57.51l0,6.91l7.26,0.36l2.13,2.12l2.12-2.13l206.38-8.29l6.55-0.26v-6.63V609.33
				l2.17-2.08l-2.08-2.17l0.68-16.57l0.36-3.04l0.47-3.19l0.57-3.17l0.67-3.17l0.76-3.1l0.86-3.1l0.95-3.07l1.04-3.04l1.14-3.01
				l1.23-2.97l1.32-2.93l1.41-2.89l1.51-2.87l1.57-2.77l1.66-2.75l1.75-2.7l1.9-2.75l2-2.71l2.05-2.61l2.14-2.57l2.21-2.5l2.28-2.44
				l2.37-2.38l2.41-2.28l2.49-2.22l2.55-2.14l2.61-2.07l2.68-1.99l2.73-1.9l2.79-1.82l2.84-1.74l2.98-1.71l5.98-3.44l-3.45-6.03
				l-3.06-5.36l-2.96-5.37l-2.88-5.41l-2.79-5.46l-2.71-5.5l-2.62-5.54l-2.54-5.58l-2.46-5.64l-3.37-8.01l-3.27-8.02l-3.18-8.06
				l-3.08-8.06l-3-8.13l-2.92-8.16l-2.83-8.19l-2.34-7.05l0.31-7.43l0.34-6.58l-9.42,1.33l-28.38,4.02l-28.36,3.77l-28.38,3.53
				l-28.42,3.28l-7.3,0.78l-14.71,1.39l-14.7,1.15l-14.73,0.91l-7.38,0.35l-4.58,0.22l-0.66-0.8l-5.16-6.26l-5.32,15.1
				l-38.85,110.21l-2.27,0l-0.01,29.57l-2.13,2.13l2.13,2.13l-0.01,55.38L567.83,604.17z M812.29,622.83l50.09,106.59l-2.09,14.27
				l11.15-1.69l12.6-1.91l12.56-1.8l12.58-1.7l12.59-1.59l12.6-1.49l12.61-1.39l12.62-1.28l12.64-1.18l13.15-1.12l13.16-1.02
				l13.17-0.92l13.17-0.81l13.18-0.71l13.18-0.6l13.19-0.5l13.24-0.4l6.4-0.19l0.01-13.6l0.05-94.33l2.13-2.12l-2.12-2.13l0-4.95
				l2.13-2.12l-2.12-2.13l0.05-101.41l2.13-2.12l-2.12-2.13l0-4.95l2.13-2.12l-2.12-2.13l0-0.22l0.05-94.11l0-6.58l-4.37-0.21
				l-2.02-2.23l-2.23,2.02l-162.93-7.88l-6.97-0.34l-0.17,7.06l-2.98,122.32l-2.18,2.07l2.07,2.18l-0.19,7.76l-0.33,3.83l-0.5,3.88
				l-0.14,0.8l-2.47,1.71l1.71,2.47l-0.58,2.7l-0.97,3.78l-1.13,3.74l-1.29,3.69l-1.44,3.63l-1.59,3.56l-1.74,3.49l-1.88,3.42
				l-2.02,3.33l-2.16,3.24l-2.29,3.15l-2.42,3.05l-2.59,2.99l-3.1,3.32l-3.26,3.25l-3.38,3.13l-3.48,3l-3.59,2.87l-3.69,2.74
				l-3.78,2.6l-3.87,2.47l-3.96,2.32l-4.04,2.18l-4.11,2.03l-4.18,1.88l-4.25,1.72l-4.3,1.57l-4.36,1.41l-4.52,1.28l-7.79,2.21
				L812.29,622.83z M545.11,602.04l-0.01-55.38l2.13-2.13l-2.13-2.13l-0.01-29.57l-2.27,0l-38.85-110.21l-5.32-15.1l-5.16,6.26
				l-0.66,0.8l-4.58-0.22l-7.38-0.35l-14.73-0.91l-14.7-1.15l-14.71-1.39l-7.3-0.78l-28.42-3.28l-28.38-3.53l-28.36-3.77
				l-28.38-4.02l-9.42-1.33l0.34,6.58l0.31,7.43l-2.34,7.05l-2.83,8.19l-2.92,8.16l-3,8.13l-3.08,8.06l-3.18,8.06l-3.27,8.02
				l-3.37,8.01l-2.46,5.64l-2.54,5.58l-2.62,5.54l-2.71,5.5l-2.79,5.46l-2.88,5.41l-2.96,5.37l-3.06,5.36l-3.45,6.03l5.98,3.44
				l2.98,1.71l2.84,1.74l2.79,1.82l2.73,1.9l2.68,1.99l2.61,2.07l2.55,2.14l2.49,2.22l2.41,2.28l2.37,2.38l2.28,2.44l2.21,2.5
				l2.14,2.57l2.05,2.61l2,2.71l1.9,2.75l1.75,2.7l1.66,2.75l1.57,2.77l1.51,2.87l1.41,2.89l1.32,2.93l1.23,2.97l1.14,3.01
				l1.04,3.04l0.95,3.07l0.86,3.1l0.76,3.1l0.67,3.17l0.57,3.17l0.47,3.19l0.36,3.04l0.68,16.57l-2.08,2.17l2.17,2.08v106.18v6.63
				l6.55,0.26l206.38,8.29l2.12,2.13l2.13-2.12l7.26-0.36l0-6.91l-0.01-57.51l2.13-2.13l-2.13-2.13l-0.01-55.38l2.13-2.13
				L545.11,602.04z"/>

				<path id="id:SUB_SECOND_ACCENT_2_00000021115806956837954910000000539730601964596124_" display="inline" fill="#F1582A" d="
				M228.11,697.53l26.13,3.96l-2,4.25l-7.85,16.71l2.09,14.27l-11.15-1.69l-12.6-1.91l-12.56-1.8l-12.58-1.7l-12.59-1.59l-12.6-1.49
				l-12.61-1.39l-12.62-1.28l-12.64-1.18l-13.15-1.12l-13.16-1.02l-13.17-0.92l-13.17-0.81l-13.18-0.71l-13.18-0.6l-13.19-0.5
				l-13.24-0.4l-6.4-0.19l-0.01-13.6l-0.01-17.91l0-4.5l21.03,0.64l13.47,0.51l13.47,0.62l13.46,0.72l13.45,0.83l13.45,0.94
				l13.44,1.04l13.44,1.15l12.93,1.21l12.92,1.31l12.91,1.42l12.89,1.53l12.88,1.63l12.87,1.74L228.11,697.53z M1084.11,687.37
				l0,4.5l-0.01,17.91l-0.01,13.6l-6.4,0.19l-13.24,0.4l-13.19,0.5l-13.18,0.6l-13.18,0.71l-13.17,0.81l-13.17,0.92l-13.16,1.02
				l-13.15,1.12l-12.64,1.18l-12.62,1.28l-12.61,1.39l-12.6,1.49l-12.59,1.59l-12.58,1.7l-12.56,1.8l-12.6,1.91l-11.15,1.69
				l2.09-14.27l-7.85-16.71l-2-4.25l26.13-3.96l12.85-1.84l12.87-1.74l12.88-1.63l12.89-1.53l12.91-1.42l12.92-1.31l12.93-1.21
				l13.44-1.15l13.44-1.04l13.45-0.94l13.45-0.83l13.46-0.72l13.47-0.62l13.47-0.51L1084.11,687.37z M858.83,61.63l-18.64-0.23
				l0-4.5l-0.01-17.61l-0.01-13.89l6.99,0.09l2.44,0.03l9.43,0.12l11.14-0.01l0.66,0l4.12-0.05l13.39-0.16l6.39-0.13l6.39-0.13
				l5.54-4.71l5.93,15.98l7.37,19.84l1.66,4.47l19.49,52.49l1.67,4.5h-33.6h-4.8l-1.67-4.5l-19.21-51.75l-12.62,0.15L858.83,61.63z
				 M813.76,404.95l1.55,4.33l-39.76,5.63l-28.67,3.81l-28.69,3.56l-28.72,3.32l-7.74,0.83l-15,1.42l-15.58,1.21l-11.44,0.7
				l-19.09,54.15l-1.59,4.5h-4.77h-33.4l1.59-4.5l18.42-52.26l1.62-4.58l8.62-24.44l5.32-15.1l5.16,6.26l0.66,0.8l4.58-0.22
				l7.38-0.35l13.63-0.84l1.11-0.07l3.79-0.3l10.91-0.85l14.71-1.39l7.3-0.78l28.42-3.28l28.38-3.53l28.36-3.77l28.38-4.02
				l9.42-1.33l-0.34,6.58l-0.31,7.43l2.34,7.05l2.83,8.19L813.76,404.95z M255.68,25.49l6.99-0.09l-0.01,13.89l-0.01,17.61l0,4.5
				l-18.64,0.23l-12.03-0.01l-12.62-0.15l-19.21,51.75l-1.67,4.5h-4.8h-33.6l1.67-4.5l19.49-52.49l1.66-4.47l7.37-19.84l5.93-15.98
				l5.54,4.71l6.39,0.13l6.39,0.13l13.39,0.16l4.12,0.05l0.66,0l11.14,0.01l9.43-0.12L255.68,25.49z M532.63,483.92l1.59,4.5h-33.4
				h-4.77l-1.59-4.5l-19.09-54.15l-11.44-0.7l-15.58-1.21l-15-1.42l-7.74-0.83l-28.72-3.32l-28.69-3.56l-28.67-3.81l-39.76-5.63
				l1.55-4.33l0.65-1.82l2.83-8.19l2.34-7.05l-0.31-7.43l-0.34-6.58l9.42,1.33l28.38,4.02l28.36,3.77l28.38,3.53l28.42,3.28
				l7.3,0.78l14.71,1.39l10.91,0.85l3.79,0.3l1.11,0.07l13.63,0.84l7.38,0.35l4.58,0.22l0.66-0.8l5.16-6.26l5.32,15.1l8.62,24.44
				l1.62,4.58L532.63,483.92z"/>

				<path id="id:SUB_SECOND_ACCENT_1_00000106130012896963818580000011480364136624973710_" display="inline" fill="#68737A" d="
				M826.78,66.51h-6.82l-266.41,0.01l-2.12-2.12l-2.12,2.12l-266.41-0.02h-6.82v46.01l0,32.51v13.51h6.82l266.41-0.01l2.12,2.12
				l2.12-2.12l266.41,0.02h6.82v-13.52l0-32.5l0.01-39.11V66.51z M147.56,243.85v-6.9h-43.41l-2.13-2.12l-2.12,2.12l-36.6,0h-6.82
				v99.38h43.62l2.12,2.13l2.12-2.13h43.21v-49.69L147.56,243.85z M723.48,305.64v13.5h-6.82l-158.57,0.02l-2.12,2.12l-2.13-2.12
				H549l-2.13,2.12l-2.12-2.12l-158.57-0.01h-6.82v-45.87l0-38.99v-6.89h6.82l158.57-0.02l2.12-2.13l2.13,2.13h4.84l2.13-2.13
				l2.12,2.13l158.57,0.01h6.82v45.87L723.48,305.64z M252.24,705.73l-7.85,16.71l2.09,14.27l-11.15-1.69l-12.6-1.91l-12.56-1.8
				l-12.58-1.7l-12.59-1.59l-12.6-1.49l-12.61-1.39l-12.62-1.28l-12.64-1.18l-13.15-1.12l-13.16-1.02l-13.17-0.92l-13.17-0.81
				l-13.18-0.71l-13.18-0.6l-13.19-0.5l-13.24-0.4l-6.4-0.19l-0.01-13.6l-0.01-17.91l20.86,0.63l13.43,0.51l13.43,0.62l13.42,0.72
				l13.42,0.83l13.41,0.93l13.41,1.04l13.4,1.15l12.89,1.21l12.88,1.31l12.87,1.42l12.86,1.52l12.85,1.63l12.83,1.73l12.82,1.84
				L252.24,705.73z M1063.24,692.51l-13.43,0.51l-13.43,0.62l-13.42,0.72l-13.42,0.83l-13.41,0.93l-13.41,1.04l-13.4,1.15
				l-12.89,1.21l-12.88,1.31l-12.87,1.42l-12.86,1.52l-12.85,1.63l-12.83,1.73l-12.82,1.84l-24.81,3.76l7.85,16.71l-2.09,14.27
				l11.15-1.69l12.6-1.91l12.56-1.8l12.58-1.7l12.59-1.59l12.6-1.49l12.61-1.39l12.62-1.28l12.64-1.18l13.15-1.12l13.16-1.02
				l13.17-0.92l13.17-0.81l13.18-0.71l13.18-0.6l13.19-0.5l13.24-0.4l6.4-0.19l0.01-13.6l0.01-17.91L1063.24,692.51z M870.86,57.12
				l10.96-0.13l4.78-0.06l1.66,4.48l19.23,51.81h33.6l-19.49-52.49l-1.66-4.47l-7.37-19.84l-5.93-15.98l-5.54,4.71l-6.39,0.13
				l-6.39,0.13l-13.39,0.16l-4.12,0.05l-0.66,0l-11.14,0.01l-9.43-0.12l-2.44-0.03l-6.99-0.09l0.01,13.89l0.01,17.61l18.66,0.23
				L870.86,57.12z M810.28,394.93l-2.34-7.05l0.31-7.43l0.34-6.58l-9.42,1.33l-28.38,4.02l-28.36,3.77l-28.38,3.53l-28.42,3.28
				l-7.3,0.78l-14.71,1.39l-10.91,0.85l-3.79,0.3l-1.11,0.07l-13.63,0.84l-7.38,0.35l-4.58,0.22l-0.66-0.8l-5.16-6.26l-5.32,15.1
				l-8.62,24.44l-1.62,4.58l-18.42,52.26h33.4l18.99-53.87l1.62-4.59l4.88-0.3l9.54-0.59l15.47-1.21l14.96-1.42l7.68-0.82
				l28.68-3.31l28.65-3.56l28.63-3.8l38.81-5.49l-0.65-1.82L810.28,394.93z M253.24,25.52l-9.43,0.12l-11.14-0.01l-0.66,0
				l-4.12-0.05l-13.39-0.16l-6.39-0.13l-6.39-0.13l-5.54-4.71l-5.93,15.98l-7.37,19.84l-1.66,4.47l-19.49,52.49h33.6l19.23-51.81
				l1.66-4.48l4.78,0.06l10.96,0.13l12,0.01l18.66-0.23l0.01-17.61l0.01-13.89l-6.99,0.09L253.24,25.52z M512.59,427.08l-8.62-24.44
				l-5.32-15.1l-5.16,6.26l-0.66,0.8l-4.58-0.22l-7.38-0.35l-13.63-0.84l-1.11-0.07l-3.79-0.3l-10.91-0.85l-14.71-1.39l-7.3-0.78
				l-28.42-3.28l-28.38-3.53l-28.36-3.77l-28.38-4.02l-9.42-1.33l0.34,6.58l0.31,7.43l-2.34,7.05l-2.83,8.19l-0.65,1.82l38.81,5.49
				l28.63,3.8l28.65,3.56l28.68,3.31l7.68,0.82l14.96,1.42l15.47,1.21l9.54,0.59l4.88,0.3l1.62,4.59l18.99,53.87h33.4l-18.42-52.26
				L512.59,427.08z"/>

				<path id="id:SUB_SECOND_ACCENT_2_00000054262905231245480970000006275649266243775874_" display="inline" fill="#F1582A" d="
				M723.48,305.64v13.5h-6.82l-158.57,0.02l-2.12,2.12l-2.13-2.12H549l-2.13,2.12l-2.12-2.12l-158.57-0.01h-6.82v-13.51
				L723.48,305.64z M276.07,145.02v13.51h6.82l266.41-0.01l2.12,2.12l2.12-2.12l266.41,0.02h6.82v-13.52H276.07z"/>
		</g>
</svg>