<?xml version="1.0" encoding="utf-8"?>
<svg version="1.1"
	 xmlns="http://www.w3.org/2000/svg" xmlns:xlink="http://www.w3.org/1999/xlink" x="0px" y="0px" width="1104.07px"
	 height="761.93px" viewBox="0 0 1104.07 761.93" enable-background="new 0 0 1104.07 761.93" xml:space="preserve">>
<g id="id:portland" display="inline">

				<path id="id:SUB_SECOND_BODY_COLOR_00000068658325734399379450000017926139468804325282_" display="inline" fill="#005B9B" d="
				M290.17,606.25l7.79,2.21l-3.48,7.4L244.4,722.45l2.09,14.27l-11.15-1.69l-12.6-1.91l-12.56-1.8l-12.58-1.7L185,728.04
				l-12.6-1.49l-12.61-1.39l-12.62-1.28l-12.64-1.18l-13.15-1.12l-13.16-1.02l-13.17-0.92l-13.17-0.81l-13.18-0.71l-13.18-0.6
				l-13.19-0.5l-13.24-0.4l-6.4-0.19l-0.01-13.6l-0.05-94.33l-2.13-2.12l2.12-2.13l0-4.95l-2.13-2.12l2.12-2.13l-0.05-101.41
				l-2.13-2.12l2.12-2.13l0-4.95l-2.13-2.12l2.12-2.13l0-0.22l-0.05-94.11l0-6.58l4.37-0.21l2.02-2.23l2.23,2.02l162.93-7.88
				l6.97-0.34l0.17,7.06l2.98,122.32l2.18,2.07l-2.07,2.18l0.19,7.76l0.33,3.83l0.5,3.88l0.14,0.8l2.47,1.71l-1.71,2.47l0.58,2.7
				l0.97,3.78l1.13,3.74l1.29,3.69l1.44,3.63l1.59,3.56l1.74,3.49l1.88,3.42l2.02,3.33l2.16,3.24l2.29,3.15l2.42,3.05l2.59,2.99
				l3.1,3.32l3.26,3.25l3.38,3.13l3.48,3l3.59,2.87l3.69,2.74l3.78,2.6l3.87,2.47l3.96,2.32l4.04,2.18l4.11,2.03l4.18,1.88
				l4.25,1.72l4.3,1.57l4.36,1.41L290.17,606.25z M810.66,543.42l1.75-2.7l1.9-2.75l2-2.71l2.05-2.61l2.14-2.57l2.21-2.5l2.28-2.44
				l2.37-2.38l2.41-2.28l2.49-2.22l2.55-2.14l2.61-2.07l2.68-1.99l2.73-1.9l2.79-1.82l2.84-1.74l2.98-1.71l5.98-3.44l-3.45-6.03
				l-3.06-5.36l-2.96-5.37l-2.88-5.41l-2.79-5.46l-2.71-5.5l-2.62-5.54l-2.54-5.58l-2.46-5.64l-3.37-8.01l-3.27-8.02l-3.18-8.06
				l-3.08-8.06l-3-8.13l-2.92-8.16l-2.83-8.19l-2.34-7.05l0.31-7.43l0.34-6.58l-9.42,1.33l-28.38,4.02l-28.36,3.77l-28.38,3.53
				l-28.42,3.28l-7.3,0.78l-14.71,1.39l-14.7,1.15l-14.73,0.91l-7.38,0.35l-4.58,0.22l-0.66-0.8l-5.16-6.26l-5.32,15.1
				l-38.85,110.21l-2.27,0l-0.01,29.57l-2.13,2.13l2.13,2.13l-0.01,55.38l-2.13,2.13l2.13,2.13l-0.01,55.38l-2.13,2.13l2.13,2.13
				l-0.01,57.51l0,6.91l7.26,0.36l2.13,2.12l2.12-2.13l206.38-8.29l6.55-0.26v-6.63V609.33l2.17-2.08l-2.08-2.17l0.68-16.57
				l0.36-3.04l0.47-3.19l0.57-3.17l0.67-3.17l0.76-3.1l0.86-3.1l0.95-3.07l1.04-3.04l1.14-3.01l1.23-2.97l1.32-2.93l1.41-2.89
				l1.51-2.87l1.57-2.77L810.66,543.42z M1086.34,498.47l-2.12-2.13l0-4.95l2.13-2.12l-2.12-2.13l0-0.22l0.05-94.11l0-6.58
				l-4.37-0.21l-2.02-2.23l-2.23,2.02l-162.93-7.88l-6.97-0.34l-0.17,7.06l-2.98,122.32l-2.18,2.07l2.07,2.18l-0.19,7.76l-0.33,3.83
				l-0.5,3.88l-0.14,0.8l-2.47,1.71l1.71,2.47l-0.58,2.7l-0.97,3.78l-1.13,3.74l-1.29,3.69l-1.44,3.63l-1.59,3.56l-1.74,3.49
				l-1.88,3.42l-2.02,3.33l-2.16,3.24l-2.29,3.15l-2.42,3.05l-2.59,2.99l-3.1,3.32l-3.26,3.25l-3.38,3.13l-3.48,3l-3.59,2.87
				l-3.69,2.74l-3.78,2.6l-3.87,2.47l-3.96,2.32l-4.04,2.18l-4.11,2.03l-4.18,1.88l-4.25,1.72l-4.3,1.57l-4.36,1.41l-4.52,1.28
				l-7.79,2.21l3.48,7.4l50.09,106.59l-2.09,14.27l11.15-1.69l12.6-1.91l12.56-1.8l12.58-1.7l12.59-1.59l12.6-1.49l12.61-1.39
				l12.62-1.28l12.64-1.18l13.15-1.12l13.16-1.02l13.17-0.92l13.17-0.81l13.18-0.71l13.18-0.6l13.19-0.5l13.24-0.4l6.4-0.19
				l0.01-13.6l0.05-94.33l2.13-2.12l-2.12-2.13l0-4.95l2.13-2.12l-2.12-2.13l0.05-101.41L1086.34,498.47z M545.13,661.68
				l-0.01-55.38l2.13-2.13l-2.13-2.13l-0.01-55.38l2.13-2.13l-2.13-2.13l-0.01-29.57l-2.27,0l-38.85-110.21l-5.32-15.1l-5.16,6.26
				l-0.66,0.8l-4.58-0.22l-7.38-0.35l-14.73-0.91l-14.7-1.15l-14.71-1.39l-7.3-0.78l-28.42-3.28l-28.38-3.53l-28.36-3.77
				l-28.38-4.02l-9.42-1.33l0.34,6.58l0.31,7.43l-2.34,7.05l-2.83,8.19l-2.92,8.16l-3,8.13l-3.08,8.06l-3.18,8.06l-3.27,8.02
				l-3.37,8.01l-2.46,5.64l-2.54,5.58l-2.62,5.54l-2.71,5.5l-2.79,5.46l-2.88,5.41l-2.96,5.37l-3.06,5.36l-3.45,6.03l5.98,3.44
				l2.98,1.71l2.84,1.74l2.79,1.82l2.73,1.9l2.68,1.99l2.61,2.07l2.55,2.14l2.49,2.22l2.41,2.28l2.37,2.38l2.28,2.44l2.21,2.5
				l2.14,2.57l2.05,2.61l2,2.71l1.9,2.75l1.75,2.7l1.66,2.75l1.57,2.77l1.51,2.87l1.41,2.89l1.32,2.93l1.23,2.97l1.14,3.01
				l1.04,3.04l0.95,3.07l0.86,3.1l0.76,3.1l0.67,3.17l0.57,3.17l0.47,3.19l0.36,3.04l0.68,16.57l-2.08,2.17l2.17,2.08v106.18v6.63
				l6.55,0.26l206.38,8.29l2.12,2.13l2.13-2.12l7.26-0.36l0-6.91l-0.01-57.51l2.13-2.13L545.13,661.68z M840.24,137.87l0,4.95
				l-2.12,2.13l2.13,2.12l0.05,101.41l-2.12,2.13l2.13,2.12l0,0.33l0,4.62l-2.12,2.13l2.13,2.12l0.05,94.33l0,7.26l7.16-0.37
				l59.79-3.06l8.75-0.45l0-6.44l0.01-57.68l2.13-2.13l-2.13-2.13l0.01-55.55l2.13-2.13l-2.13-2.13l0.01-50.11l0-1.47l0.09-1.2
				l0.19-1.43l0.22-1.15l0.11-0.36v0l2.81-1.07l-1.08-2.8l0.29-0.48l0.83-1.18l0.92-1.11l1-1.04l1.09-0.97l1.22-0.94l1.37-0.97
				l1.41-0.91l1.45-0.85l1.48-0.79l1.51-0.73l1.54-0.67l1.57-0.6l1.59-0.54l1.61-0.47l1.63-0.4l1.64-0.33l1.66-0.26l1.66-0.19
				l1.67-0.12l1.86-0.06l1.54-0.05l1.54-0.05l3.83-3.17l1.34-1.02l0.44-0.31l-2.61-7.02L912.6,36.43l-5.93-15.98l-5.54,4.71
				l-6.39,0.13l-6.39,0.13l-17.51,0.2l-11.8,0.01l-9.43-0.12l-2.44-0.03l-6.99-0.09l0.01,13.89l0.05,94.33l-2.12,2.13L840.24,137.87
				z M148.55,154.97l3.83,3.17l1.54,0.05l1.54,0.05l1.86,0.06l1.67,0.12l1.66,0.19l1.66,0.26l1.64,0.33l1.63,0.4l1.61,0.47
				l1.59,0.54l1.57,0.6l1.54,0.67l1.51,0.73l1.48,0.79l1.45,0.85l1.41,0.91l1.37,0.97l1.22,0.94l1.09,0.97l1,1.04l0.92,1.11
				l0.83,1.18l0.29,0.48l-1.08,2.8l2.81,1.07v0l0.11,0.36l0.22,1.15l0.19,1.43l0.09,1.2l0,1.47l0.01,50.11l-2.13,2.13l2.13,2.13
				l0.01,55.55l-2.13,2.13l2.13,2.13l0.01,57.68l0,6.44l8.75,0.45l59.79,3.06l7.16,0.37l0-7.26l0.05-94.33l2.13-2.12l-2.12-2.13
				l0-4.62l0-0.33l2.13-2.12l-2.12-2.13l0.05-101.41l2.13-2.12l-2.12-2.13l0-4.95l2.13-2.12l-2.12-2.13l0.05-94.33l0.01-13.89
				l-6.99,0.09l-2.44,0.03l-9.43,0.12l-11.8-0.01l-17.51-0.2l-6.39-0.13l-6.39-0.13l-5.54-4.71l-5.93,15.98l-40.9,110.19l-2.61,7.02
				l0.44,0.31L148.55,154.97z M56.49,329.43l0,6.9l6.82,0l36.81,0l2.13,2.13l2.13-2.13l36.39,0l6.82,0l0-6.9l0-42.79l0-42.79l0-6.9
				h-6.82l-36.6,0l-2.13-2.13l-2.13,2.13l-36.6,0l-6.82,0l0,6.9l0,42.79L56.49,329.43z M549.31,158.51l2.13,2.13l2.13-2.13
				l266.41,0.02l6.82,0l0-6.9l0-39.11l0-39.11l0-6.9l-6.82,0l-266.41,0.01l-2.13-2.13l-2.13,2.13L282.9,66.49l-6.82,0l0,6.9l0,39.11
				l0,39.11l0,6.9l6.82,0L549.31,158.51z M723.5,319.14l0-6.88l0-38.98l0-38.99l0-6.88l-6.82,0l-158.57,0l-2.13-2.13l-2.13,2.13
				h-2.42l-2.42,0l-2.13-2.13l-2.13,2.13h0l-158.57,0.02l-6.82,0l0,6.89l0,38.98l0,38.99l0,6.88l6.82,0l158.57,0l2.13,2.13
				l2.13-2.13l2.42,0l2.42,0l2.13,2.13l2.13-2.13l158.57-0.02L723.5,319.14z"/>

				<path id="id:SUB_SECOND_ACCENT_1_00000008117452607230850440000002337048690124848050_" display="inline" fill="#68737A" d="
				M908.62,360.03l-1.32,0.07l-29.1,1.49l-30.42,1.56l0-337.65l1.84,0.02l9.43,0.12l11.8-0.01l7.35-0.09l10.16-0.12l6.39-0.13
				l6.39-0.13l5.54-4.71l1.96,5.27L908.62,360.03z"/>

				<path id="id:SUB_SECOND_ACCENT_2_00000118366614903441532990000016666620344089214386_" display="inline" fill="#F1582A" d="
				M908.62,360.03l-1.32,0.07l-29.1,1.49l0-336.05l10.16-0.12l6.39-0.13l6.39-0.13l5.54-4.71l1.96,5.27L908.62,360.03z"/>
		</g>
</svg>