<?xml version="1.0" encoding="utf-8"?>
<svg version="1.1"
	 xmlns="http://www.w3.org/2000/svg" xmlns:xlink="http://www.w3.org/1999/xlink" x="0px" y="0px" width="1104.07px"
	 height="761.93px" viewBox="0 0 1104.07 761.93" enable-background="new 0 0 1104.07 761.93" xml:space="preserve">>
<g id="id:skyline" display="inline">

				<path id="id:SUB_SECOND_BODY_COLOR_00000015315410898490545490000008695997510779268489_" display="inline" fill="#005B9B" d="
				M838.12,135.75l2.12-2.13l-0.05-94.33l-0.01-13.89l6.99,0.09l2.44,0.03l9.43,0.12l11.8-0.01l17.51-0.2l6.39-0.13l6.39-0.13
				l5.54-4.71l5.93,15.98l40.9,110.19l2.61,7.02l-0.44,0.31l-1.34,1.02l-3.83,3.17l-1.54,0.05l-1.54,0.05l-1.86,0.06l-1.67,0.12
				l-1.66,0.19l-1.66,0.26l-1.64,0.33l-1.63,0.4l-1.61,0.47l-1.59,0.54l-1.57,0.6l-1.54,0.67l-1.51,0.73l-1.48,0.79l-1.45,0.85
				l-1.41,0.91l-1.37,0.97l-1.22,0.94l-1.09,0.97l-1,1.04l-0.92,1.11l-0.83,1.18l-0.29,0.48l1.08,2.8l-2.81,1.07v0l-0.11,0.36
				l-0.22,1.15l-0.19,1.43l-0.09,1.2l0,1.47l-0.01,50.11l2.13,2.13l-2.13,2.13l-0.01,55.55l2.13,2.13l-2.13,2.13l-0.01,57.68l0,6.44
				l-8.75,0.45l-59.79,3.06l-7.16,0.37l0-7.26l-0.05-94.33l-2.13-2.12l2.12-2.13l0-4.62l0-0.33l-2.13-2.12l2.12-2.13l-0.05-101.41
				l-2.13-2.12l2.12-2.13l0-4.95L838.12,135.75z M148.55,154.97l3.83,3.17l1.54,0.05l1.54,0.05l1.86,0.06l1.67,0.12l1.66,0.19
				l1.66,0.26l1.64,0.33l1.63,0.4l1.61,0.47l1.59,0.54l1.57,0.6l1.54,0.67l1.51,0.73l1.48,0.79l1.45,0.85l1.41,0.91l1.37,0.97
				l1.22,0.94l1.09,0.97l1,1.04l0.92,1.11l0.83,1.18l0.29,0.48l-1.08,2.8l2.81,1.07v0l0.11,0.36l0.22,1.15l0.19,1.43l0.09,1.2
				l0,1.47l0.01,50.11l-2.13,2.13l2.13,2.13l0.01,55.55l-2.13,2.13l2.13,2.13l0.01,57.68l0,6.44l8.75,0.45l59.79,3.06l7.16,0.37
				l0-7.26l0.05-94.33l2.13-2.12l-2.12-2.13l0-4.62l0-0.33l2.13-2.12l-2.12-2.13l0.05-101.41l2.13-2.12l-2.12-2.13l0-4.95l2.13-2.12
				l-2.12-2.13l0.05-94.33l0.01-13.89l-6.99,0.09l-2.44,0.03l-9.43,0.12l-11.8-0.01l-17.51-0.2l-6.39-0.13l-6.39-0.13l-5.54-4.71
				l-5.93,15.98l-40.9,110.19l-2.61,7.02l0.44,0.31L148.55,154.97z M285.65,604.96l-4.36-1.41l-4.3-1.57l-4.25-1.72l-4.18-1.88
				l-4.11-2.03l-4.04-2.18l-3.96-2.32l-3.87-2.47l-3.78-2.6l-3.69-2.74l-3.59-2.87l-3.48-3l-3.38-3.13l-3.26-3.25l-3.1-3.32
				l-2.59-2.99l-2.42-3.05l-2.29-3.15l-2.16-3.24l-2.02-3.33l-1.88-3.42l-1.74-3.49l-1.59-3.56l-1.44-3.63l-1.29-3.69l-1.13-3.74
				l-0.97-3.78l-0.58-2.7l1.71-2.47l-2.47-1.71l-0.14-0.8l-0.5-3.88l-0.33-3.83l-0.19-7.76l2.07-2.18l-2.18-2.07l-2.98-122.32
				l-0.17-7.06l-6.97,0.34l-162.93,7.88l-2.23-2.02l-2.02,2.23l-4.37,0.21l0,6.58l0.05,94.11l0,0.22l-2.12,2.13l2.13,2.12l0,4.95
				l-2.12,2.13l2.13,2.12l0.05,101.41l-2.12,2.13l2.13,2.12l0,4.95l-2.12,2.13l2.13,2.12l0.05,94.33l0.01,13.6l6.4,0.19l13.24,0.4
				l13.19,0.5l13.18,0.6l13.18,0.71l13.17,0.81l13.17,0.92l13.16,1.02l13.15,1.12l12.64,1.18l12.62,1.28l12.61,1.39l12.6,1.49
				l12.59,1.59l12.58,1.7l12.56,1.8l12.6,1.91l11.15,1.69l-2.09-14.27l50.09-106.59l3.48-7.4l-7.79-2.21L285.65,604.96z
				 M810.66,543.42l1.75-2.7l1.9-2.75l2-2.71l2.05-2.61l2.14-2.57l2.21-2.5l2.28-2.44l2.37-2.38l2.41-2.28l2.49-2.22l2.55-2.14
				l2.61-2.07l2.68-1.99l2.73-1.9l2.79-1.82l2.84-1.74l2.98-1.71l5.98-3.44l-3.45-6.03l-3.06-5.36l-2.96-5.37l-2.88-5.41l-2.79-5.46
				l-2.71-5.5l-2.62-5.54l-2.54-5.58l-2.46-5.64l-3.37-8.01l-3.27-8.02l-3.18-8.06l-3.08-8.06l-3-8.13l-2.92-8.16l-2.83-8.19
				l-2.34-7.05l0.31-7.43l0.34-6.58l-9.42,1.33l-28.38,4.02l-28.36,3.77l-28.38,3.53l-28.42,3.28l-7.3,0.78l-14.71,1.39l-14.7,1.15
				l-14.73,0.91l-7.38,0.35l-4.58,0.22l-0.66-0.8l-5.16-6.26l-5.32,15.1l-38.85,110.21l-2.27,0l-0.01,29.57l-2.13,2.13l2.13,2.13
				l-0.01,55.38l-2.13,2.13l2.13,2.13l-0.01,55.38l-2.13,2.13l2.13,2.13l-0.01,57.51l0,6.91l7.26,0.36l2.13,2.12l2.12-2.13
				l206.38-8.29l6.55-0.26v-6.63V609.33l2.17-2.08l-2.08-2.17l0.68-16.57l0.36-3.04l0.47-3.19l0.57-3.17l0.67-3.17l0.76-3.1
				l0.86-3.1l0.95-3.07l1.04-3.04l1.14-3.01l1.23-2.97l1.32-2.93l1.41-2.89l1.51-2.87l1.57-2.77L810.66,543.42z M1086.34,498.47
				l-2.12-2.13l0-4.95l2.13-2.12l-2.12-2.13l0-0.22l0.05-94.11l0-6.58l-4.37-0.21l-2.02-2.23l-2.23,2.02l-162.93-7.88l-6.97-0.34
				l-0.17,7.06l-2.98,122.32l-2.18,2.07l2.07,2.18l-0.19,7.76l-0.33,3.83l-0.5,3.88l-0.14,0.8l-2.47,1.71l1.71,2.47l-0.58,2.7
				l-0.97,3.78l-1.13,3.74l-1.29,3.69l-1.44,3.63l-1.59,3.56l-1.74,3.49l-1.88,3.42l-2.02,3.33l-2.16,3.24l-2.29,3.15l-2.42,3.05
				l-2.59,2.99l-3.1,3.32l-3.26,3.25l-3.38,3.13l-3.48,3l-3.59,2.87l-3.69,2.74l-3.78,2.6l-3.87,2.47l-3.96,2.32l-4.04,2.18
				l-4.11,2.03l-4.18,1.88l-4.25,1.72l-4.3,1.57l-4.36,1.41l-4.52,1.28l-7.79,2.21l3.48,7.4l50.09,106.59l-2.09,14.27l11.15-1.69
				l12.6-1.91l12.56-1.8l12.58-1.7l12.59-1.59l12.6-1.49l12.61-1.39l12.62-1.28l12.64-1.18l13.15-1.12l13.16-1.02l13.17-0.92
				l13.17-0.81l13.18-0.71l13.18-0.6l13.19-0.5l13.24-0.4l6.4-0.19l0.01-13.6l0.05-94.33l2.13-2.12l-2.12-2.13l0-4.95l2.13-2.12
				l-2.12-2.13l0.05-101.41L1086.34,498.47z M545.13,661.68l-0.01-55.38l2.13-2.13l-2.13-2.13l-0.01-55.38l2.13-2.13l-2.13-2.13
				l-0.01-29.57l-2.27,0l-38.85-110.21l-5.32-15.1l-5.16,6.26l-0.66,0.8l-4.58-0.22l-7.38-0.35l-14.73-0.91l-14.7-1.15l-14.71-1.39
				l-7.3-0.78l-28.42-3.28l-28.38-3.53l-28.36-3.77l-28.38-4.02l-9.42-1.33l0.34,6.58l0.31,7.43l-2.34,7.05l-2.83,8.19l-2.92,8.16
				l-3,8.13l-3.08,8.06l-3.18,8.06l-3.27,8.02l-3.37,8.01l-2.46,5.64l-2.54,5.58l-2.62,5.54l-2.71,5.5l-2.79,5.46l-2.88,5.41
				l-2.96,5.37l-3.06,5.36l-3.45,6.03l5.98,3.44l2.98,1.71l2.84,1.74l2.79,1.82l2.73,1.9l2.68,1.99l2.61,2.07l2.55,2.14l2.49,2.22
				l2.41,2.28l2.37,2.38l2.28,2.44l2.21,2.5l2.14,2.57l2.05,2.61l2,2.71l1.9,2.75l1.75,2.7l1.66,2.75l1.57,2.77l1.51,2.87l1.41,2.89
				l1.32,2.93l1.23,2.97l1.14,3.01l1.04,3.04l0.95,3.07l0.86,3.1l0.76,3.1l0.67,3.17l0.57,3.17l0.47,3.19l0.36,3.04l0.68,16.57
				l-2.08,2.17l2.17,2.08v106.18v6.63l6.55,0.26l206.38,8.29l2.12,2.13l2.13-2.12l7.26-0.36l0-6.91l-0.01-57.51l2.13-2.13
				L545.13,661.68z M56.49,329.43l0,6.9l6.82,0l36.81,0l2.13,2.13l2.13-2.13l36.39,0l6.82,0l0-6.9l0-42.79l0-42.79l0-6.9h-6.82
				l-36.6,0l-2.13-2.13l-2.13,2.13l-36.6,0l-6.82,0l0,6.9l0,42.79L56.49,329.43z M549.31,158.51l2.13,2.13l2.13-2.13l266.41,0.02
				l6.82,0l0-6.9l0-39.11l0-39.11l0-6.9l-6.82,0l-266.41,0.01l-2.13-2.13l-2.13,2.13L282.9,66.49l-6.82,0l0,6.9l0,39.11l0,39.11
				l0,6.9l6.82,0L549.31,158.51z M723.5,319.14l0-6.88l0-38.98l0-38.99l0-6.88l-6.82,0l-158.57,0l-2.13-2.13l-2.13,2.13h-2.42
				l-2.42,0l-2.13-2.13l-2.13,2.13h0l-158.57,0.02l-6.82,0l0,6.89l0,38.98l0,38.99l0,6.88l6.82,0l158.57,0l2.13,2.13l2.13-2.13
				l2.42,0l2.42,0l2.13,2.13l2.13-2.13l158.57-0.02L723.5,319.14z"/>
			<g id="id:SUB_FIRST_ACCENT_1_00000046330525529100390750000006173132498928191154_" display="inline">

					<polygon id="id:SUB_FIRST_ACCENT_1_00000084510295677138120410000000325183449142419329_" opacity="0.7" fill="#68737A" points="
					862.39,729.42 860.3,743.69 871.45,742 884.06,740.09 896.62,738.3 909.2,736.6 921.79,735.01 934.39,733.52 947,732.13
					959.63,730.85 972.26,729.67 985.41,728.54 998.57,727.53 1011.73,726.61 1024.91,725.8 1038.08,725.09 1051.27,724.48
					1064.45,723.98 1077.7,723.58 1084.1,723.39 1084.11,709.79 1084.12,692.55 845.06,692.55 				"/>

					<polygon id="id:SUB_FIRST_ACCENT_1_00000088097655116298346800000014321783591158236815_" opacity="0.8" fill="#68737A" points="
					845.06,692.55 1084.12,692.55 1084.12,678.95 838.67,678.95 				"/>

					<rect id="id:SUB_FIRST_ACCENT_1_00000123419986074428327790000012971303607003055294_" x="845.06" y="692.55" opacity="0.7" fill="#68737A" width="239.06" height="0"/>

					<rect id="id:SUB_FIRST_ACCENT_1_00000051358112673451238310000006927703090519583905_" x="845.06" y="692.55" opacity="0.8" fill="#68737A" width="239.06" height="0"/>

					<polygon id="id:SUB_FIRST_ACCENT_1_00000161605936702041485020000015117017186874967471_" opacity="0.9" fill="#68737A" points="
					838.67,678.95 1084.12,678.95 1084.13,665.34 832.28,665.34 				"/>
				<polygon id="id:SUB_FIRST_ACCENT_1_00000077315046057224081670000011525157947116969351_" fill="#68737A" points="
					832.28,665.34 1084.13,665.34 1084.14,651.74 825.89,651.74 				"/>

					<polygon id="id:SUB_FIRST_ACCENT_1_00000062873624868217251870000003262340033376233399_" opacity="0.7" fill="#68737A" points="
					22.68,702.82 22.68,716.42 29.09,716.61 42.33,717.01 55.52,717.51 68.7,718.12 81.88,718.83 95.05,719.64 108.22,720.55
					121.38,721.57 134.52,722.7 147.16,723.88 159.78,725.16 172.4,726.55 185,728.04 197.59,729.63 210.17,731.32 222.73,733.12
					235.33,735.03 246.49,736.72 244.4,722.45 261.72,685.58 22.67,685.58 				"/>

					<polygon id="id:SUB_FIRST_ACCENT_1_00000029027948827951890150000016838009721630454189_" opacity="0.8" fill="#68737A" points="
					22.67,685.58 261.72,685.58 268.12,671.97 22.66,671.97 				"/>

					<rect id="id:SUB_FIRST_ACCENT_1_00000106114885157839590270000010148761891883316866_" x="22.67" y="685.58" opacity="0.7" fill="#68737A" width="239.06" height="0"/>

					<rect id="id:SUB_FIRST_ACCENT_1_00000032626737686253909220000006312527045019198856_" x="22.67" y="685.58" opacity="0.8" fill="#68737A" width="239.06" height="0"/>

					<polygon id="id:SUB_FIRST_ACCENT_1_00000008844898151115042680000005663517742416143255_" opacity="0.9" fill="#68737A" points="
					22.66,671.97 268.12,671.97 274.51,658.37 22.66,658.37 				"/>
				<polygon id="id:SUB_FIRST_ACCENT_1_00000014627403605030102330000000084020357625992381_" fill="#68737A" points="
					22.66,658.37 274.51,658.37 280.9,644.77 22.65,644.77 				"/>

					<polygon id="id:SUB_FIRST_ACCENT_1_00000100372290427011340770000004055198989110190498_" opacity="0.7" fill="#68737A" points="
					503.99,402.63 498.67,387.54 493.51,393.8 492.85,394.6 488.27,394.39 480.89,394.03 466.15,393.13 451.45,391.98
					436.74,390.58 429.45,389.8 401.02,386.52 372.64,382.99 344.28,379.22 315.9,375.2 306.48,373.87 306.83,380.45 307.14,387.88
					304.8,394.93 301.97,403.13 299.05,411.29 296.05,419.42 293.07,427.22 512.66,427.22 				"/>

					<polygon id="id:SUB_FIRST_ACCENT_1_00000088851650546501020140000006849114178185563044_" opacity="0.8" fill="#68737A" points="
					512.66,427.22 293.07,427.22 292.97,427.48 289.79,435.54 287.63,440.82 517.45,440.82 				"/>

					<polygon id="id:SUB_FIRST_ACCENT_1_00000080925185009974921010000010238096556582649535_" opacity="0.9" fill="#68737A" points="
					517.45,440.82 287.63,440.82 286.52,443.56 283.15,451.57 281.9,454.43 522.25,454.43 				"/>
				<polygon id="id:SUB_FIRST_ACCENT_1_00000160881852122827402400000004666666044344094103_" fill="#68737A" points="
					522.25,454.43 281.9,454.43 280.69,457.2 278.15,462.79 275.67,468.03 527.04,468.03 				"/>

					<polygon id="id:SUB_FIRST_ACCENT_1_00000086651895205482001910000008325662844391083180_" opacity="0.7" fill="#68737A" points="
					819.04,419.42 816.04,411.29 813.12,403.13 810.3,394.93 807.95,387.88 808.27,380.45 808.61,373.87 799.19,375.2
					770.82,379.22 742.45,382.99 714.07,386.52 685.65,389.8 678.35,390.58 663.64,391.98 648.94,393.13 634.2,394.03
					626.82,394.39 622.24,394.6 621.58,393.8 616.43,387.54 611.1,402.63 602.44,427.22 822.02,427.22 				"/>

					<polygon id="id:SUB_FIRST_ACCENT_1_00000083073160003129414730000004825048488977882263_" opacity="0.8" fill="#68737A" points="
					825.3,435.54 822.12,427.48 822.02,427.22 602.44,427.22 597.64,440.82 827.46,440.82 				"/>

					<polygon id="id:SUB_FIRST_ACCENT_1_00000005250462931880020320000015751941673692068226_" opacity="0.9" fill="#68737A" points="
					831.94,451.57 828.58,443.56 827.46,440.82 597.64,440.82 592.85,454.43 833.19,454.43 				"/>
				<polygon id="id:SUB_FIRST_ACCENT_1_00000163766912754454314750000003032353637961306760_" fill="#68737A" points="
					836.94,462.79 834.4,457.2 833.19,454.43 592.85,454.43 588.05,468.03 839.42,468.03 				"/>

					<polygon id="id:SUB_FIRST_ACCENT_1_00000124164094811293778640000004788548789006715290_" opacity="0.7" fill="#68737A" points="
					262.67,56.53 262.67,39.29 262.68,25.4 255.69,25.49 253.25,25.51 243.82,25.63 232.02,25.62 214.51,25.42 208.12,25.29
					201.74,25.15 196.2,20.45 190.27,36.43 182.81,56.53 218.8,56.53 				"/>

					<polygon id="id:SUB_FIRST_ACCENT_1_00000018949745271974300810000014028645802004774077_" opacity="0.8" fill="#68737A" points="
					262.67,56.53 218.8,56.53 182.81,56.53 177.76,70.14 262.66,70.14 				"/>

					<polygon id="id:SUB_FIRST_ACCENT_1_00000073693080282804054630000014812241386673136541_" opacity="0.7" fill="#68737A" points="
					262.67,56.53 262.67,56.53 218.8,56.53 				"/>

					<polygon id="id:SUB_FIRST_ACCENT_1_00000155104676700218953790000007301683913679050669_" opacity="0.8" fill="#68737A" points="
					262.67,56.53 262.67,56.53 218.8,56.53 				"/>

					<polygon id="id:SUB_FIRST_ACCENT_1_00000130616723662860911750000004357868017804659367_" opacity="0.9" fill="#68737A" points="
					262.66,70.14 177.76,70.14 172.71,83.74 262.65,83.74 				"/>
				<polygon id="id:SUB_FIRST_ACCENT_1_00000092416945681081021370000000068441792999893428_" fill="#68737A" points="
					262.65,83.74 172.71,83.74 167.66,97.34 262.64,97.34 				"/>

					<polygon id="id:SUB_FIRST_ACCENT_1_00000162347868719003630760000006585791503177660083_" opacity="0.7" fill="#68737A" points="
					920.06,56.53 912.6,36.43 906.66,20.45 901.13,25.15 894.74,25.29 888.36,25.42 870.85,25.62 859.05,25.63 849.62,25.51
					847.18,25.49 840.19,25.4 840.19,39.29 840.2,56.53 884.07,56.53 				"/>

					<polygon id="id:SUB_FIRST_ACCENT_1_00000063619353134489438290000006537123942351823800_" opacity="0.8" fill="#68737A" points="
					920.06,56.53 884.07,56.53 840.2,56.53 840.21,70.14 925.11,70.14 				"/>

					<polygon id="id:SUB_FIRST_ACCENT_1_00000163775482185915057870000004870556679283618959_" opacity="0.7" fill="#68737A" points="
					840.2,56.53 840.2,56.53 884.07,56.53 				"/>

					<polygon id="id:SUB_FIRST_ACCENT_1_00000134952751797815076190000015599067292604447384_" opacity="0.8" fill="#68737A" points="
					840.2,56.53 840.2,56.53 884.07,56.53 				"/>

					<polygon id="id:SUB_FIRST_ACCENT_1_00000013885491969908766920000016109218963384470960_" opacity="0.9" fill="#68737A" points="
					925.11,70.14 840.21,70.14 840.22,83.74 930.16,83.74 				"/>
				<polygon id="id:SUB_FIRST_ACCENT_1_00000000915102410619782410000000627986803926687109_" fill="#68737A" points="
					930.16,83.74 840.22,83.74 840.22,97.34 935.21,97.34 				"/>
			</g>
			<g id="id:SUB_FIRST_ACCENT_2_00000007423882213295253520000003519249445613541272_" display="inline">
				<polygon id="id:SUB_FIRST_ACCENT_2_00000155129513150342828310000005241724606333665435_" fill="#F1582A" points="
					825.89,651.74 1084.14,651.74 1084.14,638.14 819.49,638.14 				"/>

					<polygon id="id:SUB_FIRST_ACCENT_2_00000147177641979452910770000001727719095310072456_" opacity="0.9" fill="#F1582A" points="
					819.49,638.14 1084.14,638.14 1084.15,624.53 813.1,624.53 				"/>

					<polygon id="id:SUB_FIRST_ACCENT_2_00000013906871052913575280000017146613337850237361_" opacity="0.8" fill="#F1582A" points="
					821.14,611.94 816.61,613.22 808.82,615.43 812.3,622.83 813.1,624.53 1084.15,624.53 1084.16,615.46 1086.28,613.34
					1084.16,611.21 1084.16,610.93 824.24,610.93 				"/>

					<polygon id="id:SUB_FIRST_ACCENT_2_00000000214989213560598180000004968110715147726223_" opacity="0.7" fill="#F1582A" points="
					850.34,598.83 846.38,601.15 842.34,603.33 838.23,605.35 834.04,607.23 829.8,608.96 825.49,610.52 824.24,610.93
					1084.16,610.93 1084.16,606.26 1086.29,604.13 1084.16,602.01 1084.16,597.33 852.69,597.33 				"/>
				<polygon id="id:SUB_FIRST_ACCENT_2_00000156564785244391732350000005153492490884696997_" fill="#F1582A" points="
					22.65,644.77 280.9,644.77 287.29,631.17 22.64,631.17 				"/>

					<polygon id="id:SUB_FIRST_ACCENT_2_00000078015186598039681270000008173302764319893653_" opacity="0.9" fill="#F1582A" points="
					22.64,631.17 287.29,631.17 293.69,617.56 22.63,617.56 				"/>

					<polygon id="id:SUB_FIRST_ACCENT_2_00000080897687347249891210000011123949238941634476_" opacity="0.8" fill="#F1582A" points="
					22.63,604.24 20.5,606.36 22.63,608.49 22.63,617.56 293.69,617.56 294.49,615.86 297.96,608.46 290.17,606.25 285.65,604.96
					282.55,603.96 22.63,603.96 				"/>

					<polygon id="id:SUB_FIRST_ACCENT_2_00000098218645542927176180000012929194977642232226_" opacity="0.7" fill="#F1582A" points="
					22.62,595.03 20.5,597.16 22.63,599.29 22.63,603.96 282.55,603.96 281.29,603.55 276.99,601.98 272.74,600.26 268.56,598.38
					264.45,596.35 260.41,594.18 256.45,591.86 254.1,590.36 22.62,590.36 				"/>
				<polygon id="id:SUB_FIRST_ACCENT_2_00000026852414501852411710000000562917187600173698_" fill="#F1582A" points="
					527.04,468.03 275.67,468.03 275.53,468.33 272.82,473.83 270.02,479.29 268.78,481.63 531.84,481.63 				"/>

					<polygon id="id:SUB_FIRST_ACCENT_2_00000069357905570205224050000000186831577531314346_" opacity="0.9" fill="#F1582A" points="
					531.84,481.63 268.78,481.63 267.15,484.7 264.19,490.06 261.23,495.23 536.63,495.23 				"/>

					<polygon id="id:SUB_FIRST_ACCENT_2_00000002350392028102901340000002483458605867785402_" opacity="0.8" fill="#F1582A" points="
					536.63,495.23 261.23,495.23 261.12,495.42 257.67,501.45 263.65,504.89 266.64,506.6 269.48,508.34 270.24,508.84
					541.43,508.84 				"/>

					<polygon id="id:SUB_FIRST_ACCENT_2_00000006703252420938183160000012032555024544321191_" opacity="0.7" fill="#F1582A" points="
					545.11,512.84 542.84,512.84 541.43,508.84 270.24,508.84 272.26,510.16 274.99,512.07 277.67,514.06 280.28,516.12
					282.83,518.27 285.32,520.49 287.38,522.44 545.11,522.44 				"/>
				<polygon id="id:SUB_FIRST_ACCENT_2_00000176012818811382277780000000076277475981209505_" fill="#F1582A" points="
					845.07,479.29 842.27,473.83 839.56,468.33 839.42,468.03 588.05,468.03 583.25,481.63 846.31,481.63 				"/>

					<polygon id="id:SUB_FIRST_ACCENT_2_00000160186604178307451900000004511119247265274556_" opacity="0.9" fill="#F1582A" points="
					850.9,490.06 847.94,484.7 846.31,481.63 583.25,481.63 578.46,495.23 853.86,495.23 				"/>

					<polygon id="id:SUB_FIRST_ACCENT_2_00000174597784792312234510000013742512431316263100_" opacity="0.8" fill="#F1582A" points="
					845.61,508.34 848.45,506.6 851.44,504.89 857.42,501.45 853.97,495.42 853.86,495.23 578.46,495.23 573.66,508.84
					844.85,508.84 				"/>

					<polygon id="id:SUB_FIRST_ACCENT_2_00000067212362476192983820000012862749185084576190_" opacity="0.7" fill="#F1582A" points="
					829.77,520.49 832.26,518.27 834.81,516.12 837.42,514.06 840.1,512.07 842.83,510.16 844.85,508.84 573.66,508.84
					572.25,512.84 569.99,512.84 569.98,522.44 827.71,522.44 				"/>
				<polygon id="id:SUB_FIRST_ACCENT_2_00000031184994827605605460000011464578812462256286_" fill="#F1582A" points="
					262.64,97.34 167.66,97.34 162.61,110.94 262.64,110.94 				"/>

					<polygon id="id:SUB_FIRST_ACCENT_2_00000155849456822237215190000000493052992315602844_" opacity="0.9" fill="#F1582A" points="
					262.64,110.94 162.61,110.94 157.56,124.55 262.63,124.55 				"/>

					<polygon id="id:SUB_FIRST_ACCENT_2_00000172440328626463836530000017069224925418744457_" opacity="0.8" fill="#F1582A" points="
					262.62,137.87 264.75,135.75 262.63,133.62 262.63,124.55 157.56,124.55 152.51,138.15 262.62,138.15 				"/>

					<polygon id="id:SUB_FIRST_ACCENT_2_00000183948999060838710480000002921932437031684779_" opacity="0.7" fill="#F1582A" points="
					262.62,147.08 264.75,144.95 262.62,142.82 262.62,138.15 152.51,138.15 149.37,146.62 147.46,151.75 262.62,151.75 				"/>
				<polygon id="id:SUB_FIRST_ACCENT_2_00000167373432590986095120000007911893622090472087_" fill="#F1582A" points="
					935.21,97.34 840.22,97.34 840.23,110.94 940.26,110.94 				"/>

					<polygon id="id:SUB_FIRST_ACCENT_2_00000109726878757689633690000014813139051017681820_" opacity="0.9" fill="#F1582A" points="
					940.26,110.94 840.23,110.94 840.24,124.55 945.31,124.55 				"/>

					<polygon id="id:SUB_FIRST_ACCENT_2_00000142140851564804887240000002561047949312990342_" opacity="0.8" fill="#F1582A" points="
					945.31,124.55 840.24,124.55 840.24,133.62 838.12,135.75 840.24,137.87 840.24,138.15 950.36,138.15 				"/>

					<polygon id="id:SUB_FIRST_ACCENT_2_00000155842965470573643290000004130186060041044370_" opacity="0.7" fill="#F1582A" points="
					953.5,146.62 950.36,138.15 840.24,138.15 840.25,142.82 838.12,144.95 840.25,147.08 840.25,151.75 955.41,151.75 				"/>
			</g>
		</g>
</svg>